<?xml version="1.0" standalone="no"?>
<!DOCTYPE svg PUBLIC "-//W3C//DTD SVG 1.1//EN" "http://www.w3.org/Graphics/SVG/1.1/DTD/svg11.dtd" >
<svg xmlns="http://www.w3.org/2000/svg" xmlns:xlink="http://www.w3.org/1999/xlink" version="1.1">
<metadata>
Created by FontForge 20150318 at Tue May 12 12:41:09 2015
 By uniteet7
Copyright (c) House Industries/Brand Design Co. Inc,, 2003. All rights reserved.
</metadata>
<defs>
<font id="chaletbook_regular" horiz-adv-x="546" >
  <font-face 
    font-family="chaletbook_regular"
    font-weight="400"
    font-stretch="normal"
    units-per-em="1000"
    panose-1="2 0 0 0 0 0 0 0 0 0"
    ascent="800"
    descent="-200"
    x-height="515"
    cap-height="680"
    bbox="-80 -285 1479 1142"
    underline-thickness="8"
    underline-position="-51"
    unicode-range="U+0020-FB04"
  />
<missing-glyph horiz-adv-x="500" 
 />
    <glyph glyph-name="ff" unicode="ff" horiz-adv-x="613" 
d="M100 439h-75v76h75v22q0 50 14 86.5t38 60.5t57 36t72 12q5 0 10 -0.5t10 -1.5t11 -1v-73q-6 0 -10 1q-5 0 -9 0.5t-9 0.5q-53 0 -77.5 -29t-24.5 -92v-22h203v35q0 50 13.5 86.5t38 60.5t58 36t73.5 12q5 0 11 -0.5t11 -1.5q6 -1 12 -1v-73q-6 0 -11 1q-5 0 -10 0.5
t-10 0.5q-54 0 -79 -29t-25 -92v-35h128v-76h-128v-439h-82v439h-203v-439h-82v439z" />
    <glyph glyph-name="fi" unicode="fi" 
d="M100 439h-75v76h75v35q0 50 13.5 86.5t37 60.5t56 36t70.5 12q5 0 10 -0.5t10 -1.5t10 -1v-73q-5 0 -9 1q-4 0 -8.5 0.5t-9.5 0.5q-51 0 -74.5 -29t-23.5 -92v-35h285v-515h-82v439h-203v-439h-82v439zM381 714h90v-101h-90v101z" />
    <glyph glyph-name="fl" unicode="fl" horiz-adv-x="547" 
d="M100 439h-75v76h75v35q0 50 13 86.5t36.5 60.5t55.5 36t70 12q9 0 19 -2q4 -1 9 -1v-73q-4 0 -8 1q-4 0 -8 0.5t-9 0.5q-51 0 -73.5 -29t-22.5 -92v-35h121v-76h-121v-439h-82v439zM385 744h82v-744h-82v744z" />
    <glyph glyph-name="ffi" unicode="ffi" horiz-adv-x="831" 
d="M100 439h-75v76h75v22q0 50 14 86.5t38 60.5t57 36t72 12q5 0 10 -0.5t10 -1.5t11 -1v-73q-6 0 -10 1q-5 0 -9 0.5t-9 0.5q-53 0 -77.5 -29t-24.5 -92v-22h203v35q0 50 13.5 86.5t37 60.5t56 36t70.5 12q5 0 10 -0.5t10 -1.5t10 -1v-73q-5 0 -9 1q-4 0 -8.5 0.5t-9.5 0.5
q-51 0 -74.5 -29t-23.5 -92v-35h285v-515h-82v439h-203v-439h-82v439h-203v-439h-82v439zM666 714h90v-101h-90v101z" />
    <glyph glyph-name="ffl" unicode="ffl" horiz-adv-x="832" 
d="M100 439h-75v76h75v22q0 50 14 86.5t38 60.5t57 36t72 12q5 0 10 -0.5t10 -1.5t11 -1v-73q-6 0 -10 1q-5 0 -9 0.5t-9 0.5q-53 0 -77.5 -29t-24.5 -92v-22h203v35q0 50 13 86.5t36.5 60.5t55.5 36t70 12q9 0 19 -2q4 -1 9 -1v-73q-4 0 -8 1q-4 0 -8 0.5t-9 0.5
q-51 0 -73.5 -29t-22.5 -92v-35h121v-76h-121v-439h-82v439h-203v-439h-82v439zM670 744h82v-744h-82v744z" />
    <glyph glyph-name=".notdef" horiz-adv-x="500" 
 />
    <glyph glyph-name=".null" horiz-adv-x="0" 
 />
    <glyph glyph-name="nonmarkingreturn" horiz-adv-x="295" 
 />
    <glyph glyph-name="space" unicode=" " horiz-adv-x="295" 
 />
    <glyph glyph-name="space" unicode="&#xa0;" horiz-adv-x="295" 
 />
    <glyph glyph-name="exclam" unicode="!" horiz-adv-x="271" 
d="M88 680h95l-12 -477h-71zM90 107h91v-107h-91v107z" />
    <glyph glyph-name="quotedbl" unicode="&#x22;" horiz-adv-x="367" 
d="M220 680h95l-13 -239h-69zM52 680h95l-13 -239h-69z" />
    <glyph glyph-name="numbersign" unicode="#" horiz-adv-x="558" 
d="M110 130l18 129h-100l10 76h101l19 137h-99l10 76h100l19 132h75l-19 -132h109l19 132h75l-19 -132h102l-10 -76h-103l-19 -137h101l-10 -76h-102l-18 -129h-75l18 129h-109l-18 -129h-75zM214 335h109l19 137h-109z" />
    <glyph glyph-name="dollar" unicode="$" horiz-adv-x="528" 
d="M243 26q-44 3 -82 19t-65.5 42.5t-44 62t-17.5 77.5h84q2 -53 36.5 -87t88.5 -41v216q-45 11 -80 25t-59.5 35t-37 50.5t-12.5 70.5q0 75 52 118.5t137 46.5v56h54v-59q83 -11 126.5 -60.5t48.5 -119.5h-84q-3 37 -25 65.5t-66 38.5v-192q46 -11 81.5 -25.5t59.5 -36
t36.5 -52t12.5 -74.5q0 -80 -52.5 -124.5t-137.5 -51.5v-108h-54v108zM403 201q0 18 -4.5 32.5t-16.5 26.5t-32.5 22.5t-52.5 19.5v-203q51 6 78.5 33t27.5 69zM139 497q0 -17 4.5 -30.5t16 -25t31.5 -20.5t52 -18v183q-51 -3 -77.5 -26t-26.5 -63z" />
    <glyph glyph-name="percent" unicode="%" horiz-adv-x="786" 
d="M191 361q-33 0 -62.5 13t-51 35t-34.5 52t-13 64t13 64.5t34.5 52.5t51 35t62.5 13t62 -13t50.5 -35t34.5 -52.5t13 -64.5t-13 -64t-34.5 -52t-50.5 -35t-62 -13zM596 -9q-33 0 -62.5 13t-51 35t-34.5 52t-13 64t13 64.5t34.5 52.5t51 35t62.5 13t62 -13t50.5 -35
t34.5 -52.5t13 -64.5t-13 -64t-34.5 -52t-50.5 -35t-62 -13zM545 680h78l-383 -680h-77zM278 525q0 19 -6.5 36.5t-18.5 31t-28 21t-34 7.5t-34 -7.5t-28 -21t-19 -31t-7 -36.5q0 -20 7 -37t19 -30t28 -20.5t34 -7.5q37 0 62 28t25 67zM683 155q0 19 -6.5 36.5t-18.5 31
t-28 21t-34 7.5t-34 -7.5t-28 -21t-19 -31t-7 -36.5q0 -20 7 -37t19 -30t28 -20.5t34 -7.5q37 0 62 28t25 67z" />
    <glyph glyph-name="ampersand" unicode="&#x26;" horiz-adv-x="628" 
d="M283 -12q-47 0 -89.5 14t-75 40.5t-52 64.5t-19.5 86q0 66 42.5 118.5t105.5 88.5l-13 16q-53 65 -53 130q0 32 12 59t33.5 46.5t50 30.5t61.5 11t61 -10t48.5 -29t32 -45t11.5 -59q0 -53 -29.5 -93t-97.5 -75l152 -190q6 19 9.5 40t3.5 44v76h79v-76q0 -84 -38 -151
l101 -125h-101l-49 60q-35 -34 -82 -53t-104 -19zM283 64q41 0 76.5 14t61.5 41l-182 226q-33 -20 -53 -39t-30.5 -38t-14 -37.5t-3.5 -37.5q0 -60 39.5 -94.5t105.5 -34.5zM213 546q0 -40 30 -77l26 -33q27 14 44 28.5t26.5 29t12.5 28.5t3 26q0 32 -19 52t-51 20
q-30 0 -51 -20.5t-21 -53.5z" />
    <glyph glyph-name="quotesingle" unicode="'" horiz-adv-x="199" 
d="M52 680h95l-13 -239h-69z" />
    <glyph glyph-name="parenleft" unicode="(" horiz-adv-x="319" 
d="M227 -122q-37 39 -67 90.5t-51.5 110.5t-33.5 123t-12 129q0 64 12 128.5t33.5 123.5t51.5 110.5t67 90.5h73q-69 -94 -107 -209t-38 -244t38 -244.5t107 -208.5h-73v0z" />
    <glyph glyph-name="parenright" unicode=")" horiz-adv-x="319" 
d="M19 -122q69 93 107 208.5t38 244.5t-38 244t-107 209h73q37 -39 67 -90.5t51.5 -110.5t33.5 -123.5t12 -128.5q0 -65 -12 -129t-33.5 -123t-51.5 -110.5t-67 -90.5h-73v0z" />
    <glyph glyph-name="asterisk" unicode="*" horiz-adv-x="351" 
d="M80 445l50 86l-98 -2v58l98 -2l-50 87l48 28l47 -88l47 88l50 -28l-52 -87l98 2v-57l-98 1l52 -86l-50 -29l-46 89l-48 -89z" />
    <glyph glyph-name="plus" unicode="+" horiz-adv-x="498" 
d="M211 265h-165v72h165v168h76v-168h165v-72h-165v-168h-76v168z" />
    <glyph glyph-name="comma" unicode="," horiz-adv-x="221" 
d="M54 -89q24 2 39.5 15t15.5 42v32h-50v109h103v-141q0 -29 -10 -49t-25.5 -33t-34.5 -19.5t-38 -7.5v52z" />
    <glyph glyph-name="hyphen" unicode="-" horiz-adv-x="342" 
d="M50 317h243v-82h-243v82z" />
    <glyph glyph-name="hyphen" unicode="&#xad;" horiz-adv-x="342" 
d="M50 317h243v-82h-243v82z" />
    <glyph glyph-name="period" unicode="." horiz-adv-x="221" 
d="M59 109h103v-109h-103v109z" />
    <glyph glyph-name="slash" unicode="/" horiz-adv-x="351" 
d="M267 784h82l-269 -906h-82z" />
    <glyph glyph-name="zero" unicode="0" horiz-adv-x="629" 
d="M315 -12q-55 0 -103.5 22t-84.5 66.5t-57 111t-21 155.5t21 154.5t57 109t84.5 65t103.5 21.5t103 -21.5t84 -65t57 -109t21 -154.5t-21 -155.5t-57 -111t-84 -66.5t-103 -22zM315 65q85 0 129.5 71.5t44.5 206.5q0 134 -44.5 203.5t-129.5 69.5q-84 0 -129.5 -69.5
t-45.5 -203.5q0 -135 45.5 -206.5t129.5 -71.5z" />
    <glyph glyph-name="one" unicode="1" horiz-adv-x="335" 
d="M146 543h-112v65q56 0 85 16t34 56h81v-680h-88v543z" />
    <glyph glyph-name="two" unicode="2" horiz-adv-x="555" 
d="M44 40q0 57 17.5 99t47 74.5t67 58t78.5 48.5q49 27 79 49t47 42.5t23 42t6 47.5q0 21 -5.5 41.5t-20 37t-39 26.5t-62.5 10q-36 0 -62 -11.5t-43.5 -31.5t-26.5 -47.5t-10 -60.5h-83q0 48 15 89.5t43.5 72t70.5 48.5t96 18q51 0 91.5 -14.5t68.5 -40.5t43 -61t15 -76
q0 -47 -14.5 -81.5t-42 -63t-66 -53.5t-86.5 -52q-37 -21 -65.5 -40t-49 -39.5t-32 -43t-13.5 -49.5h363v-79h-450v40z" />
    <glyph glyph-name="three" unicode="3" horiz-adv-x="558" 
d="M279 -12q-59 0 -103 17t-74 46t-46 66t-19 78h84q4 -26 13.5 -49.5t28 -41.5t47 -28.5t69.5 -10.5q67 0 104 37t37 91q0 26 -6 50t-23 42t-48 29t-81 11h-29v77h10q46 0 76 8t47 22.5t23.5 34.5t6.5 44q0 49 -30 77t-90 28q-37 0 -62.5 -10.5t-42 -27.5t-24.5 -40.5
t-9 -48.5h-82q0 45 16 82.5t45 64.5t69.5 42t88.5 15q49 0 88 -14t66 -38t41.5 -57t14.5 -71q0 -50 -25 -86.5t-75 -56.5q61 -22 93.5 -65.5t32.5 -112.5q0 -42 -16.5 -79t-47 -65t-73.5 -44t-95 -16z" />
    <glyph glyph-name="four" unicode="4" horiz-adv-x="568" 
d="M367 160h-334v69l329 451h91v-444h74v-76h-74v-160h-86v160zM367 236v325l-240 -325h240z" />
    <glyph glyph-name="five" unicode="5" horiz-adv-x="544" 
d="M270 -12q-52 0 -93 16t-69.5 42t-45 60t-19.5 70h84q3 -21 13.5 -41t28.5 -35.5t43.5 -25t57.5 -9.5q33 0 58 12t42.5 33t26.5 49.5t9 61.5q0 34 -10 62.5t-28 49t-43 32t-55 11.5q-45 0 -77 -21t-55 -58l-71 28l44 355h349v-79h-280l-26 -204q21 23 55 39.5t79 16.5
q43 0 81 -17.5t66.5 -48t45 -73t16.5 -93.5q0 -54 -18.5 -97t-49.5 -73.5t-72.5 -46.5t-86.5 -16z" />
    <glyph glyph-name="six" unicode="6" horiz-adv-x="574" 
d="M296 -12q-56 0 -101.5 21.5t-77.5 62.5t-50 100.5t-18 135.5q0 93 19 164.5t53.5 120.5t81.5 74.5t104 25.5q38 0 72.5 -11t61.5 -32.5t45.5 -53.5t24.5 -74h-85q-4 18 -12 34.5t-22 30t-35 21.5t-50 8q-74 0 -118.5 -66.5t-56.5 -196.5q23 45 69 72t99 27q52 0 94.5 -18
t72.5 -49.5t46 -74t16 -91.5q0 -48 -18 -90t-49.5 -73.5t-74 -49.5t-91.5 -18zM299 65q33 0 59 11.5t45 32.5t29 49t10 61q0 31 -9.5 59.5t-28 50.5t-46.5 34.5t-64 12.5q-34 0 -61 -12t-46 -33t-29.5 -49.5t-10.5 -61.5q0 -69 41.5 -112t110.5 -43z" />
    <glyph glyph-name="seven" unicode="7" horiz-adv-x="503" 
d="M135 0q4 83 20 166.5t45 162t70 148t94 124.5h-336v79h439v-73q-59 -51 -103 -118.5t-74 -145.5t-46 -165t-19 -178h-90v0z" />
    <glyph glyph-name="eight" unicode="8" horiz-adv-x="577" 
d="M288 -12q-56 0 -101 16.5t-76.5 45t-48 66t-16.5 80.5q0 68 35 110.5t95 66.5q-94 46 -94 145q0 37 15 69.5t42 57t65 38.5t84 14q47 0 85 -14t65 -38.5t41.5 -57t14.5 -69.5q0 -99 -92 -145q60 -24 94.5 -66.5t34.5 -110.5q0 -43 -16.5 -80.5t-48 -66t-76.5 -45
t-102 -16.5zM288 65q32 0 59.5 8.5t48 25t32.5 42t12 58.5q0 59 -39 96.5t-113 37.5q-73 0 -112 -37.5t-39 -96.5q0 -33 12 -58.5t32 -42t47.5 -25t59.5 -8.5zM288 408q50 0 83.5 27t33.5 79q0 47 -29.5 76.5t-87.5 29.5q-57 0 -87 -29.5t-30 -76.5q0 -26 9.5 -45.5
t25.5 -33t37 -20.5t45 -7z" />
    <glyph glyph-name="nine" unicode="9" horiz-adv-x="574" 
d="M267 -12q-38 0 -72.5 10t-61.5 29.5t-45.5 49.5t-24.5 71h85q4 -16 12 -31t22 -26.5t35 -18.5t50 -7q37 0 67.5 14.5t53 46t36.5 81.5t18 121q-23 -45 -69 -72t-99 -27t-95 18t-72 49.5t-46 74.5t-16 92q0 48 18.5 89.5t50 73t74 49.5t91.5 18q55 0 100.5 -21.5t78 -62.5
t50 -100.5t17.5 -135.5q0 -99 -18 -171.5t-51.5 -120t-81.5 -70.5t-107 -23zM280 305q34 0 61 12t46 32.5t29 49t10 61.5q0 34 -10.5 62.5t-30 49.5t-47.5 32.5t-62 11.5q-33 0 -59.5 -11.5t-45 -32t-29 -48.5t-10.5 -61t9.5 -62t28 -50t46.5 -33.5t64 -12.5z" />
    <glyph glyph-name="colon" unicode=":" horiz-adv-x="231" 
d="M64 421h103v-109h-103v109zM64 109h103v-109h-103v109z" />
    <glyph glyph-name="semicolon" unicode=";" horiz-adv-x="231" 
d="M59 -89q24 2 39.5 15t15.5 42v32h-50v109h103v-141q0 -29 -10 -49t-25.5 -33t-34.5 -19.5t-38 -7.5v52zM64 421h103v-109h-103v109z" />
    <glyph glyph-name="semicolon" unicode="&#x37e;" horiz-adv-x="231" 
d="M59 -89q24 2 39.5 15t15.5 42v32h-50v109h103v-141q0 -29 -10 -49t-25.5 -33t-34.5 -19.5t-38 -7.5v52zM64 421h103v-109h-103v109z" />
    <glyph glyph-name="less" unicode="&#x3c;" horiz-adv-x="445" 
d="M36 225v91l368 170v-84l-294 -132v-1l294 -131v-84z" />
    <glyph glyph-name="equal" unicode="=" horiz-adv-x="481" 
d="M46 418h389v-72h-389v72zM46 234h389v-72h-389v72z" />
    <glyph glyph-name="greater" unicode="&#x3e;" horiz-adv-x="445" 
d="M409 315v-91l-368 -170v84l294 132v1l-294 131v84z" />
    <glyph glyph-name="question" unicode="?" horiz-adv-x="510" 
d="M195 220q0 40 8.5 67t23.5 46.5t36 35.5t45 34q35 26 51.5 52t16.5 64q0 50 -30.5 74.5t-88.5 24.5q-63 0 -98 -34.5t-37 -87.5h-82q0 39 15 75t43 63t68 43t91 16q46 0 84 -12t65 -34t42 -54t15 -71q0 -35 -9.5 -62t-25 -48.5t-34.5 -38t-38 -30.5q-18 -14 -33.5 -25.5
t-27 -24.5t-18 -30.5t-6.5 -42.5v-17h-76v17zM187 107h91v-107h-91v107z" />
    <glyph glyph-name="at" unicode="@" horiz-adv-x="747" 
d="M387 -12q-75 0 -138 26t-108.5 73.5t-71 113t-25.5 144.5t28 146t75.5 116t109.5 76.5t131 27.5q70 0 128 -23t100 -64t65 -98.5t23 -126.5q0 -55 -17.5 -97.5t-44.5 -71t-60 -43t-63 -14.5q-37 0 -62 18t-33 44q-23 -28 -52 -44.5t-60 -16.5q-29 0 -52 14.5t-37 40
t-17.5 61t8.5 77.5q10 37 29.5 67.5t44 52.5t52 34t54.5 12q29 0 47.5 -13.5t28.5 -36.5l11 37h70q-3 -9 -7.5 -23.5t-10 -32.5t-11.5 -37.5t-12 -38.5q-13 -45 -28 -95q-8 -27 4 -40t33 -13t41.5 11t36.5 31.5t25.5 50.5t9.5 69q0 48 -16 91t-47 75.5t-76.5 52t-104.5 19.5
q-57 0 -106.5 -24t-86 -65t-57.5 -94.5t-21 -111.5q0 -62 19.5 -115t55 -91t85 -59.5t110.5 -21.5q67 0 119.5 23t86.5 55h89q-45 -69 -119.5 -108.5t-175.5 -39.5zM326 243q21 0 37 10t29 26.5t21.5 37.5t14.5 43q5 18 6 37t-2.5 34t-13.5 24.5t-27 9.5q-18 0 -34.5 -9.5
t-31 -25.5t-25 -37t-16.5 -45q-11 -48 0.5 -76.5t41.5 -28.5z" />
    <glyph glyph-name="A" unicode="A" horiz-adv-x="617" 
d="M266 680h90l244 -680h-90l-64 181h-277l-64 -181h-88zM197 259h222l-86 246l-24 82q-4 -15 -8 -29q-4 -12 -7.5 -26.5t-8.5 -26.5z" />
    <glyph glyph-name="B" unicode="B" horiz-adv-x="634" 
d="M86 680h285q44 0 80 -13t62 -36.5t40 -57t14 -75.5q0 -38 -21 -75t-69 -59q30 -10 52 -27.5t36.5 -39t21.5 -47t7 -51.5q0 -42 -15.5 -78.5t-44 -63t-67.5 -42t-87 -15.5h-294v680zM384 79q54 0 86.5 32t32.5 88q0 63 -33 91.5t-89 28.5h-208v-240h211zM373 397
q19 0 37.5 5t33.5 17t24 31.5t9 48.5q0 54 -28.5 78.5t-77.5 24.5h-198v-205h200z" />
    <glyph glyph-name="C" unicode="C" horiz-adv-x="696" 
d="M373 -12q-67 0 -126.5 26t-104.5 72.5t-71 111.5t-26 143t26 142.5t70.5 111t103.5 72.5t126 26q118 0 191.5 -60.5t100.5 -162.5h-86q-23 66 -72 106t-134 40q-50 0 -93 -19.5t-74.5 -55t-49.5 -86.5t-18 -114t18 -114t50 -87t75.5 -55.5t93.5 -19.5q76 0 130.5 41
t74.5 110h89q-29 -106 -104 -167t-190 -61z" />
    <glyph glyph-name="D" unicode="D" horiz-adv-x="679" 
d="M86 680h225q74 0 133.5 -23.5t101.5 -67t65 -106.5t23 -142t-23 -142t-65 -107.5t-101.5 -68t-133.5 -23.5h-225v680zM311 78q51 0 93.5 15.5t73.5 47.5t48 81.5t17 118.5q0 70 -17.5 119.5t-48 81t-73 46t-93.5 14.5h-137v-524h137z" />
    <glyph glyph-name="E" unicode="E" horiz-adv-x="587" 
d="M86 680h448v-79h-360v-204h306v-79h-306v-239h365v-79h-453v680z" />
    <glyph glyph-name="F" unicode="F" horiz-adv-x="564" 
d="M86 680h441v-79h-353v-204h308v-79h-308v-318h-88v680z" />
    <glyph glyph-name="G" unicode="G" horiz-adv-x="734" 
d="M370 -12q-68 0 -127 26t-103 72.5t-69.5 111.5t-25.5 143t25.5 142.5t70 111t103.5 72.5t126 26q49 0 95.5 -13t85.5 -40t67.5 -67.5t42.5 -95.5h-88q-11 37 -31 63t-47 43t-59 25t-66 8q-51 0 -94 -19.5t-74 -55t-48.5 -86.5t-17.5 -114t17.5 -114t48.5 -87t74 -55.5
t94 -19.5q50 0 90.5 16.5t70 44t46.5 64.5t19 79h-189v80h272v-349h-82v113q-15 -25 -35.5 -47.5t-48.5 -40t-63.5 -27.5t-79.5 -10z" />
    <glyph glyph-name="H" unicode="H" horiz-adv-x="696" 
d="M86 680h88v-283h348v283h88v-680h-88v317h-348v-317h-88v680z" />
    <glyph glyph-name="I" unicode="I" horiz-adv-x="266" 
d="M89 680h88v-680h-88v680z" />
    <glyph glyph-name="J" unicode="J" 
d="M249 -12q-49 0 -88.5 16.5t-68 46.5t-44 72t-15.5 93h87q0 -30 7 -57.5t22.5 -48t40 -33t59.5 -12.5q71 0 100 42.5t29 120.5v452h88v-452q0 -55 -13.5 -99t-41 -75.5t-68 -48.5t-94.5 -17z" />
    <glyph glyph-name="K" unicode="K" horiz-adv-x="628" 
d="M281 348l-114 -119v-229h-81v680h81v-350l335 350h98l-263 -274l271 -406h-96z" />
    <glyph glyph-name="L" unicode="L" horiz-adv-x="532" 
d="M86 680h88v-601h328v-79h-416v680z" />
    <glyph glyph-name="M" unicode="M" horiz-adv-x="810" 
d="M86 680h126l173 -502q8 -23 13.5 -49t7.5 -31q0 1 2 9.5t5 20.5t6.5 25t7.5 25l172 502h125v-680h-84v478q0 12 0.5 28.5t1 31.5t1.5 26t1 13q-1 -2 -3.5 -11t-6.5 -21.5t-8 -26t-8 -25.5l-171 -493h-86l-171 493q-4 11 -8 24.5t-8 25.5t-6.5 21.5t-3.5 12.5
q0 -2 0.5 -13t1.5 -26t1.5 -31.5t0.5 -28.5v-478h-82v680z" />
    <glyph glyph-name="N" unicode="N" horiz-adv-x="686" 
d="M86 680h97l337 -543v543h80v-680h-89l-345 555v-555h-80v680z" />
    <glyph glyph-name="O" unicode="O" horiz-adv-x="748" 
d="M374 -12q-68 0 -128 26t-104.5 72.5t-70.5 111.5t-26 143t26 142.5t70.5 111t104.5 72.5t128 26q69 0 129 -25t104.5 -71.5t70 -111.5t25.5 -144q0 -78 -26 -143t-70.5 -111.5t-104.5 -72.5t-128 -26zM374 65q51 0 94.5 19.5t75.5 55.5t50 87t18 114q0 64 -17.5 115
t-49 86.5t-75.5 54.5t-96 19q-51 0 -94.5 -19.5t-75.5 -55t-50 -86.5t-18 -114t18 -114t50 -87t75.5 -55.5t94.5 -19.5z" />
    <glyph glyph-name="P" unicode="P" horiz-adv-x="611" 
d="M86 680h276q51 0 91.5 -15t68 -42.5t42.5 -65.5t15 -83t-15 -82.5t-42.5 -64.5t-68 -42.5t-91.5 -15.5h-188v-269h-88v680zM362 348q57 0 92.5 29.5t35.5 96.5t-35.5 97t-92.5 30h-188v-253h188z" />
    <glyph glyph-name="Q" unicode="Q" horiz-adv-x="748" 
d="M558 45q-80 -57 -184 -57q-68 0 -128 26t-104.5 72.5t-70.5 111.5t-26 143t26 142.5t70.5 111t104.5 72.5t128 26q69 0 129 -25t104.5 -71.5t70 -111.5t25.5 -144q0 -74 -23 -135t-63 -107l93 -99h-109zM374 65q74 0 130 39l-123 132h109l70 -76q24 35 38 80.5t14 100.5
q0 64 -17.5 115t-49 86.5t-75.5 54.5t-96 19q-51 0 -94.5 -19.5t-75.5 -55t-50 -86.5t-18 -114t18 -114t50 -87t75.5 -55.5t94.5 -19.5z" />
    <glyph glyph-name="R" unicode="R" horiz-adv-x="650" 
d="M86 680h284q51 0 90.5 -15t67.5 -41.5t42.5 -63t14.5 -80.5q0 -52 -24 -91t-80 -64q44 -15 63 -47t25 -89l9 -83q4 -38 11 -64.5t13 -41.5h-83q-7 14 -13 37t-9 60l-7 81q-5 54 -29 78.5t-81 24.5h-209v-281h-85v680zM378 361q60 0 91 31.5t31 87.5q0 63 -34 92t-96 29
h-199v-240h207z" />
    <glyph glyph-name="S" unicode="S" horiz-adv-x="593" 
d="M305 -12q-59 0 -107.5 17t-83 47t-54.5 70.5t-22 86.5h88q3 -66 51.5 -105t127.5 -39q81 0 121 32.5t40 84.5q0 24 -7 43t-26 35t-53 28.5t-88 24.5q-58 12 -101 28.5t-71.5 39.5t-42.5 55t-14 76q0 43 16.5 77t46.5 57t71 35t90 12q112 0 175 -53t72 -142h-86
q-5 50 -44 84t-116 34q-71 0 -105.5 -27t-34.5 -75q0 -22 6.5 -39t24.5 -31t50 -25.5t83 -23.5q58 -13 102.5 -28.5t74.5 -39.5t45.5 -59t15.5 -86q0 -47 -18.5 -83.5t-51 -61t-77.5 -37t-98 -12.5z" />
    <glyph glyph-name="T" unicode="T" horiz-adv-x="548" 
d="M230 601h-205v79h498v-79h-205v-601h-88v601z" />
    <glyph glyph-name="U" unicode="U" horiz-adv-x="667" 
d="M334 -12q-57 0 -104.5 17.5t-82.5 51.5t-54.5 83.5t-19.5 112.5v427h88v-427q0 -92 45 -140t128 -48q84 0 128 48t44 140v427h88v-427q0 -63 -19.5 -112.5t-54 -83.5t-82.5 -51.5t-104 -17.5z" />
    <glyph glyph-name="V" unicode="V" horiz-adv-x="602" 
d="M15 680h92l172 -499q3 -10 7 -25t8 -29q4 -17 9 -34l8 34q4 14 7.5 28.5t7.5 25.5l171 499h90l-241 -680h-90z" />
    <glyph glyph-name="W" unicode="W" horiz-adv-x="875" 
d="M15 680h88l127 -473q3 -11 5.5 -23.5t4.5 -24t3.5 -20t1.5 -10.5q0 1 2 9.5t4.5 20t6 25t6.5 24.5l134 472h84l135 -472q3 -11 6 -24t5.5 -24.5t4.5 -20t3 -10.5q0 1 1 9.5t3.5 20t5 25t5.5 24.5l126 472h83l-184 -680h-84l-133 475q-3 13 -6.5 28t-6.5 28.5t-5 24
t-2 13.5q0 -2 -2 -12t-4.5 -24t-6 -29.5t-7.5 -28.5l-135 -475h-86z" />
    <glyph glyph-name="X" unicode="X" horiz-adv-x="571" 
d="M229 352l-206 328h95l169 -272l169 272h92l-207 -328l218 -352h-95l-181 296l-179 -296h-92z" />
    <glyph glyph-name="Y" unicode="Y" horiz-adv-x="561" 
d="M236 282l-225 398h92l178 -317l179 317h90l-226 -398v-282h-88v282z" />
    <glyph glyph-name="Z" unicode="Z" horiz-adv-x="549" 
d="M32 69l380 532h-367v79h470v-76l-375 -525h377v-79h-485v69z" />
    <glyph glyph-name="bracketleft" unicode="[" horiz-adv-x="323" 
d="M82 784h209v-73h-123v-760h123v-73h-209v906z" />
    <glyph glyph-name="backslash" unicode="\" horiz-adv-x="351" 
d="M2 784h82l269 -906h-82z" />
    <glyph glyph-name="bracketright" unicode="]" horiz-adv-x="323" 
d="M32 -49h123v760h-123v73h209v-906h-209v73z" />
    <glyph glyph-name="asciicircum" unicode="^" horiz-adv-x="512" 
d="M213 680h87l173 -436h-89l-128 341l-129 -341h-88z" />
    <glyph glyph-name="underscore" unicode="_" horiz-adv-x="521" 
d="M-2 -69h525v-82h-525v82z" />
    <glyph glyph-name="grave" unicode="`" horiz-adv-x="500" 
d="M114 740h109l64 -147h-76z" />
    <glyph glyph-name="a" unicode="a" 
d="M214 -12q-36 0 -67.5 8.5t-54.5 26t-36.5 44.5t-13.5 65q0 37 14 64t38.5 45.5t59 30t75.5 17.5q39 6 68.5 12t49.5 14.5t30.5 21.5t10.5 33q0 45 -28 64t-85 19q-47 0 -82 -21t-40 -65h-86q5 72 61 116.5t148 44.5q101 0 147.5 -43t46.5 -115v-266q0 -31 7 -60t13 -44
h-81q-5 11 -11 29t-8 41q-23 -35 -69 -58.5t-107 -23.5zM215 60q37 0 69 8.5t55 25t36 40t13 54.5v86q-16 -14 -51.5 -27t-104.5 -26q-59 -11 -84 -30.5t-25 -55.5q0 -38 25.5 -56.5t66.5 -18.5z" />
    <glyph glyph-name="b" unicode="b" horiz-adv-x="611" 
d="M335 -12q-60 0 -107 30.5t-71 78.5v-97h-79v744h82v-321q23 43 68.5 74t106.5 31q51 0 94 -21t74 -58t48.5 -86t17.5 -104q0 -56 -17.5 -105.5t-48.5 -86.5t-74 -58t-94 -21zM322 63q33 0 63 12.5t52 37.5t35 60.5t13 82.5t-13 84t-35 62t-52 38t-63 13t-62.5 -13
t-51.5 -38t-35 -62t-13 -84t13 -82.5t35 -60.5t51.5 -37.5t62.5 -12.5z" />
    <glyph glyph-name="c" unicode="c" horiz-adv-x="545" 
d="M290 -12q-52 0 -97 20t-78.5 56t-53 85t-19.5 107t19.5 108t53 86.5t78.5 57t97 20.5q85 0 143 -45.5t78 -124.5h-87q-17 45 -51 70t-83 25q-35 0 -64.5 -13t-51.5 -38t-34.5 -62t-12.5 -84t12.5 -82.5t34.5 -60.5t51.5 -37.5t64.5 -12.5q50 0 84.5 25.5t49.5 69.5h87
q-18 -76 -76.5 -123t-144.5 -47z" />
    <glyph glyph-name="d" unicode="d" horiz-adv-x="611" 
d="M276 -12q-51 0 -94 21t-74 58t-48.5 86.5t-17.5 105.5q0 55 17.5 104t48.5 86t74 58t94 21q61 0 106.5 -31t68.5 -74v321h82v-744h-79v97q-24 -48 -71 -78.5t-107 -30.5zM289 63q33 0 62.5 12.5t51.5 37.5t35 60.5t13 82.5t-13 84t-35 62t-51.5 38t-62.5 13t-63 -13
t-52 -38t-35 -62t-13 -84t13 -82.5t35 -60.5t52 -37.5t63 -12.5z" />
    <glyph glyph-name="e" unicode="e" horiz-adv-x="570" 
d="M295 -12q-54 0 -100 19.5t-80 55t-53.5 85t-19.5 109.5q0 59 19.5 108.5t53.5 85.5t79.5 56.5t97.5 20.5q48 0 92.5 -19t78 -56.5t52.5 -92.5t17 -128h-405q3 -43 18.5 -75t38.5 -53t51.5 -31.5t59.5 -10.5q54 0 88.5 22t49.5 60h87q-9 -34 -29 -62.5t-49 -49.5
t-66.5 -32.5t-80.5 -11.5zM440 303q-4 39 -17.5 67.5t-33 47t-44.5 27.5t-53 9q-26 0 -51.5 -8.5t-47.5 -27t-39 -47t-24 -68.5h310z" />
    <glyph glyph-name="f" unicode="f" horiz-adv-x="328" 
d="M100 439h-75v76h75v35q0 50 13.5 86.5t38 60.5t58 36t73.5 12q5 0 11 -0.5t11 -1.5q6 -1 12 -1v-73q-6 0 -11 1q-5 0 -10 0.5t-10 0.5q-54 0 -79 -29t-25 -92v-35h128v-76h-128v-439h-82v439z" />
    <glyph glyph-name="g" unicode="g" horiz-adv-x="609" 
d="M293 -219q-44 0 -83.5 11t-70.5 32t-53 51.5t-31 69.5h90q18 -48 56.5 -68t91.5 -20q48 0 78.5 14.5t48.5 39t24.5 57t6.5 69.5v68q-23 -46 -69 -75.5t-106 -29.5q-51 0 -94 20.5t-74 56.5t-48.5 84.5t-17.5 103.5q0 54 17.5 102t48.5 84t74 56.5t94 20.5q61 0 107.5 -32
t70.5 -77v96h79v-478q0 -128 -62.5 -192t-177.5 -64zM289 75q33 0 62.5 12t51.5 36t35 59t13 80q0 46 -13 81.5t-35 60t-51.5 37t-62.5 12.5t-63 -12.5t-52 -37t-35 -60t-13 -81.5q0 -45 13 -80t35 -59t52 -36t63 -12z" />
    <glyph glyph-name="h" unicode="h" horiz-adv-x="571" 
d="M78 744h82v-300q26 40 64 62t89 22q42 0 75.5 -15t57.5 -43t36.5 -67t12.5 -87v-316h-82v319q0 60 -29.5 96t-89.5 36q-29 0 -53.5 -9.5t-42.5 -26.5t-28 -41t-10 -53v-321h-82v744z" />
    <glyph glyph-name="i" unicode="i" horiz-adv-x="240" 
d="M79 515h82v-515h-82v515zM75 714h90v-101h-90v101z" />
    <glyph glyph-name="j" unicode="j" horiz-adv-x="240" 
d="M-14 -135h16q38 0 57.5 18t19.5 62v570h82v-571q0 -75 -43 -114t-116 -39h-16v74zM75 714h90v-101h-90v101z" />
    <glyph glyph-name="k" unicode="k" horiz-adv-x="527" 
d="M245 251l-85 -90v-161h-82v744h82v-479l234 250h101l-191 -202l209 -313h-100z" />
    <glyph glyph-name="l" unicode="l" horiz-adv-x="242" 
d="M80 744h82v-744h-82v744z" />
    <glyph glyph-name="m" unicode="m" horiz-adv-x="861" 
d="M78 515h79v-69q23 38 59 60t81 22q48 0 87 -23.5t60 -70.5q25 43 62.5 68.5t94.5 25.5q79 0 125.5 -49.5t46.5 -144.5v-334h-82v333q0 61 -29.5 89.5t-80.5 28.5q-49 0 -81.5 -32t-32.5 -89v-330h-82v333q0 61 -29.5 89.5t-79.5 28.5t-83 -32.5t-33 -88.5v-330h-82v515z
" />
    <glyph glyph-name="n" unicode="n" horiz-adv-x="571" 
d="M78 515h79v-74q29 43 67 65t89 22q42 0 75.5 -15t57.5 -43t36.5 -67t12.5 -87v-316h-82v319q0 60 -29.5 96t-89.5 36q-29 0 -53.5 -9.5t-42.5 -26.5t-28 -41t-10 -53v-321h-82v515z" />
    <glyph glyph-name="o" unicode="o" horiz-adv-x="578" 
d="M289 -12q-52 0 -97 20t-78.5 56t-52.5 85t-19 107t19 108t52.5 86.5t78.5 57t97 20.5t97.5 -20.5t78.5 -57t52 -86.5t19 -108t-19 -107t-52 -85t-78.5 -56t-97.5 -20zM289 63q33 0 62.5 12.5t52 37.5t35.5 60.5t13 82.5t-13 84t-35.5 62t-52 38t-62.5 13q-32 0 -61.5 -13
t-52 -38t-35.5 -62t-13 -84t13 -82.5t35.5 -60.5t52 -37.5t61.5 -12.5z" />
    <glyph glyph-name="p" unicode="p" horiz-adv-x="611" 
d="M78 515h79v-96q24 45 70.5 77t107.5 32q51 0 94 -21t74 -58t48.5 -86t17.5 -104q0 -56 -17.5 -105.5t-48.5 -86.5t-74 -58t-94 -21q-60 0 -106 29.5t-69 75.5v-302h-82v724zM322 63q33 0 63 12.5t52 37.5t35 60.5t13 82.5t-13 84t-35 62t-52 38t-63 13t-62.5 -13
t-51.5 -38t-35 -62t-13 -84t13 -82.5t35 -60.5t51.5 -37.5t62.5 -12.5z" />
    <glyph glyph-name="q" unicode="q" horiz-adv-x="611" 
d="M451 93q-23 -46 -69 -75.5t-106 -29.5q-51 0 -94 21t-74 58t-48.5 86.5t-17.5 105.5q0 55 17.5 104t48.5 86t74 58t94 21q61 0 107.5 -32t70.5 -77v96h79v-724h-82v302zM289 63q33 0 62.5 12.5t51.5 37.5t35 60.5t13 82.5t-13 84t-35 62t-51.5 38t-62.5 13t-63 -13
t-52 -38t-35 -62t-13 -84t13 -82.5t35 -60.5t52 -37.5t63 -12.5z" />
    <glyph glyph-name="r" unicode="r" horiz-adv-x="361" 
d="M78 515h79v-87q15 27 35.5 46t43 30t46.5 15t45 1v-83q-34 3 -64 -3.5t-53 -24t-36.5 -45t-13.5 -66.5v-298h-82v515z" />
    <glyph glyph-name="s" unicode="s" horiz-adv-x="505" 
d="M261 -13q-45 0 -83.5 11.5t-68 33t-48 52t-23.5 67.5h83q10 -38 45 -63.5t95 -25.5q59 0 92 23t33 56q0 17 -4.5 30t-19 22.5t-41 17.5t-71.5 14t-81 16.5t-61 28.5t-38.5 44t-13.5 64q0 27 10.5 54t34 48.5t60 34.5t88.5 13q87 0 140 -41t63 -110h-83q-10 36 -42 56
t-78 20q-56 0 -83.5 -21.5t-27.5 -50.5q0 -16 6 -27.5t20.5 -20.5t38.5 -15.5t61 -12.5q43 -7 80 -16t64 -25.5t42.5 -45t15.5 -74.5q0 -38 -15.5 -67t-42.5 -49t-64.5 -30.5t-82.5 -10.5z" />
    <glyph glyph-name="t" unicode="t" horiz-adv-x="338" 
d="M273 -9q-81 0 -128 47t-47 142v259h-75v76h75v147h82v-147h117v-76h-117v-259q0 -64 27.5 -88.5t73.5 -24.5q13 0 17 1q4 0 7 1v-75q-4 -1 -9 -2t-10.5 -1h-12.5z" />
    <glyph glyph-name="u" unicode="u" horiz-adv-x="571" 
d="M258 -12q-42 0 -75.5 15t-57.5 42.5t-36.5 66.5t-12.5 87v316h82v-319q0 -60 29.5 -95.5t89.5 -35.5q28 0 52.5 9.5t42.5 26.5t28.5 40.5t10.5 52.5v321h82v-515h-79v74q-29 -43 -67 -64.5t-89 -21.5z" />
    <glyph glyph-name="v" unicode="v" horiz-adv-x="494" 
d="M15 515h88l124 -350q5 -13 8.5 -27.5t6.5 -26.5q4 -14 6 -28q2 14 6 28q3 12 6.5 26.5t8.5 27.5l124 350h86l-188 -515h-88z" />
    <glyph glyph-name="w" unicode="w" horiz-adv-x="734" 
d="M17 515h86l94 -334q3 -9 5.5 -20t4.5 -21t3.5 -17t2.5 -10q1 4 5 26.5t10 41.5l96 334h86l97 -334q3 -10 5.5 -21.5t4.5 -21.5t4 -17.5t2 -8.5q0 1 1.5 8.5t4 17.5t5 21.5t5.5 21.5l92 334h86l-152 -515h-85l-94 323q-4 12 -7.5 26t-6 26t-4.5 21t-2 12q0 -2 -2 -11
t-4.5 -21t-6 -26.5t-6.5 -26.5l-93 -323h-86z" />
    <glyph glyph-name="x" unicode="x" horiz-adv-x="482" 
d="M190 266l-167 249h98l120 -188l122 188h95l-168 -249l180 -266h-98l-131 206l-134 -206h-95z" />
    <glyph glyph-name="y" unicode="y" horiz-adv-x="494" 
d="M57 -135h10q48 0 75 17.5t41 57.5l23 63l-191 512h89l126 -354q5 -13 8.5 -27l6.5 -26q4 -14 6 -29q2 15 6 29l6.5 26t8.5 27l121 354h86l-218 -597q-26 -71 -76 -99t-117 -28h-11v74z" />
    <glyph glyph-name="z" unicode="z" horiz-adv-x="463" 
d="M33 67l285 372h-271v76h374v-72l-281 -367h290v-76h-397v67z" />
    <glyph glyph-name="braceleft" unicode="{" horiz-adv-x="353" 
d="M321 -122q-36 -3 -70 4t-60 25.5t-42 50t-16 78.5v174q0 51 -27 67.5t-72 16.5v70q45 0 72 16.5t27 67.5v176q0 47 16 78.5t42 50t60 25.5t70 4v-73q-53 2 -77.5 -19t-24.5 -66v-173q0 -50 -20 -79t-62 -42q42 -14 62 -43t20 -80v-171q0 -45 24 -66t78 -19v-73v0z" />
    <glyph glyph-name="bar" unicode="|" horiz-adv-x="229" 
d="M74 744h81v-904h-81v904z" />
    <glyph glyph-name="braceright" unicode="}" horiz-adv-x="345" 
d="M24 -49q53 -2 77.5 19t24.5 66v173q0 50 20 79t62 42q-42 14 -62 43t-20 80v171q0 45 -24 66t-78 19v73q36 3 70 -4t60 -25.5t42 -50t16 -78.5v-174q0 -51 27 -67.5t72 -16.5v-70q-45 0 -72 -16.5t-27 -67.5v-176q0 -47 -16 -78.5t-42 -50t-60 -25.5t-70 -4v73z" />
    <glyph glyph-name="asciitilde" unicode="~" horiz-adv-x="382" 
d="M29 220q2 20 9 39t19 33.5t29.5 23.5t41.5 9q21 0 39.5 -6t35.5 -13.5t32 -13.5t30 -6q17 0 28 13t13 31h46q-2 -20 -8.5 -39t-18.5 -33.5t-30 -23.5t-42 -9q-20 0 -38 6t-35 13t-33 13t-30 6q-18 0 -28.5 -12.5t-12.5 -30.5h-47v0z" />
    <glyph glyph-name="exclamdown" unicode="&#xa1;" horiz-adv-x="271" 
d="M100 372h71l12 -477h-95zM90 575h91v-107h-91v107z" />
    <glyph glyph-name="cent" unicode="&#xa2;" horiz-adv-x="545" 
d="M176 27q-60 32 -97 92.5t-37 136.5q0 54 19 101.5t52 82.5t78 55.5t96 20.5q22 0 42 -3l36 112h61l-40 -127q47 -19 79 -55.5t46 -87.5h-87q-20 50 -61 70l-110 -347q16 -3 34 -3q51 0 86.5 24t50.5 66h87q-9 -36 -29 -66.5t-49 -52.5t-66 -34t-80 -12q-29 0 -56 6
l-37 -116h-61zM127 256q0 -55 19.5 -94.5t52.5 -61.5l107 340q-5 0 -9.5 0.5t-9.5 0.5q-34 0 -63.5 -12.5t-51 -36.5t-33.5 -58.5t-12 -77.5z" />
    <glyph glyph-name="sterling" unicode="&#xa3;" horiz-adv-x="537" 
d="M36 367h60q-14 27 -24 58.5t-10 72.5q0 42 16 77.5t44.5 62t67 41t83.5 14.5q46 0 84 -14.5t65 -40.5t42 -61t17 -77h-82q-4 51 -35 83.5t-91 32.5q-59 0 -91 -32t-32 -86q0 -35 12 -67t26 -64h171v-68h-147q9 -32 9 -67q0 -36 -15.5 -79t-59.5 -81q26 14 45.5 18t37.5 4
q25 0 44.5 -4.5t37.5 -9.5t36.5 -9.5t39.5 -4.5q37 0 70 26l42 -63q-27 -23 -54.5 -32t-54.5 -9q-33 0 -57.5 6t-45.5 13.5t-41 14t-44 6.5t-50 -8.5t-58 -31.5l-45 70q47 33 70.5 74.5t23.5 100.5q0 18 -4 34t-10 32h-93v68z" />
    <glyph glyph-name="yen" unicode="&#xa5;" horiz-adv-x="535" 
d="M39 336h157l-185 344h93l166 -325l166 325h88l-186 -344h157v-56h-184v-88h184v-56h-184v-136h-88v136h-184v56h184v88h-184v56z" />
    <glyph glyph-name="brokenbar" unicode="&#xa6;" horiz-adv-x="229" 
d="M74 261h81v-421h-81v421zM74 744h81v-403h-81v403z" />
    <glyph glyph-name="section" unicode="&#xa7;" horiz-adv-x="532" 
d="M277 -83q-39 0 -72.5 11.5t-58 31.5t-38.5 48.5t-14 61.5h81q6 -35 29 -56.5t73 -21.5q42 0 64.5 18t22.5 58q0 17 -5 30.5t-18.5 25t-37.5 21.5t-61 20q-46 12 -82.5 26t-61.5 33t-38.5 46t-13.5 66q0 36 19.5 65.5t51.5 47.5q-28 36 -28 91q0 34 13 62t36 48t56 31.5
t73 11.5q39 0 72 -11t57 -31.5t37.5 -50t13.5 -65.5h-80q-4 33 -27 57.5t-73 24.5q-42 0 -68.5 -18.5t-26.5 -58.5q0 -17 5.5 -30t19 -24t37 -20.5t60.5 -18.5q48 -12 84.5 -25.5t61 -33t37.5 -46.5t13 -66q0 -37 -20.5 -67t-52.5 -47q30 -38 30 -94q0 -68 -44.5 -109.5
t-125.5 -41.5zM275 368q-30 8 -55.5 16.5t-47.5 19.5q-45 -25 -45 -64q0 -16 5 -29t19.5 -24t41 -21.5t68.5 -21.5q61 -16 101 -37q47 25 47 65q0 16 -5 29t-19.5 24t-41 21.5t-68.5 21.5z" />
    <glyph glyph-name="dieresis" unicode="&#xa8;" horiz-adv-x="500" 
d="M296 688h93v-95h-93v95zM111 688h92v-95h-92v95z" />
    <glyph glyph-name="copyright" unicode="&#xa9;" horiz-adv-x="774" 
d="M387 -12q-71 0 -134 28t-109.5 76t-73.5 112.5t-27 138.5q0 73 27 137.5t73.5 112.5t109.5 76t134 28t134 -28t109.5 -76t73.5 -112.5t27 -137.5q0 -74 -27 -138.5t-73.5 -112.5t-109.5 -76t-134 -28zM387 37q60 0 112.5 24t91.5 65.5t61.5 97t22.5 119.5q0 63 -22.5 119
t-61.5 97t-91.5 65t-112.5 24t-112.5 -24t-91.5 -65t-61.5 -97t-22.5 -119q0 -64 22.5 -119.5t61.5 -97t91.5 -65.5t112.5 -24zM387 131q-41 0 -76.5 16.5t-62 45.5t-42 67.5t-15.5 82.5q0 43 15.5 81.5t42 67.5t62 45.5t76.5 16.5q33 0 63 -10.5t54 -30t42 -46t27 -57.5
h-76q-14 33 -43.5 52t-66.5 19q-26 0 -48 -11t-37.5 -30t-24.5 -44t-9 -53q0 -29 9 -54t24.5 -44t37.5 -30t48 -11q36 0 65.5 19.5t44.5 52.5h75q-9 -32 -27 -58.5t-42.5 -45.5t-54 -30t-61.5 -11z" />
    <glyph glyph-name="ordfeminine" unicode="&#xaa;" horiz-adv-x="434" 
d="M176 261q-28 0 -54 7t-45.5 21t-31 36t-11.5 51q0 33 12.5 55t36.5 37t58.5 24.5t78.5 17.5q45 8 66 18.5t21 38.5q0 61 -86 61q-38 0 -61 -17.5t-27 -47.5h-79q3 58 48.5 94t119.5 36q81 0 121.5 -33.5t40.5 -92.5v-213q0 -25 5.5 -48t10.5 -35h-76q-4 9 -8.5 22
t-6.5 32q-19 -28 -51.5 -46t-81.5 -18zM177 324q26 0 50 6.5t42 19t28.5 31.5t10.5 44v60q-10 -8 -26.5 -16t-45.5 -14q-35 -8 -59 -14.5t-39 -14.5t-22 -19.5t-7 -27.5q0 -27 18 -41t50 -14z" />
    <glyph glyph-name="guillemotleft" unicode="&#xab;" horiz-adv-x="473" 
d="M30 219v81l186 165v-108l-116 -97l116 -99v-107zM253 219v78l185 168v-108l-118 -97l118 -99v-107z" />
    <glyph glyph-name="logicalnot" unicode="&#xac;" horiz-adv-x="231" 
d="M64 391h103v-109h-103v109z" />
    <glyph glyph-name="registered" unicode="&#xae;" horiz-adv-x="542" 
d="M271 200q-50 0 -94 19t-76.5 52t-51.5 78.5t-19 98.5t19 98.5t51.5 78.5t76.5 52t94 19t94 -19t76.5 -52t51.5 -78.5t19 -98.5t-19 -98.5t-51.5 -78.5t-76.5 -52t-94 -19zM271 244q42 0 77 16t60 43.5t39 65t14 79.5t-14 79t-39 65t-60 44t-77 16q-43 0 -78 -16t-60 -44
t-39 -65t-14 -79t14 -79.5t39 -65t60 -43.5t78 -16zM326 382q0 20 -9.5 28t-26.5 8h-63v-96h-55v259h117q39 0 66 -20.5t27 -58.5q0 -42 -40 -57q15 -5 27 -19.5t12 -43.5v-61h-55v61zM286 466q17 0 27.5 9t10.5 26q0 34 -38 34h-59v-69h59z" />
    <glyph glyph-name="macron" unicode="&#xaf;" horiz-adv-x="500" 
d="M119 692h262v-70h-262v70z" />
    <glyph glyph-name="macron" unicode="&#x2c9;" horiz-adv-x="500" 
d="M119 692h262v-70h-262v70z" />
    <glyph glyph-name="degree" unicode="&#xb0;" horiz-adv-x="373" 
d="M186 379q-30 0 -57 12t-47.5 32.5t-32.5 48t-12 58.5t12 58t32.5 47.5t47.5 32.5t57 12t57.5 -12t48 -32.5t32.5 -47.5t12 -58t-12 -58.5t-32.5 -48t-48 -32.5t-57.5 -12zM186 438q38 0 61.5 26.5t23.5 65.5q0 38 -23.5 65t-61.5 27q-37 0 -61 -27t-24 -65
q0 -39 24 -65.5t61 -26.5z" />
    <glyph glyph-name="plusminus" unicode="&#xb1;" horiz-adv-x="231" 
d="M64 391h103v-109h-103v109z" />
    <glyph glyph-name="twosuperior" unicode="&#xb2;" horiz-adv-x="345" 
d="M29 303q0 34 10.5 59.5t27.5 45.5t39.5 35t46.5 28q29 16 46 28t26 22.5t12 21t3 22.5q0 22 -14 40t-51 18q-35 0 -53.5 -22.5t-19.5 -57.5h-67q0 28 9 53.5t26.5 45t43.5 31t61 11.5q33 0 58.5 -10t42 -26.5t25 -38t8.5 -44.5q0 -29 -9 -50t-25.5 -37.5t-39.5 -30.5
t-50 -29q-36 -20 -58.5 -39.5t-24.5 -43.5h204v-63h-277v31z" />
    <glyph glyph-name="threesuperior" unicode="&#xb3;" horiz-adv-x="344" 
d="M170 265q-36 0 -63 10.5t-45 28.5t-27.5 42t-10.5 51h67q2 -32 21 -51t58 -19q36 0 56.5 18.5t20.5 46.5t-16.5 45.5t-61.5 17.5h-23v59h12q45 0 60.5 15t15.5 39q0 26 -16 40.5t-46 14.5q-37 0 -53 -20.5t-17 -46.5h-66q0 27 9.5 50.5t27 40.5t42.5 27t56 10
q32 0 56.5 -9t41 -24.5t24.5 -35.5t8 -41q0 -29 -14 -50.5t-41 -33.5q36 -12 52.5 -38t16.5 -61q0 -24 -9.5 -47t-28 -40.5t-45.5 -28t-62 -10.5z" />
    <glyph glyph-name="acute" unicode="&#xb4;" horiz-adv-x="500" 
d="M277 740h109l-97 -147h-76z" />
    <glyph glyph-name="mu" unicode="&#xb5;" horiz-adv-x="231" 
d="M64 391h103v-109h-103v109z" />
    <glyph glyph-name="mu" unicode="&#x3bc;" horiz-adv-x="231" 
d="M64 391h103v-109h-103v109z" />
    <glyph glyph-name="paragraph" unicode="&#xb6;" horiz-adv-x="537" 
d="M226 269q-47 3 -83 19t-61 43t-38 63.5t-13 79.5q0 45 14 83t41.5 65.5t67 42.5t90.5 15h226v-820h-76v747h-92v-747h-76v409z" />
    <glyph glyph-name="periodcentered" unicode="&#xb7;" horiz-adv-x="231" 
d="M64 391h103v-109h-103v109z" />
    <glyph glyph-name="periodcentered" unicode="&#x2219;" horiz-adv-x="231" 
d="M64 391h103v-109h-103v109z" />
    <glyph glyph-name="cedilla" unicode="&#xb8;" horiz-adv-x="500" 
d="M261 -55q4 1 14 1q37 0 64.5 -23.5t27.5 -65.5q0 -23 -9 -40.5t-24 -29t-35 -17.5t-41 -6q-43 0 -76 21.5t-39 57.5h63q5 -12 17 -20t31 -8q20 0 33 11.5t13 29.5q0 19 -13 31t-32 12q-12 0 -21.5 -5t-16.5 -11l-35 28l51 89h64z" />
    <glyph glyph-name="onesuperior" unicode="&#xb9;" horiz-adv-x="242" 
d="M95 573h-65v46q30 1 52 15t24 46h57v-408h-68v301z" />
    <glyph glyph-name="ordmasculine" unicode="&#xba;" horiz-adv-x="464" 
d="M232 261q-41 0 -77.5 16t-63.5 44.5t-43 68t-16 85.5q0 47 16 87t43 69t63.5 45.5t77.5 16.5q42 0 78.5 -16.5t63.5 -45.5t42.5 -69t15.5 -87q0 -46 -15.5 -85.5t-42.5 -68t-63.5 -44.5t-78.5 -16zM232 327q53 0 87.5 38t34.5 110q0 73 -34.5 112.5t-87.5 39.5
q-52 0 -87 -39.5t-35 -112.5q0 -72 35 -110t87 -38z" />
    <glyph glyph-name="guillemotright" unicode="&#xbb;" horiz-adv-x="473" 
d="M257 162l116 97l-116 99v107l186 -165v-81l-186 -165v108zM35 162l118 97l-118 99v107l185 -165v-78l-185 -168v108z" />
    <glyph glyph-name="onequarter" unicode="&#xbc;" horiz-adv-x="780" 
d="M638 88h-187v58l175 262h77v-260h43v-60h-43v-88h-65v88zM515 680h78l-383 -680h-77zM101 573h-65v46q30 1 52 15t24 46h57v-408h-68v301zM638 148v175l-118 -175h118z" />
    <glyph glyph-name="onehalf" unicode="&#xbd;" horiz-adv-x="814" 
d="M492 31q0 34 10.5 59.5t27.5 45.5t39.5 35t46.5 28q29 16 46 28t26 22.5t12 21t3 22.5q0 22 -14 40t-51 18q-35 0 -53.5 -22.5t-19.5 -57.5h-67q0 28 9 53.5t26.5 45t43.5 31t61 11.5q33 0 58.5 -10t42 -26.5t25 -38t8.5 -44.5q0 -29 -9 -50t-25.5 -37.5t-39.5 -30.5
t-50 -29q-36 -20 -58.5 -39.5t-24.5 -43.5h204v-63h-277v31zM515 680h78l-383 -680h-77zM101 573h-65v46q30 1 52 15t24 46h57v-408h-68v301z" />
    <glyph glyph-name="threequarters" unicode="&#xbe;" horiz-adv-x="882" 
d="M740 88h-187v58l175 262h77v-260h43v-60h-43v-88h-65v88zM176 265q-36 0 -63 10.5t-45 28.5t-27.5 42t-10.5 51h67q2 -32 21 -51t58 -19q36 0 56.5 18.5t20.5 46.5t-16.5 45.5t-61.5 17.5h-23v59h12q45 0 60.5 15t15.5 39q0 26 -16 40.5t-46 14.5q-37 0 -53 -20.5
t-17 -46.5h-66q0 27 9.5 50.5t27 40.5t42.5 27t56 10q32 0 56.5 -9t41 -24.5t24.5 -35.5t8 -41q0 -29 -14 -50.5t-41 -33.5q36 -12 52.5 -38t16.5 -61q0 -24 -9.5 -47t-28 -40.5t-45.5 -28t-62 -10.5zM617 680h78l-383 -680h-77zM740 148v175l-118 -175h118z" />
    <glyph glyph-name="questiondown" unicode="&#xbf;" horiz-adv-x="510" 
d="M253 -118q-47 0 -85 12t-65 34t-41.5 54t-14.5 71q0 35 9.5 62t25 48.5t34.5 38t38 30.5q18 14 33.5 25.5t27 24.5t18 30t6.5 43v17h76v-17q0 -40 -8.5 -67t-23.5 -46.5t-36 -35.5t-45 -34q-35 -26 -51.5 -52t-16.5 -64q0 -50 30.5 -74.5t88.5 -24.5q63 0 98 34.5
t37 87.5h82q0 -39 -15 -75t-43 -63t-68 -43t-91 -16zM232 575h91v-107h-91v107z" />
    <glyph glyph-name="Agrave" unicode="&#xc0;" horiz-adv-x="617" 
d="M266 680h90l244 -680h-90l-64 181h-277l-64 -181h-88zM197 259h222l-86 246l-24 82q-4 -15 -8 -29q-4 -12 -7.5 -26.5t-8.5 -26.5zM168 877h109l64 -147h-76z" />
    <glyph glyph-name="Aacute" unicode="&#xc1;" horiz-adv-x="617" 
d="M266 680h90l244 -680h-90l-64 181h-277l-64 -181h-88zM197 259h222l-86 246l-24 82q-4 -15 -8 -29q-4 -12 -7.5 -26.5t-8.5 -26.5zM341 877h109l-97 -147h-76z" />
    <glyph glyph-name="Acircumflex" unicode="&#xc2;" horiz-adv-x="617" 
d="M266 680h90l244 -680h-90l-64 181h-277l-64 -181h-88zM197 259h222l-86 246l-24 82q-4 -15 -8 -29q-4 -12 -7.5 -26.5t-8.5 -26.5zM277 884h64l114 -154h-74l-72 79l-72 -79h-73z" />
    <glyph glyph-name="Atilde" unicode="&#xc3;" horiz-adv-x="617" 
d="M266 680h90l244 -680h-90l-64 181h-277l-64 -181h-88zM197 259h222l-86 246l-24 82q-4 -15 -8 -29q-4 -12 -7.5 -26.5t-8.5 -26.5zM146 727q5 51 32.5 85.5t71.5 34.5q21 0 38.5 -7.5t32.5 -16t28.5 -16t26.5 -7.5q18 0 28 13.5t12 33.5h56q-5 -51 -32.5 -85.5
t-71.5 -34.5q-21 0 -38.5 7.5t-32.5 16t-28.5 16t-26.5 7.5q-17 0 -27.5 -13.5t-12.5 -33.5h-56z" />
    <glyph glyph-name="Adieresis" unicode="&#xc4;" horiz-adv-x="617" 
d="M266 680h90l244 -680h-90l-64 181h-277l-64 -181h-88zM197 259h222l-86 246l-24 82q-4 -15 -8 -29q-4 -12 -7.5 -26.5t-8.5 -26.5zM355 825h93v-95h-93v95zM170 825h92v-95h-92v95z" />
    <glyph glyph-name="Aring" unicode="&#xc5;" horiz-adv-x="617" 
d="M266 680h90l244 -680h-90l-64 181h-277l-64 -181h-88zM197 259h222l-86 246l-24 82q-4 -15 -8 -29q-4 -12 -7.5 -26.5t-8.5 -26.5zM308 717q-24 0 -44.5 8.5t-35.5 23.5t-24 35.5t-9 43.5q0 24 9 44.5t24 35.5t35.5 23.5t44.5 8.5q23 0 43.5 -8.5t36 -23.5t24.5 -35.5
t9 -44.5q0 -23 -9 -43.5t-24.5 -35.5t-36 -23.5t-43.5 -8.5zM308 763q26 0 43.5 18.5t17.5 46.5t-17.5 47t-43.5 19t-43.5 -19t-17.5 -47t17.5 -46.5t43.5 -18.5z" />
    <glyph glyph-name="AE" unicode="&#xc6;" horiz-adv-x="928" 
d="M328 680h547v-79h-332v-204h278v-79h-278v-239h337v-79h-425v198h-264l-92 -198h-88zM227 276h228v325h-76z" />
    <glyph glyph-name="Ccedilla" unicode="&#xc7;" horiz-adv-x="696" 
d="M287 -89l45 80q-60 7 -112 35.5t-91 74t-61.5 107t-22.5 133.5q0 78 26 142.5t70.5 111t103.5 72.5t126 26q118 0 191.5 -60.5t100.5 -162.5h-86q-23 66 -72 106t-134 40q-50 0 -93 -19.5t-74.5 -55t-49.5 -86.5t-18 -114t18 -114t50 -87t75.5 -55.5t93.5 -19.5
q76 0 130.5 41t74.5 110h89q-28 -102 -97.5 -161.5t-175.5 -65.5l-28 -44q4 1 14 1q37 0 64.5 -23.5t27.5 -65.5q0 -23 -9 -40.5t-24 -29t-35 -17.5t-41 -6q-43 0 -76 21.5t-39 57.5h63q5 -12 17 -20t31 -8q20 0 33 11.5t13 29.5q0 19 -13 31t-32 12q-12 0 -21.5 -5
t-16.5 -11z" />
    <glyph glyph-name="Egrave" unicode="&#xc8;" horiz-adv-x="587" 
d="M86 680h448v-79h-360v-204h306v-79h-306v-239h365v-79h-453v680zM175 877h109l64 -147h-76z" />
    <glyph glyph-name="Eacute" unicode="&#xc9;" horiz-adv-x="587" 
d="M86 680h448v-79h-360v-204h306v-79h-306v-239h365v-79h-453v680zM328 877h109l-97 -147h-76z" />
    <glyph glyph-name="Ecircumflex" unicode="&#xca;" horiz-adv-x="587" 
d="M86 680h448v-79h-360v-204h306v-79h-306v-239h365v-79h-453v680zM278 884h64l114 -154h-74l-72 79l-72 -79h-73z" />
    <glyph glyph-name="Edieresis" unicode="&#xcb;" horiz-adv-x="587" 
d="M86 680h448v-79h-360v-204h306v-79h-306v-239h365v-79h-453v680zM362 825h93v-95h-93v95zM177 825h92v-95h-92v95z" />
    <glyph glyph-name="Igrave" unicode="&#xcc;" horiz-adv-x="266" 
d="M89 680h88v-680h-88v680zM-8 877h109l64 -147h-76z" />
    <glyph glyph-name="Iacute" unicode="&#xcd;" horiz-adv-x="266" 
d="M89 680h88v-680h-88v680zM165 877h109l-97 -147h-76z" />
    <glyph glyph-name="Icircumflex" unicode="&#xce;" horiz-adv-x="266" 
d="M89 680h88v-680h-88v680zM101 884h64l114 -154h-74l-72 79l-72 -79h-73z" />
    <glyph glyph-name="Idieresis" unicode="&#xcf;" horiz-adv-x="266" 
d="M89 680h88v-680h-88v680zM179 825h93v-95h-93v95zM-6 825h92v-95h-92v95z" />
    <glyph glyph-name="Eth" unicode="&#xd0;" horiz-adv-x="679" 
d="M23 393h63v287h225q74 0 133.5 -23.5t101.5 -67t65 -106.5t23 -142t-23 -142t-65 -107.5t-101.5 -68t-133.5 -23.5h-225v317h-63v76zM311 78q51 0 93.5 15.5t73.5 47.5t48 81.5t17 118.5q0 70 -17.5 119.5t-48 81t-73 46t-93.5 14.5h-137v-209h188v-76h-188v-239h137z
" />
    <glyph glyph-name="Ntilde" unicode="&#xd1;" horiz-adv-x="686" 
d="M86 680h97l337 -543v543h80v-680h-89l-345 555v-555h-80v680zM188 727q5 51 32.5 85.5t71.5 34.5q21 0 38.5 -7.5t32.5 -16t28.5 -16t26.5 -7.5q18 0 28 13.5t12 33.5h56q-5 -51 -32.5 -85.5t-71.5 -34.5q-21 0 -38.5 7.5t-32.5 16t-28.5 16t-26.5 7.5q-17 0 -27.5 -13.5
t-12.5 -33.5h-56z" />
    <glyph glyph-name="Ograve" unicode="&#xd2;" horiz-adv-x="748" 
d="M374 -12q-68 0 -128 26t-104.5 72.5t-70.5 111.5t-26 143t26 142.5t70.5 111t104.5 72.5t128 26q69 0 129 -25t104.5 -71.5t70 -111.5t25.5 -144q0 -78 -26 -143t-70.5 -111.5t-104.5 -72.5t-128 -26zM374 65q51 0 94.5 19.5t75.5 55.5t50 87t18 114q0 64 -17.5 115
t-49 86.5t-75.5 54.5t-96 19q-51 0 -94.5 -19.5t-75.5 -55t-50 -86.5t-18 -114t18 -114t50 -87t75.5 -55.5t94.5 -19.5zM232 877h109l64 -147h-76z" />
    <glyph glyph-name="Oacute" unicode="&#xd3;" horiz-adv-x="748" 
d="M374 -12q-68 0 -128 26t-104.5 72.5t-70.5 111.5t-26 143t26 142.5t70.5 111t104.5 72.5t128 26q69 0 129 -25t104.5 -71.5t70 -111.5t25.5 -144q0 -78 -26 -143t-70.5 -111.5t-104.5 -72.5t-128 -26zM374 65q51 0 94.5 19.5t75.5 55.5t50 87t18 114q0 64 -17.5 115
t-49 86.5t-75.5 54.5t-96 19q-51 0 -94.5 -19.5t-75.5 -55t-50 -86.5t-18 -114t18 -114t50 -87t75.5 -55.5t94.5 -19.5zM405 877h109l-97 -147h-76z" />
    <glyph glyph-name="Ocircumflex" unicode="&#xd4;" horiz-adv-x="748" 
d="M374 -12q-68 0 -128 26t-104.5 72.5t-70.5 111.5t-26 143t26 142.5t70.5 111t104.5 72.5t128 26q69 0 129 -25t104.5 -71.5t70 -111.5t25.5 -144q0 -78 -26 -143t-70.5 -111.5t-104.5 -72.5t-128 -26zM374 65q51 0 94.5 19.5t75.5 55.5t50 87t18 114q0 64 -17.5 115
t-49 86.5t-75.5 54.5t-96 19q-51 0 -94.5 -19.5t-75.5 -55t-50 -86.5t-18 -114t18 -114t50 -87t75.5 -55.5t94.5 -19.5zM341 884h64l114 -154h-74l-72 79l-72 -79h-73z" />
    <glyph glyph-name="Otilde" unicode="&#xd5;" horiz-adv-x="748" 
d="M374 -12q-68 0 -128 26t-104.5 72.5t-70.5 111.5t-26 143t26 142.5t70.5 111t104.5 72.5t128 26q69 0 129 -25t104.5 -71.5t70 -111.5t25.5 -144q0 -78 -26 -143t-70.5 -111.5t-104.5 -72.5t-128 -26zM374 65q51 0 94.5 19.5t75.5 55.5t50 87t18 114q0 64 -17.5 115
t-49 86.5t-75.5 54.5t-96 19q-51 0 -94.5 -19.5t-75.5 -55t-50 -86.5t-18 -114t18 -114t50 -87t75.5 -55.5t94.5 -19.5zM210 727q5 51 32.5 85.5t71.5 34.5q21 0 38.5 -7.5t32.5 -16t28.5 -16t26.5 -7.5q18 0 28 13.5t12 33.5h56q-5 -51 -32.5 -85.5t-71.5 -34.5
q-21 0 -38.5 7.5t-32.5 16t-28.5 16t-26.5 7.5q-17 0 -27.5 -13.5t-12.5 -33.5h-56z" />
    <glyph glyph-name="Odieresis" unicode="&#xd6;" horiz-adv-x="748" 
d="M374 -12q-68 0 -128 26t-104.5 72.5t-70.5 111.5t-26 143t26 142.5t70.5 111t104.5 72.5t128 26q69 0 129 -25t104.5 -71.5t70 -111.5t25.5 -144q0 -78 -26 -143t-70.5 -111.5t-104.5 -72.5t-128 -26zM374 65q51 0 94.5 19.5t75.5 55.5t50 87t18 114q0 64 -17.5 115
t-49 86.5t-75.5 54.5t-96 19q-51 0 -94.5 -19.5t-75.5 -55t-50 -86.5t-18 -114t18 -114t50 -87t75.5 -55.5t94.5 -19.5zM419 825h93v-95h-93v95zM234 825h92v-95h-92v95z" />
    <glyph glyph-name="multiply" unicode="&#xd7;" horiz-adv-x="498" 
d="M107 488l142 -142l142 142l49 -49l-142 -142l142 -142l-49 -49l-142 142l-142 -142l-49 49l142 142l-142 142z" />
    <glyph glyph-name="Oslash" unicode="&#xd8;" horiz-adv-x="748" 
d="M27 27l87 92q-32 45 -50.5 100.5t-18.5 121.5q0 78 26 142.5t70.5 111t104.5 72.5t128 26q60 0 113.5 -19.5t95.5 -55.5l80 85l50 -49l-81 -87q33 -45 52 -101.5t19 -124.5q0 -78 -26 -143t-70.5 -111.5t-104.5 -72.5t-128 -26q-61 0 -115.5 20.5t-97.5 58.5l-84 -89z
M374 65q51 0 94.5 19.5t75.5 55.5t50 87t18 114q0 97 -40 163l-356 -378q32 -29 71.5 -45t86.5 -16zM136 341q0 -92 37 -158l355 376q-63 57 -154 57q-51 0 -94.5 -19.5t-75.5 -55t-50 -86.5t-18 -114z" />
    <glyph glyph-name="Ugrave" unicode="&#xd9;" horiz-adv-x="667" 
d="M334 -12q-57 0 -104.5 17.5t-82.5 51.5t-54.5 83.5t-19.5 112.5v427h88v-427q0 -92 45 -140t128 -48q84 0 128 48t44 140v427h88v-427q0 -63 -19.5 -112.5t-54 -83.5t-82.5 -51.5t-104 -17.5zM206 877h109l64 -147h-76z" />
    <glyph glyph-name="Uacute" unicode="&#xda;" horiz-adv-x="667" 
d="M334 -12q-57 0 -104.5 17.5t-82.5 51.5t-54.5 83.5t-19.5 112.5v427h88v-427q0 -92 45 -140t128 -48q84 0 128 48t44 140v427h88v-427q0 -63 -19.5 -112.5t-54 -83.5t-82.5 -51.5t-104 -17.5zM366 877h109l-97 -147h-76z" />
    <glyph glyph-name="Ucircumflex" unicode="&#xdb;" horiz-adv-x="667" 
d="M334 -12q-57 0 -104.5 17.5t-82.5 51.5t-54.5 83.5t-19.5 112.5v427h88v-427q0 -92 45 -140t128 -48q84 0 128 48t44 140v427h88v-427q0 -63 -19.5 -112.5t-54 -83.5t-82.5 -51.5t-104 -17.5zM302 884h64l114 -154h-74l-72 79l-72 -79h-73z" />
    <glyph glyph-name="Udieresis" unicode="&#xdc;" horiz-adv-x="667" 
d="M334 -12q-57 0 -104.5 17.5t-82.5 51.5t-54.5 83.5t-19.5 112.5v427h88v-427q0 -92 45 -140t128 -48q84 0 128 48t44 140v427h88v-427q0 -63 -19.5 -112.5t-54 -83.5t-82.5 -51.5t-104 -17.5zM380 825h93v-95h-93v95zM195 825h92v-95h-92v95z" />
    <glyph glyph-name="Yacute" unicode="&#xdd;" horiz-adv-x="561" 
d="M236 282l-225 398h92l178 -317l179 317h90l-226 -398v-282h-88v282zM313 877h109l-97 -147h-76z" />
    <glyph glyph-name="Thorn" unicode="&#xde;" horiz-adv-x="611" 
d="M86 680h88v-109h188q51 0 91.5 -15t68 -42.5t42.5 -65.5t15 -83t-15 -82.5t-42.5 -64.5t-68 -42.5t-91.5 -15.5h-188v-160h-88v680zM362 239q57 0 92.5 29.5t35.5 96.5t-35.5 97t-92.5 30h-188v-253h188z" />
    <glyph glyph-name="germandbls" unicode="&#xdf;" horiz-adv-x="597" 
d="M321 -12q-48 0 -95 14v77q20 -7 45.5 -11.5t49.5 -4.5q68 0 109 37.5t41 105.5q0 39 -12.5 68t-34 48t-50 28t-60.5 9h-63v76h36q65 0 99 34t34 85q0 54 -34 84.5t-88 30.5q-26 0 -51.5 -8t-45.5 -26t-32.5 -47t-12.5 -72v-516h-82v516q0 53 17 95.5t47 72t71 45t89 15.5
q46 0 83.5 -14.5t64 -40t41 -60t14.5 -75.5q-1 -53 -23 -88t-65 -57q70 -23 106 -76t36 -125q0 -50 -17 -91t-48 -69.5t-74 -44t-95 -15.5z" />
    <glyph glyph-name="agrave" unicode="&#xe0;" 
d="M214 -12q-36 0 -67.5 8.5t-54.5 26t-36.5 44.5t-13.5 65q0 37 14 64t38.5 45.5t59 30t75.5 17.5q39 6 68.5 12t49.5 14.5t30.5 21.5t10.5 33q0 45 -28 64t-85 19q-47 0 -82 -21t-40 -65h-86q5 72 61 116.5t148 44.5q101 0 147.5 -43t46.5 -115v-266q0 -31 7 -60t13 -44
h-81q-5 11 -11 29t-8 41q-23 -35 -69 -58.5t-107 -23.5zM215 60q37 0 69 8.5t55 25t36 40t13 54.5v86q-16 -14 -51.5 -27t-104.5 -26q-59 -11 -84 -30.5t-25 -55.5q0 -38 25.5 -56.5t66.5 -18.5zM135 740h109l64 -147h-76z" />
    <glyph glyph-name="aacute" unicode="&#xe1;" 
d="M214 -12q-36 0 -67.5 8.5t-54.5 26t-36.5 44.5t-13.5 65q0 37 14 64t38.5 45.5t59 30t75.5 17.5q39 6 68.5 12t49.5 14.5t30.5 21.5t10.5 33q0 45 -28 64t-85 19q-47 0 -82 -21t-40 -65h-86q5 72 61 116.5t148 44.5q101 0 147.5 -43t46.5 -115v-266q0 -31 7 -60t13 -44
h-81q-5 11 -11 29t-8 41q-23 -35 -69 -58.5t-107 -23.5zM215 60q37 0 69 8.5t55 25t36 40t13 54.5v86q-16 -14 -51.5 -27t-104.5 -26q-59 -11 -84 -30.5t-25 -55.5q0 -38 25.5 -56.5t66.5 -18.5zM308 740h109l-97 -147h-76z" />
    <glyph glyph-name="acircumflex" unicode="&#xe2;" 
d="M214 -12q-36 0 -67.5 8.5t-54.5 26t-36.5 44.5t-13.5 65q0 37 14 64t38.5 45.5t59 30t75.5 17.5q39 6 68.5 12t49.5 14.5t30.5 21.5t10.5 33q0 45 -28 64t-85 19q-47 0 -82 -21t-40 -65h-86q5 72 61 116.5t148 44.5q101 0 147.5 -43t46.5 -115v-266q0 -31 7 -60t13 -44
h-81q-5 11 -11 29t-8 41q-23 -35 -69 -58.5t-107 -23.5zM215 60q37 0 69 8.5t55 25t36 40t13 54.5v86q-16 -14 -51.5 -27t-104.5 -26q-59 -11 -84 -30.5t-25 -55.5q0 -38 25.5 -56.5t66.5 -18.5zM244 747h64l114 -154h-74l-72 79l-72 -79h-73z" />
    <glyph glyph-name="atilde" unicode="&#xe3;" 
d="M214 -12q-36 0 -67.5 8.5t-54.5 26t-36.5 44.5t-13.5 65q0 37 14 64t38.5 45.5t59 30t75.5 17.5q39 6 68.5 12t49.5 14.5t30.5 21.5t10.5 33q0 45 -28 64t-85 19q-47 0 -82 -21t-40 -65h-86q5 72 61 116.5t148 44.5q101 0 147.5 -43t46.5 -115v-266q0 -31 7 -60t13 -44
h-81q-5 11 -11 29t-8 41q-23 -35 -69 -58.5t-107 -23.5zM215 60q37 0 69 8.5t55 25t36 40t13 54.5v86q-16 -14 -51.5 -27t-104.5 -26q-59 -11 -84 -30.5t-25 -55.5q0 -38 25.5 -56.5t66.5 -18.5zM113 590q5 51 32.5 85.5t71.5 34.5q21 0 38.5 -7.5t32.5 -16t28.5 -16
t26.5 -7.5q18 0 28 13.5t12 33.5h56q-5 -51 -32.5 -85.5t-71.5 -34.5q-21 0 -38.5 7.5t-32.5 16t-28.5 16t-26.5 7.5q-17 0 -27.5 -13.5t-12.5 -33.5h-56z" />
    <glyph glyph-name="adieresis" unicode="&#xe4;" 
d="M214 -12q-36 0 -67.5 8.5t-54.5 26t-36.5 44.5t-13.5 65q0 37 14 64t38.5 45.5t59 30t75.5 17.5q39 6 68.5 12t49.5 14.5t30.5 21.5t10.5 33q0 45 -28 64t-85 19q-47 0 -82 -21t-40 -65h-86q5 72 61 116.5t148 44.5q101 0 147.5 -43t46.5 -115v-266q0 -31 7 -60t13 -44
h-81q-5 11 -11 29t-8 41q-23 -35 -69 -58.5t-107 -23.5zM215 60q37 0 69 8.5t55 25t36 40t13 54.5v86q-16 -14 -51.5 -27t-104.5 -26q-59 -11 -84 -30.5t-25 -55.5q0 -38 25.5 -56.5t66.5 -18.5zM322 688h93v-95h-93v95zM137 688h92v-95h-92v95z" />
    <glyph glyph-name="aring" unicode="&#xe5;" 
d="M214 -12q-36 0 -67.5 8.5t-54.5 26t-36.5 44.5t-13.5 65q0 37 14 64t38.5 45.5t59 30t75.5 17.5q39 6 68.5 12t49.5 14.5t30.5 21.5t10.5 33q0 45 -28 64t-85 19q-47 0 -82 -21t-40 -65h-86q5 72 61 116.5t148 44.5q101 0 147.5 -43t46.5 -115v-266q0 -31 7 -60t13 -44
h-81q-5 11 -11 29t-8 41q-23 -35 -69 -58.5t-107 -23.5zM215 60q37 0 69 8.5t55 25t36 40t13 54.5v86q-16 -14 -51.5 -27t-104.5 -26q-59 -11 -84 -30.5t-25 -55.5q0 -38 25.5 -56.5t66.5 -18.5zM275 570q-24 0 -44.5 8.5t-35.5 23.5t-24 35.5t-9 43.5q0 24 9 44.5t24 35.5
t35.5 23.5t44.5 8.5q23 0 43.5 -8.5t36 -23.5t24.5 -35.5t9 -44.5q0 -23 -9 -43.5t-24.5 -35.5t-36 -23.5t-43.5 -8.5zM275 616q26 0 43.5 18.5t17.5 46.5t-17.5 47t-43.5 19t-43.5 -19t-17.5 -47t17.5 -46.5t43.5 -18.5z" />
    <glyph glyph-name="ae" unicode="&#xe6;" horiz-adv-x="915" 
d="M214 -12q-36 0 -67.5 8.5t-54.5 26t-36.5 44.5t-13.5 65q0 37 14 64t38.5 45.5t59 30t75.5 17.5q39 6 68.5 12t49.5 14.5t30 21.5t10 33q0 45 -27.5 64t-84.5 19q-47 0 -82 -21t-40 -65h-86q5 72 61 116.5t148 44.5q74 0 117.5 -25t60.5 -68q32 44 79 68.5t104 24.5
q48 0 92.5 -19t78 -56.5t52.5 -92.5t17 -128h-405q3 -43 18.5 -75t38.5 -53t51.5 -31.5t59.5 -10.5q54 0 88.5 22t49.5 60h87q-9 -34 -29 -62.5t-49 -49.5t-66.5 -32.5t-80.5 -11.5q-69 0 -124.5 31.5t-87.5 88.5q-18 -35 -43.5 -58t-54 -37t-58.5 -19.5t-58 -5.5zM215 60
q37 0 69 8.5t55.5 25t36.5 40t13 54.5v86q-16 -14 -52 -27t-105 -26q-59 -11 -84 -30.5t-25 -55.5q0 -38 25.5 -56.5t66.5 -18.5zM785 303q-4 39 -17.5 67.5t-33 47t-44.5 27.5t-53 9q-26 0 -51.5 -8.5t-47.5 -27t-39 -47t-24 -68.5h310z" />
    <glyph glyph-name="ccedilla" unicode="&#xe7;" horiz-adv-x="545" 
d="M511 158q-17 -71 -69 -116.5t-129 -52.5l-28 -44q4 1 14 1q37 0 64.5 -23.5t27.5 -65.5q0 -23 -9 -40.5t-24 -29t-35 -17.5t-41 -6q-43 0 -76 21.5t-39 57.5h63q5 -12 17 -20t31 -8q20 0 33 11.5t13 29.5q0 19 -13 31t-32 12q-12 0 -21.5 -5t-16.5 -11l-35 28l46 80
q-45 7 -83.5 29.5t-66.5 57.5t-44 80t-16 98q0 58 19.5 108t53 86.5t78.5 57t97 20.5q85 0 143 -45.5t78 -124.5h-87q-17 45 -51 70t-83 25q-35 0 -64.5 -13t-51.5 -38t-34.5 -62t-12.5 -84t12.5 -82.5t34.5 -60.5t51.5 -37.5t64.5 -12.5q50 0 84.5 25.5t49.5 69.5h87v0z
" />
    <glyph glyph-name="egrave" unicode="&#xe8;" horiz-adv-x="570" 
d="M295 -12q-54 0 -100 19.5t-80 55t-53.5 85t-19.5 109.5q0 59 19.5 108.5t53.5 85.5t79.5 56.5t97.5 20.5q48 0 92.5 -19t78 -56.5t52.5 -92.5t17 -128h-405q3 -43 18.5 -75t38.5 -53t51.5 -31.5t59.5 -10.5q54 0 88.5 22t49.5 60h87q-9 -34 -29 -62.5t-49 -49.5
t-66.5 -32.5t-80.5 -11.5zM440 303q-4 39 -17.5 67.5t-33 47t-44.5 27.5t-53 9q-26 0 -51.5 -8.5t-47.5 -27t-39 -47t-24 -68.5h310zM155 740h109l64 -147h-76z" />
    <glyph glyph-name="eacute" unicode="&#xe9;" horiz-adv-x="570" 
d="M295 -12q-54 0 -100 19.5t-80 55t-53.5 85t-19.5 109.5q0 59 19.5 108.5t53.5 85.5t79.5 56.5t97.5 20.5q48 0 92.5 -19t78 -56.5t52.5 -92.5t17 -128h-405q3 -43 18.5 -75t38.5 -53t51.5 -31.5t59.5 -10.5q54 0 88.5 22t49.5 60h87q-9 -34 -29 -62.5t-49 -49.5
t-66.5 -32.5t-80.5 -11.5zM440 303q-4 39 -17.5 67.5t-33 47t-44.5 27.5t-53 9q-26 0 -51.5 -8.5t-47.5 -27t-39 -47t-24 -68.5h310zM328 740h109l-97 -147h-76z" />
    <glyph glyph-name="ecircumflex" unicode="&#xea;" horiz-adv-x="570" 
d="M295 -12q-54 0 -100 19.5t-80 55t-53.5 85t-19.5 109.5q0 59 19.5 108.5t53.5 85.5t79.5 56.5t97.5 20.5q48 0 92.5 -19t78 -56.5t52.5 -92.5t17 -128h-405q3 -43 18.5 -75t38.5 -53t51.5 -31.5t59.5 -10.5q54 0 88.5 22t49.5 60h87q-9 -34 -29 -62.5t-49 -49.5
t-66.5 -32.5t-80.5 -11.5zM440 303q-4 39 -17.5 67.5t-33 47t-44.5 27.5t-53 9q-26 0 -51.5 -8.5t-47.5 -27t-39 -47t-24 -68.5h310zM264 747h64l114 -154h-74l-72 79l-72 -79h-73z" />
    <glyph glyph-name="edieresis" unicode="&#xeb;" horiz-adv-x="570" 
d="M295 -12q-54 0 -100 19.5t-80 55t-53.5 85t-19.5 109.5q0 59 19.5 108.5t53.5 85.5t79.5 56.5t97.5 20.5q48 0 92.5 -19t78 -56.5t52.5 -92.5t17 -128h-405q3 -43 18.5 -75t38.5 -53t51.5 -31.5t59.5 -10.5q54 0 88.5 22t49.5 60h87q-9 -34 -29 -62.5t-49 -49.5
t-66.5 -32.5t-80.5 -11.5zM440 303q-4 39 -17.5 67.5t-33 47t-44.5 27.5t-53 9q-26 0 -51.5 -8.5t-47.5 -27t-39 -47t-24 -68.5h310zM342 688h93v-95h-93v95zM157 688h92v-95h-92v95z" />
    <glyph glyph-name="igrave" unicode="&#xec;" horiz-adv-x="240" 
d="M79 515h82v-515h-82v515zM-21 780h109l64 -147h-76z" />
    <glyph glyph-name="iacute" unicode="&#xed;" horiz-adv-x="240" 
d="M79 515h82v-515h-82v515zM152 780h109l-97 -147h-76z" />
    <glyph glyph-name="icircumflex" unicode="&#xee;" horiz-adv-x="240" 
d="M79 515h82v-515h-82v515zM88 787h64l114 -154h-74l-72 79l-72 -79h-73z" />
    <glyph glyph-name="idieresis" unicode="&#xef;" horiz-adv-x="240" 
d="M79 515h82v-515h-82v515zM166 728h93v-95h-93v95zM-19 728h92v-95h-92v95z" />
    <glyph glyph-name="eth" unicode="&#xf0;" horiz-adv-x="578" 
d="M192 597l59 45q-32 26 -64 46l42 60q21 -13 42.5 -27t42.5 -31l68 51l37 -43l-61 -46q36 -34 68.5 -75.5t57 -89.5t38.5 -103t14 -117q0 -64 -18 -115.5t-50 -88t-78 -56t-101 -19.5q-52 0 -97 19.5t-78.5 54t-52.5 81.5t-19 103t19 104t51 83t74 55t88 20
q40 0 74.5 -13.5t61.5 -39.5q-19 37 -48 75t-67 74l-67 -51zM289 63q33 0 63 12t52 35.5t35 58t13 79.5t-13 79.5t-35.5 58.5t-52.5 36t-64 12q-33 0 -62 -12.5t-50.5 -36.5t-34.5 -59t-13 -80t13 -79t35 -57t51.5 -35t62.5 -12z" />
    <glyph glyph-name="ntilde" unicode="&#xf1;" horiz-adv-x="571" 
d="M78 515h79v-74q29 43 67 65t89 22q42 0 75.5 -15t57.5 -43t36.5 -67t12.5 -87v-316h-82v319q0 60 -29.5 96t-89.5 36q-29 0 -53.5 -9.5t-42.5 -26.5t-28 -41t-10 -53v-321h-82v515zM120 590q5 51 32.5 85.5t71.5 34.5q21 0 38.5 -7.5t32.5 -16t28.5 -16t26.5 -7.5
q18 0 28 13.5t12 33.5h56q-5 -51 -32.5 -85.5t-71.5 -34.5q-21 0 -38.5 7.5t-32.5 16t-28.5 16t-26.5 7.5q-17 0 -27.5 -13.5t-12.5 -33.5h-56z" />
    <glyph glyph-name="ograve" unicode="&#xf2;" horiz-adv-x="578" 
d="M289 -12q-52 0 -97 20t-78.5 56t-52.5 85t-19 107t19 108t52.5 86.5t78.5 57t97 20.5t97.5 -20.5t78.5 -57t52 -86.5t19 -108t-19 -107t-52 -85t-78.5 -56t-97.5 -20zM289 63q33 0 62.5 12.5t52 37.5t35.5 60.5t13 82.5t-13 84t-35.5 62t-52 38t-62.5 13q-32 0 -61.5 -13
t-52 -38t-35.5 -62t-13 -84t13 -82.5t35.5 -60.5t52 -37.5t61.5 -12.5zM149 740h109l64 -147h-76z" />
    <glyph glyph-name="oacute" unicode="&#xf3;" horiz-adv-x="578" 
d="M289 -12q-52 0 -97 20t-78.5 56t-52.5 85t-19 107t19 108t52.5 86.5t78.5 57t97 20.5t97.5 -20.5t78.5 -57t52 -86.5t19 -108t-19 -107t-52 -85t-78.5 -56t-97.5 -20zM289 63q33 0 62.5 12.5t52 37.5t35.5 60.5t13 82.5t-13 84t-35.5 62t-52 38t-62.5 13q-32 0 -61.5 -13
t-52 -38t-35.5 -62t-13 -84t13 -82.5t35.5 -60.5t52 -37.5t61.5 -12.5zM322 740h109l-97 -147h-76z" />
    <glyph glyph-name="ocircumflex" unicode="&#xf4;" horiz-adv-x="578" 
d="M289 -12q-52 0 -97 20t-78.5 56t-52.5 85t-19 107t19 108t52.5 86.5t78.5 57t97 20.5t97.5 -20.5t78.5 -57t52 -86.5t19 -108t-19 -107t-52 -85t-78.5 -56t-97.5 -20zM289 63q33 0 62.5 12.5t52 37.5t35.5 60.5t13 82.5t-13 84t-35.5 62t-52 38t-62.5 13q-32 0 -61.5 -13
t-52 -38t-35.5 -62t-13 -84t13 -82.5t35.5 -60.5t52 -37.5t61.5 -12.5zM258 747h64l114 -154h-74l-72 79l-72 -79h-73z" />
    <glyph glyph-name="otilde" unicode="&#xf5;" horiz-adv-x="578" 
d="M289 -12q-52 0 -97 20t-78.5 56t-52.5 85t-19 107t19 108t52.5 86.5t78.5 57t97 20.5t97.5 -20.5t78.5 -57t52 -86.5t19 -108t-19 -107t-52 -85t-78.5 -56t-97.5 -20zM289 63q33 0 62.5 12.5t52 37.5t35.5 60.5t13 82.5t-13 84t-35.5 62t-52 38t-62.5 13q-32 0 -61.5 -13
t-52 -38t-35.5 -62t-13 -84t13 -82.5t35.5 -60.5t52 -37.5t61.5 -12.5zM127 590q5 51 32.5 85.5t71.5 34.5q21 0 38.5 -7.5t32.5 -16t28.5 -16t26.5 -7.5q18 0 28 13.5t12 33.5h56q-5 -51 -32.5 -85.5t-71.5 -34.5q-21 0 -38.5 7.5t-32.5 16t-28.5 16t-26.5 7.5
q-17 0 -27.5 -13.5t-12.5 -33.5h-56z" />
    <glyph glyph-name="odieresis" unicode="&#xf6;" horiz-adv-x="578" 
d="M289 -12q-52 0 -97 20t-78.5 56t-52.5 85t-19 107t19 108t52.5 86.5t78.5 57t97 20.5t97.5 -20.5t78.5 -57t52 -86.5t19 -108t-19 -107t-52 -85t-78.5 -56t-97.5 -20zM289 63q33 0 62.5 12.5t52 37.5t35.5 60.5t13 82.5t-13 84t-35.5 62t-52 38t-62.5 13q-32 0 -61.5 -13
t-52 -38t-35.5 -62t-13 -84t13 -82.5t35.5 -60.5t52 -37.5t61.5 -12.5zM336 688h93v-95h-93v95zM151 688h92v-95h-92v95z" />
    <glyph glyph-name="divide" unicode="&#xf7;" horiz-adv-x="498" 
d="M46 337h406v-72h-406v72zM200 188h98v-96h-98v96zM200 510h98v-96h-98v96z" />
    <glyph glyph-name="oslash" unicode="&#xf8;" horiz-adv-x="578" 
d="M23 10l71 79q-25 34 -38.5 76t-13.5 91q0 58 19 108t52.5 86.5t78.5 57t97 20.5q43 0 81.5 -15t70.5 -41l67 74l47 -39l-73 -80q26 -35 40 -78t14 -93q0 -58 -19 -107t-52 -85t-78.5 -56t-97.5 -20q-88 0 -153 56l-67 -74zM289 63q33 0 62.5 12.5t52 37.5t35.5 60.5
t13 82.5q0 33 -6.5 60.5t-17.5 50.5l-242 -267q21 -19 47.5 -28t55.5 -9zM127 256q0 -32 5.5 -58.5t16.5 -48.5l241 267q-43 37 -101 37q-32 0 -61.5 -13t-52 -38t-35.5 -62t-13 -84z" />
    <glyph glyph-name="ugrave" unicode="&#xf9;" horiz-adv-x="571" 
d="M258 -12q-42 0 -75.5 15t-57.5 42.5t-36.5 66.5t-12.5 87v316h82v-319q0 -60 29.5 -95.5t89.5 -35.5q28 0 52.5 9.5t42.5 26.5t28.5 40.5t10.5 52.5v321h82v-515h-79v74q-29 -43 -67 -64.5t-89 -21.5zM153 740h109l64 -147h-76z" />
    <glyph glyph-name="uacute" unicode="&#xfa;" horiz-adv-x="571" 
d="M258 -12q-42 0 -75.5 15t-57.5 42.5t-36.5 66.5t-12.5 87v316h82v-319q0 -60 29.5 -95.5t89.5 -35.5q28 0 52.5 9.5t42.5 26.5t28.5 40.5t10.5 52.5v321h82v-515h-79v74q-29 -43 -67 -64.5t-89 -21.5zM316 740h109l-97 -147h-76z" />
    <glyph glyph-name="ucircumflex" unicode="&#xfb;" horiz-adv-x="571" 
d="M258 -12q-42 0 -75.5 15t-57.5 42.5t-36.5 66.5t-12.5 87v316h82v-319q0 -60 29.5 -95.5t89.5 -35.5q28 0 52.5 9.5t42.5 26.5t28.5 40.5t10.5 52.5v321h82v-515h-79v74q-29 -43 -67 -64.5t-89 -21.5zM252 747h64l114 -154h-74l-72 79l-72 -79h-73z" />
    <glyph glyph-name="udieresis" unicode="&#xfc;" horiz-adv-x="571" 
d="M258 -12q-42 0 -75.5 15t-57.5 42.5t-36.5 66.5t-12.5 87v316h82v-319q0 -60 29.5 -95.5t89.5 -35.5q28 0 52.5 9.5t42.5 26.5t28.5 40.5t10.5 52.5v321h82v-515h-79v74q-29 -43 -67 -64.5t-89 -21.5zM330 688h93v-95h-93v95zM145 688h92v-95h-92v95z" />
    <glyph glyph-name="yacute" unicode="&#xfd;" horiz-adv-x="494" 
d="M57 -135h10q48 0 75 17.5t41 57.5l23 63l-191 512h89l126 -354q5 -13 8.5 -27l6.5 -26q4 -14 6 -29q2 15 6 29l6.5 26t8.5 27l121 354h86l-218 -597q-26 -71 -76 -99t-117 -28h-11v74zM280 740h109l-97 -147h-76z" />
    <glyph glyph-name="thorn" unicode="&#xfe;" horiz-adv-x="611" 
d="M78 744h82v-321q23 43 68.5 74t106.5 31q51 0 94 -21t74 -58t48.5 -86t17.5 -104q0 -56 -17.5 -105.5t-48.5 -86.5t-74 -58t-94 -21q-60 0 -106 28.5t-69 73.5v-299h-82v953zM322 63q33 0 63 12.5t52 37.5t35 60.5t13 82.5t-13 84t-35 62t-52 38t-63 13t-62.5 -13
t-51.5 -38t-35 -62t-13 -84t13 -82.5t35 -60.5t51.5 -37.5t62.5 -12.5z" />
    <glyph glyph-name="ydieresis" unicode="&#xff;" horiz-adv-x="494" 
d="M57 -135h10q48 0 75 17.5t41 57.5l23 63l-191 512h89l126 -354q5 -13 8.5 -27l6.5 -26q4 -14 6 -29q2 15 6 29l6.5 26t8.5 27l121 354h86l-218 -597q-26 -71 -76 -99t-117 -28h-11v74zM294 688h93v-95h-93v95zM109 688h92v-95h-92v95z" />
    <glyph glyph-name="Amacron" unicode="&#x100;" horiz-adv-x="617" 
d="M266 680h90l244 -680h-90l-64 181h-277l-64 -181h-88zM197 259h222l-86 246l-24 82q-4 -15 -8 -29q-4 -12 -7.5 -26.5t-8.5 -26.5zM178 829h262v-70h-262v70z" />
    <glyph glyph-name="amacron" unicode="&#x101;" 
d="M214 -12q-36 0 -67.5 8.5t-54.5 26t-36.5 44.5t-13.5 65q0 37 14 64t38.5 45.5t59 30t75.5 17.5q39 6 68.5 12t49.5 14.5t30.5 21.5t10.5 33q0 45 -28 64t-85 19q-47 0 -82 -21t-40 -65h-86q5 72 61 116.5t148 44.5q101 0 147.5 -43t46.5 -115v-266q0 -31 7 -60t13 -44
h-81q-5 11 -11 29t-8 41q-23 -35 -69 -58.5t-107 -23.5zM215 60q37 0 69 8.5t55 25t36 40t13 54.5v86q-16 -14 -51.5 -27t-104.5 -26q-59 -11 -84 -30.5t-25 -55.5q0 -38 25.5 -56.5t66.5 -18.5zM145 692h262v-70h-262v70z" />
    <glyph glyph-name="Abreve" unicode="&#x102;" horiz-adv-x="617" 
d="M266 680h90l244 -680h-90l-64 181h-277l-64 -181h-88zM197 259h222l-86 246l-24 82q-4 -15 -8 -29q-4 -12 -7.5 -26.5t-8.5 -26.5zM308 730q-64 0 -102.5 40t-43.5 101h61q7 -27 26.5 -48t59.5 -21q39 0 59 21t26 48h61q-5 -61 -43.5 -101t-103.5 -40z" />
    <glyph glyph-name="abreve" unicode="&#x103;" 
d="M214 -12q-36 0 -67.5 8.5t-54.5 26t-36.5 44.5t-13.5 65q0 37 14 64t38.5 45.5t59 30t75.5 17.5q39 6 68.5 12t49.5 14.5t30.5 21.5t10.5 33q0 45 -28 64t-85 19q-47 0 -82 -21t-40 -65h-86q5 72 61 116.5t148 44.5q101 0 147.5 -43t46.5 -115v-266q0 -31 7 -60t13 -44
h-81q-5 11 -11 29t-8 41q-23 -35 -69 -58.5t-107 -23.5zM215 60q37 0 69 8.5t55 25t36 40t13 54.5v86q-16 -14 -51.5 -27t-104.5 -26q-59 -11 -84 -30.5t-25 -55.5q0 -38 25.5 -56.5t66.5 -18.5zM275 593q-64 0 -102.5 40t-43.5 101h61q7 -27 26.5 -48t59.5 -21q39 0 59 21
t26 48h61q-5 -61 -43.5 -101t-103.5 -40z" />
    <glyph glyph-name="Aogonek" unicode="&#x104;" horiz-adv-x="617" 
d="M530 -236q-45 0 -76.5 24.5t-31.5 68.5q0 25 10.5 46.5t26 39.5t33 32.5t32.5 24.5h-14l-64 181h-277l-64 -181h-88l249 680h90l244 -680h-16q-48 -46 -71.5 -78t-23.5 -64q0 -19 11 -31t31 -12q19 0 29.5 8.5t15.5 19.5h63q-7 -34 -36.5 -56.5t-72.5 -22.5zM197 259h222
l-86 246l-24 82q-4 -15 -8 -29q-4 -12 -7.5 -26.5t-8.5 -26.5z" />
    <glyph glyph-name="aogonek" unicode="&#x105;" 
d="M436 -236q-45 0 -76.5 24.5t-31.5 68.5q0 25 10.5 46.5t26 39.5t33 32.5t32.5 24.5h-21q-5 11 -11 29t-8 41q-23 -35 -69 -58.5t-107 -23.5q-36 0 -67.5 8.5t-54.5 26t-36.5 44.5t-13.5 65q0 37 14 64t38.5 45.5t59 30t75.5 17.5q39 6 68.5 12t49.5 14.5t30.5 21.5
t10.5 33q0 45 -28 64t-85 19q-47 0 -82 -21t-40 -65h-86q5 72 61 116.5t148 44.5q101 0 147.5 -43t46.5 -115v-266q0 -31 7 -60t13 -44q-48 -46 -71.5 -78t-23.5 -64q0 -19 11 -31t31 -12q19 0 29.5 8.5t15.5 19.5h63q-7 -34 -36.5 -56.5t-72.5 -22.5zM215 60q37 0 69 8.5
t55 25t36 40t13 54.5v86q-16 -14 -51.5 -27t-104.5 -26q-59 -11 -84 -30.5t-25 -55.5q0 -38 25.5 -56.5t66.5 -18.5z" />
    <glyph glyph-name="Cacute" unicode="&#x106;" horiz-adv-x="696" 
d="M373 -12q-67 0 -126.5 26t-104.5 72.5t-71 111.5t-26 143t26 142.5t70.5 111t103.5 72.5t126 26q118 0 191.5 -60.5t100.5 -162.5h-86q-23 66 -72 106t-134 40q-50 0 -93 -19.5t-74.5 -55t-49.5 -86.5t-18 -114t18 -114t50 -87t75.5 -55.5t93.5 -19.5q76 0 130.5 41
t74.5 110h89q-29 -106 -104 -167t-190 -61zM404 877h109l-97 -147h-76z" />
    <glyph glyph-name="cacute" unicode="&#x107;" horiz-adv-x="545" 
d="M290 -12q-52 0 -97 20t-78.5 56t-53 85t-19.5 107t19.5 108t53 86.5t78.5 57t97 20.5q85 0 143 -45.5t78 -124.5h-87q-17 45 -51 70t-83 25q-35 0 -64.5 -13t-51.5 -38t-34.5 -62t-12.5 -84t12.5 -82.5t34.5 -60.5t51.5 -37.5t64.5 -12.5q50 0 84.5 25.5t49.5 69.5h87
q-18 -76 -76.5 -123t-144.5 -47zM315 740h109l-97 -147h-76z" />
    <glyph glyph-name="Ccircumflex" unicode="&#x108;" horiz-adv-x="696" 
d="M373 -12q-67 0 -126.5 26t-104.5 72.5t-71 111.5t-26 143t26 142.5t70.5 111t103.5 72.5t126 26q118 0 191.5 -60.5t100.5 -162.5h-86q-23 66 -72 106t-134 40q-50 0 -93 -19.5t-74.5 -55t-49.5 -86.5t-18 -114t18 -114t50 -87t75.5 -55.5t93.5 -19.5q76 0 130.5 41
t74.5 110h89q-29 -106 -104 -167t-190 -61zM340 884h64l114 -154h-74l-72 79l-72 -79h-73z" />
    <glyph glyph-name="ccircumflex" unicode="&#x109;" horiz-adv-x="545" 
d="M290 -12q-52 0 -97 20t-78.5 56t-53 85t-19.5 107t19.5 108t53 86.5t78.5 57t97 20.5q85 0 143 -45.5t78 -124.5h-87q-17 45 -51 70t-83 25q-35 0 -64.5 -13t-51.5 -38t-34.5 -62t-12.5 -84t12.5 -82.5t34.5 -60.5t51.5 -37.5t64.5 -12.5q50 0 84.5 25.5t49.5 69.5h87
q-18 -76 -76.5 -123t-144.5 -47zM254 747h64l114 -154h-74l-72 79l-72 -79h-73z" />
    <glyph glyph-name="Ccaron" unicode="&#x10c;" horiz-adv-x="696" 
d="M373 -12q-67 0 -126.5 26t-104.5 72.5t-71 111.5t-26 143t26 142.5t70.5 111t103.5 72.5t126 26q118 0 191.5 -60.5t100.5 -162.5h-86q-23 66 -72 106t-134 40q-50 0 -93 -19.5t-74.5 -55t-49.5 -86.5t-18 -114t18 -114t50 -87t75.5 -55.5t93.5 -19.5q76 0 130.5 41
t74.5 110h89q-29 -106 -104 -167t-190 -61zM226 881h74l72 -79l72 79h73l-113 -154h-64z" />
    <glyph glyph-name="ccaron" unicode="&#x10d;" horiz-adv-x="545" 
d="M290 -12q-52 0 -97 20t-78.5 56t-53 85t-19.5 107t19.5 108t53 86.5t78.5 57t97 20.5q85 0 143 -45.5t78 -124.5h-87q-17 45 -51 70t-83 25q-35 0 -64.5 -13t-51.5 -38t-34.5 -62t-12.5 -84t12.5 -82.5t34.5 -60.5t51.5 -37.5t64.5 -12.5q50 0 84.5 25.5t49.5 69.5h87
q-18 -76 -76.5 -123t-144.5 -47zM144 744h74l72 -79l72 79h73l-113 -154h-64z" />
    <glyph glyph-name="Dcaron" unicode="&#x10e;" horiz-adv-x="679" 
d="M86 680h225q74 0 133.5 -23.5t101.5 -67t65 -106.5t23 -142t-23 -142t-65 -107.5t-101.5 -68t-133.5 -23.5h-225v680zM311 78q51 0 93.5 15.5t73.5 47.5t48 81.5t17 118.5q0 70 -17.5 119.5t-48 81t-73 46t-93.5 14.5h-137v-524h137zM156 881h74l72 -79l72 79h73
l-113 -154h-64z" />
    <glyph glyph-name="dcaron" unicode="&#x10f;" horiz-adv-x="651" 
d="M276 -12q-51 0 -94 21t-74 58t-48.5 86.5t-17.5 105.5q0 55 17.5 104t48.5 86t74 58t94 21q61 0 106.5 -31t68.5 -74v321h82v-744h-79v97q-24 -48 -71 -78.5t-107 -30.5zM289 63q33 0 62.5 12.5t51.5 37.5t35 60.5t13 82.5t-13 84t-35 62t-51.5 38t-62.5 13t-63 -13
t-52 -38t-35 -62t-13 -84t13 -82.5t35 -60.5t52 -37.5t63 -12.5zM582 563q24 2 38.5 17t14.5 44v15h-52v105h103v-120q0 -27 -8.5 -46.5t-23 -32.5t-33 -20t-39.5 -8v46z" />
    <glyph glyph-name="Dcroat" unicode="&#x110;" horiz-adv-x="679" 
d="M23 393h63v287h225q74 0 133.5 -23.5t101.5 -67t65 -106.5t23 -142t-23 -142t-65 -107.5t-101.5 -68t-133.5 -23.5h-225v317h-63v76zM311 78q51 0 93.5 15.5t73.5 47.5t48 81.5t17 118.5q0 70 -17.5 119.5t-48 81t-73 46t-93.5 14.5h-137v-209h188v-76h-188v-239h137z
" />
    <glyph glyph-name="dcroat" unicode="&#x111;" horiz-adv-x="611" 
d="M597 599h-64v-599h-79v97q-24 -48 -71 -78.5t-107 -30.5q-51 0 -94 21t-74 58t-48.5 86.5t-17.5 105.5q0 55 17.5 104t48.5 86t74 58t94 21q61 0 106.5 -31t68.5 -74v176h-125v67h125v78h82v-78h64v-67zM289 63q33 0 62.5 12.5t51.5 37.5t35 60.5t13 82.5t-13 84t-35 62
t-51.5 38t-62.5 13t-63 -13t-52 -38t-35 -62t-13 -84t13 -82.5t35 -60.5t52 -37.5t63 -12.5z" />
    <glyph glyph-name="Emacron" unicode="&#x112;" horiz-adv-x="587" 
d="M86 680h448v-79h-360v-204h306v-79h-306v-239h365v-79h-453v680zM179 829h262v-70h-262v70z" />
    <glyph glyph-name="emacron" unicode="&#x113;" horiz-adv-x="570" 
d="M295 -12q-54 0 -100 19.5t-80 55t-53.5 85t-19.5 109.5q0 59 19.5 108.5t53.5 85.5t79.5 56.5t97.5 20.5q48 0 92.5 -19t78 -56.5t52.5 -92.5t17 -128h-405q3 -43 18.5 -75t38.5 -53t51.5 -31.5t59.5 -10.5q54 0 88.5 22t49.5 60h87q-9 -34 -29 -62.5t-49 -49.5
t-66.5 -32.5t-80.5 -11.5zM440 303q-4 39 -17.5 67.5t-33 47t-44.5 27.5t-53 9q-26 0 -51.5 -8.5t-47.5 -27t-39 -47t-24 -68.5h310zM165 692h262v-70h-262v70z" />
    <glyph glyph-name="Edotaccent" unicode="&#x116;" horiz-adv-x="587" 
d="M86 680h448v-79h-360v-204h306v-79h-306v-239h365v-79h-453v680zM270 825h92v-95h-92v95z" />
    <glyph glyph-name="edotaccent" unicode="&#x117;" horiz-adv-x="570" 
d="M295 -12q-54 0 -100 19.5t-80 55t-53.5 85t-19.5 109.5q0 59 19.5 108.5t53.5 85.5t79.5 56.5t97.5 20.5q48 0 92.5 -19t78 -56.5t52.5 -92.5t17 -128h-405q3 -43 18.5 -75t38.5 -53t51.5 -31.5t59.5 -10.5q54 0 88.5 22t49.5 60h87q-9 -34 -29 -62.5t-49 -49.5
t-66.5 -32.5t-80.5 -11.5zM440 303q-4 39 -17.5 67.5t-33 47t-44.5 27.5t-53 9q-26 0 -51.5 -8.5t-47.5 -27t-39 -47t-24 -68.5h310zM250 688h92v-95h-92v95z" />
    <glyph glyph-name="Eogonek" unicode="&#x118;" horiz-adv-x="587" 
d="M86 680h448v-79h-360v-204h306v-79h-306v-239h365v-79h-31q-48 -46 -71.5 -78t-23.5 -64q0 -19 11 -31t31 -12q19 0 29.5 8.5t15.5 19.5h63q-7 -34 -36.5 -56.5t-72.5 -22.5q-45 0 -76.5 24.5t-31.5 68.5q0 25 10.5 46.5t26 39.5t33 32.5t32.5 24.5h-362v680z" />
    <glyph glyph-name="eogonek" unicode="&#x119;" horiz-adv-x="570" 
d="M304 -236q-45 0 -76.5 24.5t-31.5 68.5q0 22 8 41t20.5 35.5t27.5 30.5t29 25q-51 3 -94.5 23.5t-76 55.5t-50.5 83t-18 106q0 59 19.5 108.5t53.5 85.5t79.5 56.5t97.5 20.5q48 0 92.5 -19t78 -56.5t52.5 -92.5t17 -128h-405q3 -43 18.5 -75t38.5 -53t51.5 -31.5
t59.5 -10.5q54 0 88.5 22t49.5 60h87q-15 -57 -59 -97t-110 -53q-44 -43 -66 -73.5t-22 -62.5q0 -19 11 -31t31 -12q19 0 29.5 8.5t15.5 19.5h63q-7 -34 -36.5 -56.5t-72.5 -22.5zM440 303q-4 39 -17.5 67.5t-33 47t-44.5 27.5t-53 9q-26 0 -51.5 -8.5t-47.5 -27t-39 -47
t-24 -68.5h310z" />
    <glyph glyph-name="Ecaron" unicode="&#x11a;" horiz-adv-x="587" 
d="M86 680h448v-79h-360v-204h306v-79h-306v-239h365v-79h-453v680zM164 881h74l72 -79l72 79h73l-113 -154h-64z" />
    <glyph glyph-name="ecaron" unicode="&#x11b;" horiz-adv-x="570" 
d="M295 -12q-54 0 -100 19.5t-80 55t-53.5 85t-19.5 109.5q0 59 19.5 108.5t53.5 85.5t79.5 56.5t97.5 20.5q48 0 92.5 -19t78 -56.5t52.5 -92.5t17 -128h-405q3 -43 18.5 -75t38.5 -53t51.5 -31.5t59.5 -10.5q54 0 88.5 22t49.5 60h87q-9 -34 -29 -62.5t-49 -49.5
t-66.5 -32.5t-80.5 -11.5zM440 303q-4 39 -17.5 67.5t-33 47t-44.5 27.5t-53 9q-26 0 -51.5 -8.5t-47.5 -27t-39 -47t-24 -68.5h310zM145 744h74l72 -79l72 79h73l-113 -154h-64z" />
    <glyph glyph-name="Gcircumflex" unicode="&#x11c;" horiz-adv-x="734" 
d="M370 -12q-68 0 -127 26t-103 72.5t-69.5 111.5t-25.5 143t25.5 142.5t70 111t103.5 72.5t126 26q49 0 95.5 -13t85.5 -40t67.5 -67.5t42.5 -95.5h-88q-11 37 -31 63t-47 43t-59 25t-66 8q-51 0 -94 -19.5t-74 -55t-48.5 -86.5t-17.5 -114t17.5 -114t48.5 -87t74 -55.5
t94 -19.5q50 0 90.5 16.5t70 44t46.5 64.5t19 79h-189v80h272v-349h-82v113q-15 -25 -35.5 -47.5t-48.5 -40t-63.5 -27.5t-79.5 -10zM338 884h64l114 -154h-74l-72 79l-72 -79h-73z" />
    <glyph glyph-name="gcircumflex" unicode="&#x11d;" horiz-adv-x="609" 
d="M293 -219q-44 0 -83.5 11t-70.5 32t-53 51.5t-31 69.5h90q18 -48 56.5 -68t91.5 -20q48 0 78.5 14.5t48.5 39t24.5 57t6.5 69.5v68q-23 -46 -69 -75.5t-106 -29.5q-51 0 -94 20.5t-74 56.5t-48.5 84.5t-17.5 103.5q0 54 17.5 102t48.5 84t74 56.5t94 20.5q61 0 107.5 -32
t70.5 -77v96h79v-478q0 -128 -62.5 -192t-177.5 -64zM289 75q33 0 62.5 12t51.5 36t35 59t13 80q0 46 -13 81.5t-35 60t-51.5 37t-62.5 12.5t-63 -12.5t-52 -37t-35 -60t-13 -81.5q0 -45 13 -80t35 -59t52 -36t63 -12zM252 747h64l114 -154h-74l-72 79l-72 -79h-73z" />
    <glyph glyph-name="Gbreve" unicode="&#x11e;" horiz-adv-x="734" 
d="M370 -12q-68 0 -127 26t-103 72.5t-69.5 111.5t-25.5 143t25.5 142.5t70 111t103.5 72.5t126 26q49 0 95.5 -13t85.5 -40t67.5 -67.5t42.5 -95.5h-88q-11 37 -31 63t-47 43t-59 25t-66 8q-51 0 -94 -19.5t-74 -55t-48.5 -86.5t-17.5 -114t17.5 -114t48.5 -87t74 -55.5
t94 -19.5q50 0 90.5 16.5t70 44t46.5 64.5t19 79h-189v80h272v-349h-82v113q-15 -25 -35.5 -47.5t-48.5 -40t-63.5 -27.5t-79.5 -10zM369 730q-64 0 -102.5 40t-43.5 101h61q7 -27 26.5 -48t59.5 -21q39 0 59 21t26 48h61q-5 -61 -43.5 -101t-103.5 -40z" />
    <glyph glyph-name="gbreve" unicode="&#x11f;" horiz-adv-x="609" 
d="M293 -219q-44 0 -83.5 11t-70.5 32t-53 51.5t-31 69.5h90q18 -48 56.5 -68t91.5 -20q48 0 78.5 14.5t48.5 39t24.5 57t6.5 69.5v68q-23 -46 -69 -75.5t-106 -29.5q-51 0 -94 20.5t-74 56.5t-48.5 84.5t-17.5 103.5q0 54 17.5 102t48.5 84t74 56.5t94 20.5q61 0 107.5 -32
t70.5 -77v96h79v-478q0 -128 -62.5 -192t-177.5 -64zM289 75q33 0 62.5 12t51.5 36t35 59t13 80q0 46 -13 81.5t-35 60t-51.5 37t-62.5 12.5t-63 -12.5t-52 -37t-35 -60t-13 -81.5q0 -45 13 -80t35 -59t52 -36t63 -12zM283 593q-64 0 -102.5 40t-43.5 101h61q7 -27 26.5 -48
t59.5 -21q39 0 59 21t26 48h61q-5 -61 -43.5 -101t-103.5 -40z" />
    <glyph glyph-name="Gcommaaccent" unicode="&#x122;" horiz-adv-x="734" 
d="M370 -12q-68 0 -127 26t-103 72.5t-69.5 111.5t-25.5 143t25.5 142.5t70 111t103.5 72.5t126 26q49 0 95.5 -13t85.5 -40t67.5 -67.5t42.5 -95.5h-88q-11 37 -31 63t-47 43t-59 25t-66 8q-51 0 -94 -19.5t-74 -55t-48.5 -86.5t-17.5 -114t17.5 -114t48.5 -87t74 -55.5
t94 -19.5q50 0 90.5 16.5t70 44t46.5 64.5t19 79h-189v80h272v-349h-82v113q-15 -25 -35.5 -47.5t-48.5 -40t-63.5 -27.5t-79.5 -10zM316 -239q24 2 38.5 17t14.5 44v15h-52v105h103v-120q0 -27 -8.5 -46.5t-23 -32.5t-33 -20t-39.5 -8v46z" />
    <glyph glyph-name="gcommaaccent" unicode="&#x123;" horiz-adv-x="609" 
d="M474 46h88q-14 -22 -37.5 -33t-50.5 -13v46zM578 102q-1 -32 -16 -56h-88q23 2 37 16t16 40h51zM293 102q-44 0 -83.5 11t-70.5 32t-53 51.5t-31 69.5h90q18 -48 56.5 -68t91.5 -20q48 0 78.5 14.5t48.5 39t24.5 57t6.5 69.5v68q-23 -46 -69 -75.5t-106 -29.5
q-51 0 -94 20.5t-74 56.5t-48.5 84.5t-17.5 103.5q0 54 17.5 102t48.5 84t74 56.5t94 20.5q61 0 107.5 -32t70.5 -77v96h79v-478q0 -128 -62.5 -192t-177.5 -64zM289 396q33 0 62.5 12t51.5 36t35 59t13 80q0 46 -13 81.5t-35 60t-51.5 37t-62.5 12.5t-63 -12.5t-52 -37
t-35 -60t-13 -81.5q0 -45 13 -80t35 -59t52 -36t63 -12zM328 1096q-24 -2 -38.5 -17t-14.5 -44v-15h52v-105h-103v120q0 27 8.5 46.5t23 32.5t33 19.5t39.5 8.5v-46zM578 1095h-103h103zM578 975v-5h-51v5h51z" />
    <glyph glyph-name="Hcircumflex" unicode="&#x124;" horiz-adv-x="696" 
d="M86 680h88v-283h348v283h88v-680h-88v317h-348v-317h-88v680zM317 884h64l114 -154h-74l-72 79l-72 -79h-73z" />
    <glyph glyph-name="hcircumflex" unicode="&#x125;" horiz-adv-x="571" 
d="M78 744h82v-300q26 40 64 62t89 22q42 0 75.5 -15t57.5 -43t36.5 -67t12.5 -87v-316h-82v319q0 60 -29.5 96t-89.5 36q-29 0 -53.5 -9.5t-42.5 -26.5t-28 -41t-10 -53v-321h-82v744zM250 927h64l114 -154h-74l-72 79l-72 -79h-73z" />
    <glyph glyph-name="Imacron" unicode="&#x12a;" horiz-adv-x="266" 
d="M89 680h88v-680h-88v680zM2 829h262v-70h-262v70z" />
    <glyph glyph-name="imacron" unicode="&#x12b;" horiz-adv-x="240" 
d="M79 515h82v-515h-82v515zM-11 732h262v-70h-262v70z" />
    <glyph glyph-name="Iogonek" unicode="&#x12e;" horiz-adv-x="266" 
d="M89 680h88v-680q-48 -46 -71.5 -78t-23.5 -64q0 -19 11 -31t31 -12q19 0 29.5 8.5t15.5 19.5h63q-7 -34 -36.5 -56.5t-72.5 -22.5q-45 0 -76.5 24.5t-31.5 68.5q0 25 10.5 46.5t26 39.5t33 32.5t32.5 24.5h-28v680z" />
    <glyph glyph-name="iogonek" unicode="&#x12f;" horiz-adv-x="240" 
d="M79 515h82v-515q-48 -46 -71.5 -78t-23.5 -64q0 -19 11 -31t31 -12q19 0 29.5 8.5t15.5 19.5h63q-7 -34 -36.5 -56.5t-72.5 -22.5q-45 0 -76.5 24.5t-31.5 68.5q0 25 10.5 46.5t26 39.5t33 32.5t32.5 24.5h-22v515zM75 714h90v-101h-90v101z" />
    <glyph glyph-name="Idotaccent" unicode="&#x130;" horiz-adv-x="266" 
d="M89 680h88v-680h-88v680zM87 825h92v-95h-92v95z" />
    <glyph glyph-name="dotlessi" unicode="&#x131;" horiz-adv-x="240" 
d="M79 515h82v-515h-82v515z" />
    <glyph glyph-name="Jcircumflex" unicode="&#x134;" horiz-adv-x="534" 
d="M244 -12q-49 0 -88.5 16.5t-68 46.5t-44 72t-15.5 93h87q0 -30 7 -57.5t22.5 -48t40 -33t59.5 -12.5q71 0 100 42.5t29 120.5v452h88v-452q0 -55 -13.5 -99t-41 -75.5t-68 -48.5t-94.5 -17zM385 884h64l114 -154h-74l-72 79l-72 -79h-73z" />
    <glyph glyph-name="jcircumflex" unicode="&#x135;" horiz-adv-x="240" 
d="M-14 -135h16q38 0 57.5 18t19.5 62v570h82v-571q0 -75 -43 -114t-116 -39h-16v74zM88 787h64l114 -154h-74l-72 79l-72 -79h-73z" />
    <glyph glyph-name="Kcommaaccent" unicode="&#x136;" horiz-adv-x="628" 
d="M281 348l-114 -119v-229h-81v680h81v-350l335 350h98l-263 -274l271 -406h-96zM269 -239q24 2 38.5 17t14.5 44v15h-52v105h103v-120q0 -27 -8.5 -46.5t-23 -32.5t-33 -20t-39.5 -8v46z" />
    <glyph glyph-name="kcommaaccent" unicode="&#x137;" horiz-adv-x="527" 
d="M245 251l-85 -90v-161h-82v744h82v-479l234 250h101l-191 -202l209 -313h-100zM232 -239q24 2 38.5 17t14.5 44v15h-52v105h103v-120q0 -27 -8.5 -46.5t-23 -32.5t-33 -20t-39.5 -8v46z" />
    <glyph glyph-name="Lacute" unicode="&#x139;" horiz-adv-x="532" 
d="M86 680h88v-601h328v-79h-416v680zM160 877h109l-97 -147h-76z" />
    <glyph glyph-name="lacute" unicode="&#x13a;" horiz-adv-x="242" 
d="M80 744h82v-744h-82v744zM146 920h109l-97 -147h-76z" />
    <glyph glyph-name="Lcommaaccent" unicode="&#x13b;" horiz-adv-x="532" 
d="M86 680h88v-601h328v-79h-416v680zM236 -239q24 2 38.5 17t14.5 44v15h-52v105h103v-120q0 -27 -8.5 -46.5t-23 -32.5t-33 -20t-39.5 -8v46z" />
    <glyph glyph-name="lcommaaccent" unicode="&#x13c;" horiz-adv-x="242" 
d="M80 744h82v-744h-82v744zM67 -239q24 2 38.5 17t14.5 44v15h-52v105h103v-120q0 -27 -8.5 -46.5t-23 -32.5t-33 -20t-39.5 -8v46z" />
    <glyph glyph-name="Lcaron" unicode="&#x13d;" horiz-adv-x="532" 
d="M86 680h88v-601h328v-79h-416v680zM378 499q24 2 38.5 17t14.5 44v15h-52v105h103v-120q0 -27 -8.5 -46.5t-23 -32.5t-33 -20t-39.5 -8v46z" />
    <glyph glyph-name="lcaron" unicode="&#x13e;" horiz-adv-x="280" 
d="M80 744h82v-744h-82v744zM211 563q24 2 38.5 17t14.5 44v15h-52v105h103v-120q0 -27 -8.5 -46.5t-23 -32.5t-33 -20t-39.5 -8v46z" />
    <glyph glyph-name="Lslash" unicode="&#x141;" horiz-adv-x="532" 
d="M3 276l83 42v362h88v-318l172 87v-76l-172 -87v-207h328v-79h-416v242l-83 -42v76z" />
    <glyph glyph-name="lslash" unicode="&#x142;" horiz-adv-x="283" 
d="M17 332l83 48v364h82v-316l95 56v-77l-95 -56v-351h-82v303l-83 -48v77z" />
    <glyph glyph-name="Nacute" unicode="&#x143;" horiz-adv-x="686" 
d="M86 680h97l337 -543v543h80v-680h-89l-345 555v-555h-80v680zM384 877h109l-97 -147h-76z" />
    <glyph glyph-name="nacute" unicode="&#x144;" horiz-adv-x="571" 
d="M78 515h79v-74q29 43 67 65t89 22q42 0 75.5 -15t57.5 -43t36.5 -67t12.5 -87v-316h-82v319q0 60 -29.5 96t-89.5 36q-29 0 -53.5 -9.5t-42.5 -26.5t-28 -41t-10 -53v-321h-82v515zM328 740h109l-97 -147h-76z" />
    <glyph glyph-name="Ncommaaccent" unicode="&#x145;" horiz-adv-x="686" 
d="M86 680h97l337 -543v543h80v-680h-89l-345 555v-555h-80v680zM294 -239q24 2 38.5 17t14.5 44v15h-52v105h103v-120q0 -27 -8.5 -46.5t-23 -32.5t-33 -20t-39.5 -8v46z" />
    <glyph glyph-name="ncommaaccent" unicode="&#x146;" horiz-adv-x="571" 
d="M78 515h79v-74q29 43 67 65t89 22q42 0 75.5 -15t57.5 -43t36.5 -67t12.5 -87v-316h-82v319q0 60 -29.5 96t-89.5 36q-29 0 -53.5 -9.5t-42.5 -26.5t-28 -41t-10 -53v-321h-82v515zM236 -239q24 2 38.5 17t14.5 44v15h-52v105h103v-120q0 -27 -8.5 -46.5t-23 -32.5
t-33 -20t-39.5 -8v46z" />
    <glyph glyph-name="Ncaron" unicode="&#x147;" horiz-adv-x="686" 
d="M86 680h97l337 -543v543h80v-680h-89l-345 555v-555h-80v680zM219 881h74l72 -79l72 79h73l-113 -154h-64z" />
    <glyph glyph-name="ncaron" unicode="&#x148;" horiz-adv-x="571" 
d="M78 515h79v-74q29 43 67 65t89 22q42 0 75.5 -15t57.5 -43t36.5 -67t12.5 -87v-316h-82v319q0 60 -29.5 96t-89.5 36q-29 0 -53.5 -9.5t-42.5 -26.5t-28 -41t-10 -53v-321h-82v515zM146 744h74l72 -79l72 79h73l-113 -154h-64z" />
    <glyph glyph-name="Omacron" unicode="&#x14c;" horiz-adv-x="748" 
d="M374 -12q-68 0 -128 26t-104.5 72.5t-70.5 111.5t-26 143t26 142.5t70.5 111t104.5 72.5t128 26q69 0 129 -25t104.5 -71.5t70 -111.5t25.5 -144q0 -78 -26 -143t-70.5 -111.5t-104.5 -72.5t-128 -26zM374 65q51 0 94.5 19.5t75.5 55.5t50 87t18 114q0 64 -17.5 115
t-49 86.5t-75.5 54.5t-96 19q-51 0 -94.5 -19.5t-75.5 -55t-50 -86.5t-18 -114t18 -114t50 -87t75.5 -55.5t94.5 -19.5zM242 829h262v-70h-262v70z" />
    <glyph glyph-name="omacron" unicode="&#x14d;" horiz-adv-x="578" 
d="M289 -12q-52 0 -97 20t-78.5 56t-52.5 85t-19 107t19 108t52.5 86.5t78.5 57t97 20.5t97.5 -20.5t78.5 -57t52 -86.5t19 -108t-19 -107t-52 -85t-78.5 -56t-97.5 -20zM289 63q33 0 62.5 12.5t52 37.5t35.5 60.5t13 82.5t-13 84t-35.5 62t-52 38t-62.5 13q-32 0 -61.5 -13
t-52 -38t-35.5 -62t-13 -84t13 -82.5t35.5 -60.5t52 -37.5t61.5 -12.5zM159 692h262v-70h-262v70z" />
    <glyph glyph-name="Ohungarumlaut" unicode="&#x150;" horiz-adv-x="748" 
d="M374 -12q-68 0 -128 26t-104.5 72.5t-70.5 111.5t-26 143t26 142.5t70.5 111t104.5 72.5t128 26q69 0 129 -25t104.5 -71.5t70 -111.5t25.5 -144q0 -78 -26 -143t-70.5 -111.5t-104.5 -72.5t-128 -26zM374 65q51 0 94.5 19.5t75.5 55.5t50 87t18 114q0 64 -17.5 115
t-49 86.5t-75.5 54.5t-96 19q-51 0 -94.5 -19.5t-75.5 -55t-50 -86.5t-18 -114t18 -114t50 -87t75.5 -55.5t94.5 -19.5zM457 877h99l-78 -147h-76zM294 877h99l-78 -147h-76z" />
    <glyph glyph-name="ohungarumlaut" unicode="&#x151;" horiz-adv-x="578" 
d="M289 -12q-52 0 -97 20t-78.5 56t-52.5 85t-19 107t19 108t52.5 86.5t78.5 57t97 20.5t97.5 -20.5t78.5 -57t52 -86.5t19 -108t-19 -107t-52 -85t-78.5 -56t-97.5 -20zM289 63q33 0 62.5 12.5t52 37.5t35.5 60.5t13 82.5t-13 84t-35.5 62t-52 38t-62.5 13q-32 0 -61.5 -13
t-52 -38t-35.5 -62t-13 -84t13 -82.5t35.5 -60.5t52 -37.5t61.5 -12.5zM374 740h99l-78 -147h-76zM211 740h99l-78 -147h-76z" />
    <glyph glyph-name="OE" unicode="&#x152;" horiz-adv-x="1113" 
d="M374 -12q-68 0 -128 26t-104.5 72.5t-70.5 111.5t-26 143t26 142.5t70.5 111t104.5 72.5t128 26q76 0 136.5 -30.5t101.5 -88.5v106h448v-79h-360v-204h306v-79h-306v-239h365v-79h-453v111q-42 -60 -102.5 -91.5t-135.5 -31.5zM374 65q51 0 94.5 19.5t75.5 55.5t50 87
t18 114q0 64 -17.5 115t-49 86.5t-75.5 54.5t-96 19q-51 0 -94.5 -19.5t-75.5 -55t-50 -86.5t-18 -114t18 -114t50 -87t75.5 -55.5t94.5 -19.5z" />
    <glyph glyph-name="oe" unicode="&#x153;" horiz-adv-x="980" 
d="M289 -12q-52 0 -97 20t-78.5 56t-52.5 85t-19 107t19 108t52.5 86.5t78.5 57t97 20.5q69 0 122.5 -36.5t82.5 -97.5q31 62 85 98t123 36q48 0 92.5 -19t78 -56.5t52.5 -92.5t17 -128h-405q3 -43 18.5 -75t38.5 -53t51.5 -31.5t59.5 -10.5q54 0 88.5 22t49.5 60h87
q-9 -34 -29 -62.5t-49 -49.5t-66.5 -32.5t-80.5 -11.5q-71 0 -125.5 35t-85.5 95q-30 -59 -83 -94.5t-122 -35.5zM289 63q33 0 62.5 12.5t52 37.5t35.5 60.5t13 82.5t-13 84t-35.5 62t-52 38t-62.5 13q-32 0 -61.5 -13t-52 -38t-35.5 -62t-13 -84t13 -82.5t35.5 -60.5
t52 -37.5t61.5 -12.5zM850 302q-4 39 -17.5 67.5t-33 47t-44.5 27.5t-53 9q-26 0 -51.5 -8.5t-47.5 -27t-39 -47t-24 -68.5h310z" />
    <glyph glyph-name="Racute" unicode="&#x154;" horiz-adv-x="650" 
d="M86 680h284q51 0 90.5 -15t67.5 -41.5t42.5 -63t14.5 -80.5q0 -52 -24 -91t-80 -64q44 -15 63 -47t25 -89l9 -83q4 -38 11 -64.5t13 -41.5h-83q-7 14 -13 37t-9 60l-7 81q-5 54 -29 78.5t-81 24.5h-209v-281h-85v680zM378 361q60 0 91 31.5t31 87.5q0 63 -34 92t-96 29
h-199v-240h207zM346 877h109l-97 -147h-76z" />
    <glyph glyph-name="racute" unicode="&#x155;" horiz-adv-x="361" 
d="M78 515h79v-87q15 27 35.5 46t43 30t46.5 15t45 1v-83q-34 3 -64 -3.5t-53 -24t-36.5 -45t-13.5 -66.5v-298h-82v515zM239 740h109l-97 -147h-76z" />
    <glyph glyph-name="Rcommaaccent" unicode="&#x156;" horiz-adv-x="650" 
d="M86 680h284q51 0 90.5 -15t67.5 -41.5t42.5 -63t14.5 -80.5q0 -52 -24 -91t-80 -64q44 -15 63 -47t25 -89l9 -83q4 -38 11 -64.5t13 -41.5h-83q-7 14 -13 37t-9 60l-7 81q-5 54 -29 78.5t-81 24.5h-209v-281h-85v680zM378 361q60 0 91 31.5t31 87.5q0 63 -34 92t-96 29
h-199v-240h207zM290 -239q24 2 38.5 17t14.5 44v15h-52v105h103v-120q0 -27 -8.5 -46.5t-23 -32.5t-33 -20t-39.5 -8v46z" />
    <glyph glyph-name="rcommaaccent" unicode="&#x157;" horiz-adv-x="361" 
d="M78 515h79v-87q15 27 35.5 46t43 30t46.5 15t45 1v-83q-34 3 -64 -3.5t-53 -24t-36.5 -45t-13.5 -66.5v-298h-82v515zM69 -239q24 2 38.5 17t14.5 44v15h-52v105h103v-120q0 -27 -8.5 -46.5t-23 -32.5t-33 -20t-39.5 -8v46z" />
    <glyph glyph-name="Rcaron" unicode="&#x158;" horiz-adv-x="650" 
d="M86 680h284q51 0 90.5 -15t67.5 -41.5t42.5 -63t14.5 -80.5q0 -52 -24 -91t-80 -64q44 -15 63 -47t25 -89l9 -83q4 -38 11 -64.5t13 -41.5h-83q-7 14 -13 37t-9 60l-7 81q-5 54 -29 78.5t-81 24.5h-209v-281h-85v680zM378 361q60 0 91 31.5t31 87.5q0 63 -34 92t-96 29
h-199v-240h207zM168 881h74l72 -79l72 79h73l-113 -154h-64z" />
    <glyph glyph-name="rcaron" unicode="&#x159;" horiz-adv-x="361" 
d="M78 515h79v-87q15 27 35.5 46t43 30t46.5 15t45 1v-83q-34 3 -64 -3.5t-53 -24t-36.5 -45t-13.5 -66.5v-298h-82v515zM61 744h74l72 -79l72 79h73l-113 -154h-64z" />
    <glyph glyph-name="Sacute" unicode="&#x15a;" horiz-adv-x="593" 
d="M305 -12q-59 0 -107.5 17t-83 47t-54.5 70.5t-22 86.5h88q3 -66 51.5 -105t127.5 -39q81 0 121 32.5t40 84.5q0 24 -7 43t-26 35t-53 28.5t-88 24.5q-58 12 -101 28.5t-71.5 39.5t-42.5 55t-14 76q0 43 16.5 77t46.5 57t71 35t90 12q112 0 175 -53t72 -142h-86
q-5 50 -44 84t-116 34q-71 0 -105.5 -27t-34.5 -75q0 -22 6.5 -39t24.5 -31t50 -25.5t83 -23.5q58 -13 102.5 -28.5t74.5 -39.5t45.5 -59t15.5 -86q0 -47 -18.5 -83.5t-51 -61t-77.5 -37t-98 -12.5zM318 877h109l-97 -147h-76z" />
    <glyph glyph-name="sacute" unicode="&#x15b;" horiz-adv-x="505" 
d="M261 -13q-45 0 -83.5 11.5t-68 33t-48 52t-23.5 67.5h83q10 -38 45 -63.5t95 -25.5q59 0 92 23t33 56q0 17 -4.5 30t-19 22.5t-41 17.5t-71.5 14t-81 16.5t-61 28.5t-38.5 44t-13.5 64q0 27 10.5 54t34 48.5t60 34.5t88.5 13q87 0 140 -41t63 -110h-83q-10 36 -42 56
t-78 20q-56 0 -83.5 -21.5t-27.5 -50.5q0 -16 6 -27.5t20.5 -20.5t38.5 -15.5t61 -12.5q43 -7 80 -16t64 -25.5t42.5 -45t15.5 -74.5q0 -38 -15.5 -67t-42.5 -49t-64.5 -30.5t-82.5 -10.5zM277 740h109l-97 -147h-76z" />
    <glyph glyph-name="Scircumflex" unicode="&#x15c;" horiz-adv-x="593" 
d="M305 -12q-59 0 -107.5 17t-83 47t-54.5 70.5t-22 86.5h88q3 -66 51.5 -105t127.5 -39q81 0 121 32.5t40 84.5q0 24 -7 43t-26 35t-53 28.5t-88 24.5q-58 12 -101 28.5t-71.5 39.5t-42.5 55t-14 76q0 43 16.5 77t46.5 57t71 35t90 12q112 0 175 -53t72 -142h-86
q-5 50 -44 84t-116 34q-71 0 -105.5 -27t-34.5 -75q0 -22 6.5 -39t24.5 -31t50 -25.5t83 -23.5q58 -13 102.5 -28.5t74.5 -39.5t45.5 -59t15.5 -86q0 -47 -18.5 -83.5t-51 -61t-77.5 -37t-98 -12.5zM254 884h64l114 -154h-74l-72 79l-72 -79h-73z" />
    <glyph glyph-name="scircumflex" unicode="&#x15d;" horiz-adv-x="505" 
d="M261 -13q-45 0 -83.5 11.5t-68 33t-48 52t-23.5 67.5h83q10 -38 45 -63.5t95 -25.5q59 0 92 23t33 56q0 17 -4.5 30t-19 22.5t-41 17.5t-71.5 14t-81 16.5t-61 28.5t-38.5 44t-13.5 64q0 27 10.5 54t34 48.5t60 34.5t88.5 13q87 0 140 -41t63 -110h-83q-10 36 -42 56
t-78 20q-56 0 -83.5 -21.5t-27.5 -50.5q0 -16 6 -27.5t20.5 -20.5t38.5 -15.5t61 -12.5q43 -7 80 -16t64 -25.5t42.5 -45t15.5 -74.5q0 -38 -15.5 -67t-42.5 -49t-64.5 -30.5t-82.5 -10.5zM219 747h64l114 -154h-74l-72 79l-72 -79h-73z" />
    <glyph glyph-name="Scedilla" unicode="&#x15e;" horiz-adv-x="593" 
d="M550 182q0 -44 -15.5 -78t-43.5 -58.5t-67 -38.5t-85 -18l-29 -44q4 1 14 1q37 0 64.5 -23.5t27.5 -65.5q0 -23 -9 -40.5t-24 -29t-35 -17.5t-41 -6q-43 0 -76 21.5t-39 57.5h63q5 -12 17 -20t31 -8q20 0 33 11.5t13 29.5q0 19 -13 31t-32 12q-12 0 -21.5 -5t-16.5 -11
l-35 28l44 78q-53 4 -96 23t-73.5 48t-48.5 67.5t-19 81.5h88q3 -66 51.5 -105t127.5 -39q81 0 121 32.5t40 84.5q0 24 -7 43t-26 35t-53 28.5t-88 24.5q-58 12 -101 28.5t-71.5 39.5t-42.5 55t-14 76q0 43 16.5 77t46.5 57t71 35t90 12q112 0 175 -53t72 -142h-86
q-5 50 -44 84t-116 34q-71 0 -105.5 -27t-34.5 -75q0 -22 6.5 -39t24.5 -31t50 -25.5t83 -23.5q58 -13 102.5 -28.5t74.5 -39.5t45.5 -59t15.5 -86z" />
    <glyph glyph-name="Scedilla" unicode="&#xf6c1;" horiz-adv-x="593" 
d="M550 182q0 -44 -15.5 -78t-43.5 -58.5t-67 -38.5t-85 -18l-29 -44q4 1 14 1q37 0 64.5 -23.5t27.5 -65.5q0 -23 -9 -40.5t-24 -29t-35 -17.5t-41 -6q-43 0 -76 21.5t-39 57.5h63q5 -12 17 -20t31 -8q20 0 33 11.5t13 29.5q0 19 -13 31t-32 12q-12 0 -21.5 -5t-16.5 -11
l-35 28l44 78q-53 4 -96 23t-73.5 48t-48.5 67.5t-19 81.5h88q3 -66 51.5 -105t127.5 -39q81 0 121 32.5t40 84.5q0 24 -7 43t-26 35t-53 28.5t-88 24.5q-58 12 -101 28.5t-71.5 39.5t-42.5 55t-14 76q0 43 16.5 77t46.5 57t71 35t90 12q112 0 175 -53t72 -142h-86
q-5 50 -44 84t-116 34q-71 0 -105.5 -27t-34.5 -75q0 -22 6.5 -39t24.5 -31t50 -25.5t83 -23.5q58 -13 102.5 -28.5t74.5 -39.5t45.5 -59t15.5 -86z" />
    <glyph glyph-name="scedilla" unicode="&#x15f;" horiz-adv-x="505" 
d="M466 144q0 -35 -13 -63t-37 -47.5t-57 -31t-72 -14.5l-28 -43q4 1 14 1q37 0 64.5 -23.5t27.5 -65.5q0 -23 -9 -40.5t-24 -29t-35 -17.5t-41 -6q-43 0 -76 21.5t-39 57.5h63q5 -12 17 -20t31 -8q20 0 33 11.5t13 29.5q0 19 -13 31t-32 12q-12 0 -21.5 -5t-16.5 -11
l-35 28l45 78q-78 8 -128 51.5t-59 110.5h83q10 -38 45 -63.5t95 -25.5q59 0 92 23t33 56q0 17 -4.5 30t-19 22.5t-41 17.5t-71.5 14t-81 16.5t-61 28.5t-38.5 44t-13.5 64q0 27 10.5 54t34 48.5t60 34.5t88.5 13q87 0 140 -41t63 -110h-83q-10 36 -42 56t-78 20
q-56 0 -83.5 -21.5t-27.5 -50.5q0 -16 6 -27.5t20.5 -20.5t38.5 -15.5t61 -12.5q43 -7 80 -16t64 -25.5t42.5 -45t15.5 -74.5z" />
    <glyph glyph-name="scedilla" unicode="&#xf6c2;" horiz-adv-x="505" 
d="M466 144q0 -35 -13 -63t-37 -47.5t-57 -31t-72 -14.5l-28 -43q4 1 14 1q37 0 64.5 -23.5t27.5 -65.5q0 -23 -9 -40.5t-24 -29t-35 -17.5t-41 -6q-43 0 -76 21.5t-39 57.5h63q5 -12 17 -20t31 -8q20 0 33 11.5t13 29.5q0 19 -13 31t-32 12q-12 0 -21.5 -5t-16.5 -11
l-35 28l45 78q-78 8 -128 51.5t-59 110.5h83q10 -38 45 -63.5t95 -25.5q59 0 92 23t33 56q0 17 -4.5 30t-19 22.5t-41 17.5t-71.5 14t-81 16.5t-61 28.5t-38.5 44t-13.5 64q0 27 10.5 54t34 48.5t60 34.5t88.5 13q87 0 140 -41t63 -110h-83q-10 36 -42 56t-78 20
q-56 0 -83.5 -21.5t-27.5 -50.5q0 -16 6 -27.5t20.5 -20.5t38.5 -15.5t61 -12.5q43 -7 80 -16t64 -25.5t42.5 -45t15.5 -74.5z" />
    <glyph glyph-name="Scaron" unicode="&#x160;" horiz-adv-x="593" 
d="M305 -12q-59 0 -107.5 17t-83 47t-54.5 70.5t-22 86.5h88q3 -66 51.5 -105t127.5 -39q81 0 121 32.5t40 84.5q0 24 -7 43t-26 35t-53 28.5t-88 24.5q-58 12 -101 28.5t-71.5 39.5t-42.5 55t-14 76q0 43 16.5 77t46.5 57t71 35t90 12q112 0 175 -53t72 -142h-86
q-5 50 -44 84t-116 34q-71 0 -105.5 -27t-34.5 -75q0 -22 6.5 -39t24.5 -31t50 -25.5t83 -23.5q58 -13 102.5 -28.5t74.5 -39.5t45.5 -59t15.5 -86q0 -47 -18.5 -83.5t-51 -61t-77.5 -37t-98 -12.5zM140 881h74l72 -79l72 79h73l-113 -154h-64z" />
    <glyph glyph-name="scaron" unicode="&#x161;" horiz-adv-x="505" 
d="M261 -13q-45 0 -83.5 11.5t-68 33t-48 52t-23.5 67.5h83q10 -38 45 -63.5t95 -25.5q59 0 92 23t33 56q0 17 -4.5 30t-19 22.5t-41 17.5t-71.5 14t-81 16.5t-61 28.5t-38.5 44t-13.5 64q0 27 10.5 54t34 48.5t60 34.5t88.5 13q87 0 140 -41t63 -110h-83q-10 36 -42 56
t-78 20q-56 0 -83.5 -21.5t-27.5 -50.5q0 -16 6 -27.5t20.5 -20.5t38.5 -15.5t61 -12.5q43 -7 80 -16t64 -25.5t42.5 -45t15.5 -74.5q0 -38 -15.5 -67t-42.5 -49t-64.5 -30.5t-82.5 -10.5zM105 744h74l72 -79l72 79h73l-113 -154h-64z" />
    <glyph glyph-name="Tcommaaccent" unicode="&#x162;" horiz-adv-x="548" 
d="M230 601h-205v79h498v-79h-205v-601h-88v601zM220 -239q24 2 38.5 17t14.5 44v15h-52v105h103v-120q0 -27 -8.5 -46.5t-23 -32.5t-33 -20t-39.5 -8v46z" />
    <glyph glyph-name="Tcommaaccent" unicode="&#x21a;" horiz-adv-x="548" 
d="M230 601h-205v79h498v-79h-205v-601h-88v601zM220 -239q24 2 38.5 17t14.5 44v15h-52v105h103v-120q0 -27 -8.5 -46.5t-23 -32.5t-33 -20t-39.5 -8v46z" />
    <glyph glyph-name="tcommaaccent" unicode="&#x163;" horiz-adv-x="338" 
d="M273 -9q-81 0 -128 47t-47 142v259h-75v76h75v147h82v-147h117v-76h-117v-259q0 -64 27.5 -88.5t73.5 -24.5q13 0 17 1q4 0 7 1v-75q-4 -1 -9 -2t-10.5 -1h-12.5zM142 -239q24 2 38.5 17t14.5 44v15h-52v105h103v-120q0 -27 -8.5 -46.5t-23 -32.5t-33 -20t-39.5 -8v46z
" />
    <glyph glyph-name="tcommaaccent" unicode="&#x21b;" horiz-adv-x="338" 
d="M273 -9q-81 0 -128 47t-47 142v259h-75v76h75v147h82v-147h117v-76h-117v-259q0 -64 27.5 -88.5t73.5 -24.5q13 0 17 1q4 0 7 1v-75q-4 -1 -9 -2t-10.5 -1h-12.5zM142 -239q24 2 38.5 17t14.5 44v15h-52v105h103v-120q0 -27 -8.5 -46.5t-23 -32.5t-33 -20t-39.5 -8v46z
" />
    <glyph glyph-name="Tcaron" unicode="&#x164;" horiz-adv-x="548" 
d="M230 601h-205v79h498v-79h-205v-601h-88v601zM128 881h74l72 -79l72 79h73l-113 -154h-64z" />
    <glyph glyph-name="tcaron" unicode="&#x165;" horiz-adv-x="409" 
d="M273 -9q-81 0 -128 47t-47 142v259h-75v76h75v147h82v-147h117v-76h-117v-259q0 -64 27.5 -88.5t73.5 -24.5q13 0 17 1q4 0 7 1v-75q-4 -1 -9 -2t-10.5 -1h-12.5zM340 563q24 2 38.5 17t14.5 44v15h-52v105h103v-120q0 -27 -8.5 -46.5t-23 -32.5t-33 -20t-39.5 -8v46z
" />
    <glyph glyph-name="Umacron" unicode="&#x16a;" horiz-adv-x="667" 
d="M334 -12q-57 0 -104.5 17.5t-82.5 51.5t-54.5 83.5t-19.5 112.5v427h88v-427q0 -92 45 -140t128 -48q84 0 128 48t44 140v427h88v-427q0 -63 -19.5 -112.5t-54 -83.5t-82.5 -51.5t-104 -17.5zM203 829h262v-70h-262v70z" />
    <glyph glyph-name="umacron" unicode="&#x16b;" horiz-adv-x="571" 
d="M258 -12q-42 0 -75.5 15t-57.5 42.5t-36.5 66.5t-12.5 87v316h82v-319q0 -60 29.5 -95.5t89.5 -35.5q28 0 52.5 9.5t42.5 26.5t28.5 40.5t10.5 52.5v321h82v-515h-79v74q-29 -43 -67 -64.5t-89 -21.5zM153 692h262v-70h-262v70z" />
    <glyph glyph-name="Ubreve" unicode="&#x16c;" horiz-adv-x="667" 
d="M334 -12q-57 0 -104.5 17.5t-82.5 51.5t-54.5 83.5t-19.5 112.5v427h88v-427q0 -92 45 -140t128 -48q84 0 128 48t44 140v427h88v-427q0 -63 -19.5 -112.5t-54 -83.5t-82.5 -51.5t-104 -17.5zM333 730q-64 0 -102.5 40t-43.5 101h61q7 -27 26.5 -48t59.5 -21q39 0 59 21
t26 48h61q-5 -61 -43.5 -101t-103.5 -40z" />
    <glyph glyph-name="ubreve" unicode="&#x16d;" horiz-adv-x="571" 
d="M258 -12q-42 0 -75.5 15t-57.5 42.5t-36.5 66.5t-12.5 87v316h82v-319q0 -60 29.5 -95.5t89.5 -35.5q28 0 52.5 9.5t42.5 26.5t28.5 40.5t10.5 52.5v321h82v-515h-79v74q-29 -43 -67 -64.5t-89 -21.5zM283 593q-64 0 -102.5 40t-43.5 101h61q7 -27 26.5 -48t59.5 -21
q39 0 59 21t26 48h61q-5 -61 -43.5 -101t-103.5 -40z" />
    <glyph glyph-name="Uring" unicode="&#x16e;" horiz-adv-x="667" 
d="M334 -12q-57 0 -104.5 17.5t-82.5 51.5t-54.5 83.5t-19.5 112.5v427h88v-427q0 -92 45 -140t128 -48q84 0 128 48t44 140v427h88v-427q0 -63 -19.5 -112.5t-54 -83.5t-82.5 -51.5t-104 -17.5zM333 707q-24 0 -44.5 8.5t-35.5 23.5t-24 35.5t-9 43.5q0 24 9 44.5t24 35.5
t35.5 23.5t44.5 8.5q23 0 43.5 -8.5t36 -23.5t24.5 -35.5t9 -44.5q0 -23 -9 -43.5t-24.5 -35.5t-36 -23.5t-43.5 -8.5zM333 753q26 0 43.5 18.5t17.5 46.5t-17.5 47t-43.5 19t-43.5 -19t-17.5 -47t17.5 -46.5t43.5 -18.5z" />
    <glyph glyph-name="uring" unicode="&#x16f;" horiz-adv-x="571" 
d="M258 -12q-42 0 -75.5 15t-57.5 42.5t-36.5 66.5t-12.5 87v316h82v-319q0 -60 29.5 -95.5t89.5 -35.5q28 0 52.5 9.5t42.5 26.5t28.5 40.5t10.5 52.5v321h82v-515h-79v74q-29 -43 -67 -64.5t-89 -21.5zM283 570q-24 0 -44.5 8.5t-35.5 23.5t-24 35.5t-9 43.5q0 24 9 44.5
t24 35.5t35.5 23.5t44.5 8.5q23 0 43.5 -8.5t36 -23.5t24.5 -35.5t9 -44.5q0 -23 -9 -43.5t-24.5 -35.5t-36 -23.5t-43.5 -8.5zM283 616q26 0 43.5 18.5t17.5 46.5t-17.5 47t-43.5 19t-43.5 -19t-17.5 -47t17.5 -46.5t43.5 -18.5z" />
    <glyph glyph-name="Uhungarumlaut" unicode="&#x170;" horiz-adv-x="667" 
d="M334 -12q-57 0 -104.5 17.5t-82.5 51.5t-54.5 83.5t-19.5 112.5v427h88v-427q0 -92 45 -140t128 -48q84 0 128 48t44 140v427h88v-427q0 -63 -19.5 -112.5t-54 -83.5t-82.5 -51.5t-104 -17.5zM425 877h99l-78 -147h-76zM262 877h99l-78 -147h-76z" />
    <glyph glyph-name="uhungarumlaut" unicode="&#x171;" horiz-adv-x="571" 
d="M258 -12q-42 0 -75.5 15t-57.5 42.5t-36.5 66.5t-12.5 87v316h82v-319q0 -60 29.5 -95.5t89.5 -35.5q28 0 52.5 9.5t42.5 26.5t28.5 40.5t10.5 52.5v321h82v-515h-79v74q-29 -43 -67 -64.5t-89 -21.5zM378 740h99l-78 -147h-76zM215 740h99l-78 -147h-76z" />
    <glyph glyph-name="Uogonek" unicode="&#x172;" horiz-adv-x="667" 
d="M333 -236q-45 0 -76.5 24.5t-31.5 68.5q0 22 8 41t20.5 35.5t28 30.5t29.5 25q-52 3 -96 22t-75.5 53t-49 81.5t-17.5 107.5v427h88v-427q0 -92 45 -140t128 -48q84 0 128 48t44 140v427h88v-427q0 -57 -16 -102.5t-44.5 -79t-68 -54t-87.5 -26.5q-43 -42 -64.5 -72
t-21.5 -61q0 -19 11 -31t31 -12q19 0 29.5 8.5t15.5 19.5h63q-7 -34 -36.5 -56.5t-72.5 -22.5z" />
    <glyph glyph-name="uogonek" unicode="&#x173;" horiz-adv-x="571" 
d="M439 -236q-45 0 -76.5 24.5t-31.5 68.5q0 25 10.5 46.5t26 39.5t33 32.5t32.5 24.5h-19v74q-29 -43 -67 -64.5t-89 -21.5q-42 0 -75.5 15t-57.5 42.5t-36.5 66.5t-12.5 87v316h82v-319q0 -60 29.5 -95.5t89.5 -35.5q28 0 52.5 9.5t42.5 26.5t28.5 40.5t10.5 52.5v321h82
v-515q-48 -46 -71.5 -78t-23.5 -64q0 -19 11 -31t31 -12q19 0 29.5 8.5t15.5 19.5h63q-7 -34 -36.5 -56.5t-72.5 -22.5z" />
    <glyph glyph-name="Ydieresis" unicode="&#x178;" horiz-adv-x="561" 
d="M236 282l-225 398h92l178 -317l179 317h90l-226 -398v-282h-88v282zM327 825h93v-95h-93v95zM142 825h92v-95h-92v95z" />
    <glyph glyph-name="Zacute" unicode="&#x179;" horiz-adv-x="549" 
d="M32 69l380 532h-367v79h470v-76l-375 -525h377v-79h-485v69zM308 877h109l-97 -147h-76z" />
    <glyph glyph-name="zacute" unicode="&#x17a;" horiz-adv-x="463" 
d="M33 67l285 372h-271v76h374v-72l-281 -367h290v-76h-397v67zM258 740h109l-97 -147h-76z" />
    <glyph glyph-name="Zdotaccent" unicode="&#x17b;" horiz-adv-x="549" 
d="M32 69l380 532h-367v79h470v-76l-375 -525h377v-79h-485v69zM230 825h92v-95h-92v95z" />
    <glyph glyph-name="zdotaccent" unicode="&#x17c;" horiz-adv-x="463" 
d="M33 67l285 372h-271v76h374v-72l-281 -367h290v-76h-397v67zM186 688h92v-95h-92v95z" />
    <glyph glyph-name="Zcaron" unicode="&#x17d;" horiz-adv-x="549" 
d="M32 69l380 532h-367v79h470v-76l-375 -525h377v-79h-485v69zM130 881h74l72 -79l72 79h73l-113 -154h-64z" />
    <glyph glyph-name="zcaron" unicode="&#x17e;" horiz-adv-x="463" 
d="M33 67l285 372h-271v76h374v-72l-281 -367h290v-76h-397v67zM86 744h74l72 -79l72 79h73l-113 -154h-64z" />
    <glyph glyph-name="florin" unicode="&#x192;" horiz-adv-x="384" 
d="M41 393h86l23 125q15 85 63.5 130t123.5 45q22 0 50 -5l-14 -77q-23 6 -42 6q-41 0 -63 -24.5t-32 -78.5l-22 -121h111v-74h-124l-57 -324q-14 -77 -54.5 -116t-103.5 -39q-20 0 -48 5l13 76q15 -3 29 -3q32 0 51 19t27 62l56 320h-73v74z" />
    <glyph glyph-name="Scommaaccent" unicode="&#x218;" horiz-adv-x="593" 
d="M305 -12q-59 0 -107.5 17t-83 47t-54.5 70.5t-22 86.5h88q3 -66 51.5 -105t127.5 -39q81 0 121 32.5t40 84.5q0 24 -7 43t-26 35t-53 28.5t-88 24.5q-58 12 -101 28.5t-71.5 39.5t-42.5 55t-14 76q0 43 16.5 77t46.5 57t71 35t90 12q112 0 175 -53t72 -142h-86
q-5 50 -44 84t-116 34q-71 0 -105.5 -27t-34.5 -75q0 -22 6.5 -39t24.5 -31t50 -25.5t83 -23.5q58 -13 102.5 -28.5t74.5 -39.5t45.5 -59t15.5 -86q0 -47 -18.5 -83.5t-51 -61t-77.5 -37t-98 -12.5zM253 -239q24 2 38.5 17t14.5 44v15h-52v105h103v-120q0 -27 -8.5 -46.5
t-23 -32.5t-33 -20t-39.5 -8v46z" />
    <glyph glyph-name="scommaaccent" unicode="&#x219;" horiz-adv-x="505" 
d="M261 -13q-45 0 -83.5 11.5t-68 33t-48 52t-23.5 67.5h83q10 -38 45 -63.5t95 -25.5q59 0 92 23t33 56q0 17 -4.5 30t-19 22.5t-41 17.5t-71.5 14t-81 16.5t-61 28.5t-38.5 44t-13.5 64q0 27 10.5 54t34 48.5t60 34.5t88.5 13q87 0 140 -41t63 -110h-83q-10 36 -42 56
t-78 20q-56 0 -83.5 -21.5t-27.5 -50.5q0 -16 6 -27.5t20.5 -20.5t38.5 -15.5t61 -12.5q43 -7 80 -16t64 -25.5t42.5 -45t15.5 -74.5q0 -38 -15.5 -67t-42.5 -49t-64.5 -30.5t-82.5 -10.5zM210 -239q24 2 38.5 17t14.5 44v15h-52v105h103v-120q0 -27 -8.5 -46.5t-23 -32.5
t-33 -20t-39.5 -8v46z" />
    <glyph glyph-name="circumflex" unicode="&#x2c6;" horiz-adv-x="500" 
d="M218 747h64l114 -154h-74l-72 79l-72 -79h-73z" />
    <glyph glyph-name="caron" unicode="&#x2c7;" horiz-adv-x="500" 
d="M104 744h74l72 -79l72 79h73l-113 -154h-64z" />
    <glyph glyph-name="breve" unicode="&#x2d8;" horiz-adv-x="500" 
d="M249 593q-64 0 -102.5 40t-43.5 101h61q7 -27 26.5 -48t59.5 -21q39 0 59 21t26 48h61q-5 -61 -43.5 -101t-103.5 -40z" />
    <glyph glyph-name="dotaccent" unicode="&#x2d9;" horiz-adv-x="500" 
d="M204 688h92v-95h-92v95z" />
    <glyph glyph-name="ring" unicode="&#x2da;" horiz-adv-x="500" 
d="M249 570q-24 0 -44.5 8.5t-35.5 23.5t-24 35.5t-9 43.5q0 24 9 44.5t24 35.5t35.5 23.5t44.5 8.5q23 0 43.5 -8.5t36 -23.5t24.5 -35.5t9 -44.5q0 -23 -9 -43.5t-24.5 -35.5t-36 -23.5t-43.5 -8.5zM249 616q26 0 43.5 18.5t17.5 46.5t-17.5 47t-43.5 19t-43.5 -19
t-17.5 -47t17.5 -46.5t43.5 -18.5z" />
    <glyph glyph-name="ogonek" unicode="&#x2db;" horiz-adv-x="500" 
d="M242 -236q-45 0 -76.5 24.5t-31.5 68.5q0 25 10.5 46.5t26 39.5t33 32.5t32.5 24.5h60q-48 -46 -71.5 -78t-23.5 -64q0 -19 11 -31t31 -12q19 0 29.5 8.5t15.5 19.5h63q-7 -34 -36.5 -56.5t-72.5 -22.5z" />
    <glyph glyph-name="tilde" unicode="&#x2dc;" horiz-adv-x="500" 
d="M87 590q5 51 32.5 85.5t71.5 34.5q21 0 38.5 -7.5t32.5 -16t28.5 -16t26.5 -7.5q18 0 28 13.5t12 33.5h56q-5 -51 -32.5 -85.5t-71.5 -34.5q-21 0 -38.5 7.5t-32.5 16t-28.5 16t-26.5 7.5q-17 0 -27.5 -13.5t-12.5 -33.5h-56v0z" />
    <glyph glyph-name="hungarumlaut" unicode="&#x2dd;" horiz-adv-x="500" 
d="M334 740h99l-78 -147h-76zM171 740h99l-78 -147h-76z" />
    <glyph glyph-name="Delta" unicode="&#x394;" horiz-adv-x="231" 
d="M64 391h103v-109h-103v109z" />
    <glyph glyph-name="Delta" unicode="&#x2206;" horiz-adv-x="231" 
d="M64 391h103v-109h-103v109z" />
    <glyph glyph-name="Omega" unicode="&#x3a9;" horiz-adv-x="231" 
d="M64 391h103v-109h-103v109z" />
    <glyph glyph-name="Omega" unicode="&#x2126;" horiz-adv-x="231" 
d="M64 391h103v-109h-103v109z" />
    <glyph glyph-name="pi" unicode="&#x3c0;" horiz-adv-x="231" 
d="M64 391h103v-109h-103v109z" />
    <glyph glyph-name="endash" unicode="&#x2013;" horiz-adv-x="536" 
d="M50 317h436v-82h-436v82z" />
    <glyph glyph-name="emdash" unicode="&#x2014;" horiz-adv-x="861" 
d="M50 317h762v-82h-762v82z" />
    <glyph glyph-name="quoteleft" unicode="&#x2018;" horiz-adv-x="221" 
d="M59 580q0 27 9 47t24 33.5t34.5 20.5t40.5 9v-49q-24 -2 -40.5 -17t-16.5 -44v-28h52v-105h-103v133z" />
    <glyph glyph-name="quoteright" unicode="&#x2019;" horiz-adv-x="221" 
d="M54 486q24 2 40.5 17t16.5 44v28h-52v105h103v-133q0 -27 -9 -47t-24 -33.5t-34.5 -21t-40.5 -8.5v49z" />
    <glyph glyph-name="quotesinglbase" unicode="&#x201a;" horiz-adv-x="221" 
d="M54 -89q24 2 40.5 17t16.5 44v28h-52v105h103v-133q0 -27 -9 -47t-24 -33.5t-34.5 -21t-40.5 -8.5v49z" />
    <glyph glyph-name="quotedblleft" unicode="&#x201c;" horiz-adv-x="397" 
d="M235 580q0 27 9 47t24 33.5t34.5 20.5t40.5 9v-49q-24 -2 -40.5 -17t-16.5 -44v-28h52v-105h-103v133zM59 580q0 27 9 47t24 33.5t34.5 20.5t40.5 9v-49q-24 -2 -40.5 -17t-16.5 -44v-28h52v-105h-103v133z" />
    <glyph glyph-name="quotedblright" unicode="&#x201d;" horiz-adv-x="397" 
d="M230 486q24 2 40.5 17t16.5 44v28h-52v105h103v-133q0 -27 -9 -47t-24 -33.5t-34.5 -21t-40.5 -8.5v49zM54 486q24 2 40.5 17t16.5 44v28h-52v105h103v-133q0 -27 -9 -47t-24 -33.5t-34.5 -21t-40.5 -8.5v49z" />
    <glyph glyph-name="quotedblbase" unicode="&#x201e;" horiz-adv-x="397" 
d="M230 -89q24 2 40.5 17t16.5 44v28h-52v105h103v-133q0 -27 -9 -47t-24 -33.5t-34.5 -21t-40.5 -8.5v49zM54 -89q24 2 40.5 17t16.5 44v28h-52v105h103v-133q0 -27 -9 -47t-24 -33.5t-34.5 -21t-40.5 -8.5v49z" />
    <glyph glyph-name="dagger" unicode="&#x2020;" horiz-adv-x="370" 
d="M149 486h-102v68h102v126h72v-126h101v-68h-101v-291h-72v291z" />
    <glyph glyph-name="daggerdbl" unicode="&#x2021;" horiz-adv-x="370" 
d="M149 323h-102v68h102v95h-102v68h102v126h72v-126h101v-68h-101v-95h101v-68h-101v-126h-72v126z" />
    <glyph glyph-name="bullet" unicode="&#x2022;" horiz-adv-x="318" 
d="M159 244q-22 0 -40.5 8.5t-32.5 22.5t-22 33.5t-8 42.5q0 22 8 41t22 33.5t32.5 23t40.5 8.5q21 0 40 -8.5t33 -23t22 -33.5t8 -41q0 -23 -8 -42.5t-22 -33.5t-33 -22.5t-40 -8.5z" />
    <glyph glyph-name="ellipsis" unicode="&#x2026;" horiz-adv-x="701" 
d="M539 109h103v-109h-103v109zM59 109h103v-109h-103v109zM299 109h103v-109h-103v109z" />
    <glyph glyph-name="perthousand" unicode="&#x2030;" horiz-adv-x="1161" 
d="M191 361q-33 0 -62.5 13t-51 35t-34.5 52t-13 64t13 64.5t34.5 52.5t51 35t62.5 13t62 -13t50.5 -35t34.5 -52.5t13 -64.5t-13 -64t-34.5 -52t-50.5 -35t-62 -13zM596 -9q-33 0 -62.5 13t-51 35t-34.5 52t-13 64t13 64.5t34.5 52.5t51 35t62.5 13t62 -13t50.5 -35
t34.5 -52.5t13 -64.5t-13 -64t-34.5 -52t-50.5 -35t-62 -13zM971 -9q-33 0 -62.5 13t-51 35t-34.5 52t-13 64t13 64.5t34.5 52.5t51 35t62.5 13t62 -13t50.5 -35t34.5 -52.5t13 -64.5t-13 -64t-34.5 -52t-50.5 -35t-62 -13zM545 680h78l-383 -680h-77zM1058 155
q0 19 -6.5 36.5t-18.5 31t-28 21t-34 7.5t-34 -7.5t-28 -21t-19 -31t-7 -36.5q0 -20 7 -37t19 -30t28 -20.5t34 -7.5q37 0 62 28t25 67zM278 525q0 19 -6.5 36.5t-18.5 31t-28 21t-34 7.5t-34 -7.5t-28 -21t-19 -31t-7 -36.5q0 -20 7 -37t19 -30t28 -20.5t34 -7.5
q37 0 62 28t25 67zM683 155q0 19 -6.5 36.5t-18.5 31t-28 21t-34 7.5t-34 -7.5t-28 -21t-19 -31t-7 -36.5q0 -20 7 -37t19 -30t28 -20.5t34 -7.5q37 0 62 28t25 67z" />
    <glyph glyph-name="guilsinglleft" unicode="&#x2039;" horiz-adv-x="251" 
d="M30 219v81l186 165v-108l-116 -97l116 -99v-107z" />
    <glyph glyph-name="guilsinglright" unicode="&#x203a;" horiz-adv-x="251" 
d="M35 162l116 97l-116 99v107l186 -165v-81l-186 -165v108z" />
    <glyph glyph-name="fraction" unicode="&#x2044;" horiz-adv-x="300" 
d="M302 680h78l-383 -680h-77z" />
    <glyph glyph-name="fraction" unicode="&#x2215;" horiz-adv-x="300" 
d="M302 680h78l-383 -680h-77z" />
    <glyph glyph-name="Euro" unicode="&#x20ac;" horiz-adv-x="624" 
d="M24 425h83q10 68 35.5 118.5t60.5 83.5t77.5 49.5t87.5 16.5q37 0 73 -10.5t66 -32.5t52.5 -55t34.5 -78h-88q-15 51 -52 75t-86 24q-66 0 -111 -48.5t-59 -142.5h302l-21 -56h-287v-26v-27t2 -25h257l-21 -56h-228q18 -84 61 -127t106 -43q53 0 86 24.5t50 72.5h90
q-23 -88 -84.5 -131t-141.5 -43q-43 0 -84 15.5t-75.5 46t-60.5 77t-38 108.5h-87v56h79q-2 12 -2 25v27v26h-77v56z" />
    <glyph glyph-name="trademark" unicode="&#x2122;" horiz-adv-x="768" 
d="M356 680h74l97 -260l97 260h77v-342h-59v238l-88 -238h-53l-88 238v-238h-57v342zM136 629h-95v51h251v-51h-95v-291h-61v291z" />
    <glyph glyph-name="onethird" unicode="&#x2153;" horiz-adv-x="818" 
d="M638 -7q-36 0 -63 10.5t-45 28.5t-27.5 42t-10.5 51h67q2 -32 21 -51t58 -19q36 0 56.5 18.5t20.5 46.5t-16.5 45.5t-61.5 17.5h-23v59h12q45 0 60.5 15t15.5 39q0 26 -16 40.5t-46 14.5q-37 0 -53 -20.5t-17 -46.5h-66q0 27 9.5 50.5t27 40.5t42.5 27t56 10
q32 0 56.5 -9t41 -24.5t24.5 -35.5t8 -41q0 -29 -14 -50.5t-41 -33.5q36 -12 52.5 -38t16.5 -61q0 -24 -9.5 -47t-28 -40.5t-45.5 -28t-62 -10.5zM515 680h78l-383 -680h-77zM101 573h-65v46q30 1 52 15t24 46h57v-408h-68v301z" />
    <glyph glyph-name="twothirds" unicode="&#x2154;" horiz-adv-x="921" 
d="M35 303q0 34 10.5 59.5t27.5 45.5t39.5 35t46.5 28q29 16 46 28t26 22.5t12 21t3 22.5q0 22 -14 40t-51 18q-35 0 -53.5 -22.5t-19.5 -57.5h-67q0 28 9 53.5t26.5 45t43.5 31t61 11.5q33 0 58.5 -10t42 -26.5t25 -38t8.5 -44.5q0 -29 -9 -50t-25.5 -37.5t-39.5 -30.5
t-50 -29q-36 -20 -58.5 -39.5t-24.5 -43.5h204v-63h-277v31zM741 -7q-36 0 -63 10.5t-45 28.5t-27.5 42t-10.5 51h67q2 -32 21 -51t58 -19q36 0 56.5 18.5t20.5 46.5t-16.5 45.5t-61.5 17.5h-23v59h12q45 0 60.5 15t15.5 39q0 26 -16 40.5t-46 14.5q-37 0 -53 -20.5
t-17 -46.5h-66q0 27 9.5 50.5t27 40.5t42.5 27t56 10q32 0 56.5 -9t41 -24.5t24.5 -35.5t8 -41q0 -29 -14 -50.5t-41 -33.5q36 -12 52.5 -38t16.5 -61q0 -24 -9.5 -47t-28 -40.5t-45.5 -28t-62 -10.5zM618 680h78l-383 -680h-77z" />
    <glyph glyph-name="oneeighth" unicode="&#x215b;" horiz-adv-x="823" 
d="M642 -7q-32 0 -58.5 9.5t-46 26.5t-30 39.5t-10.5 49.5q0 35 18 61t48 43q-23 14 -35.5 35.5t-12.5 49.5q0 23 9.5 42.5t26.5 34t40.5 23t50.5 8.5q56 0 91 -31t35 -77q0 -56 -47 -85q32 -16 49.5 -42.5t17.5 -61.5q0 -27 -10.5 -49.5t-30 -39.5t-46.5 -26.5t-59 -9.5z
M515 680h78l-383 -680h-77zM101 573h-65v46q30 1 52 15t24 46h57v-408h-68v301zM642 52q31 0 55 16.5t24 51.5q0 33 -22.5 51t-56.5 18q-33 0 -55.5 -18t-22.5 -51q0 -35 24 -51.5t54 -16.5zM642 248q24 0 42.5 14t18.5 41q0 26 -17.5 39.5t-43.5 13.5t-43.5 -13.5
t-17.5 -39.5q0 -27 18.5 -41t42.5 -14z" />
    <glyph glyph-name="threeeighths" unicode="&#x215c;" horiz-adv-x="925" 
d="M744 -7q-32 0 -58.5 9.5t-46 26.5t-30 39.5t-10.5 49.5q0 35 18 61t48 43q-23 14 -35.5 35.5t-12.5 49.5q0 23 9.5 42.5t26.5 34t40.5 23t50.5 8.5q56 0 91 -31t35 -77q0 -56 -47 -85q32 -16 49.5 -42.5t17.5 -61.5q0 -27 -10.5 -49.5t-30 -39.5t-46.5 -26.5t-59 -9.5z
M176 265q-36 0 -63 10.5t-45 28.5t-27.5 42t-10.5 51h67q2 -32 21 -51t58 -19q36 0 56.5 18.5t20.5 46.5t-16.5 45.5t-61.5 17.5h-23v59h12q45 0 60.5 15t15.5 39q0 26 -16 40.5t-46 14.5q-37 0 -53 -20.5t-17 -46.5h-66q0 27 9.5 50.5t27 40.5t42.5 27t56 10q32 0 56.5 -9
t41 -24.5t24.5 -35.5t8 -41q0 -29 -14 -50.5t-41 -33.5q36 -12 52.5 -38t16.5 -61q0 -24 -9.5 -47t-28 -40.5t-45.5 -28t-62 -10.5zM617 680h78l-383 -680h-77zM744 52q31 0 55 16.5t24 51.5q0 33 -22.5 51t-56.5 18q-33 0 -55.5 -18t-22.5 -51q0 -35 24 -51.5t54 -16.5z
M744 248q24 0 42.5 14t18.5 41q0 26 -17.5 39.5t-43.5 13.5t-43.5 -13.5t-17.5 -39.5q0 -27 18.5 -41t42.5 -14z" />
    <glyph glyph-name="fiveeighths" unicode="&#x215d;" horiz-adv-x="919" 
d="M738 -7q-32 0 -58.5 9.5t-46 26.5t-30 39.5t-10.5 49.5q0 35 18 61t48 43q-23 14 -35.5 35.5t-12.5 49.5q0 23 9.5 42.5t26.5 34t40.5 23t50.5 8.5q56 0 91 -31t35 -77q0 -56 -47 -85q32 -16 49.5 -42.5t17.5 -61.5q0 -27 -10.5 -49.5t-30 -39.5t-46.5 -26.5t-59 -9.5z
M174 265q-32 0 -57 9.5t-43.5 25t-29 37t-11.5 45.5h67q4 -23 23 -38.5t51 -15.5q30 0 51.5 20t21.5 57q0 35 -20 57t-52 22q-45 0 -70 -41l-59 19l25 218h220v-62h-167l-13 -101q14 11 32.5 18.5t38.5 7.5q28 0 52.5 -10.5t42.5 -29t28 -44t10 -55.5q0 -31 -11 -56.5
t-30 -44t-45 -28.5t-55 -10zM611 680h78l-383 -680h-77zM738 52q31 0 55 16.5t24 51.5q0 33 -22.5 51t-56.5 18q-33 0 -55.5 -18t-22.5 -51q0 -35 24 -51.5t54 -16.5zM738 248q24 0 42.5 14t18.5 41q0 26 -17.5 39.5t-43.5 13.5t-43.5 -13.5t-17.5 -39.5q0 -27 18.5 -41
t42.5 -14z" />
    <glyph glyph-name="seveneighths" unicode="&#x215e;" horiz-adv-x="848" 
d="M667 -7q-32 0 -58.5 9.5t-46 26.5t-30 39.5t-10.5 49.5q0 35 18 61t48 43q-23 14 -35.5 35.5t-12.5 49.5q0 23 9.5 42.5t26.5 34t40.5 23t50.5 8.5q56 0 91 -31t35 -77q0 -56 -47 -85q32 -16 49.5 -42.5t17.5 -61.5q0 -27 -10.5 -49.5t-30 -39.5t-46.5 -26.5t-59 -9.5z
M540 680h78l-383 -680h-77zM89 272q2 103 34 194.5t95 151.5h-192v62h275v-58q-71 -59 -106.5 -150t-37.5 -200h-68zM667 52q31 0 55 16.5t24 51.5q0 33 -22.5 51t-56.5 18q-33 0 -55.5 -18t-22.5 -51q0 -35 24 -51.5t54 -16.5zM667 248q24 0 42.5 14t18.5 41
q0 26 -17.5 39.5t-43.5 13.5t-43.5 -13.5t-17.5 -39.5q0 -27 18.5 -41t42.5 -14z" />
    <glyph glyph-name="partialdiff" unicode="&#x2202;" horiz-adv-x="231" 
d="M64 391h103v-109h-103v109z" />
    <glyph glyph-name="product" unicode="&#x220f;" horiz-adv-x="231" 
d="M64 391h103v-109h-103v109z" />
    <glyph glyph-name="summation" unicode="&#x2211;" horiz-adv-x="231" 
d="M64 391h103v-109h-103v109z" />
    <glyph glyph-name="minus" unicode="&#x2212;" horiz-adv-x="468" 
d="M46 337h376v-72h-376v72z" />
    <glyph glyph-name="radical" unicode="&#x221a;" horiz-adv-x="231" 
d="M64 391h103v-109h-103v109z" />
    <glyph glyph-name="infinity" unicode="&#x221e;" horiz-adv-x="231" 
d="M64 391h103v-109h-103v109z" />
    <glyph glyph-name="integral" unicode="&#x222b;" horiz-adv-x="231" 
d="M64 391h103v-109h-103v109z" />
    <glyph glyph-name="approxequal" unicode="&#x2248;" horiz-adv-x="231" 
d="M64 391h103v-109h-103v109z" />
    <glyph glyph-name="notequal" unicode="&#x2260;" horiz-adv-x="231" 
d="M64 391h103v-109h-103v109z" />
    <glyph glyph-name="lessequal" unicode="&#x2264;" horiz-adv-x="231" 
d="M64 391h103v-109h-103v109z" />
    <glyph glyph-name="greaterequal" unicode="&#x2265;" horiz-adv-x="231" 
d="M64 391h103v-109h-103v109z" />
    <glyph glyph-name="lozenge" unicode="&#x25ca;" horiz-adv-x="208" 
d="M71 391h103v-109h-103v109z" />
    <glyph glyph-name="commaaccent" unicode="&#xf004;" horiz-adv-x="500" 
d="M198 -239q24 2 38.5 17t14.5 44v15h-52v105h103v-120q0 -27 -8.5 -46.5t-23 -32.5t-33 -20t-39.5 -8v46z" />
    <glyph glyph-name="commaaccent" unicode="&#xf6c3;" horiz-adv-x="500" 
d="M198 -239q24 2 38.5 17t14.5 44v15h-52v105h103v-120q0 -27 -8.5 -46.5t-23 -32.5t-33 -20t-39.5 -8v46z" />
    <glyph glyph-name="dotlessj" unicode="&#xf6be;" horiz-adv-x="240" 
d="M-14 -135h16q38 0 57.5 18t19.5 62v570h82v-571q0 -75 -43 -114t-116 -39h-16v74z" />
    <glyph glyph-name="dotlessj" unicode="&#xfb0f;" horiz-adv-x="240" 
d="M-14 -135h16q38 0 57.5 18t19.5 62v570h82v-571q0 -75 -43 -114t-116 -39h-16v74z" />
    <glyph glyph-name="slash.cap" horiz-adv-x="351" 
d="M255 740h82l-242 -800h-82z" />
    <glyph glyph-name="backslash.cap" horiz-adv-x="351" 
d="M14 740h82l242 -800h-82z" />
    <glyph glyph-name="parenleft.cap" horiz-adv-x="319" 
d="M214 -80q-70 78 -110.5 184.5t-40.5 226.5q0 119 40.5 219.5t110.5 179.5h73q-31 -47 -55.5 -93t-41.5 -94.5t-26 -100.5t-9 -111q0 -118 35 -218t97 -193h-73v0z" />
    <glyph glyph-name="parenright.cap" horiz-adv-x="319" 
d="M32 -80q31 46 55.5 92.5t41.5 95t26 100.5t9 111q0 118 -35 218t-97 193h73q70 -78 110.5 -184.5t40.5 -226.5q0 -119 -40.5 -219.5t-110.5 -179.5h-73v0z" />
    <glyph glyph-name="bracketleft.cap" horiz-adv-x="323" 
d="M82 720h209v-73h-123v-644h123v-73h-209v790z" />
    <glyph glyph-name="bracketright.cap" horiz-adv-x="323" 
d="M32 3h123v644h-123v73h209v-790h-209v73z" />
    <glyph glyph-name="braceleft.cap" horiz-adv-x="345" 
d="M321 -70q-36 -3 -70 4t-60 25.5t-42 50t-16 78.5v122q0 51 -27 67.5t-72 16.5v70q45 0 72 16.5t27 67.5v113q0 47 16 78.5t42 50t60 25.5t70 4v-73q-53 2 -77.5 -19t-24.5 -66v-110q0 -50 -20 -79t-62 -42q42 -14 62 -43t20 -80v-119q0 -45 24 -66t78 -19v-73v0z" />
    <glyph glyph-name="braceright.cap" horiz-adv-x="345" 
d="M24 3q53 -2 77.5 19t24.5 66v119q0 50 20 79t62 42q-42 14 -62 43t-20 80v110q0 45 -24 66t-78 19v73q36 3 70 -4t60 -25.5t42 -50t16 -78.5v-113q0 -51 27 -67.5t72 -16.5v-70q-45 0 -72 -16.5t-27 -67.5v-122q0 -47 -16 -78.5t-42 -50t-60 -25.5t-70 -4v73z" />
    <glyph glyph-name="hyphen.cap" horiz-adv-x="342" 
d="M50 367h243v-82h-243v82z" />
    <glyph glyph-name="endash.cap" horiz-adv-x="536" 
d="M50 367h436v-82h-436v82z" />
    <glyph glyph-name="emdash.cap" horiz-adv-x="861" 
d="M50 367h762v-82h-762v82z" />
    <glyph glyph-name="nonbreakingspace" horiz-adv-x="295" 
 />
    <glyph glyph-name="apple" horiz-adv-x="873" 
d="M490 681l11 -1q60 -6 118.5 -30.5t104.5 -67.5t74.5 -103.5t28.5 -138.5q0 -77 -28.5 -137.5t-74.5 -103.5t-104.5 -67.5t-118.5 -30.5l-11 -1v681zM374 0q-75 0 -135.5 27.5t-103 74t-66 108.5t-23.5 130t23.5 130t66 108.5t103 74t135.5 27.5h89v-122h-89
q-47 0 -84.5 -17.5t-63.5 -47t-40.5 -69t-14.5 -84.5t14.5 -84.5t40.5 -69t63.5 -47t84.5 -17.5h89v-122h-89zM745 153q26 35 42 79.5t18 96.5h-129q-1 -36 -6 -68.5t-13 -62.5q23 -8 45 -19.5t43 -25.5zM805 352q-2 52 -18 96t-42 80q-21 -14 -43 -25.5t-45 -20.5
q8 -29 13 -62t6 -68h129zM634 205q9 28 14.5 59t6.5 65h-142v-104q33 -2 63 -6.5t58 -13.5zM655 352q-1 34 -6.5 64.5t-14.5 58.5q-28 -8 -58 -12.5t-63 -6.5v-104h142zM513 478q31 2 59.5 7t54.5 13q-20 55 -50.5 94t-63.5 59v-173zM513 30q33 19 63.5 58.5t50.5 94.5
q-26 8 -54.5 12.5t-59.5 6.5v-172zM552 30q51 11 97 37t81 68q-39 27 -81 41q-18 -48 -43 -85t-54 -61zM649 505q42 14 81 41q-35 42 -81 68t-97 37q29 -24 54 -61t43 -85z" />
    <glyph glyph-name="A.sc" horiz-adv-x="566" 
d="M238 578h92l205 -578h-86l-50 144h-235l-50 -144h-85zM191 219h182l-70 204q-3 10 -6.5 22.5t-6.5 23.5t-5 19.5t-2 10.5q0 -2 -2 -10t-4.5 -19.5t-6 -24t-7.5 -22.5z" />
    <glyph glyph-name="B.sc" horiz-adv-x="574" 
d="M85 578h248q78 0 123 -42t45 -114q0 -34 -17 -64t-54 -48q48 -19 71 -56.5t23 -84.5q0 -36 -13 -67t-36.5 -53.5t-57 -35.5t-74.5 -13h-258v578zM342 76q42 0 70 24.5t28 69.5q0 49 -27.5 72t-73.5 23h-171v-189h174zM334 341q15 0 30 4.5t27 14t19 25t7 37.5
q0 42 -22.5 61.5t-61.5 19.5h-165v-162h166z" />
    <glyph glyph-name="C.sc" horiz-adv-x="624" 
d="M331 -10q-57 0 -107.5 22.5t-89 62t-60.5 94.5t-22 121t22 121t59.5 94.5t88.5 62t108 22.5q100 0 164 -51t88 -139h-84q-19 51 -60 83t-108 32q-41 0 -76 -16.5t-61 -46t-40.5 -71t-14.5 -91.5q0 -51 15 -92.5t41 -71t61 -46t76 -16.5q61 0 106 33t62 87h86
q-26 -90 -91 -142t-163 -52z" />
    <glyph glyph-name="D.sc" horiz-adv-x="605" 
d="M85 578h197q62 0 112 -20t85.5 -57.5t54.5 -91t19 -120.5t-19 -120.5t-54.5 -91t-85.5 -57.5t-112 -20h-197v578zM282 75q90 0 137.5 57t47.5 157q0 106 -48.5 160t-136.5 54h-113v-428h113z" />
    <glyph glyph-name="E.sc" 
d="M85 578h403v-76h-319v-160h273v-76h-273v-190h324v-76h-408v578z" />
    <glyph glyph-name="F.sc" horiz-adv-x="515" 
d="M85 578h385v-76h-301v-164h262v-76h-262v-262h-84v578z" />
    <glyph glyph-name="G.sc" horiz-adv-x="658" 
d="M330 -10q-58 0 -108.5 22t-88 62t-59.5 95t-22 121t22 121t59.5 94.5t88.5 62t108 22.5q43 0 83 -12t73.5 -35t57.5 -58.5t36 -81.5h-87q-18 57 -62 84.5t-101 27.5q-42 0 -77.5 -16.5t-61 -46t-39.5 -71t-14 -91.5q0 -51 14.5 -92.5t40.5 -71t61 -46t77 -16.5
q39 0 72 13t57 35t38.5 51.5t17.5 62.5h-159v76h238v-302h-78v88q-26 -41 -72 -69.5t-115 -28.5z" />
    <glyph glyph-name="H.sc" horiz-adv-x="621" 
d="M85 578h84v-239h283v239h84v-578h-84v263h-283v-263h-84v578z" />
    <glyph glyph-name="I.sc" horiz-adv-x="259" 
d="M87 578h84v-578h-84v578z" />
    <glyph glyph-name="J.sc" horiz-adv-x="484" 
d="M223 -10q-42 0 -76 14t-58 39.5t-37 60.5t-13 78v11h83v-12q0 -23 5.5 -44t17.5 -37t31.5 -25.5t46.5 -9.5q55 0 78 33.5t23 90.5v389h85v-388q0 -90 -47.5 -145t-138.5 -55z" />
    <glyph glyph-name="K.sc" horiz-adv-x="569" 
d="M251 285l-87 -90v-195h-79v578h79v-282l268 282h100l-225 -234l233 -344h-97z" />
    <glyph glyph-name="L.sc" horiz-adv-x="490" 
d="M85 578h84v-502h280v-76h-364v578z" />
    <glyph glyph-name="M.sc" horiz-adv-x="722" 
d="M85 578h124l153 -466l153 466h123v-578h-82v460l-153 -460h-84l-152 460v-460h-82v578z" />
    <glyph glyph-name="N.sc" horiz-adv-x="617" 
d="M85 578h96l271 -448v448h80v-578h-92l-275 455v-455h-80v578z" />
    <glyph glyph-name="O.sc" horiz-adv-x="665" 
d="M333 -10q-59 0 -110 22.5t-89 62t-60 94.5t-22 121t22 121t60 94.5t89 62t110 22.5t110 -22t89 -61.5t59.5 -95t21.5 -121.5q0 -65 -22 -120t-59.5 -95t-89 -62.5t-109.5 -22.5zM333 65q41 0 76.5 16.5t61.5 46t41 71t15 91.5q0 51 -14.5 92.5t-40.5 70.5t-61.5 45
t-77.5 16t-77.5 -16.5t-61.5 -46t-40.5 -70.5t-14.5 -91q0 -51 14.5 -92.5t40.5 -71t61.5 -45.5t77.5 -16z" />
    <glyph glyph-name="P.sc" horiz-adv-x="550" 
d="M85 578h236q44 0 78.5 -13t58.5 -36.5t36.5 -56.5t12.5 -72t-12.5 -71.5t-36.5 -56t-58.5 -36.5t-77.5 -13h-153v-223h-84v578zM321 298q47 0 74.5 24t27.5 78t-27.5 78t-74.5 24h-152v-204h152z" />
    <glyph glyph-name="Q.sc" horiz-adv-x="665" 
d="M484 35q-68 -45 -151 -45q-59 0 -110 22.5t-89 62t-60 94.5t-22 121t22 121t60 94.5t89 62t110 22.5t110 -22t89 -61.5t59.5 -95t21.5 -121.5q0 -63 -19.5 -115t-54.5 -92l79 -83h-101zM333 65q55 0 97 27l-102 110h101l55 -59q20 29 31.5 65.5t11.5 81.5
q0 51 -14.5 92.5t-40.5 70.5t-61.5 45t-77.5 16t-77.5 -16.5t-61.5 -46t-40.5 -70.5t-14.5 -91q0 -51 14.5 -92.5t40.5 -71t61.5 -45.5t77.5 -16z" />
    <glyph glyph-name="R.sc" horiz-adv-x="587" 
d="M85 578h247q88 0 137.5 -47t49.5 -125q0 -45 -21 -78t-66 -53q36 -14 52.5 -42t20.5 -76l5 -72q2 -28 8 -50t11 -35h-82q-5 12 -10 30t-7 47l-4 74q-3 44 -23 64t-66 20h-170v-235h-82v578zM338 310q40 0 69.5 23t29.5 72q0 45 -24.5 71t-80.5 26h-165v-192h171z" />
    <glyph glyph-name="S.sc" horiz-adv-x="547" 
d="M278 -10q-48 0 -89.5 14t-72 39t-48.5 60.5t-19 77.5h83q1 -27 12.5 -49t31 -37t45.5 -23t57 -8q64 0 99.5 25t35.5 69q0 19 -6 34t-22 27.5t-44.5 22.5t-72.5 19q-47 10 -84 23t-62.5 32.5t-39 47.5t-13.5 68q0 75 54.5 116.5t142.5 41.5q50 0 88.5 -13t65.5 -36
t41.5 -54.5t17.5 -68.5h-82q-3 42 -34.5 69.5t-94.5 27.5q-57 0 -87.5 -21.5t-30.5 -60.5q0 -18 6 -31.5t21.5 -24.5t42 -20t67.5 -18q49 -11 88 -24t65 -33t40 -50t14 -73q0 -41 -16 -72.5t-44.5 -53t-68 -32.5t-87.5 -11z" />
    <glyph glyph-name="T.sc" horiz-adv-x="495" 
d="M205 502h-169v76h422v-76h-169v-502h-84v502z" />
    <glyph glyph-name="U.sc" horiz-adv-x="594" 
d="M297 -10q-50 0 -90.5 15.5t-70 45t-45.5 72t-16 96.5v359h84v-360q0 -75 36 -114t102 -39q68 0 103 39t35 114v360h84v-359q0 -54 -16 -96.5t-45.5 -72t-70.5 -45t-90 -15.5z" />
    <glyph glyph-name="V.sc" horiz-adv-x="544" 
d="M26 578h89l131 -393q5 -15 9.5 -32.5t8.5 -32.5l8 -36l8 36q4 15 8.5 32.5t9.5 32.5l131 393h86l-200 -578h-87z" />
    <glyph glyph-name="W.sc" horiz-adv-x="776" 
d="M26 578h87l93 -358q3 -13 7 -28t8 -29q4 -16 8 -31l8 30q4 13 7.5 28t7.5 28l95 360h87l96 -360q3 -13 7 -28t8 -28l8 -30q4 15 8 31q4 14 7.5 29t7.5 28l92 358h81l-156 -578h-84l-100 384q-3 12 -6.5 27t-6.5 28.5t-5 24t-2 13.5q0 -2 -2 -12t-5 -24t-6.5 -29t-6.5 -28
l-101 -384h-85z" />
    <glyph glyph-name="X.sc" horiz-adv-x="525" 
d="M209 297l-175 281h93l136 -220l136 220h92l-177 -281l186 -297h-94l-145 239l-144 -239h-92z" />
    <glyph glyph-name="Y.sc" horiz-adv-x="516" 
d="M216 234l-193 344h91l144 -263l145 263h89l-193 -344v-234h-83v234z" />
    <glyph glyph-name="Z.sc" horiz-adv-x="508" 
d="M42 69l320 433h-309v76h409v-73l-317 -428h319v-77h-422v69z" />
    <glyph glyph-name="AE.sc" horiz-adv-x="865" 
d="M310 578h497v-76h-305v-160h259v-76h-259v-190h310v-76h-394v153h-232l-76 -153h-88zM223 228h195v274h-58z" />
    <glyph glyph-name="Oslash.sc" horiz-adv-x="665" 
d="M33 29l74 77q-26 38 -40.5 84t-14.5 100q0 66 22 121t60 94.5t89 62t110 22.5q51 0 96.5 -17t81.5 -48l67 70l48 -47l-70 -72q27 -38 42 -84.5t15 -101.5q0 -65 -22 -120t-59.5 -95t-89 -62.5t-109.5 -22.5q-52 0 -98 17t-82 49l-72 -74zM333 65q41 0 76.5 16.5t61.5 46
t41 71t15 91.5q0 37 -7.5 68t-21.5 57l-292 -303q52 -47 127 -47zM139 290q0 -73 26 -123l291 302q-51 45 -123 45q-42 0 -77.5 -16.5t-61.5 -46t-40.5 -70.5t-14.5 -91z" />
    <glyph glyph-name="OE.sc" horiz-adv-x="988" 
d="M333 -10q-59 0 -110 22.5t-89 62t-60 94.5t-22 121t22 121t60 94.5t89 62t110 22.5q62 0 110.5 -24.5t83.5 -72.5v85h403v-76h-319v-160h273v-76h-273v-190h324v-76h-408v88q-35 -48 -84 -73t-110 -25zM333 65q41 0 76.5 16.5t61.5 46t41 71t15 91.5q0 51 -14.5 92.5
t-40.5 70.5t-61.5 45t-77.5 16t-77.5 -16.5t-61.5 -46t-40.5 -70.5t-14.5 -91q0 -51 14.5 -92.5t40.5 -71t61.5 -45.5t77.5 -16z" />
    <glyph glyph-name="Eth.sc" horiz-adv-x="605" 
d="M28 340h57v238h197q62 0 112 -20t85.5 -57.5t54.5 -91t19 -120.5t-19 -120.5t-54.5 -91t-85.5 -57.5t-112 -20h-197v265h-57v75zM282 75q90 0 137.5 57t47.5 157q0 106 -48.5 160t-136.5 54h-113v-163h144v-75h-144v-190h113z" />
    <glyph glyph-name="Lslash.sc" horiz-adv-x="490" 
d="M16 235l69 34v309h84v-266l157 79v-72l-157 -79v-164h280v-76h-364v197l-69 -34v72z" />
    <glyph glyph-name="Thorn.sc" horiz-adv-x="550" 
d="M85 578h84v-101h152q44 0 78.5 -13t58.5 -36.5t36.5 -56.5t12.5 -72t-12.5 -71.5t-36.5 -56t-58.5 -36.5t-77.5 -13h-153v-122h-84v578zM321 197q47 0 74.5 24t27.5 78t-27.5 78t-74.5 24h-152v-204h152z" />
    <glyph glyph-name="zero.sc" horiz-adv-x="559" 
d="M280 -10q-45 0 -86 18t-71.5 55t-49 93.5t-18.5 133.5t18.5 133.5t49 93.5t71.5 55t86 18q46 0 86.5 -18t71 -55t48.5 -93.5t18 -133.5t-18 -133.5t-48.5 -93.5t-71 -55t-86.5 -18zM280 62q37 0 63.5 17.5t43 48t24.5 72.5t8 90t-8 89t-24.5 72t-43 48.5t-63.5 17.5
t-63.5 -17.5t-43.5 -48.5t-25 -72t-8 -89t8 -90t25 -72.5t43.5 -48t63.5 -17.5z" />
    <glyph glyph-name="one.sc" horiz-adv-x="343" 
d="M144 442h-96v64q45 1 73.5 17.5t32.5 54.5h74v-578h-84v442z" />
    <glyph glyph-name="two.sc" horiz-adv-x="502" 
d="M51 39q0 48 15 84t39.5 64t56.5 49t66 41q41 24 66 42t38.5 34t17.5 31.5t4 35.5q0 16 -4 33.5t-15.5 31t-30.5 22.5t-49 9q-28 0 -49 -10.5t-35.5 -28t-21.5 -41t-8 -50.5h-80q0 40 13 77t37.5 65.5t60.5 45t83 16.5q45 0 79.5 -14t58 -37.5t35.5 -54t12 -64.5
q0 -40 -12.5 -69t-35.5 -52.5t-55.5 -44t-72.5 -42.5q-54 -31 -89.5 -63t-39.5 -72h301v-77h-385v39z" />
    <glyph glyph-name="three.sc" horiz-adv-x="508" 
d="M254 -10q-50 0 -87.5 14t-63 38.5t-39 57t-15.5 70.5h83q4 -48 32 -76.5t90 -28.5q56 0 86 30t30 75q0 21 -5.5 39t-19 31.5t-37.5 21t-60 7.5h-29v73h7q71 0 99 23t28 63q0 38 -23.5 62t-74.5 24q-28 0 -47.5 -8.5t-32 -22.5t-18 -32.5t-5.5 -39.5h-82q0 39 13 71.5
t37.5 56t58.5 37t76 13.5q44 0 78 -12.5t57 -34t35 -50.5t12 -61q0 -41 -20 -71.5t-63 -47.5q54 -16 78 -53.5t24 -88.5q0 -36 -14 -69t-40 -57.5t-63.5 -39t-84.5 -14.5z" />
    <glyph glyph-name="four.sc" horiz-adv-x="498" 
d="M314 131h-275v69l266 378h93v-372h69v-75h-69v-131h-84v131zM314 206v262l-188 -262h188z" />
    <glyph glyph-name="five.sc" horiz-adv-x="497" 
d="M242 -10q-44 0 -79 13.5t-59.5 36t-38 52t-16.5 61.5h83q5 -35 32 -61t78 -26q54 0 84.5 32.5t30.5 89.5q0 56 -30 89t-80 33q-32 0 -60.5 -16.5t-47.5 -45.5l-70 25l36 305h306v-76h-242l-21 -170q17 26 48.5 39t66.5 13q37 0 70 -15t57 -41t38 -62t14 -79
q0 -45 -15.5 -81.5t-42.5 -62t-63.5 -39.5t-78.5 -14z" />
    <glyph glyph-name="six.sc" horiz-adv-x="526" 
d="M271 -11q-46 0 -85.5 17.5t-68.5 52t-45.5 85t-16.5 117.5q0 78 15.5 139.5t45 103.5t71 64t93.5 22q72 0 120.5 -38.5t60.5 -109.5h-83q-4 12 -11 25t-18 23.5t-28 17t-41 6.5q-61 0 -97 -59t-44 -159q18 36 56 60.5t83 24.5q41 0 76.5 -14t62 -39.5t41.5 -62t15 -81.5
q0 -44 -15 -79.5t-42 -61.5t-64 -40t-81 -14zM273 63q51 0 84 32.5t33 88.5q0 54 -31 88.5t-86 34.5q-25 0 -47.5 -8.5t-39 -24t-26.5 -38t-10 -49.5q0 -55 34.5 -89.5t88.5 -34.5z" />
    <glyph glyph-name="seven.sc" horiz-adv-x="472" 
d="M133 0q2 73 17 143.5t41 135t63 121t84 101.5h-301v77h393v-72q-49 -40 -87.5 -94t-65.5 -119.5t-42 -139.5t-17 -153h-85v0z" />
    <glyph glyph-name="eight.sc" horiz-adv-x="525" 
d="M263 -10q-48 0 -87.5 14t-67.5 38t-43.5 56.5t-15.5 68.5q0 48 25 86.5t77 61.5q-42 22 -58.5 52.5t-16.5 68.5q0 32 13.5 60t38 49t59 33t76.5 12t76.5 -12t59 -33t38 -49t13.5 -60q0 -38 -16.5 -68.5t-58.5 -52.5q52 -23 76.5 -61.5t24.5 -86.5q0 -36 -15.5 -68.5
t-44 -56.5t-67.5 -38t-86 -14zM263 65q26 0 50 6.5t42 19t29 32.5t11 47q0 49 -35.5 77.5t-96.5 28.5t-97 -28.5t-36 -77.5q0 -27 11 -47t29.5 -32.5t42.5 -19t50 -6.5zM263 349q44 0 75 21t31 63q0 38 -28.5 60t-77.5 22q-50 0 -78 -22t-28 -60q0 -42 31 -63t75 -21z" />
    <glyph glyph-name="nine.sc" horiz-adv-x="526" 
d="M246 -11q-72 0 -121 36t-61 103h85q4 -11 10.5 -22.5t18 -20.5t28 -14.5t40.5 -5.5q65 0 102 53t39 165q-18 -36 -56 -60.5t-83 -24.5q-41 0 -76.5 14t-62 39.5t-41.5 62t-15 81.5q0 43 15 79t42 62t64 40t81 14q46 0 85.5 -17.5t68.5 -52t45.5 -85t16.5 -117.5
q0 -157 -54 -243t-171 -86zM253 272q25 0 47.5 8.5t39 24t26.5 38t10 49.5q0 55 -34.5 89.5t-88.5 34.5q-51 0 -84 -32.5t-33 -88.5q0 -54 31 -88.5t86 -34.5z" />
    <glyph glyph-name="exclam.sc" horiz-adv-x="268" 
d="M89 578h90l-12 -395h-66zM85 105h97v-105h-97v105z" />
    <glyph glyph-name="numbersign.sc" horiz-adv-x="508" 
d="M60 455h94l18 123h69l-18 -123h95l18 123h69l-18 -123h98l-10 -71h-98l-15 -108h96l-10 -71h-96l-17 -120h-69l17 120h-95l-17 -120h-69l17 120h-96l10 71h96l15 108h-94zM198 276h95l15 108h-95z" />
    <glyph glyph-name="dollar.sc" horiz-adv-x="484" 
d="M223 3q-40 3 -74.5 17.5t-59.5 38t-40 55.5t-16 70h80q2 -45 32 -75t78 -36v185q-39 10 -71 22.5t-54 31t-34 45t-12 64.5q0 68 47 107t124 42v69h47v-71q77 -10 116 -55t44 -108h-79q-3 32 -23 57t-58 33v-165q40 -9 72 -21.5t54.5 -31.5t35 -47t12.5 -68
q0 -72 -47.5 -113t-126.5 -46v-73h-47v73zM365 161q0 31 -20 49.5t-75 35.5v-173q45 5 70 27.5t25 60.5zM132 422q0 -30 18.5 -48t72.5 -32v157q-91 -5 -91 -77z" />
    <glyph glyph-name="percent.sc" horiz-adv-x="710" 
d="M180 304q-29 0 -54 11t-44 30t-30 45t-11 55t11 55t30 45.5t44 30.5t54 11q28 0 53.5 -11t44.5 -30.5t30 -45.5t11 -55t-11 -55t-30 -45t-44.5 -30t-53.5 -11zM530 -8q-29 0 -54 11t-44 30t-30 45t-11 55t11 55t30 45.5t44 30.5t54 11q28 0 53.5 -11t44.5 -30.5t30 -45.5
t11 -55t-11 -55t-30 -45t-44.5 -30t-53.5 -11zM481 578h71l-323 -578h-71zM180 368q30 0 51 22t21 55t-21 56t-51 23t-51 -23t-21 -56t21 -55t51 -22zM530 56q30 0 51 22t21 55t-21 56t-51 23t-51 -23t-21 -56t21 -55t51 -22z" />
    <glyph glyph-name="ampersand.sc" horiz-adv-x="561" 
d="M253 -10q-41 0 -78 12.5t-65 35.5t-44.5 55.5t-16.5 72.5q0 57 34 98.5t91 73.5l-9 11q-45 54 -45 112q0 28 10.5 51.5t29.5 40.5t44 27t54 10q28 0 52.5 -9t42.5 -25.5t28 -39.5t10 -51q0 -43 -25 -78t-83 -65l124 -153q12 33 12 77v54h74v-54q0 -78 -35 -139l87 -107
h-96l-39 47q-30 -27 -69.5 -42t-87.5 -15zM254 62q68 0 111 40l-151 186q-26 -15 -41.5 -30t-24 -30t-11 -30.5t-2.5 -30.5q0 -48 32 -76.5t87 -28.5zM198 462q0 -31 26 -66l20 -25q44 22 57 46.5t13 46.5q0 26 -15.5 42t-41.5 16t-42.5 -16.5t-16.5 -43.5z" />
    <glyph glyph-name="plus.sc" horiz-adv-x="498" 
d="M211 245h-165v72h165v168h76v-168h165v-72h-165v-168h-76v168z" />
    <glyph glyph-name="less.sc" horiz-adv-x="445" 
d="M36 205v91l368 170v-84l-294 -132v-1l294 -131v-84z" />
    <glyph glyph-name="equal.sc" horiz-adv-x="481" 
d="M46 398h389v-72h-389v72zM46 214h389v-72h-389v72z" />
    <glyph glyph-name="greater.sc" horiz-adv-x="445" 
d="M409 295v-91l-368 -170v84l294 132v1l-294 131v84z" />
    <glyph glyph-name="minus.sc" horiz-adv-x="468" 
d="M46 317h376v-72h-376v72z" />
    <glyph glyph-name="multiply.sc" horiz-adv-x="498" 
d="M107 468l142 -142l142 142l49 -49l-142 -142l142 -142l-49 -49l-142 142l-142 -142l-49 49l142 142l-142 142z" />
    <glyph glyph-name="question.sc" horiz-adv-x="469" 
d="M179 188q0 33 7 55.5t19 39t28.5 30t35.5 28.5q33 25 47.5 45.5t14.5 51.5q0 38 -25.5 59t-72.5 21q-52 0 -79 -29t-28 -71h-79q0 35 13 66t36.5 54.5t58 37.5t78.5 14q82 0 131.5 -41t49.5 -109q0 -29 -8 -51.5t-21 -40.5t-29.5 -32t-34.5 -27q-15 -11 -28 -21
t-22.5 -21t-14.5 -25t-5 -34v-5h-72v5zM165 105h97v-105h-97v105z" />
    <glyph glyph-name="slash.sc" horiz-adv-x="333" 
d="M229 629h79l-202 -680h-80z" />
    <glyph glyph-name="backslash.sc" horiz-adv-x="333" 
d="M25 629h80l202 -680h-79z" />
    <glyph glyph-name="parenleft.sc" horiz-adv-x="304" 
d="M198 -68q-60 64 -96.5 154t-36.5 194t36.5 189.5t96.5 151.5h69q-54 -78 -85 -159t-31 -182q0 -100 31 -185.5t85 -162.5h-69v0z" />
    <glyph glyph-name="parenright.sc" horiz-adv-x="304" 
d="M38 -68q52 76 83.5 158.5t31.5 181.5q0 101 -31 186.5t-84 162.5h68q60 -65 97 -155t37 -194q0 -103 -37 -189t-97 -151h-68v0z" />
    <glyph glyph-name="bracketleft.sc" horiz-adv-x="309" 
d="M83 612h184v-69h-104v-533h104v-70h-184v672z" />
    <glyph glyph-name="bracketright.sc" horiz-adv-x="309" 
d="M42 10h105v533h-105v69h185v-672h-185v70z" />
    <glyph glyph-name="braceleft.sc" horiz-adv-x="326" 
d="M289 -60q-33 -2 -62 4t-51.5 22.5t-35.5 44t-13 67.5v92q0 45 -22.5 60.5t-62.5 15.5v65q40 0 62.5 16t22.5 62v85q0 40 13 67.5t35.5 44t51.5 22.5t62 3v-68q-82 4 -82 -70v-86q0 -44 -17 -69.5t-55 -37.5q38 -13 55 -39t17 -71v-91q0 -36 19.5 -54t62.5 -16v-69v0z" />
    <glyph glyph-name="braceright.sc" horiz-adv-x="326" 
d="M37 9q42 -2 61.5 16t19.5 54v91q0 85 73 108q-38 13 -55.5 38.5t-17.5 70.5v86q0 36 -19 54t-62 16v68q33 3 62 -3t51 -22.5t35 -44t13 -67.5v-85q0 -46 23 -62t62 -16v-65q-39 0 -62 -15.5t-23 -60.5v-92q0 -40 -13 -67.5t-35 -44t-51 -22.5t-62 -4v69z" />
    <glyph glyph-name="degree.sc" horiz-adv-x="373" 
d="M186 289q-30 0 -57 12t-47.5 32.5t-32.5 48t-12 58.5t12 58t32.5 47.5t47.5 32.5t57 12t57.5 -12t48 -32.5t32.5 -47.5t12 -58t-12 -58.5t-32.5 -48t-48 -32.5t-57.5 -12zM186 348q38 0 61.5 26.5t23.5 65.5q0 38 -23.5 65t-61.5 27q-37 0 -61 -27t-24 -65
q0 -39 24 -65.5t61 -26.5z" />
    <glyph glyph-name="cent.sc" horiz-adv-x="463" 
d="M150 23q-51 26 -82.5 78t-31.5 117q0 46 16 86t44.5 70t66 47.5t81.5 17.5q19 0 36 -3l30 95h52l-34 -107q39 -16 66.5 -47t39.5 -75h-80q-15 37 -48 53l-89 -282q13 -3 29 -3q41 0 68.5 19.5t39.5 50.5h80q-15 -62 -65.5 -101t-124.5 -39q-26 0 -48 6l-31 -100h-52z
M117 218q0 -43 14.5 -75t40.5 -50l87 275q-3 1 -6.5 1h-6.5q-55 0 -92 -40.5t-37 -110.5z" />
    <glyph glyph-name="sterling.sc" horiz-adv-x="462" 
d="M38 313h50q-11 22 -19.5 48t-8.5 60q0 37 13.5 68t38 53.5t58 35t72.5 12.5q40 0 73 -13t56.5 -35.5t37 -53t14.5 -66.5h-78q-2 42 -27.5 68.5t-75.5 26.5q-48 0 -73.5 -26.5t-25.5 -69.5q0 -29 10.5 -54.5t22.5 -53.5h140v-62h-118q2 -12 4 -24.5t2 -26.5
q0 -31 -14.5 -65.5t-48.5 -63.5q20 10 35.5 13.5t31.5 3.5q20 0 36.5 -4t31.5 -8.5t29.5 -8t31.5 -3.5q32 0 62 24l39 -60q-23 -21 -48 -29.5t-49 -8.5q-27 0 -47 5.5t-38 12t-35.5 12t-38.5 5.5q-22 0 -44.5 -7.5t-48.5 -27.5l-42 64q41 29 61.5 63.5t20.5 81.5q0 14 -3 27
t-8 25h-80v62z" />
    <glyph glyph-name="section.sc" horiz-adv-x="467" 
d="M242 -71q-35 0 -64 10t-50.5 27.5t-34 41.5t-13.5 53h80q5 -26 23.5 -43t58.5 -17q33 0 51 14.5t18 43.5q0 13 -4 23.5t-14.5 19.5t-29 16.5t-48.5 15.5q-38 10 -70 21t-55 27.5t-35.5 39.5t-12.5 58q0 31 17.5 55.5t46.5 40.5q-28 31 -28 82q0 58 42 95t114 37
q34 0 63.5 -9.5t50.5 -27t33 -42t12 -55.5h-79q-3 25 -22 43.5t-58 18.5q-35 0 -55.5 -15t-20.5 -44q0 -13 4 -23.5t15 -19t29.5 -15.5t48.5 -14q39 -9 70.5 -20t54.5 -27.5t35.5 -40t12.5 -57.5q0 -33 -18 -58t-48 -41q14 -16 21.5 -36.5t7.5 -46.5q0 -57 -39 -94t-110 -37
zM237 312q-22 5 -41 11t-36 14q-40 -19 -40 -51q0 -13 4.5 -23.5t17 -19.5t34.5 -17.5t57 -16.5q21 -5 40 -11.5t36 -14.5q40 18 40 52q0 13 -4.5 23.5t-16.5 19.5t-34 17t-57 17z" />
    <glyph glyph-name="germandbls.sc" horiz-adv-x="1094" 
d="M825 -10q-48 0 -89.5 14t-72 39t-48.5 60.5t-19 77.5h83q1 -27 12.5 -49t31 -37t45.5 -23t57 -8q64 0 99.5 25t35.5 69q0 19 -6 34t-22 27.5t-44.5 22.5t-72.5 19q-47 10 -84 23t-62.5 32.5t-39 47.5t-13.5 68q0 75 54.5 116.5t142.5 41.5q50 0 88.5 -13t65.5 -36
t41.5 -54.5t17.5 -68.5h-82q-3 42 -34.5 69.5t-94.5 27.5q-57 0 -87.5 -21.5t-30.5 -60.5q0 -18 6 -31.5t21.5 -24.5t42 -20t67.5 -18q49 -11 88 -24t65 -33t40 -50t14 -73q0 -41 -16 -72.5t-44.5 -53t-68 -32.5t-87.5 -11zM278 -10q-48 0 -89.5 14t-72 39t-48.5 60.5
t-19 77.5h83q1 -27 12.5 -49t31 -37t45.5 -23t57 -8q64 0 99.5 25t35.5 69q0 19 -6 34t-22 27.5t-44.5 22.5t-72.5 19q-47 10 -84 23t-62.5 32.5t-39 47.5t-13.5 68q0 75 54.5 116.5t142.5 41.5q50 0 88.5 -13t65.5 -36t41.5 -54.5t17.5 -68.5h-82q-3 42 -34.5 69.5
t-94.5 27.5q-57 0 -87.5 -21.5t-30.5 -60.5q0 -18 6 -31.5t21.5 -24.5t42 -20t67.5 -18q49 -11 88 -24t65 -33t40 -50t14 -73q0 -41 -16 -72.5t-44.5 -53t-68 -32.5t-87.5 -11z" />
    <glyph glyph-name="yen.sc" horiz-adv-x="500" 
d="M53 289h128l-157 289h91l136 -260l137 260h88l-158 -289h128v-54h-155v-69h155v-53h-155v-113h-83v113h-155v53h155v69h-155v54z" />
    <glyph glyph-name="ordfeminine.sc" horiz-adv-x="434" 
d="M176 261q-28 0 -54 7t-45.5 21t-31 36t-11.5 51q0 33 12.5 55t36.5 37t58.5 24.5t78.5 17.5q45 8 66 18.5t21 38.5q0 61 -86 61q-38 0 -61 -17.5t-27 -47.5h-79q3 58 48.5 94t119.5 36q81 0 121.5 -33.5t40.5 -92.5v-213q0 -25 5.5 -48t10.5 -35h-76q-4 9 -8.5 22
t-6.5 32q-19 -28 -51.5 -46t-81.5 -18zM177 324q26 0 50 6.5t42 19t28.5 31.5t10.5 44v60q-10 -8 -26.5 -16t-45.5 -14q-35 -8 -59 -14.5t-39 -14.5t-22 -19.5t-7 -27.5q0 -27 18 -41t50 -14z" />
    <glyph glyph-name="ordmasculine.sc" horiz-adv-x="464" 
d="M232 261q-41 0 -77.5 16t-63.5 44.5t-43 68t-16 85.5q0 47 16 87t43 69t63.5 45.5t77.5 16.5q42 0 78.5 -16.5t63.5 -45.5t42.5 -69t15.5 -87q0 -46 -15.5 -85.5t-42.5 -68t-63.5 -44.5t-78.5 -16zM232 327q53 0 87.5 38t34.5 110q0 73 -34.5 112.5t-87.5 39.5
q-52 0 -87 -39.5t-35 -112.5q0 -72 35 -110t87 -38z" />
    <glyph glyph-name="questiondown.sc" horiz-adv-x="469" 
d="M236 -12q-82 0 -131.5 41t-49.5 109q0 29 8 51.5t21 40.5t29.5 32t34.5 27q15 11 28 21t22.5 21t14.5 25t5 34v5h72v-5q0 -33 -7 -55.5t-19 -39t-28.5 -30t-35.5 -28.5q-33 -25 -47.5 -45.5t-14.5 -51.5q0 -38 25.5 -59t72.5 -21q52 0 79 29t28 71h79q0 -35 -13 -66
t-36.5 -54.5t-58 -37.5t-78.5 -14zM207 578h97v-105h-97v105z" />
    <glyph glyph-name="exclamdown.sc" horiz-adv-x="268" 
d="M101 395h66l12 -395h-90zM86 578h97v-105h-97v105z" />
    <glyph glyph-name="florin.sc" horiz-adv-x="378" 
d="M55 335h76l20 108q14 72 55.5 109.5t107.5 37.5q12 0 25.5 -2t25.5 -4l-14 -71q-10 3 -20 4t-18 1q-34 0 -52 -19.5t-26 -65.5l-18 -98h94v-66h-107l-51 -275q-13 -66 -50.5 -98.5t-93.5 -32.5q-11 0 -22.5 1.5t-24.5 3.5l12 70q16 -3 29 -3q29 0 44 16.5t22 52.5l49 265
h-63v66z" />
    <glyph glyph-name="Euro.sc" horiz-adv-x="564" 
d="M37 366h67q9 55 30.5 97t51.5 70.5t66.5 42.5t76.5 14q67 0 120 -38.5t73 -116.5h-83q-12 42 -41.5 62t-68.5 20q-54 0 -90 -39t-48 -112h245l-19 -53h-232v-21v-21.5t1 -20.5h209l-19 -53h-181q14 -66 49 -100t85 -34q85 0 110 80h86q-20 -77 -72 -115t-124 -38
q-38 0 -73.5 13t-64.5 39t-50.5 65t-32.5 90h-71v53h64q-1 10 -1.5 20.5t-0.5 21.5v21h-62v53z" />
    <glyph glyph-name="fi.sc" horiz-adv-x="774" 
d="M85 578h385v-76h-301v-164h262v-76h-262v-262h-84v578zM602 578h84v-578h-84v578z" />
    <glyph glyph-name="fl.sc" horiz-adv-x="1005" 
d="M85 578h385v-76h-301v-164h262v-76h-262v-262h-84v578zM600 578h84v-502h280v-76h-364v578z" />
    <glyph glyph-name="ff.sc" horiz-adv-x="1030" 
d="M600 578h385v-76h-301v-164h262v-76h-262v-262h-84v578zM85 578h385v-76h-301v-164h262v-76h-262v-262h-84v578z" />
    <glyph glyph-name="ffi.sc" horiz-adv-x="1289" 
d="M600 578h385v-76h-301v-164h262v-76h-262v-262h-84v578zM85 578h385v-76h-301v-164h262v-76h-262v-262h-84v578zM1117 578h84v-578h-84v578z" />
    <glyph glyph-name="ffl.sc" horiz-adv-x="1520" 
d="M600 578h385v-76h-301v-164h262v-76h-262v-262h-84v578zM85 578h385v-76h-301v-164h262v-76h-262v-262h-84v578zM1115 578h84v-502h280v-76h-364v578z" />
    <glyph glyph-name="perthousand.sc" horiz-adv-x="1042" 
d="M180 304q-29 0 -54 11t-44 30t-30 45t-11 55t11 55t30 45.5t44 30.5t54 11q28 0 53.5 -11t44.5 -30.5t30 -45.5t11 -55t-11 -55t-30 -45t-44.5 -30t-53.5 -11zM530 -8q-29 0 -54 11t-44 30t-30 45t-11 55t11 55t30 45.5t44 30.5t54 11q28 0 53.5 -11t44.5 -30.5t30 -45.5
t11 -55t-11 -55t-30 -45t-44.5 -30t-53.5 -11zM862 -8q-29 0 -54 11t-44 30t-30 45t-11 55t11 55t30 45.5t44 30.5t54 11q28 0 53.5 -11t44.5 -30.5t30 -45.5t11 -55t-11 -55t-30 -45t-44.5 -30t-53.5 -11zM481 578h71l-323 -578h-71zM862 56q30 0 51 22t21 55t-21 56
t-51 23t-51 -23t-21 -56t21 -55t51 -22zM180 368q30 0 51 22t21 55t-21 56t-51 23t-51 -23t-21 -56t21 -55t51 -22zM530 56q30 0 51 22t21 55t-21 56t-51 23t-51 -23t-21 -56t21 -55t51 -22z" />
    <glyph glyph-name="zero.numerator" horiz-adv-x="371" 
d="M186 264q-30 0 -58 12t-49.5 37.5t-35 65t-13.5 95.5t13.5 96t35 65.5t49.5 37t58 11.5t57.5 -11.5t49 -37t34.5 -65.5t13 -96t-13 -95.5t-34.5 -65t-49 -37.5t-57.5 -12zM186 326q25 0 41.5 13.5t26.5 35t14 48t4 51.5t-4 51.5t-14 48.5t-26.5 35.5t-41.5 13.5
t-42 -13.5t-27 -35.5t-14 -48.5t-4 -51.5t4 -51.5t14 -48t27 -35t42 -13.5z" />
    <glyph glyph-name="one.numerator" horiz-adv-x="242" 
d="M95 573h-65v46q30 1 52 15t24 46h57v-408h-68v301z" />
    <glyph glyph-name="two.numerator" horiz-adv-x="345" 
d="M29 303q0 34 10.5 59.5t27.5 45.5t39.5 35t46.5 28q29 16 46 28t26 22.5t12 21t3 22.5q0 22 -14 40t-51 18q-35 0 -53.5 -22.5t-19.5 -57.5h-67q0 28 9 53.5t26.5 45t43.5 31t61 11.5q33 0 58.5 -10t42 -26.5t25 -38t8.5 -44.5q0 -29 -9 -50t-25.5 -37.5t-39.5 -30.5
t-50 -29q-36 -20 -58.5 -39.5t-24.5 -43.5h204v-63h-277v31z" />
    <glyph glyph-name="three.numerator" horiz-adv-x="344" 
d="M170 265q-36 0 -63 10.5t-45 28.5t-27.5 42t-10.5 51h67q2 -32 21 -51t58 -19q36 0 56.5 18.5t20.5 46.5t-16.5 45.5t-61.5 17.5h-23v59h12q45 0 60.5 15t15.5 39q0 26 -16 40.5t-46 14.5q-37 0 -53 -20.5t-17 -46.5h-66q0 27 9.5 50.5t27 40.5t42.5 27t56 10
q32 0 56.5 -9t41 -24.5t24.5 -35.5t8 -41q0 -29 -14 -50.5t-41 -33.5q36 -12 52.5 -38t16.5 -61q0 -24 -9.5 -47t-28 -40.5t-45.5 -28t-62 -10.5z" />
    <glyph glyph-name="four.numerator" horiz-adv-x="346" 
d="M210 360h-187v58l175 262h77v-260h43v-60h-43v-88h-65v88zM210 420v175l-118 -175h118z" />
    <glyph glyph-name="five.numerator" horiz-adv-x="338" 
d="M168 265q-32 0 -57 9.5t-43.5 25t-29 37t-11.5 45.5h67q4 -23 23 -38.5t51 -15.5q30 0 51.5 20t21.5 57q0 35 -20 57t-52 22q-45 0 -70 -41l-59 19l25 218h220v-62h-167l-13 -101q14 11 32.5 18.5t38.5 7.5q28 0 52.5 -10.5t42.5 -29t28 -44t10 -55.5q0 -31 -11 -56.5
t-30 -44t-45 -28.5t-55 -10z" />
    <glyph glyph-name="six.numerator" horiz-adv-x="350" 
d="M181 265q-30 0 -57 11t-48 34.5t-33.5 59.5t-12.5 86q0 110 42.5 170t113.5 60q51 0 86 -29t43 -81h-67q-5 18 -19 33.5t-43 15.5q-38 0 -60.5 -33.5t-27.5 -90.5q15 18 38 28.5t48 10.5q31 0 56.5 -10t44 -28.5t28.5 -43.5t10 -55q0 -29 -11 -54.5t-30 -44t-45 -29
t-56 -10.5zM182 325q34 0 54 22.5t20 54.5t-20 55.5t-56 23.5q-34 0 -54 -23t-20 -55q0 -34 21 -56t55 -22z" />
    <glyph glyph-name="seven.numerator" horiz-adv-x="317" 
d="M83 272q2 103 34 194.5t95 151.5h-192v62h275v-58q-71 -59 -106.5 -150t-37.5 -200h-68v0z" />
    <glyph glyph-name="eight.numerator" horiz-adv-x="349" 
d="M174 265q-32 0 -58.5 9.5t-46 26.5t-30 39.5t-10.5 49.5q0 35 18 61t48 43q-23 14 -35.5 35.5t-12.5 49.5q0 23 9.5 42.5t26.5 34t40.5 23t50.5 8.5q56 0 91 -31t35 -77q0 -56 -47 -85q32 -16 49.5 -42.5t17.5 -61.5q0 -27 -10.5 -49.5t-30 -39.5t-46.5 -26.5t-59 -9.5z
M174 324q31 0 55 16.5t24 51.5q0 33 -22.5 51t-56.5 18q-33 0 -55.5 -18t-22.5 -51q0 -35 24 -51.5t54 -16.5zM174 520q24 0 42.5 14t18.5 41q0 26 -17.5 39.5t-43.5 13.5t-43.5 -13.5t-17.5 -39.5q0 -27 18.5 -41t42.5 -14z" />
    <glyph glyph-name="nine.numerator" horiz-adv-x="351" 
d="M175 265q-49 0 -83.5 25.5t-44.5 72.5h71q5 -15 18.5 -26t39.5 -11q80 0 87 126q-13 -20 -37.5 -32t-51.5 -12q-30 0 -55 10.5t-43 29t-28.5 44.5t-10.5 56t11 55t30 43.5t45 29t56 10.5t57.5 -11t47.5 -34.5t32 -59.5t12 -86q1 -114 -37.5 -172t-115.5 -58zM179 467
q34 0 54.5 23t20.5 57t-20.5 57t-54.5 23q-35 0 -55 -23t-20 -56q0 -34 20 -57.5t55 -23.5z" />
    <glyph glyph-name="zero.denominator" horiz-adv-x="371" 
d="M186 -8q-30 0 -58 12t-49.5 37.5t-35 65t-13.5 95.5t13.5 96t35 65.5t49.5 37t58 11.5t57.5 -11.5t49 -37t34.5 -65.5t13 -96t-13 -95.5t-34.5 -65t-49 -37.5t-57.5 -12zM186 54q25 0 41.5 13.5t26.5 35t14 48t4 51.5t-4 51.5t-14 48.5t-26.5 35.5t-41.5 13.5t-42 -13.5
t-27 -35.5t-14 -48.5t-4 -51.5t4 -51.5t14 -48t27 -35t42 -13.5z" />
    <glyph glyph-name="one.denominator" horiz-adv-x="242" 
d="M95 301h-65v46q30 1 52 15t24 46h57v-408h-68v301z" />
    <glyph glyph-name="two.denominator" horiz-adv-x="345" 
d="M29 31q0 34 10.5 59.5t27.5 45.5t39.5 35t46.5 28q29 16 46 28t26 22.5t12 21t3 22.5q0 22 -14 40t-51 18q-35 0 -53.5 -22.5t-19.5 -57.5h-67q0 28 9 53.5t26.5 45t43.5 31t61 11.5q33 0 58.5 -10t42 -26.5t25 -38t8.5 -44.5q0 -29 -9 -50t-25.5 -37.5t-39.5 -30.5
t-50 -29q-36 -20 -58.5 -39.5t-24.5 -43.5h204v-63h-277v31z" />
    <glyph glyph-name="three.denominator" horiz-adv-x="344" 
d="M170 -7q-36 0 -63 10.5t-45 28.5t-27.5 42t-10.5 51h67q2 -32 21 -51t58 -19q36 0 56.5 18.5t20.5 46.5t-16.5 45.5t-61.5 17.5h-23v59h12q45 0 60.5 15t15.5 39q0 26 -16 40.5t-46 14.5q-37 0 -53 -20.5t-17 -46.5h-66q0 27 9.5 50.5t27 40.5t42.5 27t56 10
q32 0 56.5 -9t41 -24.5t24.5 -35.5t8 -41q0 -29 -14 -50.5t-41 -33.5q36 -12 52.5 -38t16.5 -61q0 -24 -9.5 -47t-28 -40.5t-45.5 -28t-62 -10.5z" />
    <glyph glyph-name="four.denominator" horiz-adv-x="346" 
d="M210 88h-187v58l175 262h77v-260h43v-60h-43v-88h-65v88zM210 148v175l-118 -175h118z" />
    <glyph glyph-name="five.denominator" horiz-adv-x="338" 
d="M168 -7q-32 0 -57 9.5t-43.5 25t-29 37t-11.5 45.5h67q4 -23 23 -38.5t51 -15.5q30 0 51.5 20t21.5 57q0 35 -20 57t-52 22q-45 0 -70 -41l-59 19l25 218h220v-62h-167l-13 -101q14 11 32.5 18.5t38.5 7.5q28 0 52.5 -10.5t42.5 -29t28 -44t10 -55.5q0 -31 -11 -56.5
t-30 -44t-45 -28.5t-55 -10z" />
    <glyph glyph-name="six.denominator" horiz-adv-x="350" 
d="M181 -7q-30 0 -57 11t-48 34.5t-33.5 59.5t-12.5 86q0 110 42.5 170t113.5 60q51 0 86 -29t43 -81h-67q-5 18 -19 33.5t-43 15.5q-38 0 -60.5 -33.5t-27.5 -90.5q15 18 38 28.5t48 10.5q31 0 56.5 -10t44 -28.5t28.5 -43.5t10 -55q0 -29 -11 -54.5t-30 -44t-45 -29
t-56 -10.5zM182 53q34 0 54 22.5t20 54.5t-20 55.5t-56 23.5q-34 0 -54 -23t-20 -55q0 -34 21 -56t55 -22z" />
    <glyph glyph-name="seven.denominator" horiz-adv-x="317" 
d="M83 0q2 103 34 194.5t95 151.5h-192v62h275v-58q-71 -59 -106.5 -150t-37.5 -200h-68v0z" />
    <glyph glyph-name="eight.denominator" horiz-adv-x="349" 
d="M174 -7q-32 0 -58.5 9.5t-46 26.5t-30 39.5t-10.5 49.5q0 35 18 61t48 43q-23 14 -35.5 35.5t-12.5 49.5q0 23 9.5 42.5t26.5 34t40.5 23t50.5 8.5q56 0 91 -31t35 -77q0 -56 -47 -85q32 -16 49.5 -42.5t17.5 -61.5q0 -27 -10.5 -49.5t-30 -39.5t-46.5 -26.5t-59 -9.5z
M174 52q31 0 55 16.5t24 51.5q0 33 -22.5 51t-56.5 18q-33 0 -55.5 -18t-22.5 -51q0 -35 24 -51.5t54 -16.5zM174 248q24 0 42.5 14t18.5 41q0 26 -17.5 39.5t-43.5 13.5t-43.5 -13.5t-17.5 -39.5q0 -27 18.5 -41t42.5 -14z" />
    <glyph glyph-name="nine.denominator" horiz-adv-x="351" 
d="M166 -7q-49 0 -83.5 25.5t-44.5 72.5h71q5 -15 18.5 -26t39.5 -11q80 0 87 126q-13 -20 -37.5 -32t-51.5 -12q-30 0 -55 10.5t-43 29t-28.5 44.5t-10.5 56t11 55t30 43.5t45 29t56 10.5t57.5 -11t47.5 -34.5t32 -59.5t12 -86q1 -114 -37.5 -172t-115.5 -58zM170 195
q34 0 54.5 23t20.5 57t-20.5 57t-54.5 23q-35 0 -55 -23t-20 -56q0 -34 20 -57.5t55 -23.5z" />
    <glyph glyph-name="zero.superior" horiz-adv-x="332" 
d="M166 348q-25 0 -48 10t-41 30.5t-28.5 52t-10.5 74.5t10.5 75t28.5 52t41 30t48 10q24 0 47 -10t41 -30t29 -52t11 -75t-11 -74.5t-29 -52t-41 -30.5t-47 -10zM166 399q20 0 33.5 10.5t21.5 27t11.5 37t3.5 41.5t-3.5 42t-11.5 37.5t-21.5 26.5t-33.5 10t-33.5 -10
t-21.5 -26.5t-11.5 -37.5t-3.5 -42t3.5 -41.5t11.5 -37t21.5 -27t33.5 -10.5z" />
    <glyph glyph-name="one.superior" horiz-adv-x="230" 
d="M91 585h-61v43q29 1 49 13t22 39h48v-326h-58v231z" />
    <glyph glyph-name="two.superior" horiz-adv-x="306" 
d="M37 380q0 28 8.5 48.5t23 36t32.5 27t37 22.5q23 12 36.5 22t20 18t8.5 16t2 17q0 17 -11 30.5t-39 13.5t-42 -16t-15 -39h-56q1 20 8 39.5t21 34.5t35 24t49 9q27 0 47 -8.5t33.5 -22t20.5 -30.5t7 -35q0 -23 -7 -40t-20 -30t-31 -23.5t-40 -22.5q-27 -14 -46 -30.5
t-19 -34.5h161v-52h-224v26z" />
    <glyph glyph-name="three.superior" horiz-adv-x="304" 
d="M148 348q-58 0 -87 31t-31 75h57q1 -25 16.5 -39t44.5 -14q30 0 46 14t16 36t-13.5 35t-45.5 13h-19v48h11q33 0 45 12t12 30q0 19 -13.5 30t-36.5 11q-26 0 -40 -14t-15 -31h-55q1 40 30.5 69t79.5 29q26 0 46 -7.5t33.5 -20t20 -28.5t6.5 -33q0 -46 -43 -67
q26 -10 40 -30.5t14 -46.5q0 -20 -7.5 -38t-22.5 -32.5t-37.5 -23t-51.5 -8.5z" />
    <glyph glyph-name="four.superior" horiz-adv-x="305" 
d="M180 423h-157v48l145 209h66v-208h34v-49h-34v-69h-54v69zM180 472v141l-99 -141h99z" />
    <glyph glyph-name="five.superior" horiz-adv-x="300" 
d="M148 348q-51 0 -82.5 26.5t-33.5 66.5h56q5 -20 19.5 -30t40.5 -10q24 0 41 15t17 44q0 27 -16 44t-41 17q-18 0 -32.5 -8.5t-23.5 -22.5l-50 15l19 175h181v-51h-136l-10 -81q11 10 25 16t34 6q45 0 76 -31t31 -80q0 -24 -8.5 -44.5t-24 -35t-36.5 -23t-46 -8.5z" />
    <glyph glyph-name="six.superior" horiz-adv-x="308" 
d="M159 348q-23 0 -44.5 8.5t-38.5 27t-27.5 47.5t-10.5 70q0 88 33.5 136t92.5 48q42 0 69 -22t34 -63h-56q-3 14 -14.5 23.5t-32.5 9.5q-30 0 -47.5 -26t-20.5 -72q12 17 29.5 25t36.5 8q49 0 80 -30.5t31 -78.5t-32 -79.5t-82 -31.5zM160 398q26 0 41 17.5t15 42.5
t-15 43t-42 18q-26 0 -41.5 -18t-15.5 -43t16 -42.5t42 -17.5z" />
    <glyph glyph-name="seven.superior" horiz-adv-x="284" 
d="M80 354q1 83 26.5 155t75.5 119h-152v52h222v-49q-56 -47 -84.5 -118t-29.5 -159h-58v0z" />
    <glyph glyph-name="eight.superior" horiz-adv-x="306" 
d="M152 348q-25 0 -46.5 7.5t-37.5 21t-25.5 32t-9.5 39.5q0 28 14.5 48.5t37.5 34.5q-17 11 -27 28t-10 39q0 38 30 62.5t74 24.5q45 0 75 -24.5t30 -62.5q0 -44 -37 -67q24 -14 37.5 -34.5t13.5 -48.5q0 -43 -33.5 -71.5t-85.5 -28.5zM152 398q27 0 44.5 13t17.5 40
q0 26 -16.5 39.5t-45.5 13.5q-26 0 -44 -13.5t-18 -39.5q0 -27 18.5 -40t43.5 -13zM152 552q21 0 35 11.5t14 31.5q0 21 -13 31.5t-36 10.5q-20 0 -34.5 -10.5t-14.5 -31.5q0 -20 15 -31.5t34 -11.5z" />
    <glyph glyph-name="nine.superior" horiz-adv-x="307" 
d="M147 348q-41 0 -68.5 20.5t-35.5 57.5h60q4 -11 14.5 -18.5t29.5 -7.5q62 0 66 95q-10 -15 -29 -23.5t-39 -8.5q-47 0 -78.5 31t-31.5 80q0 24 8.5 44.5t24 35t36.5 23t45 8.5t45.5 -8.5t38 -27.5t26.5 -49t10 -73q0 -85 -30 -132t-92 -47zM149 511q26 0 41.5 18.5
t15.5 43.5q0 26 -15.5 44.5t-41.5 18.5t-41.5 -18t-15.5 -44t15.5 -44.5t41.5 -18.5z" />
    <glyph glyph-name="zero.inferior" horiz-adv-x="332" 
d="M166 -86q-25 0 -48 10t-41 30.5t-28.5 52t-10.5 74.5t10.5 75t28.5 52t41 30t48 10q24 0 47 -10t41 -30t29 -52t11 -75t-11 -74.5t-29 -52t-41 -30.5t-47 -10zM166 -35q20 0 33.5 10.5t21.5 27t11.5 37t3.5 41.5t-3.5 42t-11.5 37.5t-21.5 26.5t-33.5 10t-33.5 -10
t-21.5 -26.5t-11.5 -37.5t-3.5 -42t3.5 -41.5t11.5 -37t21.5 -27t33.5 -10.5z" />
    <glyph glyph-name="one.inferior" horiz-adv-x="230" 
d="M91 151h-61v43q29 1 49 13t22 39h48v-326h-58v231z" />
    <glyph glyph-name="two.inferior" horiz-adv-x="306" 
d="M37 -54q0 28 8.5 48.5t23 36t32.5 27t37 22.5q23 12 36.5 22t20 18t8.5 16t2 17q0 17 -11 30.5t-39 13.5t-42 -16t-15 -39h-56q1 20 8 39.5t21 34.5t35 24t49 9q27 0 47 -8.5t33.5 -22t20.5 -30.5t7 -35q0 -23 -7 -40t-20 -30t-31 -23.5t-40 -22.5q-27 -14 -46 -30.5
t-19 -34.5h161v-52h-224v26z" />
    <glyph glyph-name="three.inferior" horiz-adv-x="304" 
d="M148 -86q-58 0 -87 31t-31 75h57q1 -25 16.5 -39t44.5 -14q30 0 46 14t16 36t-13.5 35t-45.5 13h-19v48h11q33 0 45 12t12 30q0 19 -13.5 30t-36.5 11q-26 0 -40 -14t-15 -31h-55q1 40 30.5 69t79.5 29q26 0 46 -7.5t33.5 -20t20 -28.5t6.5 -33q0 -46 -43 -67
q26 -10 40 -30.5t14 -46.5q0 -20 -7.5 -38t-22.5 -32.5t-37.5 -23t-51.5 -8.5z" />
    <glyph glyph-name="four.inferior" horiz-adv-x="305" 
d="M180 -11h-157v48l145 209h66v-208h34v-49h-34v-69h-54v69zM180 38v141l-99 -141h99z" />
    <glyph glyph-name="five.inferior" horiz-adv-x="300" 
d="M148 -86q-51 0 -82.5 26.5t-33.5 66.5h56q5 -20 19.5 -30t40.5 -10q24 0 41 15t17 44q0 27 -16 44t-41 17q-18 0 -32.5 -8.5t-23.5 -22.5l-50 15l19 175h181v-51h-136l-10 -81q11 10 25 16t34 6q45 0 76 -31t31 -80q0 -24 -8.5 -44.5t-24 -35t-36.5 -23t-46 -8.5z" />
    <glyph glyph-name="six.inferior" horiz-adv-x="308" 
d="M159 -86q-23 0 -44.5 8.5t-38.5 27t-27.5 47.5t-10.5 70q0 88 33.5 136t92.5 48q42 0 69 -22t34 -63h-56q-3 14 -14.5 23.5t-32.5 9.5q-30 0 -47.5 -26t-20.5 -72q12 17 29.5 25t36.5 8q49 0 80 -30.5t31 -78.5t-32 -79.5t-82 -31.5zM160 -36q26 0 41 17.5t15 42.5
t-15 43t-42 18q-26 0 -41.5 -18t-15.5 -43t16 -42.5t42 -17.5z" />
    <glyph glyph-name="seven.inferior" horiz-adv-x="284" 
d="M80 -80q1 83 26.5 155t75.5 119h-152v52h222v-49q-56 -47 -84.5 -118t-29.5 -159h-58v0z" />
    <glyph glyph-name="eight.inferior" horiz-adv-x="306" 
d="M152 -86q-25 0 -46.5 7.5t-37.5 21t-25.5 32t-9.5 39.5q0 28 14.5 48.5t37.5 34.5q-17 11 -27 28t-10 39q0 38 30 62.5t74 24.5q45 0 75 -24.5t30 -62.5q0 -44 -37 -67q24 -14 37.5 -34.5t13.5 -48.5q0 -43 -33.5 -71.5t-85.5 -28.5zM152 -36q27 0 44.5 13t17.5 40
q0 26 -16.5 39.5t-45.5 13.5q-26 0 -44 -13.5t-18 -39.5q0 -27 18.5 -40t43.5 -13zM152 118q21 0 35 11.5t14 31.5q0 21 -13 31.5t-36 10.5q-20 0 -34.5 -10.5t-14.5 -31.5q0 -20 15 -31.5t34 -11.5z" />
    <glyph glyph-name="nine.inferior" horiz-adv-x="307" 
d="M147 -86q-41 0 -68.5 20.5t-35.5 57.5h60q4 -11 14.5 -18.5t29.5 -7.5q62 0 66 95q-10 -15 -29 -23.5t-39 -8.5q-47 0 -78.5 31t-31.5 80q0 24 8.5 44.5t24 35t36.5 23t45 8.5t45.5 -8.5t38 -27.5t26.5 -49t10 -73q0 -85 -30 -132t-92 -47zM149 77q26 0 41.5 18.5
t15.5 43.5q0 26 -15.5 44.5t-41.5 18.5t-41.5 -18t-15.5 -44t15.5 -44.5t41.5 -18.5z" />
    <glyph glyph-name="onesixteenth" horiz-adv-x="1076" 
d="M901 -7q-30 0 -57 11t-48 34.5t-33.5 59.5t-12.5 86q0 110 42.5 170t113.5 60q51 0 86 -29t43 -81h-67q-5 18 -19 33.5t-43 15.5q-38 0 -60.5 -33.5t-27.5 -90.5q15 18 38 28.5t48 10.5q31 0 56.5 -10t44 -28.5t28.5 -43.5t10 -55q0 -29 -11 -54.5t-30 -44t-45 -29
t-56 -10.5zM515 680h78l-383 -680h-77zM101 573h-65v46q30 1 52 15t24 46h57v-408h-68v301zM573 301h-65v46q30 1 52 15t24 46h57v-408h-68v301zM902 53q34 0 54 22.5t20 54.5t-20 55.5t-56 23.5q-34 0 -54 -23t-20 -55q0 -34 21 -56t55 -22z" />
    <glyph glyph-name="threesixteenths" horiz-adv-x="1178" 
d="M1003 -7q-30 0 -57 11t-48 34.5t-33.5 59.5t-12.5 86q0 110 42.5 170t113.5 60q51 0 86 -29t43 -81h-67q-5 18 -19 33.5t-43 15.5q-38 0 -60.5 -33.5t-27.5 -90.5q15 18 38 28.5t48 10.5q31 0 56.5 -10t44 -28.5t28.5 -43.5t10 -55q0 -29 -11 -54.5t-30 -44t-45 -29
t-56 -10.5zM176 265q-36 0 -63 10.5t-45 28.5t-27.5 42t-10.5 51h67q2 -32 21 -51t58 -19q36 0 56.5 18.5t20.5 46.5t-16.5 45.5t-61.5 17.5h-23v59h12q45 0 60.5 15t15.5 39q0 26 -16 40.5t-46 14.5q-37 0 -53 -20.5t-17 -46.5h-66q0 27 9.5 50.5t27 40.5t42.5 27t56 10
q32 0 56.5 -9t41 -24.5t24.5 -35.5t8 -41q0 -29 -14 -50.5t-41 -33.5q36 -12 52.5 -38t16.5 -61q0 -24 -9.5 -47t-28 -40.5t-45.5 -28t-62 -10.5zM617 680h78l-383 -680h-77zM675 301h-65v46q30 1 52 15t24 46h57v-408h-68v301zM1004 53q34 0 54 22.5t20 54.5t-20 55.5
t-56 23.5q-34 0 -54 -23t-20 -55q0 -34 21 -56t55 -22z" />
    <glyph glyph-name="fivesixteenths" horiz-adv-x="1172" 
d="M997 -7q-30 0 -57 11t-48 34.5t-33.5 59.5t-12.5 86q0 110 42.5 170t113.5 60q51 0 86 -29t43 -81h-67q-5 18 -19 33.5t-43 15.5q-38 0 -60.5 -33.5t-27.5 -90.5q15 18 38 28.5t48 10.5q31 0 56.5 -10t44 -28.5t28.5 -43.5t10 -55q0 -29 -11 -54.5t-30 -44t-45 -29
t-56 -10.5zM174 265q-32 0 -57 9.5t-43.5 25t-29 37t-11.5 45.5h67q4 -23 23 -38.5t51 -15.5q30 0 51.5 20t21.5 57q0 35 -20 57t-52 22q-45 0 -70 -41l-59 19l25 218h220v-62h-167l-13 -101q14 11 32.5 18.5t38.5 7.5q28 0 52.5 -10.5t42.5 -29t28 -44t10 -55.5
q0 -31 -11 -56.5t-30 -44t-45 -28.5t-55 -10zM611 680h78l-383 -680h-77zM669 301h-65v46q30 1 52 15t24 46h57v-408h-68v301zM998 53q34 0 54 22.5t20 54.5t-20 55.5t-56 23.5q-34 0 -54 -23t-20 -55q0 -34 21 -56t55 -22z" />
    <glyph glyph-name="sevensixteenths" horiz-adv-x="1101" 
d="M926 -7q-30 0 -57 11t-48 34.5t-33.5 59.5t-12.5 86q0 110 42.5 170t113.5 60q51 0 86 -29t43 -81h-67q-5 18 -19 33.5t-43 15.5q-38 0 -60.5 -33.5t-27.5 -90.5q15 18 38 28.5t48 10.5q31 0 56.5 -10t44 -28.5t28.5 -43.5t10 -55q0 -29 -11 -54.5t-30 -44t-45 -29
t-56 -10.5zM540 680h78l-383 -680h-77zM89 272q2 103 34 194.5t95 151.5h-192v62h275v-58q-71 -59 -106.5 -150t-37.5 -200h-68zM598 301h-65v46q30 1 52 15t24 46h57v-408h-68v301zM927 53q34 0 54 22.5t20 54.5t-20 55.5t-56 23.5q-34 0 -54 -23t-20 -55q0 -34 21 -56
t55 -22z" />
    <glyph glyph-name="ninesixteenths" horiz-adv-x="1185" 
d="M1010 -7q-30 0 -57 11t-48 34.5t-33.5 59.5t-12.5 86q0 110 42.5 170t113.5 60q51 0 86 -29t43 -81h-67q-5 18 -19 33.5t-43 15.5q-38 0 -60.5 -33.5t-27.5 -90.5q15 18 38 28.5t48 10.5q31 0 56.5 -10t44 -28.5t28.5 -43.5t10 -55q0 -29 -11 -54.5t-30 -44t-45 -29
t-56 -10.5zM181 265q-49 0 -83.5 25.5t-44.5 72.5h71q5 -15 18.5 -26t39.5 -11q80 0 87 126q-13 -20 -37.5 -32t-51.5 -12q-30 0 -55 10.5t-43 29t-28.5 44.5t-10.5 56t11 55t30 43.5t45 29t56 10.5t57.5 -11t47.5 -34.5t32 -59.5t12 -86q1 -114 -37.5 -172t-115.5 -58z
M624 680h78l-383 -680h-77zM682 301h-65v46q30 1 52 15t24 46h57v-408h-68v301zM185 467q34 0 54.5 23t20.5 57t-20.5 57t-54.5 23q-35 0 -55 -23t-20 -56q0 -34 20 -57.5t55 -23.5zM1011 53q34 0 54 22.5t20 54.5t-20 55.5t-56 23.5q-34 0 -54 -23t-20 -55q0 -34 21 -56
t55 -22z" />
    <glyph glyph-name="elevensixteenths" horiz-adv-x="1318" 
d="M1143 -7q-30 0 -57 11t-48 34.5t-33.5 59.5t-12.5 86q0 110 42.5 170t113.5 60q51 0 86 -29t43 -81h-67q-5 18 -19 33.5t-43 15.5q-38 0 -60.5 -33.5t-27.5 -90.5q15 18 38 28.5t48 10.5q31 0 56.5 -10t44 -28.5t28.5 -43.5t10 -55q0 -29 -11 -54.5t-30 -44t-45 -29
t-56 -10.5zM757 680h78l-383 -680h-77zM343 573h-65v46q30 1 52 15t24 46h57v-408h-68v301zM815 301h-65v46q30 1 52 15t24 46h57v-408h-68v301zM101 573h-65v46q30 1 52 15t24 46h57v-408h-68v301zM1144 53q34 0 54 22.5t20 54.5t-20 55.5t-56 23.5q-34 0 -54 -23t-20 -55
q0 -34 21 -56t55 -22z" />
    <glyph glyph-name="thirteensixteenths" horiz-adv-x="1420" 
d="M1245 -7q-30 0 -57 11t-48 34.5t-33.5 59.5t-12.5 86q0 110 42.5 170t113.5 60q51 0 86 -29t43 -81h-67q-5 18 -19 33.5t-43 15.5q-38 0 -60.5 -33.5t-27.5 -90.5q15 18 38 28.5t48 10.5q31 0 56.5 -10t44 -28.5t28.5 -43.5t10 -55q0 -29 -11 -54.5t-30 -44t-45 -29
t-56 -10.5zM418 265q-36 0 -63 10.5t-45 28.5t-27.5 42t-10.5 51h67q2 -32 21 -51t58 -19q36 0 56.5 18.5t20.5 46.5t-16.5 45.5t-61.5 17.5h-23v59h12q45 0 60.5 15t15.5 39q0 26 -16 40.5t-46 14.5q-37 0 -53 -20.5t-17 -46.5h-66q0 27 9.5 50.5t27 40.5t42.5 27t56 10
q32 0 56.5 -9t41 -24.5t24.5 -35.5t8 -41q0 -29 -14 -50.5t-41 -33.5q36 -12 52.5 -38t16.5 -61q0 -24 -9.5 -47t-28 -40.5t-45.5 -28t-62 -10.5zM859 680h78l-383 -680h-77zM917 301h-65v46q30 1 52 15t24 46h57v-408h-68v301zM101 573h-65v46q30 1 52 15t24 46h57v-408
h-68v301zM1246 53q34 0 54 22.5t20 54.5t-20 55.5t-56 23.5q-34 0 -54 -23t-20 -55q0 -34 21 -56t55 -22z" />
    <glyph glyph-name="fifteensixteenths" horiz-adv-x="1414" 
d="M1239 -7q-30 0 -57 11t-48 34.5t-33.5 59.5t-12.5 86q0 110 42.5 170t113.5 60q51 0 86 -29t43 -81h-67q-5 18 -19 33.5t-43 15.5q-38 0 -60.5 -33.5t-27.5 -90.5q15 18 38 28.5t48 10.5q31 0 56.5 -10t44 -28.5t28.5 -43.5t10 -55q0 -29 -11 -54.5t-30 -44t-45 -29
t-56 -10.5zM416 265q-32 0 -57 9.5t-43.5 25t-29 37t-11.5 45.5h67q4 -23 23 -38.5t51 -15.5q30 0 51.5 20t21.5 57q0 35 -20 57t-52 22q-45 0 -70 -41l-59 19l25 218h220v-62h-167l-13 -101q14 11 32.5 18.5t38.5 7.5q28 0 52.5 -10.5t42.5 -29t28 -44t10 -55.5
q0 -31 -11 -56.5t-30 -44t-45 -28.5t-55 -10zM853 680h78l-383 -680h-77zM911 301h-65v46q30 1 52 15t24 46h57v-408h-68v301zM101 573h-65v46q30 1 52 15t24 46h57v-408h-68v301zM1240 53q34 0 54 22.5t20 54.5t-20 55.5t-56 23.5q-34 0 -54 -23t-20 -55q0 -34 21 -56
t55 -22z" />
    <glyph glyph-name="Aacute.sc" horiz-adv-x="566" 
d="M238 578h92l205 -578h-86l-50 144h-235l-50 -144h-85zM191 219h182l-70 204q-3 10 -6.5 22.5t-6.5 23.5t-5 19.5t-2 10.5q0 -2 -2 -10t-4.5 -19.5t-6 -24t-7.5 -22.5zM315 768h109l-97 -147h-76z" />
    <glyph glyph-name="Abreve.sc" horiz-adv-x="566" 
d="M238 578h92l205 -578h-86l-50 144h-235l-50 -144h-85zM191 219h182l-70 204q-3 10 -6.5 22.5t-6.5 23.5t-5 19.5t-2 10.5q0 -2 -2 -10t-4.5 -19.5t-6 -24t-7.5 -22.5zM282 621q-64 0 -102.5 40t-43.5 101h61q7 -27 26.5 -48t59.5 -21q39 0 59 21t26 48h61
q-5 -61 -43.5 -101t-103.5 -40z" />
    <glyph glyph-name="Acircumflex.sc" horiz-adv-x="566" 
d="M238 578h92l205 -578h-86l-50 144h-235l-50 -144h-85zM191 219h182l-70 204q-3 10 -6.5 22.5t-6.5 23.5t-5 19.5t-2 10.5q0 -2 -2 -10t-4.5 -19.5t-6 -24t-7.5 -22.5zM251 775h64l114 -154h-74l-72 79l-72 -79h-73z" />
    <glyph glyph-name="Adieresis.sc" horiz-adv-x="566" 
d="M238 578h92l205 -578h-86l-50 144h-235l-50 -144h-85zM191 219h182l-70 204q-3 10 -6.5 22.5t-6.5 23.5t-5 19.5t-2 10.5q0 -2 -2 -10t-4.5 -19.5t-6 -24t-7.5 -22.5zM329 716h93v-95h-93v95zM144 716h92v-95h-92v95z" />
    <glyph glyph-name="Agrave.sc" horiz-adv-x="566" 
d="M238 578h92l205 -578h-86l-50 144h-235l-50 -144h-85zM191 219h182l-70 204q-3 10 -6.5 22.5t-6.5 23.5t-5 19.5t-2 10.5q0 -2 -2 -10t-4.5 -19.5t-6 -24t-7.5 -22.5zM142 768h109l64 -147h-76z" />
    <glyph glyph-name="Amacron.sc" horiz-adv-x="566" 
d="M238 578h92l205 -578h-86l-50 144h-235l-50 -144h-85zM191 219h182l-70 204q-3 10 -6.5 22.5t-6.5 23.5t-5 19.5t-2 10.5q0 -2 -2 -10t-4.5 -19.5t-6 -24t-7.5 -22.5zM152 720h262v-70h-262v70z" />
    <glyph glyph-name="Aogonek.sc" horiz-adv-x="566" 
d="M467 -236q-45 0 -76.5 24.5t-31.5 68.5q0 25 10.5 46.5t26 39.5t33 32.5t32.5 24.5h-12l-50 144h-235l-50 -144h-85l209 578h92l205 -578h-14q-48 -46 -71.5 -78t-23.5 -64q0 -19 11 -31t31 -12q19 0 29.5 8.5t15.5 19.5h63q-7 -34 -36.5 -56.5t-72.5 -22.5zM191 219h182
l-70 204q-7 20 -12.5 44t-7.5 31q-1 -3 -3 -11.5t-4.5 -19.5t-6 -22.5t-6.5 -21.5z" />
    <glyph glyph-name="Aring.sc" horiz-adv-x="566" 
d="M238 578h92l205 -578h-86l-50 144h-235l-50 -144h-85zM191 219h182l-70 204q-3 10 -6.5 22.5t-6.5 23.5t-5 19.5t-2 10.5q0 -2 -2 -10t-4.5 -19.5t-6 -24t-7.5 -22.5zM282 598q-24 0 -44.5 8.5t-35.5 23.5t-24 35.5t-9 43.5q0 24 9 44.5t24 35.5t35.5 23.5t44.5 8.5
q23 0 43.5 -8.5t36 -23.5t24.5 -35.5t9 -44.5q0 -23 -9 -43.5t-24.5 -35.5t-36 -23.5t-43.5 -8.5zM282 644q26 0 43.5 18.5t17.5 46.5t-17.5 47t-43.5 19t-43.5 -19t-17.5 -47t17.5 -46.5t43.5 -18.5z" />
    <glyph glyph-name="Atilde.sc" horiz-adv-x="566" 
d="M238 578h92l205 -578h-86l-50 144h-235l-50 -144h-85zM191 219h182l-70 204q-3 10 -6.5 22.5t-6.5 23.5t-5 19.5t-2 10.5q0 -2 -2 -10t-4.5 -19.5t-6 -24t-7.5 -22.5zM120 618q5 51 32.5 85.5t71.5 34.5q21 0 38.5 -7.5t32.5 -16t28.5 -16t26.5 -7.5q18 0 28 13.5
t12 33.5h56q-5 -51 -32.5 -85.5t-71.5 -34.5q-21 0 -38.5 7.5t-32.5 16t-28.5 16t-26.5 7.5q-17 0 -27.5 -13.5t-12.5 -33.5h-56z" />
    <glyph glyph-name="Cacute.sc" horiz-adv-x="624" 
d="M331 -10q-57 0 -107.5 22.5t-89 62t-60.5 94.5t-22 121t22 121t59.5 94.5t88.5 62t108 22.5q100 0 164 -51t88 -139h-84q-19 51 -60 83t-108 32q-41 0 -76 -16.5t-61 -46t-40.5 -71t-14.5 -91.5q0 -51 15 -92.5t41 -71t61 -46t76 -16.5q61 0 106 33t62 87h86
q-26 -90 -91 -142t-163 -52zM352 768h109l-97 -147h-76z" />
    <glyph glyph-name="Ccaron.sc" horiz-adv-x="624" 
d="M331 -10q-57 0 -107.5 22.5t-89 62t-60.5 94.5t-22 121t22 121t59.5 94.5t88.5 62t108 22.5q100 0 164 -51t88 -139h-84q-19 51 -60 83t-108 32q-41 0 -76 -16.5t-61 -46t-40.5 -71t-14.5 -91.5q0 -51 15 -92.5t41 -71t61 -46t76 -16.5q61 0 106 33t62 87h86
q-26 -90 -91 -142t-163 -52zM180 772h74l72 -79l72 79h73l-113 -154h-64z" />
    <glyph glyph-name="Ccedilla.sc" horiz-adv-x="624" 
d="M585 184q-25 -84 -83 -135t-146 -58l-30 -46q4 1 14 1q37 0 64.5 -23.5t27.5 -65.5q0 -23 -9 -40.5t-24 -29t-35 -17.5t-41 -6q-43 0 -76 21.5t-39 57.5h63q5 -12 17 -20t31 -8q20 0 33 11.5t13 29.5q0 19 -13 31t-32 12q-12 0 -21.5 -5t-16.5 -11l-35 28l46 82
q-50 7 -94 31.5t-76.5 63.5t-51.5 90.5t-19 111.5q0 66 22 121t59.5 94.5t88.5 62t108 22.5q100 0 164 -51t88 -139h-84q-19 51 -60 83t-108 32q-41 0 -76 -16.5t-61 -46t-40.5 -71t-14.5 -91.5q0 -51 15 -92.5t41 -71t61 -46t76 -16.5q61 0 106 33t62 87h86v0z" />
    <glyph glyph-name="Ccircumflex.sc" horiz-adv-x="624" 
d="M331 -10q-57 0 -107.5 22.5t-89 62t-60.5 94.5t-22 121t22 121t59.5 94.5t88.5 62t108 22.5q100 0 164 -51t88 -139h-84q-19 51 -60 83t-108 32q-41 0 -76 -16.5t-61 -46t-40.5 -71t-14.5 -91.5q0 -51 15 -92.5t41 -71t61 -46t76 -16.5q61 0 106 33t62 87h86
q-26 -90 -91 -142t-163 -52zM298 775h64l114 -154h-74l-72 79l-72 -79h-73z" />
    <glyph glyph-name="Dcaron.sc" horiz-adv-x="605" 
d="M85 578h197q62 0 112 -20t85.5 -57.5t54.5 -91t19 -120.5t-19 -120.5t-54.5 -91t-85.5 -57.5t-112 -20h-197v578zM282 75q90 0 137.5 57t47.5 157q0 106 -48.5 160t-136.5 54h-113v-428h113zM133 772h74l72 -79l72 79h73l-113 -154h-64z" />
    <glyph glyph-name="Eacute.sc" 
d="M85 578h403v-76h-319v-160h273v-76h-273v-190h324v-76h-408v578zM306 768h109l-97 -147h-76z" />
    <glyph glyph-name="Ecaron.sc" 
d="M85 578h403v-76h-319v-160h273v-76h-273v-190h324v-76h-408v578zM143 772h74l72 -79l72 79h73l-113 -154h-64z" />
    <glyph glyph-name="Ecircumflex.sc" 
d="M85 578h403v-76h-319v-160h273v-76h-273v-190h324v-76h-408v578zM253 775h64l114 -154h-74l-72 79l-72 -79h-73z" />
    <glyph glyph-name="Edieresis.sc" 
d="M85 578h403v-76h-319v-160h273v-76h-273v-190h324v-76h-408v578zM336 716h93v-95h-93v95zM151 716h92v-95h-92v95z" />
    <glyph glyph-name="Edotaccent.sc" 
d="M85 578h403v-76h-319v-160h273v-76h-273v-190h324v-76h-408v578zM246 716h92v-95h-92v95z" />
    <glyph glyph-name="Egrave.sc" 
d="M85 578h403v-76h-319v-160h273v-76h-273v-190h324v-76h-408v578zM157 768h109l64 -147h-76z" />
    <glyph glyph-name="Emacron.sc" 
d="M85 578h403v-76h-319v-160h273v-76h-273v-190h324v-76h-408v578zM155 720h262v-70h-262v70z" />
    <glyph glyph-name="Eogonek.sc" 
d="M85 578h403v-76h-319v-160h273v-76h-273v-190h324v-76h-23q-48 -46 -71.5 -78t-23.5 -64q0 -19 11 -31t31 -12q19 0 29.5 8.5t15.5 19.5h63q-7 -34 -36.5 -56.5t-72.5 -22.5q-45 0 -76.5 24.5t-31.5 68.5q0 25 10.5 46.5t26 39.5t33 32.5t32.5 24.5h-325v578z" />
    <glyph glyph-name="Gbreve.sc" horiz-adv-x="658" 
d="M330 -10q-58 0 -108.5 22t-88 62t-59.5 95t-22 121t22 121t59.5 94.5t88.5 62t108 22.5q43 0 83 -12t73.5 -35t57.5 -58.5t36 -81.5h-87q-18 57 -62 84.5t-101 27.5q-42 0 -77.5 -16.5t-61 -46t-39.5 -71t-14 -91.5q0 -51 14.5 -92.5t40.5 -71t61 -46t77 -16.5
q39 0 72 13t57 35t38.5 51.5t17.5 62.5h-159v76h238v-302h-78v88q-26 -41 -72 -69.5t-115 -28.5zM325 621q-64 0 -102.5 40t-43.5 101h61q7 -27 26.5 -48t59.5 -21q39 0 59 21t26 48h61q-5 -61 -43.5 -101t-103.5 -40z" />
    <glyph glyph-name="Gcircumflex.sc" horiz-adv-x="658" 
d="M330 -10q-58 0 -108.5 22t-88 62t-59.5 95t-22 121t22 121t59.5 94.5t88.5 62t108 22.5q43 0 83 -12t73.5 -35t57.5 -58.5t36 -81.5h-87q-18 57 -62 84.5t-101 27.5q-42 0 -77.5 -16.5t-61 -46t-39.5 -71t-14 -91.5q0 -51 14.5 -92.5t40.5 -71t61 -46t77 -16.5
q39 0 72 13t57 35t38.5 51.5t17.5 62.5h-159v76h238v-302h-78v88q-26 -41 -72 -69.5t-115 -28.5zM303 775h64l114 -154h-74l-72 79l-72 -79h-73z" />
    <glyph glyph-name="Gcommaaccent.sc" horiz-adv-x="658" 
d="M330 -10q-58 0 -108.5 22t-88 62t-59.5 95t-22 121t22 121t59.5 94.5t88.5 62t108 22.5q43 0 83 -12t73.5 -35t57.5 -58.5t36 -81.5h-87q-18 57 -62 84.5t-101 27.5q-42 0 -77.5 -16.5t-61 -46t-39.5 -71t-14 -91.5q0 -51 14.5 -92.5t40.5 -71t61 -46t77 -16.5
q39 0 72 13t57 35t38.5 51.5t17.5 62.5h-159v76h238v-302h-78v88q-26 -41 -72 -69.5t-115 -28.5zM275 -239q24 2 38.5 17t14.5 44v15h-52v105h103v-120q0 -27 -8.5 -46.5t-23 -32.5t-33 -20t-39.5 -8v46z" />
    <glyph glyph-name="Hcircumflex.sc" horiz-adv-x="621" 
d="M85 578h84v-239h283v239h84v-578h-84v263h-283v-263h-84v578zM280 775h64l114 -154h-74l-72 79l-72 -79h-73z" />
    <glyph glyph-name="Iacute.sc" horiz-adv-x="259" 
d="M87 578h84v-578h-84v578zM162 768h109l-97 -147h-76z" />
    <glyph glyph-name="Icircumflex.sc" horiz-adv-x="259" 
d="M87 578h84v-578h-84v578zM98 775h64l114 -154h-74l-72 79l-72 -79h-73z" />
    <glyph glyph-name="Idieresis.sc" horiz-adv-x="259" 
d="M87 578h84v-578h-84v578zM176 716h93v-95h-93v95zM-9 716h92v-95h-92v95z" />
    <glyph glyph-name="Idotaccent.sc" horiz-adv-x="259" 
d="M87 578h84v-578h-84v578zM84 716h92v-95h-92v95z" />
    <glyph glyph-name="Igrave.sc" horiz-adv-x="259" 
d="M87 578h84v-578h-84v578zM-11 768h109l64 -147h-76z" />
    <glyph glyph-name="Imacron.sc" horiz-adv-x="259" 
d="M87 578h84v-578h-84v578zM-1 720h262v-70h-262v70z" />
    <glyph glyph-name="Iogonek.sc" horiz-adv-x="259" 
d="M87 578h84v-578q-48 -46 -71.5 -78t-23.5 -64q0 -19 11 -31t31 -12q19 0 29.5 8.5t15.5 19.5h63q-7 -34 -36.5 -56.5t-72.5 -22.5q-45 0 -76.5 24.5t-31.5 68.5q0 25 10.5 46.5t26 39.5t33 32.5t32.5 24.5h-24v578z" />
    <glyph glyph-name="Jcircumflex.sc" horiz-adv-x="484" 
d="M223 -10q-42 0 -76 14t-58 39.5t-37 60.5t-13 78v11h83v-12q0 -23 5.5 -44t17.5 -37t31.5 -25.5t46.5 -9.5q55 0 78 33.5t23 90.5v389h85v-388q0 -90 -47.5 -145t-138.5 -55zM334 775h64l114 -154h-74l-72 79l-72 -79h-73z" />
    <glyph glyph-name="Kcommaaccent.sc" horiz-adv-x="569" 
d="M251 285l-87 -90v-195h-79v578h79v-282l268 282h100l-225 -234l233 -344h-97zM236 -239q24 2 38.5 17t14.5 44v15h-52v105h103v-120q0 -27 -8.5 -46.5t-23 -32.5t-33 -20t-39.5 -8v46z" />
    <glyph glyph-name="Lacute.sc" horiz-adv-x="490" 
d="M85 578h84v-502h280v-76h-364v578zM154 768h109l-97 -147h-76z" />
    <glyph glyph-name="Lcommaaccent.sc" horiz-adv-x="490" 
d="M85 578h84v-502h280v-76h-364v578zM212 -239q24 2 38.5 17t14.5 44v15h-52v105h103v-120q0 -27 -8.5 -46.5t-23 -32.5t-33 -20t-39.5 -8v46z" />
    <glyph glyph-name="Nacute.sc" horiz-adv-x="617" 
d="M85 578h96l271 -448v448h80v-578h-92l-275 455v-455h-80v578zM343 768h109l-97 -147h-76z" />
    <glyph glyph-name="Ncaron.sc" horiz-adv-x="617" 
d="M85 578h96l271 -448v448h80v-578h-92l-275 455v-455h-80v578zM167 772h74l72 -79l72 79h73l-113 -154h-64z" />
    <glyph glyph-name="Ncommaaccent.sc" horiz-adv-x="617" 
d="M85 578h96l271 -448v448h80v-578h-92l-275 455v-455h-80v578zM252 -239q24 2 38.5 17t14.5 44v15h-52v105h103v-120q0 -27 -8.5 -46.5t-23 -32.5t-33 -20t-39.5 -8v46z" />
    <glyph glyph-name="Ntilde.sc" horiz-adv-x="617" 
d="M85 578h96l271 -448v448h80v-578h-92l-275 455v-455h-80v578zM153 618q5 51 32.5 85.5t71.5 34.5q21 0 38.5 -7.5t32.5 -16t28.5 -16t26.5 -7.5q18 0 28 13.5t12 33.5h56q-5 -51 -32.5 -85.5t-71.5 -34.5q-21 0 -38.5 7.5t-32.5 16t-28.5 16t-26.5 7.5q-17 0 -27.5 -13.5
t-12.5 -33.5h-56z" />
    <glyph glyph-name="Oacute.sc" horiz-adv-x="665" 
d="M333 -10q-59 0 -110 22.5t-89 62t-60 94.5t-22 121t22 121t60 94.5t89 62t110 22.5t110 -22t89 -61.5t59.5 -95t21.5 -121.5q0 -65 -22 -120t-59.5 -95t-89 -62.5t-109.5 -22.5zM333 65q41 0 76.5 16.5t61.5 46t41 71t15 91.5q0 51 -14.5 92.5t-40.5 70.5t-61.5 45
t-77.5 16t-77.5 -16.5t-61.5 -46t-40.5 -70.5t-14.5 -91q0 -51 14.5 -92.5t40.5 -71t61.5 -45.5t77.5 -16zM366 768h109l-97 -147h-76z" />
    <glyph glyph-name="Ocircumflex.sc" horiz-adv-x="665" 
d="M333 -10q-59 0 -110 22.5t-89 62t-60 94.5t-22 121t22 121t60 94.5t89 62t110 22.5t110 -22t89 -61.5t59.5 -95t21.5 -121.5q0 -65 -22 -120t-59.5 -95t-89 -62.5t-109.5 -22.5zM333 65q41 0 76.5 16.5t61.5 46t41 71t15 91.5q0 51 -14.5 92.5t-40.5 70.5t-61.5 45
t-77.5 16t-77.5 -16.5t-61.5 -46t-40.5 -70.5t-14.5 -91q0 -51 14.5 -92.5t40.5 -71t61.5 -45.5t77.5 -16zM302 775h64l114 -154h-74l-72 79l-72 -79h-73z" />
    <glyph glyph-name="Odieresis.sc" horiz-adv-x="665" 
d="M333 -10q-59 0 -110 22.5t-89 62t-60 94.5t-22 121t22 121t60 94.5t89 62t110 22.5t110 -22t89 -61.5t59.5 -95t21.5 -121.5q0 -65 -22 -120t-59.5 -95t-89 -62.5t-109.5 -22.5zM333 65q41 0 76.5 16.5t61.5 46t41 71t15 91.5q0 51 -14.5 92.5t-40.5 70.5t-61.5 45
t-77.5 16t-77.5 -16.5t-61.5 -46t-40.5 -70.5t-14.5 -91q0 -51 14.5 -92.5t40.5 -71t61.5 -45.5t77.5 -16zM380 716h93v-95h-93v95zM195 716h92v-95h-92v95z" />
    <glyph glyph-name="Ograve.sc" horiz-adv-x="665" 
d="M333 -10q-59 0 -110 22.5t-89 62t-60 94.5t-22 121t22 121t60 94.5t89 62t110 22.5t110 -22t89 -61.5t59.5 -95t21.5 -121.5q0 -65 -22 -120t-59.5 -95t-89 -62.5t-109.5 -22.5zM333 65q41 0 76.5 16.5t61.5 46t41 71t15 91.5q0 51 -14.5 92.5t-40.5 70.5t-61.5 45
t-77.5 16t-77.5 -16.5t-61.5 -46t-40.5 -70.5t-14.5 -91q0 -51 14.5 -92.5t40.5 -71t61.5 -45.5t77.5 -16zM193 768h109l64 -147h-76z" />
    <glyph glyph-name="Ohungarumlaut.sc" horiz-adv-x="665" 
d="M333 -10q-59 0 -110 22.5t-89 62t-60 94.5t-22 121t22 121t60 94.5t89 62t110 22.5t110 -22t89 -61.5t59.5 -95t21.5 -121.5q0 -65 -22 -120t-59.5 -95t-89 -62.5t-109.5 -22.5zM333 65q41 0 76.5 16.5t61.5 46t41 71t15 91.5q0 51 -14.5 92.5t-40.5 70.5t-61.5 45
t-77.5 16t-77.5 -16.5t-61.5 -46t-40.5 -70.5t-14.5 -91q0 -51 14.5 -92.5t40.5 -71t61.5 -45.5t77.5 -16zM428 768h99l-78 -147h-76zM265 768h99l-78 -147h-76z" />
    <glyph glyph-name="Omacron.sc" horiz-adv-x="665" 
d="M333 -10q-59 0 -110 22.5t-89 62t-60 94.5t-22 121t22 121t60 94.5t89 62t110 22.5t110 -22t89 -61.5t59.5 -95t21.5 -121.5q0 -65 -22 -120t-59.5 -95t-89 -62.5t-109.5 -22.5zM333 65q41 0 76.5 16.5t61.5 46t41 71t15 91.5q0 51 -14.5 92.5t-40.5 70.5t-61.5 45
t-77.5 16t-77.5 -16.5t-61.5 -46t-40.5 -70.5t-14.5 -91q0 -51 14.5 -92.5t40.5 -71t61.5 -45.5t77.5 -16zM203 720h262v-70h-262v70z" />
    <glyph glyph-name="Otilde.sc" horiz-adv-x="665" 
d="M333 -10q-59 0 -110 22.5t-89 62t-60 94.5t-22 121t22 121t60 94.5t89 62t110 22.5t110 -22t89 -61.5t59.5 -95t21.5 -121.5q0 -65 -22 -120t-59.5 -95t-89 -62.5t-109.5 -22.5zM333 65q41 0 76.5 16.5t61.5 46t41 71t15 91.5q0 51 -14.5 92.5t-40.5 70.5t-61.5 45
t-77.5 16t-77.5 -16.5t-61.5 -46t-40.5 -70.5t-14.5 -91q0 -51 14.5 -92.5t40.5 -71t61.5 -45.5t77.5 -16zM171 618q5 51 32.5 85.5t71.5 34.5q21 0 38.5 -7.5t32.5 -16t28.5 -16t26.5 -7.5q18 0 28 13.5t12 33.5h56q-5 -51 -32.5 -85.5t-71.5 -34.5q-21 0 -38.5 7.5
t-32.5 16t-28.5 16t-26.5 7.5q-17 0 -27.5 -13.5t-12.5 -33.5h-56z" />
    <glyph glyph-name="Racute.sc" horiz-adv-x="587" 
d="M85 578h247q88 0 137.5 -47t49.5 -125q0 -45 -21 -78t-66 -53q36 -14 52.5 -42t20.5 -76l5 -72q2 -28 8 -50t11 -35h-82q-5 12 -10 30t-7 47l-4 74q-3 44 -23 64t-66 20h-170v-235h-82v578zM338 310q40 0 69.5 23t29.5 72q0 45 -24.5 71t-80.5 26h-165v-192h171zM310 768
h109l-97 -147h-76z" />
    <glyph glyph-name="Rcaron.sc" horiz-adv-x="587" 
d="M85 578h247q88 0 137.5 -47t49.5 -125q0 -45 -21 -78t-66 -53q36 -14 52.5 -42t20.5 -76l5 -72q2 -28 8 -50t11 -35h-82q-5 12 -10 30t-7 47l-4 74q-3 44 -23 64t-66 20h-170v-235h-82v578zM338 310q40 0 69.5 23t29.5 72q0 45 -24.5 71t-80.5 26h-165v-192h171zM140 772
h74l72 -79l72 79h73l-113 -154h-64z" />
    <glyph glyph-name="Rcommaaccent.sc" horiz-adv-x="587" 
d="M85 578h247q88 0 137.5 -47t49.5 -125q0 -45 -21 -78t-66 -53q36 -14 52.5 -42t20.5 -76l5 -72q2 -28 8 -50t11 -35h-82q-5 12 -10 30t-7 47l-4 74q-3 44 -23 64t-66 20h-170v-235h-82v578zM338 310q40 0 69.5 23t29.5 72q0 45 -24.5 71t-80.5 26h-165v-192h171z
M255 -239q24 2 38.5 17t14.5 44v15h-52v105h103v-120q0 -27 -8.5 -46.5t-23 -32.5t-33 -20t-39.5 -8v46z" />
    <glyph glyph-name="Sacute.sc" horiz-adv-x="547" 
d="M278 -10q-48 0 -89.5 14t-72 39t-48.5 60.5t-19 77.5h83q1 -27 12.5 -49t31 -37t45.5 -23t57 -8q64 0 99.5 25t35.5 69q0 19 -6 34t-22 27.5t-44.5 22.5t-72.5 19q-47 10 -84 23t-62.5 32.5t-39 47.5t-13.5 68q0 75 54.5 116.5t142.5 41.5q50 0 88.5 -13t65.5 -36
t41.5 -54.5t17.5 -68.5h-82q-3 42 -34.5 69.5t-94.5 27.5q-57 0 -87.5 -21.5t-30.5 -60.5q0 -18 6 -31.5t21.5 -24.5t42 -20t67.5 -18q49 -11 88 -24t65 -33t40 -50t14 -73q0 -41 -16 -72.5t-44.5 -53t-68 -32.5t-87.5 -11zM296 768h109l-97 -147h-76z" />
    <glyph glyph-name="Scaron.sc" horiz-adv-x="547" 
d="M278 -10q-48 0 -89.5 14t-72 39t-48.5 60.5t-19 77.5h83q1 -27 12.5 -49t31 -37t45.5 -23t57 -8q64 0 99.5 25t35.5 69q0 19 -6 34t-22 27.5t-44.5 22.5t-72.5 19q-47 10 -84 23t-62.5 32.5t-39 47.5t-13.5 68q0 75 54.5 116.5t142.5 41.5q50 0 88.5 -13t65.5 -36
t41.5 -54.5t17.5 -68.5h-82q-3 42 -34.5 69.5t-94.5 27.5q-57 0 -87.5 -21.5t-30.5 -60.5q0 -18 6 -31.5t21.5 -24.5t42 -20t67.5 -18q49 -11 88 -24t65 -33t40 -50t14 -73q0 -41 -16 -72.5t-44.5 -53t-68 -32.5t-87.5 -11zM122 772h74l72 -79l72 79h73l-113 -154h-64z" />
    <glyph glyph-name="Scedilla.sc" horiz-adv-x="547" 
d="M494 159q0 -75 -50 -117t-131 -50l-30 -47q4 1 14 1q37 0 64.5 -23.5t27.5 -65.5q0 -23 -9 -40.5t-24 -29t-35 -17.5t-41 -6q-43 0 -76 21.5t-39 57.5h63q5 -12 17 -20t31 -8q20 0 33 11.5t13 29.5q0 19 -13 31t-32 12q-12 0 -21.5 -5t-16.5 -11l-35 28l46 81
q-43 4 -79 19t-63 40t-42.5 58t-16.5 72h83q1 -27 12.5 -49t31 -37t45.5 -23t57 -8q64 0 99.5 25t35.5 69q0 19 -6 34t-22 27.5t-44.5 22.5t-72.5 19q-47 10 -84 23t-62.5 32.5t-39 47.5t-13.5 68q0 75 54.5 116.5t142.5 41.5q50 0 88.5 -13t65.5 -36t41.5 -54.5t17.5 -68.5
h-82q-3 42 -34.5 69.5t-94.5 27.5q-57 0 -87.5 -21.5t-30.5 -60.5q0 -18 6 -31.5t21.5 -24.5t42 -20t67.5 -18q49 -11 88 -24t65 -33t40 -50t14 -73z" />
    <glyph glyph-name="Scircumflex.sc" horiz-adv-x="547" 
d="M278 -10q-48 0 -89.5 14t-72 39t-48.5 60.5t-19 77.5h83q1 -27 12.5 -49t31 -37t45.5 -23t57 -8q64 0 99.5 25t35.5 69q0 19 -6 34t-22 27.5t-44.5 22.5t-72.5 19q-47 10 -84 23t-62.5 32.5t-39 47.5t-13.5 68q0 75 54.5 116.5t142.5 41.5q50 0 88.5 -13t65.5 -36
t41.5 -54.5t17.5 -68.5h-82q-3 42 -34.5 69.5t-94.5 27.5q-57 0 -87.5 -21.5t-30.5 -60.5q0 -18 6 -31.5t21.5 -24.5t42 -20t67.5 -18q49 -11 88 -24t65 -33t40 -50t14 -73q0 -41 -16 -72.5t-44.5 -53t-68 -32.5t-87.5 -11zM236 775h64l114 -154h-74l-72 79l-72 -79h-73z
" />
    <glyph glyph-name="Scommaaccent.sc" horiz-adv-x="547" 
d="M278 -10q-48 0 -89.5 14t-72 39t-48.5 60.5t-19 77.5h83q1 -27 12.5 -49t31 -37t45.5 -23t57 -8q64 0 99.5 25t35.5 69q0 19 -6 34t-22 27.5t-44.5 22.5t-72.5 19q-47 10 -84 23t-62.5 32.5t-39 47.5t-13.5 68q0 75 54.5 116.5t142.5 41.5q50 0 88.5 -13t65.5 -36
t41.5 -54.5t17.5 -68.5h-82q-3 42 -34.5 69.5t-94.5 27.5q-57 0 -87.5 -21.5t-30.5 -60.5q0 -18 6 -31.5t21.5 -24.5t42 -20t67.5 -18q49 -11 88 -24t65 -33t40 -50t14 -73q0 -41 -16 -72.5t-44.5 -53t-68 -32.5t-87.5 -11zM226 -239q24 2 38.5 17t14.5 44v15h-52v105h103
v-120q0 -27 -8.5 -46.5t-23 -32.5t-33 -20t-39.5 -8v46z" />
    <glyph glyph-name="Tcaron.sc" horiz-adv-x="495" 
d="M205 502h-169v76h422v-76h-169v-502h-84v502zM100 772h74l72 -79l72 79h73l-113 -154h-64z" />
    <glyph glyph-name="Tcommaaccent.sc" horiz-adv-x="495" 
d="M205 502h-169v76h422v-76h-169v-502h-84v502zM193 -239q24 2 38.5 17t14.5 44v15h-52v105h103v-120q0 -27 -8.5 -46.5t-23 -32.5t-33 -20t-39.5 -8v46z" />
    <glyph glyph-name="Uacute.sc" horiz-adv-x="594" 
d="M297 -10q-50 0 -90.5 15.5t-70 45t-45.5 72t-16 96.5v359h84v-360q0 -75 36 -114t102 -39q68 0 103 39t35 114v360h84v-359q0 -54 -16 -96.5t-45.5 -72t-70.5 -45t-90 -15.5zM326 768h109l-97 -147h-76z" />
    <glyph glyph-name="Ubreve.sc" horiz-adv-x="594" 
d="M297 -10q-50 0 -90.5 15.5t-70 45t-45.5 72t-16 96.5v359h84v-360q0 -75 36 -114t102 -39q68 0 103 39t35 114v360h84v-359q0 -54 -16 -96.5t-45.5 -72t-70.5 -45t-90 -15.5zM297 621q-64 0 -102.5 40t-43.5 101h61q7 -27 26.5 -48t59.5 -21q39 0 59 21t26 48h61
q-5 -61 -43.5 -101t-103.5 -40z" />
    <glyph glyph-name="Ucircumflex.sc" horiz-adv-x="594" 
d="M297 -10q-50 0 -90.5 15.5t-70 45t-45.5 72t-16 96.5v359h84v-360q0 -75 36 -114t102 -39q68 0 103 39t35 114v360h84v-359q0 -54 -16 -96.5t-45.5 -72t-70.5 -45t-90 -15.5zM266 775h64l114 -154h-74l-72 79l-72 -79h-73z" />
    <glyph glyph-name="Udieresis.sc" horiz-adv-x="594" 
d="M297 -10q-50 0 -90.5 15.5t-70 45t-45.5 72t-16 96.5v359h84v-360q0 -75 36 -114t102 -39q68 0 103 39t35 114v360h84v-359q0 -54 -16 -96.5t-45.5 -72t-70.5 -45t-90 -15.5zM344 716h93v-95h-93v95zM159 716h92v-95h-92v95z" />
    <glyph glyph-name="Ugrave.sc" horiz-adv-x="594" 
d="M297 -10q-50 0 -90.5 15.5t-70 45t-45.5 72t-16 96.5v359h84v-360q0 -75 36 -114t102 -39q68 0 103 39t35 114v360h84v-359q0 -54 -16 -96.5t-45.5 -72t-70.5 -45t-90 -15.5zM167 768h109l64 -147h-76z" />
    <glyph glyph-name="Uhungarumlaut.sc" horiz-adv-x="594" 
d="M297 -10q-50 0 -90.5 15.5t-70 45t-45.5 72t-16 96.5v359h84v-360q0 -75 36 -114t102 -39q68 0 103 39t35 114v360h84v-359q0 -54 -16 -96.5t-45.5 -72t-70.5 -45t-90 -15.5zM394 768h99l-78 -147h-76zM231 768h99l-78 -147h-76z" />
    <glyph glyph-name="Umacron.sc" horiz-adv-x="594" 
d="M297 -10q-50 0 -90.5 15.5t-70 45t-45.5 72t-16 96.5v359h84v-360q0 -75 36 -114t102 -39q68 0 103 39t35 114v360h84v-359q0 -54 -16 -96.5t-45.5 -72t-70.5 -45t-90 -15.5zM167 720h262v-70h-262v70z" />
    <glyph glyph-name="Uogonek.sc" horiz-adv-x="594" 
d="M286 -236q-45 0 -76.5 24.5t-31.5 68.5q0 22 8.5 42t22 37t29 31t30.5 25q-44 4 -79.5 21.5t-60.5 46.5t-39 69t-14 90v359h84v-360q0 -75 36 -114t102 -39q68 0 103 39t35 114v360h84v-359q0 -49 -13.5 -88.5t-38 -68.5t-59 -47t-76.5 -23q-44 -42 -65.5 -72.5
t-21.5 -61.5q0 -19 11 -31t31 -12q19 0 29.5 8.5t15.5 19.5h63q-7 -34 -36.5 -56.5t-72.5 -22.5z" />
    <glyph glyph-name="Uring.sc" horiz-adv-x="594" 
d="M297 -10q-50 0 -90.5 15.5t-70 45t-45.5 72t-16 96.5v359h84v-360q0 -75 36 -114t102 -39q68 0 103 39t35 114v360h84v-359q0 -54 -16 -96.5t-45.5 -72t-70.5 -45t-90 -15.5zM297 598q-24 0 -44.5 8.5t-35.5 23.5t-24 35.5t-9 43.5q0 24 9 44.5t24 35.5t35.5 23.5
t44.5 8.5q23 0 43.5 -8.5t36 -23.5t24.5 -35.5t9 -44.5q0 -23 -9 -43.5t-24.5 -35.5t-36 -23.5t-43.5 -8.5zM297 644q26 0 43.5 18.5t17.5 46.5t-17.5 47t-43.5 19t-43.5 -19t-17.5 -47t17.5 -46.5t43.5 -18.5z" />
    <glyph glyph-name="Yacute.sc" horiz-adv-x="516" 
d="M216 234l-193 344h91l144 -263l145 263h89l-193 -344v-234h-83v234zM290 768h109l-97 -147h-76z" />
    <glyph glyph-name="Ydieresis.sc" horiz-adv-x="516" 
d="M216 234l-193 344h91l144 -263l145 263h89l-193 -344v-234h-83v234zM304 716h93v-95h-93v95zM119 716h92v-95h-92v95z" />
    <glyph glyph-name="Zacute.sc" horiz-adv-x="508" 
d="M42 69l320 433h-309v76h409v-73l-317 -428h319v-77h-422v69zM283 768h109l-97 -147h-76z" />
    <glyph glyph-name="Zcaron.sc" horiz-adv-x="508" 
d="M42 69l320 433h-309v76h409v-73l-317 -428h319v-77h-422v69zM105 772h74l72 -79l72 79h73l-113 -154h-64z" />
    <glyph glyph-name="Zdotaccent.sc" horiz-adv-x="508" 
d="M42 69l320 433h-309v76h409v-73l-317 -428h319v-77h-422v69zM205 716h92v-95h-92v95z" />
    <glyph glyph-name="Lcaron.sc" horiz-adv-x="490" 
d="M85 578h84v-502h280v-76h-364v578zM340 397q24 2 38.5 17t14.5 44v15h-52v105h103v-120q0 -27 -8.5 -46.5t-23 -32.5t-33 -20t-39.5 -8v46z" />
    <glyph glyph-name="Dcroat.sc" horiz-adv-x="605" 
d="M28 340h57v238h197q62 0 112 -20t85.5 -57.5t54.5 -91t19 -120.5t-19 -120.5t-54.5 -91t-85.5 -57.5t-112 -20h-197v265h-57v75zM282 75q90 0 137.5 57t47.5 157q0 106 -48.5 160t-136.5 54h-113v-163h144v-75h-144v-190h113z" />
    <glyph glyph-name="idotaccent" horiz-adv-x="240" 
d="M79 515h82v-515h-82v515zM75 714h90v-101h-90v101z" />
    </font>
</defs>
</svg>
