<?xml version="1.0" standalone="no"?>
<!DOCTYPE svg PUBLIC "-//W3C//DTD SVG 1.1//EN" "http://www.w3.org/Graphics/SVG/1.1/DTD/svg11.dtd" >
<svg xmlns="http://www.w3.org/2000/svg" xmlns:xlink="http://www.w3.org/1999/xlink" version="1.1">
<metadata>
Created by FontForge 20150318 at Tue May 12 12:42:54 2015
 By uniteet7
Copyright (c) House Industries/Brand Design Co. Inc, 2003. All rights reserved.
</metadata>
<defs>
<font id="chaletBook_bold" horiz-adv-x="238" >
  <font-face 
    font-family="chaletBook_bold"
    font-weight="700"
    font-stretch="normal"
    units-per-em="1000"
    panose-1="2 0 0 0 0 0 0 0 0 0"
    ascent="800"
    descent="-200"
    x-height="515"
    cap-height="680"
    bbox="-78 -371 1540 935"
    underline-thickness="8"
    underline-position="-51"
    unicode-range="U+0020-FB04"
  />
<missing-glyph horiz-adv-x="500" 
 />
    <glyph glyph-name="ff" unicode="ff" horiz-adv-x="620" 
d="M77 409h-62v106h62v11q0 51 14.5 89.5t40 64.5t60.5 39.5t76 13.5q15 0 28 -1.5t27 -4.5v-106q-14 3 -31 3q-38 0 -63.5 -22t-25.5 -75v-12h166v22q0 51 14.5 89.5t40 64.5t60.5 39.5t76 13.5q15 0 29.5 -2t28.5 -5v-106q-8 2 -17 3t-17 1q-38 0 -63.5 -22t-25.5 -75v-23
h110v-106h-110v-409h-126v409h-166v-409h-126v409z" />
    <glyph glyph-name="fi" unicode="fi" horiz-adv-x="559" 
d="M77 409h-62v106h62v22q0 51 14.5 89.5t40 64.5t60.5 39.5t76 13.5q11 0 24 -1.5t21 -3.5v-106q-10 2 -21 2q-38 0 -63.5 -22t-25.5 -75v-23h292v-515h-126v409h-166v-409h-126v409zM366 714h132v-125h-132v125z" />
    <glyph glyph-name="fl" unicode="fl" horiz-adv-x="559" 
d="M77 409h-62v106h62v22q0 51 14.5 89.5t40 64.5t60.5 39.5t76 13.5q11 0 24 -1.5t21 -3.5v-106q-10 2 -21 2q-38 0 -63.5 -22t-25.5 -75v-23h110v-106h-110v-409h-126v409zM369 744h126v-744h-126v744z" />
    <glyph glyph-name="ffi" unicode="ffi" horiz-adv-x="851" 
d="M77 409h-62v106h62v11q0 51 14.5 89.5t40 64.5t60.5 39.5t76 13.5q15 0 28 -1.5t27 -4.5v-106q-14 3 -31 3q-38 0 -63.5 -22t-25.5 -75v-12h166v22q0 51 14.5 89.5t40 64.5t60.5 39.5t76 13.5q11 0 24 -1.5t21 -3.5v-106q-10 2 -21 2q-38 0 -63.5 -22t-25.5 -75v-23h292
v-515h-126v409h-166v-409h-126v409h-166v-409h-126v409zM658 714h132v-125h-132v125z" />
    <glyph glyph-name="ffl" unicode="ffl" horiz-adv-x="851" 
d="M77 409h-62v106h62v11q0 51 14.5 89.5t40 64.5t60.5 39.5t76 13.5q15 0 28 -1.5t27 -4.5v-106q-14 3 -31 3q-38 0 -63.5 -22t-25.5 -75v-12h166v22q0 51 14.5 89.5t40 64.5t60.5 39.5t76 13.5q11 0 24 -1.5t21 -3.5v-106q-10 2 -21 2q-38 0 -63.5 -22t-25.5 -75v-23h110
v-106h-110v-409h-126v409h-166v-409h-126v409zM661 744h126v-744h-126v744z" />
    <glyph glyph-name=".notdef" horiz-adv-x="500" 
 />
    <glyph glyph-name=".null" horiz-adv-x="0" 
 />
    <glyph glyph-name="nonmarkingreturn" horiz-adv-x="300" 
 />
    <glyph glyph-name="space" unicode=" " horiz-adv-x="300" 
 />
    <glyph glyph-name="space" unicode="&#xa0;" horiz-adv-x="300" 
 />
    <glyph glyph-name="exclam" unicode="!" horiz-adv-x="293" 
d="M78 680h137l-20 -477h-98zM76 138h141v-138h-141v138z" />
    <glyph glyph-name="quotedbl" unicode="&#x22;" horiz-adv-x="385" 
d="M215 680h136l-24 -251h-88zM34 680h136l-24 -251h-88z" />
    <glyph glyph-name="numbersign" unicode="#" horiz-adv-x="552" 
d="M110 245h-86l16 105h85l15 105h-87l16 105h85l17 120h100l-17 -120h88l17 120h100l-17 -120h86l-16 -105h-85l-15 -105h87l-16 -105h-85l-17 -122h-100l17 122h-88l-17 -122h-100zM313 350l16 105h-90l-15 -105h89z" />
    <glyph glyph-name="dollar" unicode="$" horiz-adv-x="582" 
d="M260 26q-92 11 -153 64t-69 144h121q5 -37 29 -64.5t72 -35.5v161q-36 7 -72 19t-64.5 33t-46.5 54t-18 82q0 37 14 68.5t40 55t63 37.5t84 17v56h69v-58q49 -7 84 -25.5t58.5 -45t35.5 -57t14 -61.5h-120q-5 29 -22.5 49.5t-49.5 29.5v-150q38 -8 75.5 -19t67 -31.5
t48 -54t18.5 -85.5q0 -83 -54.5 -131.5t-154.5 -53.5v-106h-69v108zM417 206q0 32 -21.5 47.5t-66.5 26.5v-148q42 5 65 22t23 52zM177 488q0 -29 19 -45.5t64 -28.5v140q-39 -4 -61 -20.5t-22 -45.5z" />
    <glyph glyph-name="percent" unicode="%" horiz-adv-x="828" 
d="M198 348q-36 0 -68 13.5t-55.5 36.5t-37 54.5t-13.5 66.5q0 36 13.5 67t37 54t55.5 36.5t68 13.5q37 0 68.5 -13.5t55 -36.5t37 -54t13.5 -67q0 -35 -13.5 -66.5t-37 -54.5t-55 -36.5t-68.5 -13.5zM630 -10q-36 0 -68 13.5t-55.5 36.5t-37 54.5t-13.5 66.5q0 36 13.5 67
t37 54t55.5 36.5t68 13.5q37 0 68.5 -13.5t55 -36.5t37 -54t13.5 -67q0 -35 -13.5 -66.5t-37 -54.5t-55 -36.5t-68.5 -13.5zM550 680h101l-373 -680h-101zM630 77q31 0 54 22t23 62t-23 62t-54 22q-30 0 -53.5 -22t-23.5 -62t23.5 -62t53.5 -22zM198 435q31 0 54 22t23 62
t-23 62t-54 22q-30 0 -53.5 -22t-23.5 -62t23.5 -62t53.5 -22z" />
    <glyph glyph-name="ampersand" unicode="&#x26;" horiz-adv-x="656" 
d="M282 -12q-54 0 -99.5 16.5t-79 45t-52.5 67.5t-19 83q0 65 35 108t106 81l-2 3q-31 36 -42 73t-11 69q0 35 14 65t38.5 51.5t57 34t69.5 12.5q36 0 67 -12t54 -33t36 -50t13 -64q0 -45 -30 -87t-100 -77l130 -155q16 45 16 109v29h110v-30q0 -58 -13 -107.5t-37 -91.5
l108 -128h-150l-36 43q-37 -26 -83 -40.5t-100 -14.5zM287 100q64 0 107 26l-166 198q-40 -26 -53 -55.5t-13 -61.5q0 -45 31.5 -76t93.5 -31zM233 538q0 -20 8 -39.5t26 -40.5l15 -18q44 23 58.5 46t14.5 52q0 26 -17 42.5t-43 16.5q-27 0 -44.5 -17t-17.5 -42z" />
    <glyph glyph-name="quotesingle" unicode="'" horiz-adv-x="204" 
d="M34 680h136l-24 -251h-88z" />
    <glyph glyph-name="parenleft" unicode="(" horiz-adv-x="322" 
d="M214 -122q-38 38 -69.5 87.5t-54.5 107.5t-36 123t-13 134q0 70 13 135t36 123.5t54.5 108t69.5 87.5h103q-70 -91 -107.5 -208t-37.5 -246q0 -128 37.5 -244.5t107.5 -207.5h-103v0z" />
    <glyph glyph-name="parenright" unicode=")" horiz-adv-x="322" 
d="M5 -122q70 91 107.5 207.5t37.5 244.5q0 129 -37.5 246t-107.5 208h103q38 -38 69.5 -87.5t54.5 -108t36 -123.5t13 -135q0 -69 -13 -134t-36 -123t-54.5 -107.5t-69.5 -87.5h-103v0z" />
    <glyph glyph-name="asterisk" unicode="*" horiz-adv-x="395" 
d="M77 410l70 95l-118 -13v85l118 -14l-71 97l73 42l48 -110l48 110l73 -42l-71 -97l119 14v-85l-119 13l71 -95l-73 -43l-48 109l-48 -109z" />
    <glyph glyph-name="plus" unicode="+" horiz-adv-x="511" 
d="M198 245h-160v111h160v160h115v-160h160v-111h-160v-161h-115v161z" />
    <glyph glyph-name="comma" unicode="," 
d="M48 -90q32 0 49 20t17 52v18h-66v141h142v-158q0 -67 -39.5 -103.5t-102.5 -36.5v67z" />
    <glyph glyph-name="hyphen" unicode="-" horiz-adv-x="339" 
d="M39 339h261v-123h-261v123z" />
    <glyph glyph-name="hyphen" unicode="&#xad;" horiz-adv-x="339" 
d="M39 339h261v-123h-261v123z" />
    <glyph glyph-name="period" unicode="." 
d="M48 141h142v-141h-142v141z" />
    <glyph glyph-name="slash" unicode="/" horiz-adv-x="350" 
d="M247 784h118l-258 -906h-118z" />
    <glyph glyph-name="zero" unicode="0" horiz-adv-x="629" 
d="M314 -12q-59 0 -108 24t-84 70t-54 111.5t-19 148.5t19 149t54 111.5t84 70t108 24.5q58 0 107 -24.5t84.5 -70t55 -111.5t19.5 -149t-19.5 -148.5t-55 -111.5t-84.5 -70t-107 -24zM314 102q33 0 58 17t42 48.5t25.5 76t8.5 98.5t-8.5 98.5t-25.5 76t-42 49t-58 17.5
t-58 -17.5t-41.5 -49t-25 -76t-8.5 -98.5t8.5 -98.5t25 -76t41.5 -48.5t58 -17z" />
    <glyph glyph-name="one" unicode="1" horiz-adv-x="428" 
d="M182 478h-116v92q27 0 51.5 7t44 20.5t32 34t14.5 48.5h106v-680h-132v478z" />
    <glyph glyph-name="two" unicode="2" horiz-adv-x="563" 
d="M44 56q0 55 17 97.5t45.5 76.5t65.5 60.5t77 49.5q48 27 75.5 48.5t41 39.5t16.5 34.5t3 34.5q0 33 -22.5 60t-69.5 27q-26 0 -45 -9.5t-31.5 -25.5t-19 -37t-7.5 -43h-133q1 44 17 85.5t45 73t72.5 50.5t100.5 19q60 0 102.5 -18.5t69.5 -48t40 -66.5t13 -75
q0 -49 -15.5 -84.5t-43.5 -63t-66 -51t-83 -49.5q-63 -36 -92.5 -64.5t-32.5 -62.5h327v-114h-467v56z" />
    <glyph glyph-name="three" unicode="3" horiz-adv-x="586" 
d="M293 -12q-62 0 -109.5 18.5t-80 50.5t-49.5 74.5t-18 90.5h128q2 -54 34.5 -86.5t93.5 -32.5q28 0 49.5 8.5t36.5 22t22.5 31.5t7.5 38q0 45 -28 71.5t-85 26.5h-44v109h27q57 0 82.5 25t25.5 61t-24 61t-72 25q-27 0 -47 -9.5t-32.5 -24.5t-19 -34t-7.5 -38h-126
q1 45 16.5 85t45.5 70t73.5 48t99.5 18q57 0 99 -16.5t69 -43t40.5 -60.5t13.5 -69q0 -45 -24.5 -83t-74.5 -59q31 -9 54 -25.5t38.5 -39t23.5 -48t8 -52.5q0 -39 -15.5 -77t-46 -68.5t-77 -49t-108.5 -18.5z" />
    <glyph glyph-name="four" unicode="4" horiz-adv-x="619" 
d="M371 141h-333v110l312 429h144v-429h81v-110h-81v-141h-123v141zM371 251v275l-204 -275h204z" />
    <glyph glyph-name="five" unicode="5" horiz-adv-x="578" 
d="M290 -12q-54 0 -98 15t-76.5 41.5t-52 62.5t-22.5 78h131q8 -38 38 -60t75 -22q51 0 83 33t32 89t-33 87.5t-82 31.5q-42 0 -69.5 -19.5t-43.5 -42.5l-108 41l45 357h385v-114h-285l-22 -161q20 22 53 36t78 14q40 0 78.5 -14.5t68.5 -44t48.5 -72.5t18.5 -100
q0 -49 -18 -92t-50 -75t-76.5 -50.5t-97.5 -18.5z" />
    <glyph glyph-name="six" unicode="6" horiz-adv-x="590" 
d="M307 -12q-48 0 -94 17t-82.5 56t-59 102t-22.5 155q0 90 18 160t52.5 119t83.5 74.5t112 25.5q92 0 148 -47.5t71 -134.5h-129q-8 28 -28.5 48.5t-61.5 20.5q-29 0 -53 -14.5t-41.5 -40.5t-28 -63t-11.5 -82q24 30 62 46t77 16q49 0 90.5 -16t71.5 -45.5t47 -71t17 -92.5
t-17.5 -94t-49.5 -73.5t-76 -48t-96 -17.5zM305 100q51 0 81.5 34t30.5 84t-30.5 84.5t-81.5 34.5t-81.5 -34.5t-30.5 -84.5t30.5 -84t81.5 -34z" />
    <glyph glyph-name="seven" unicode="7" horiz-adv-x="536" 
d="M137 0q0 88 16.5 169t45.5 151.5t69 130t87 106.5h-324v123h470v-116q-48 -48 -90 -108t-73 -130.5t-49 -152t-18 -173.5h-134v0z" />
    <glyph glyph-name="eight" unicode="8" horiz-adv-x="592" 
d="M296 -12q-58 0 -104.5 15.5t-79.5 43.5t-50.5 66t-17.5 83q0 56 29.5 101t87.5 72q-45 26 -66.5 63t-21.5 81q0 40 17.5 73.5t47.5 58t70.5 38.5t87.5 14t87.5 -14t70.5 -38.5t47.5 -58t17.5 -73.5q0 -44 -21.5 -80.5t-66.5 -62.5q58 -27 87.5 -71.5t29.5 -100.5
q0 -45 -17.5 -83.5t-50.5 -66.5t-79.5 -44t-104.5 -16zM296 99q25 0 47.5 6.5t39 19.5t26.5 33t10 46t-10 46t-26.5 33t-39 19.5t-47.5 6.5t-47.5 -6.5t-39 -19.5t-26.5 -33t-10 -46t10 -46t26.5 -33t39 -19.5t47.5 -6.5zM296 419q40 0 68.5 21t28.5 63t-28.5 63t-68.5 21
t-68.5 -21t-28.5 -63t28.5 -63t68.5 -21z" />
    <glyph glyph-name="nine" unicode="9" horiz-adv-x="588" 
d="M275 -12q-46 0 -84 12t-67.5 35t-48.5 55t-26 73h129q8 -24 31.5 -43t65.5 -19q69 0 100 55t34 145q-24 -30 -62 -46t-77 -16q-49 0 -90.5 16t-71.5 45.5t-47 71t-17 92.5t17.5 94t49.5 73.5t75.5 48t96.5 17.5q48 0 94 -17t82 -56t58 -102t22 -155q0 -182 -62.5 -280.5
t-201.5 -98.5zM285 348q51 0 81.5 34.5t30.5 84.5t-30.5 84t-81.5 34t-81.5 -34t-30.5 -84t30.5 -84.5t81.5 -34.5z" />
    <glyph glyph-name="colon" unicode=":" horiz-adv-x="246" 
d="M52 431h142v-141h-142v141zM52 141h142v-141h-142v141z" />
    <glyph glyph-name="semicolon" unicode=";" horiz-adv-x="246" 
d="M53 -90q32 0 49 20t17 52v18h-66v141h142v-158q0 -67 -39.5 -103.5t-102.5 -36.5v67zM52 431h142v-141h-142v141z" />
    <glyph glyph-name="semicolon" unicode="&#x37e;" horiz-adv-x="246" 
d="M53 -90q32 0 49 20t17 52v18h-66v141h142v-158q0 -67 -39.5 -103.5t-102.5 -36.5v67zM52 431h142v-141h-142v141z" />
    <glyph glyph-name="less" unicode="&#x3c;" horiz-adv-x="444" 
d="M37 209v123l370 176v-132l-252 -106l252 -106v-130z" />
    <glyph glyph-name="equal" unicode="=" horiz-adv-x="479" 
d="M38 444h403v-114h-403v114zM38 230h403v-114h-403v114z" />
    <glyph glyph-name="greater" unicode="&#x3e;" horiz-adv-x="444" 
d="M37 165l252 106l-252 106v130l370 -175v-123l-370 -176v132z" />
    <glyph glyph-name="question" unicode="?" horiz-adv-x="520" 
d="M178 225q0 33 7.5 58.5t19.5 46t28 36t33 27.5q25 18 41.5 32t26.5 26t13.5 24.5t3.5 28.5q0 32 -24 55.5t-70 23.5q-54 0 -80.5 -31t-28.5 -73h-123q0 46 15.5 86t45.5 69t73 46t98 17q54 0 95.5 -14.5t70 -40.5t43 -61.5t14.5 -76.5q0 -32 -7.5 -56.5t-22.5 -45
t-37 -38.5t-51 -36q-35 -23 -52.5 -47t-17.5 -56v-22h-114v22zM163 138h141v-138h-141v138z" />
    <glyph glyph-name="at" unicode="@" horiz-adv-x="749" 
d="M400 -13q-78 0 -145.5 25t-116.5 72t-77 114t-28 150q0 78 28 144.5t76 115t113 75.5t139 27q61 0 120 -19.5t105 -57t74 -93.5t28 -129q0 -49 -15 -92.5t-40.5 -76t-60 -51.5t-72.5 -19q-40 0 -66 17t-37 46q-22 -32 -51.5 -48.5t-59.5 -16.5q-32 0 -56.5 14.5t-38 40.5
t-15.5 62t10 79q10 36 28.5 65.5t41.5 50t48.5 32t50.5 11.5q29 0 46.5 -13.5t27.5 -34.5l10 32h95l-60 -194q-9 -28 -0.5 -42.5t26.5 -14.5q19 0 36 12.5t30 33.5t20.5 48.5t7.5 57.5q0 57 -20.5 98t-54 68t-75.5 40t-84 13q-54 0 -101.5 -20.5t-83 -57t-55.5 -88
t-20 -114.5q0 -68 20.5 -120t56.5 -87.5t85.5 -53.5t108.5 -18q68 0 116.5 20t75.5 42h114q-21 -30 -50.5 -56.5t-67.5 -46t-85 -31t-102 -11.5zM336 260q23 0 44 23.5t35 65.5q14 45 7.5 68t-31.5 23q-22 0 -43 -23t-35 -68q-13 -41 -6.5 -65t29.5 -24z" />
    <glyph glyph-name="A" unicode="A" horiz-adv-x="650" 
d="M257 680h136l249 -680h-137l-47 136h-270l-47 -136h-133zM226 247h193l-79 230q-3 7 -6 17.5t-5.5 21t-4.5 18.5t-2 10q0 -2 -2 -10l-4.5 -18t-5.5 -21t-5 -18z" />
    <glyph glyph-name="B" unicode="B" horiz-adv-x="631" 
d="M65 680h300q97 0 151.5 -48t54.5 -133q0 -43 -18.5 -78t-64.5 -58q55 -20 85 -62.5t30 -102.5q0 -46 -16 -82.5t-45 -62t-70 -39.5t-92 -14h-315v680zM369 114q41 0 71 21t30 70q0 45 -25 68.5t-78 23.5h-174v-183h176zM361 411q41 0 63 21t22 56t-20.5 57t-64.5 22h-168
v-156h168z" />
    <glyph glyph-name="C" unicode="C" horiz-adv-x="698" 
d="M370 -12q-72 0 -133.5 27.5t-106.5 75t-70.5 112.5t-25.5 140t25.5 139.5t70.5 112t106 75t131 27.5q119 0 197 -60.5t104 -165.5h-137q-10 23 -22.5 43t-31.5 35t-45.5 23.5t-63.5 8.5q-41 0 -77.5 -15.5t-63.5 -46t-42.5 -75t-15.5 -101.5q0 -58 16 -102.5t43.5 -75
t64 -46t78.5 -15.5q36 0 63 9.5t46 25.5t31 36t20 41h138q-27 -108 -104 -168t-195 -60z" />
    <glyph glyph-name="D" unicode="D" horiz-adv-x="664" 
d="M65 680h244q73 0 132.5 -23.5t101.5 -67.5t64.5 -107t22.5 -142q0 -78 -23 -141t-65.5 -107t-101.5 -68t-131 -24h-244v680zM309 119q60 0 96.5 23t57 57t27.5 72.5t7 69.5q0 37 -8 76.5t-29 71.5t-57.5 52.5t-93.5 20.5h-115v-443h115z" />
    <glyph glyph-name="E" unicode="E" horiz-adv-x="585" 
d="M65 680h477v-118h-348v-148h294v-119h-294v-176h355v-119h-484v680z" />
    <glyph glyph-name="F" unicode="F" horiz-adv-x="558" 
d="M65 680h462v-117h-333v-167h283v-117h-283v-279h-129v680z" />
    <glyph glyph-name="G" unicode="G" horiz-adv-x="737" 
d="M363 -12q-69 0 -129.5 27.5t-104.5 75t-69.5 112.5t-25.5 140t25 139.5t70 112t106.5 75t133.5 27.5q61 0 111 -16t88.5 -44.5t64 -68.5t39.5 -87h-139q-17 42 -59 71t-105 29q-41 0 -77.5 -15.5t-64 -46t-43.5 -75t-16 -101.5q0 -58 15.5 -103t42.5 -75.5t63.5 -46.5
t78.5 -16q44 0 78 12.5t58.5 33.5t39.5 48.5t21 58.5h-182v114h303v-369h-120v88q-25 -42 -78 -71t-125 -29z" />
    <glyph glyph-name="H" unicode="H" horiz-adv-x="680" 
d="M65 680h130v-274h290v274h130v-680h-130v289h-290v-289h-130v680z" />
    <glyph glyph-name="I" unicode="I" horiz-adv-x="266" 
d="M68 680h130v-680h-130v680z" />
    <glyph glyph-name="J" unicode="J" horiz-adv-x="521" 
d="M244 -10q-51 0 -92.5 15t-71 43t-45.5 67.5t-16 88.5v37h129v-41q0 -38 23 -65t71 -27q47 0 68.5 27.5t21.5 66.5v478h131v-474q0 -48 -15 -87.5t-43.5 -68t-69 -44.5t-91.5 -16z" />
    <glyph glyph-name="K" unicode="K" horiz-adv-x="637" 
d="M267 299l-72 -77v-222h-130v680h130v-296l269 296h157l-261 -281l269 -399h-159z" />
    <glyph glyph-name="L" unicode="L" horiz-adv-x="539" 
d="M65 680h130v-563h319v-117h-449v680z" />
    <glyph glyph-name="M" unicode="M" horiz-adv-x="816" 
d="M65 680h193l153 -509l153 509h188v-680h-128v502l-148 -502h-136l-148 502v-502h-127v680z" />
    <glyph glyph-name="N" unicode="N" horiz-adv-x="682" 
d="M65 680h147l285 -484v484h120v-680h-146l-286 484v-484h-120v680z" />
    <glyph glyph-name="O" unicode="O" horiz-adv-x="734" 
d="M368 -12q-73 0 -134 27.5t-105.5 75t-69.5 112.5t-25 140t25 139.5t69.5 112t105.5 75t134 27.5q72 0 133 -27.5t105 -75t69 -112t25 -139.5t-25 -140t-69 -112.5t-105 -75t-133 -27.5zM368 104q41 0 77 15.5t63 46t42.5 75t15.5 102.5q0 57 -15.5 101.5t-42.5 75t-63 46
t-77 15.5q-42 0 -78.5 -15.5t-63.5 -46t-42.5 -75t-15.5 -101.5q0 -58 15.5 -102.5t42.5 -75t63.5 -46t78.5 -15.5z" />
    <glyph glyph-name="P" unicode="P" horiz-adv-x="600" 
d="M65 680h264q118 0 181 -60t63 -160q0 -48 -16.5 -87.5t-48 -68t-76 -44t-100.5 -15.5h-137v-245h-130v680zM328 360q57 0 86.5 24t29.5 76q0 51 -29.5 77.5t-86.5 26.5h-133v-204h133z" />
    <glyph glyph-name="Q" unicode="Q" horiz-adv-x="734" 
d="M531 31q-74 -43 -163 -43q-73 0 -134 27.5t-105.5 75t-69.5 112.5t-25 140t25 139.5t69.5 112t105.5 75t134 27.5q72 0 133 -27.5t105 -75t69 -112t25 -139.5q0 -72 -22.5 -133t-62.5 -109l104 -101h-156zM368 101q41 0 77 14l-133 129h156l60 -59q18 30 28 69.5t10 88.5
q0 57 -15.5 101.5t-42.5 75t-63 46t-77 15.5q-42 0 -78.5 -15.5t-63.5 -46t-42.5 -75t-15.5 -101.5q0 -58 15.5 -103t42.5 -76t63.5 -47t78.5 -16z" />
    <glyph glyph-name="R" unicode="R" horiz-adv-x="656" 
d="M65 680h300q107 0 170 -53t63 -150q0 -60 -28 -96.5t-79 -56.5q21 -10 37 -22t27.5 -29t18 -40t9.5 -56l8 -90q2 -27 9.5 -49t15.5 -38h-131q-8 14 -14.5 32t-8.5 47l-8 99q-4 46 -23.5 67t-64.5 21h-172v-266h-129v680zM368 377q100 0 100 93q0 47 -26 68.5t-77 21.5
h-171v-183h174z" />
    <glyph glyph-name="S" unicode="S" horiz-adv-x="641" 
d="M333 -12q-60 0 -113 15.5t-93.5 45t-65.5 73t-29 99.5h130q6 -54 46.5 -85.5t115.5 -31.5q31 0 57 4.5t45 15t30 26.5t11 40q0 25 -13 40.5t-37 26.5t-59 19.5t-78 17.5q-40 9 -80 21t-72 34.5t-52 58t-20 90.5q0 43 17 80t49.5 63t78.5 41t103 15q68 0 117 -19
t81.5 -49.5t48.5 -68.5t19 -76h-129q-12 97 -137 97q-54 0 -88.5 -19.5t-34.5 -57.5q0 -21 9.5 -35t29 -23.5t49 -17t70.5 -15.5q44 -9 89.5 -21.5t82 -36t60 -62t23.5 -99.5q0 -97 -69 -151.5t-192 -54.5z" />
    <glyph glyph-name="T" unicode="T" horiz-adv-x="545" 
d="M208 563h-190v117h509v-117h-190v-563h-129v563z" />
    <glyph glyph-name="U" unicode="U" horiz-adv-x="643" 
d="M321 -12q-129 0 -195.5 73t-66.5 201v418h130v-422q0 -154 132 -154q133 0 133 154v422h130v-418q0 -128 -66.5 -201t-196.5 -73z" />
    <glyph glyph-name="V" unicode="V" horiz-adv-x="595" 
d="M5 680h138l130 -425q4 -14 9 -32t9 -35q4 -20 9 -41q5 21 9 41q4 17 8 35.5t9 31.5l130 425h134l-227 -680h-131z" />
    <glyph glyph-name="W" unicode="W" horiz-adv-x="877" 
d="M5 680h136l83 -367q10 -43 16 -80q4 -20 7 -40q4 20 8 41q4 18 9 39t11 41l103 366h126l101 -365q5 -18 10 -38t8.5 -37t6 -30t3.5 -16q0 2 2 14t5 29t7 37t9 38l84 368h132l-172 -680h-130l-106 402q-4 15 -8 32t-7.5 32.5t-6 27.5t-3.5 15q0 -2 -2.5 -13t-5.5 -26.5
t-7.5 -33.5l-8.5 -34l-107 -402h-131z" />
    <glyph glyph-name="X" unicode="X" horiz-adv-x="600" 
d="M225 348l-209 332h150l138 -229l135 229h146l-210 -332l219 -348h-150l-147 246l-145 -246h-146z" />
    <glyph glyph-name="Y" unicode="Y" horiz-adv-x="593" 
d="M231 261l-228 419h145l149 -294l152 294h141l-228 -419v-261h-131v261z" />
    <glyph glyph-name="Z" unicode="Z" horiz-adv-x="573" 
d="M26 112l349 451h-337v117h499v-111l-349 -452h358v-117h-520v112z" />
    <glyph glyph-name="bracketleft" unicode="[" horiz-adv-x="331" 
d="M66 784h240v-104h-122v-697h122v-104h-240v905z" />
    <glyph glyph-name="backslash" unicode="\" horiz-adv-x="350" 
d="M-15 784h118l258 -906h-118z" />
    <glyph glyph-name="bracketright" unicode="]" horiz-adv-x="331" 
d="M25 -18h122v697h-122v104h240v-905h-240v104z" />
    <glyph glyph-name="asciicircum" unicode="^" horiz-adv-x="558" 
d="M224 680h110l189 -436h-129l-117 278l-117 -278h-125z" />
    <glyph glyph-name="underscore" unicode="_" horiz-adv-x="540" 
d="M0 -70h540v-110h-540v110z" />
    <glyph glyph-name="grave" unicode="`" horiz-adv-x="500" 
d="M97 740h165l53 -147h-95z" />
    <glyph glyph-name="a" unicode="a" horiz-adv-x="576" 
d="M217 -11q-35 0 -68.5 8.5t-59.5 27t-42 48t-16 70.5q0 43 17.5 70.5t46 44.5t64.5 26t72 14q81 11 118 25.5t37 46.5q0 28 -23.5 41t-68.5 13q-43 0 -71 -15.5t-37 -47.5h-131q6 36 24 66.5t48 53t71.5 35t94.5 12.5q63 0 105 -14t67.5 -38t36 -57t10.5 -71v-239
q0 -38 6.5 -66.5t11.5 -42.5h-124q-5 10 -9.5 28t-6.5 48q-23 -39 -65 -63t-108 -24zM247 93q62 0 100.5 28.5t38.5 76.5v56q-26 -17 -60 -25.5t-76 -16.5t-66 -20.5t-24 -43.5q0 -26 20.5 -40.5t66.5 -14.5z" />
    <glyph glyph-name="b" unicode="b" horiz-adv-x="616" 
d="M348 -12q-58 0 -101 26.5t-63 66.5v-81h-122v744h126v-303q19 33 59 60t101 27q47 0 90 -20.5t75.5 -56.5t51.5 -86t19 -108q0 -59 -18.5 -108t-50.5 -85t-75 -56t-92 -20zM321 100q27 0 51.5 10.5t42.5 30.5t28.5 49t10.5 66t-10.5 67t-28.5 50.5t-42.5 31.5t-51.5 11
t-51.5 -11t-42.5 -31.5t-28.5 -50.5t-10.5 -67t10.5 -66t28.5 -49t42.5 -30.5t51.5 -10.5z" />
    <glyph glyph-name="c" unicode="c" horiz-adv-x="563" 
d="M294 -12q-53 0 -100.5 20t-83.5 56t-57 85t-21 108q0 58 21 108t57 86t83.5 56.5t100.5 20.5q45 0 84.5 -13.5t71 -37.5t53 -58.5t31.5 -76.5h-131q-11 35 -40 54.5t-69 19.5q-27 0 -51 -11t-41.5 -31.5t-28 -50.5t-10.5 -67t10.5 -66t28 -49t41.5 -30.5t51 -10.5
q45 0 72 20.5t38 53.5h132q-10 -42 -31.5 -76.5t-52.5 -58.5t-71 -37.5t-87 -13.5z" />
    <glyph glyph-name="d" unicode="d" horiz-adv-x="616" 
d="M268 -12q-49 0 -92 20t-75 56t-50.5 85t-18.5 108q0 58 19 108t51.5 86t75.5 56.5t90 20.5q61 0 101 -27t59 -60v303h126v-744h-122v81q-20 -40 -63 -66.5t-101 -26.5zM295 100q27 0 51.5 10.5t42.5 30.5t28.5 49t10.5 66t-10.5 67t-28.5 50.5t-42.5 31.5t-51.5 11
t-51.5 -11t-42.5 -31.5t-28.5 -50.5t-10.5 -67t10.5 -66t28.5 -49t42.5 -30.5t51.5 -10.5z" />
    <glyph glyph-name="e" unicode="e" horiz-adv-x="584" 
d="M163 217q9 -59 46 -88t94 -29q73 0 102 48h135q-23 -78 -85.5 -119t-151.5 -41q-57 0 -106 20t-86 56t-58 85t-21 108q0 58 20.5 108t55.5 86t83 56.5t102 20.5q61 0 111.5 -24t85.5 -65.5t51.5 -98.5t9.5 -123h-388zM293 418q-45 0 -80 -29t-47 -82h253q-10 54 -43 82.5
t-83 28.5z" />
    <glyph glyph-name="f" unicode="f" horiz-adv-x="328" 
d="M77 409h-62v106h62v22q0 51 14.5 89.5t40 64.5t60.5 39.5t76 13.5q15 0 29.5 -2t28.5 -5v-106q-8 2 -17 3t-17 1q-38 0 -63.5 -22t-25.5 -75v-23h110v-106h-110v-409h-126v409z" />
    <glyph glyph-name="g" unicode="g" horiz-adv-x="616" 
d="M295 -222q-60 0 -106 15t-77.5 39t-49 55.5t-20.5 64.5h137q8 -26 36.5 -44.5t79.5 -18.5q66 0 99.5 38.5t33.5 111.5v43q-20 -35 -61 -60.5t-99 -25.5q-49 0 -92 19.5t-75 55t-50.5 84t-18.5 106.5t19 107t51.5 84.5t75.5 55.5t90 20q61 0 102 -27.5t62 -65.5v80h122
v-474q0 -132 -69.5 -197.5t-189.5 -65.5zM295 108q27 0 51.5 10t42.5 29.5t28.5 48t10.5 64.5q0 37 -10.5 66t-28.5 49t-42.5 30.5t-51.5 10.5t-51.5 -10.5t-42.5 -30.5t-28.5 -49t-10.5 -66q0 -36 10.5 -64.5t28.5 -48t42.5 -29.5t51.5 -10z" />
    <glyph glyph-name="h" unicode="h" horiz-adv-x="575" 
d="M62 744h126v-303q18 40 57 63.5t87 23.5q86 0 135 -59.5t49 -165.5v-303h-126v303q0 47 -22.5 78t-75.5 31q-51 0 -77.5 -30.5t-26.5 -78.5v-303h-126v744z" />
    <glyph glyph-name="i" unicode="i" horiz-adv-x="254" 
d="M64 515h126v-515h-126v515zM61 714h132v-125h-132v125z" />
    <glyph glyph-name="j" unicode="j" horiz-adv-x="254" 
d="M-30 -102h17q32 0 54.5 16t22.5 56v545h126v-546q0 -47 -15.5 -80.5t-42 -55t-63 -32t-78.5 -10.5h-21v107zM61 714h132v-125h-132v125z" />
    <glyph glyph-name="k" unicode="k" horiz-adv-x="541" 
d="M250 216l-62 -68v-148h-126v744h126v-441l189 212h146l-191 -209l200 -306h-143z" />
    <glyph glyph-name="l" unicode="l" horiz-adv-x="254" 
d="M64 744h126v-744h-126v744z" />
    <glyph glyph-name="m" unicode="m" horiz-adv-x="887" 
d="M328 528q54 0 90.5 -24.5t57.5 -69.5q28 49 74.5 71.5t92.5 22.5q88 0 136.5 -59.5t48.5 -165.5v-303h-126v303q0 48 -21 78.5t-73 30.5q-50 0 -75 -30.5t-25 -78.5v-303h-126v303q0 48 -21 78.5t-73 30.5q-50 0 -75 -30.5t-25 -78.5v-303h-126v515h122v-81
q18 46 57.5 70t86.5 24z" />
    <glyph glyph-name="n" unicode="n" horiz-adv-x="575" 
d="M62 515h122v-81q18 46 59 70t89 24q86 0 135 -59.5t49 -165.5v-303h-126v303q0 47 -22.5 78t-75.5 31q-51 0 -77.5 -30.5t-26.5 -78.5v-303h-126v515z" />
    <glyph glyph-name="o" unicode="o" horiz-adv-x="590" 
d="M295 -12q-54 0 -101.5 20t-83.5 56t-57 85t-21 108q0 58 21 108t57 86t83.5 56.5t101.5 20.5t101.5 -20.5t83.5 -56.5t57 -86t21 -108q0 -59 -21 -108t-57 -85t-83.5 -56t-101.5 -20zM295 100q27 0 51.5 10.5t42.5 30.5t28.5 49t10.5 66t-10.5 67t-28.5 50.5t-42.5 31.5
t-51.5 11t-51.5 -11t-42.5 -31.5t-28.5 -50.5t-10.5 -67t10.5 -66t28.5 -49t42.5 -30.5t51.5 -10.5z" />
    <glyph glyph-name="p" unicode="p" horiz-adv-x="616" 
d="M62 515h122v-80q21 38 62 65.5t102 27.5q47 0 90 -20.5t75.5 -56.5t51.5 -86t19 -108q0 -59 -18.5 -108t-50.5 -85t-75 -56t-92 -20q-58 0 -99 25.5t-61 60.5v-283h-126v724zM321 100q27 0 51.5 10.5t42.5 30.5t28.5 49t10.5 66t-10.5 67t-28.5 50.5t-42.5 31.5t-51.5 11
t-51.5 -11t-42.5 -31.5t-28.5 -50.5t-10.5 -67t10.5 -66t28.5 -49t42.5 -30.5t51.5 -10.5z" />
    <glyph glyph-name="q" unicode="q" horiz-adv-x="616" 
d="M428 74q-20 -35 -61 -60.5t-99 -25.5q-49 0 -92 20t-75 56t-50.5 85t-18.5 108q0 58 19 108t51.5 86t75.5 56.5t90 20.5q61 0 102 -27.5t62 -65.5v80h122v-724h-126v283zM295 100q27 0 51.5 10.5t42.5 30.5t28.5 49t10.5 66t-10.5 67t-28.5 50.5t-42.5 31.5t-51.5 11
t-51.5 -11t-42.5 -31.5t-28.5 -50.5t-10.5 -67t10.5 -66t28.5 -49t42.5 -30.5t51.5 -10.5z" />
    <glyph glyph-name="r" unicode="r" horiz-adv-x="390" 
d="M62 515h126v-91q13 31 34.5 51t47 31t52 14t50.5 1v-126q-87 13 -132.5 -22.5t-45.5 -106.5v-266h-132v515z" />
    <glyph glyph-name="s" unicode="s" horiz-adv-x="523" 
d="M267 -12q-56 0 -100.5 13t-75.5 36t-48 54.5t-19 67.5h126q8 -33 38 -49.5t79 -16.5q45 0 73 14.5t28 39.5q0 15 -6.5 24t-21.5 15t-38.5 10.5t-57.5 10.5q-36 6 -72.5 14t-66.5 24.5t-48.5 45.5t-18.5 77q0 32 13.5 61t40 51t66.5 35t94 13q95 0 151.5 -42t67.5 -112
h-126q-6 18 -28 34t-70 16q-44 0 -65.5 -14t-21.5 -35q0 -26 26 -35t83 -19q36 -6 75 -14t71.5 -25t53.5 -47t21 -82q0 -38 -15.5 -68t-44.5 -52t-70 -33.5t-93 -11.5z" />
    <glyph glyph-name="t" unicode="t" horiz-adv-x="351" 
d="M275 -8q-94 0 -143.5 52t-49.5 156v209h-67v106h67v145h126v-145h112v-106h-112v-210q0 -50 20 -73t61 -23q9 0 18.5 1t18.5 3v-109q-11 -2 -24.5 -4t-26.5 -2z" />
    <glyph glyph-name="u" unicode="u" horiz-adv-x="575" 
d="M243 -13q-86 0 -135 59.5t-49 165.5v303h126v-303q0 -47 22.5 -78t75.5 -31q51 0 77.5 30.5t26.5 78.5v303h126v-515h-122v81q-18 -46 -59 -70t-89 -24z" />
    <glyph glyph-name="v" unicode="v" horiz-adv-x="537" 
d="M9 515h133l102 -295q5 -14 9.5 -30t8 -29.5t5.5 -23.5t3 -13q0 2 2.5 11.5t6 23.5t8 30t9.5 31l103 295h129l-199 -515h-120z" />
    <glyph glyph-name="w" unicode="w" horiz-adv-x="788" 
d="M11 515h135l70 -270q3 -12 5.5 -27t5 -28t4 -22.5t1.5 -11.5q0 2 2 11.5t5 22t6.5 27.5t7.5 27l86 271h114l87 -271q4 -12 7.5 -26.5t6 -27t4.5 -22t2 -12.5q0 2 1 11.5t3.5 22l5.5 27.5t6 27l73 271h128l-155 -515h-123l-87 277q-3 11 -6.5 23.5t-5.5 24t-4 20.5t-2 12
q0 -2 -2 -11t-4 -20.5t-5.5 -24.5t-6.5 -24l-87 -277h-124z" />
    <glyph glyph-name="x" unicode="x" horiz-adv-x="517" 
d="M188 266l-169 249h146l96 -155l95 155h142l-169 -249l180 -266h-146l-106 173l-107 -173h-142z" />
    <glyph glyph-name="y" unicode="y" horiz-adv-x="536" 
d="M61 -101h20q94 0 121 73l7 19l-199 524h134l106 -296q5 -14 9.5 -30t7.5 -29.5t5 -23.5t2 -13q0 2 2 11.5t5 23.5t7.5 30t9.5 31l100 296h129l-220 -589q-26 -68 -80.5 -101.5t-142.5 -33.5h-23v108z" />
    <glyph glyph-name="z" unicode="z" horiz-adv-x="482" 
d="M23 103l268 304h-257v108h416v-107l-265 -300h274v-108h-436v103z" />
    <glyph glyph-name="braceleft" unicode="{" horiz-adv-x="344" 
d="M319 -122q-91 -8 -143.5 34t-52.5 139v123q0 60 -26 84.5t-76 24.5v95q50 0 76 25t26 85v123q0 96 52.5 138t143.5 33v-100q-41 3 -59 -18.5t-18 -58.5v-129q0 -58 -22 -93t-73 -52q51 -17 73 -52.5t22 -93.5v-129q0 -37 18 -59t59 -19v-100v0z" />
    <glyph glyph-name="bar" unicode="|" horiz-adv-x="252" 
d="M70 744h112v-904h-112v904z" />
    <glyph glyph-name="braceright" unicode="}" horiz-adv-x="344" 
d="M25 -22q41 -3 59 19t18 59v129q0 58 22 93.5t73 52.5q-51 17 -73 52t-22 93v129q0 37 -18 58.5t-59 18.5v100q91 9 143.5 -33t52.5 -138v-123q0 -60 26 -85t76 -25v-95q-50 0 -76 -24.5t-26 -84.5v-123q0 -97 -52.5 -139t-143.5 -34v100z" />
    <glyph glyph-name="asciitilde" unicode="~" horiz-adv-x="435" 
d="M42 211q4 63 31 100.5t78 37.5q22 0 41 -6t36 -12.5t32 -12.5t29 -6q17 0 27 9.5t16 32.5h61q-1 -60 -29 -99.5t-75 -39.5q-22 0 -41.5 6t-36.5 12.5t-32.5 12.5t-30.5 6q-35 0 -45 -41h-61v0z" />
    <glyph glyph-name="exclamdown" unicode="&#xa1;" horiz-adv-x="293" 
d="M98 372h98l19 -477h-137zM76 575h141v-138h-141v138z" />
    <glyph glyph-name="cent" unicode="&#xa2;" horiz-adv-x="563" 
d="M294 -12q-12 0 -24 1t-23 3l-31 -102h-73l37 123q-66 32 -107 95.5t-41 148.5q0 58 21 108t57 86t83.5 56.5t100.5 20.5q21 0 42 -3l32 106h73l-38 -126q50 -23 83.5 -64.5t47.5 -98.5h-131q-11 32 -35 50l-88 -291q4 -1 14 -1q45 0 72 20.5t38 53.5h132
q-10 -42 -31.5 -76.5t-52.5 -58.5t-71 -37.5t-87 -13.5zM163 256q0 -44 14.5 -76t37.5 -52l88 288h-9q-27 0 -51 -11t-41.5 -31.5t-28 -50.5t-10.5 -67z" />
    <glyph glyph-name="sterling" unicode="&#xa3;" horiz-adv-x="551" 
d="M37 371h60q-12 23 -21 51t-9 66q0 45 16 83.5t45 66.5t69.5 43.5t90.5 15.5q51 0 93.5 -16t72.5 -44t47 -67t17 -85h-121q0 42 -28 70.5t-81 28.5q-50 0 -73.5 -28.5t-23.5 -67.5q0 -32 11.5 -59.5t24.5 -57.5h153v-86h-127q3 -20 3 -42q0 -35 -16 -69t-46 -58
q31 14 65 14q21 0 39 -4t34 -9.5t31 -9.5t31 -4q24 0 44.5 9t37.5 24l60 -94q-30 -29 -65.5 -40.5t-67.5 -11.5q-27 0 -49.5 6.5t-43.5 14.5t-42.5 14.5t-46.5 6.5q-31 0 -58.5 -9.5t-57.5 -32.5l-64 91q53 37 79.5 74t26.5 81q0 25 -8 49h-102v86z" />
    <glyph glyph-name="yen" unicode="&#xa5;" horiz-adv-x="593" 
d="M56 348h133l-186 332h148l147 -284l148 284h144l-186 -332h133v-83h-175v-59h175v-83h-175v-123h-131v123h-175v83h175v59h-175v83z" />
    <glyph glyph-name="brokenbar" unicode="&#xa6;" horiz-adv-x="252" 
d="M70 243h112v-403h-112v403zM70 744h112v-385h-112v385z" />
    <glyph glyph-name="section" unicode="&#xa7;" horiz-adv-x="541" 
d="M273 -83q-45 0 -81.5 12t-63.5 33t-43 49.5t-18 62.5h128q5 -19 24 -35t58 -16q33 0 49.5 15.5t16.5 35.5q0 11 -3 20t-12.5 16.5t-27 13.5t-45.5 12q-41 9 -81 20t-72.5 29.5t-52.5 47.5t-20 74q0 44 23.5 72t62.5 48q-20 20 -32 46.5t-12 61.5q0 34 13.5 63.5t39 51.5
t63 34.5t85.5 12.5q93 0 147 -43t59 -114h-129q-4 20 -23 35.5t-57 15.5q-37 0 -54 -15.5t-17 -35.5q0 -11 3 -20t12.5 -16.5t27 -13.5t45.5 -12q40 -9 80.5 -20t73 -29.5t52.5 -47.5t20 -74q0 -44 -23.5 -72.5t-63.5 -47.5q21 -20 33 -46.5t12 -61.5q0 -34 -13.5 -63.5
t-38.5 -51.5t-62 -34.5t-83 -12.5zM260 363q-33 6 -59 15q-47 -22 -47 -53q0 -14 6 -24.5t20.5 -19t39 -16t61.5 -14.5q15 -3 30 -7t29 -9q47 22 47 54q0 14 -6 24.5t-20.5 19t-39 15.5t-61.5 15z" />
    <glyph glyph-name="dieresis" unicode="&#xa8;" horiz-adv-x="500" 
d="M283 707h122v-114h-122v114zM95 707h122v-114h-122v114z" />
    <glyph glyph-name="copyright" unicode="&#xa9;" horiz-adv-x="774" 
d="M387 -12q-71 0 -134 28t-109.5 76t-73.5 112.5t-27 138.5q0 73 27 137.5t73.5 112.5t109.5 76t134 28t134 -28t109.5 -76t73.5 -112.5t27 -137.5q0 -74 -27 -138.5t-73.5 -112.5t-109.5 -76t-134 -28zM387 37q60 0 112.5 24t91.5 65.5t61.5 97t22.5 119.5q0 63 -22.5 119
t-61.5 97t-91.5 65t-112.5 24t-112.5 -24t-91.5 -65t-61.5 -97t-22.5 -119q0 -64 22.5 -119.5t61.5 -97t91.5 -65.5t112.5 -24zM391 131q-44 0 -81 16.5t-64 45t-42.5 67.5t-15.5 83t15.5 82.5t42.5 67t64 45t81 16.5q73 0 125 -43.5t69 -115.5h-117q-22 52 -76 52
q-38 0 -61 -30t-23 -74q0 -43 23 -73.5t61 -30.5q26 0 46.5 13t29.5 39h117q-7 -36 -25 -65.5t-43.5 -50.5t-57.5 -32.5t-68 -11.5z" />
    <glyph glyph-name="ordfeminine" unicode="&#xaa;" horiz-adv-x="477" 
d="M186 260q-29 0 -56 7.5t-48 23t-33.5 39t-12.5 55.5q0 33 14 55.5t37 36.5t52 22t59 12q65 9 92.5 20.5t27.5 37.5q0 23 -18 32t-53 9q-33 0 -55.5 -12.5t-30.5 -38.5h-106q4 29 19.5 54t40 44t57.5 29.5t74 10.5q48 0 82 -11.5t55.5 -31t32 -46t10.5 -57.5v-193
q0 -31 5 -53t10 -34h-106q-4 8 -7.5 21.5t-5.5 38.5q-19 -32 -50.5 -51.5t-85.5 -19.5zM211 348q50 0 78.5 23t28.5 62v39q-21 -14 -46 -21t-59 -13q-33 -6 -50 -15.5t-17 -32.5q0 -19 13.5 -30.5t51.5 -11.5z" />
    <glyph glyph-name="guillemotleft" unicode="&#xab;" horiz-adv-x="490" 
d="M257 215v89l193 169v-137l-95 -77l95 -79v-134zM32 215v89l193 169v-137l-95 -77l95 -79v-134z" />
    <glyph glyph-name="logicalnot" unicode="&#xac;" 
d="M48 408h142v-141h-142v141z" />
    <glyph glyph-name="registered" unicode="&#xae;" horiz-adv-x="546" 
d="M273 200q-50 0 -94 19.5t-76.5 53t-51.5 79t-19 96.5t19 96.5t51.5 79t76.5 53t94 19.5t94 -19.5t76.5 -53t51.5 -79t19 -96.5t-19 -96.5t-51.5 -79t-76.5 -53t-94 -19.5zM273 252q41 0 74.5 15.5t57.5 42t37.5 62t13.5 76.5q0 40 -13.5 75.5t-37.5 62.5t-57.5 42.5
t-74.5 15.5t-74.5 -15.5t-57.5 -42.5t-37.5 -62.5t-13.5 -75.5q0 -41 13.5 -76.5t37.5 -62t57.5 -42t74.5 -15.5zM168 576h121q47 0 73 -21.5t26 -59.5q0 -26 -11.5 -39.5t-28.5 -19.5q15 -5 27 -17t12 -38v-59h-77v50q0 29 -29 29h-37v-79h-76v254zM275 459q18 0 25.5 7.5
t7.5 20.5q0 14 -7.5 21t-25.5 7h-31v-56h31z" />
    <glyph glyph-name="macron" unicode="&#xaf;" horiz-adv-x="500" 
d="M118 692h263v-87h-263v87z" />
    <glyph glyph-name="macron" unicode="&#x2c9;" horiz-adv-x="500" 
d="M118 692h263v-87h-263v87z" />
    <glyph glyph-name="degree" unicode="&#xb0;" horiz-adv-x="373" 
d="M186 385q-32 0 -60 12t-48.5 33t-32.5 49t-12 60q0 31 12 59t32.5 49t48.5 33t60 12t60 -12t49 -33t33 -49t12 -59q0 -32 -12 -60t-33 -49t-49 -33t-60 -12zM186 459q32 0 52.5 23t20.5 57q0 33 -20.5 56t-52.5 23t-52.5 -23t-20.5 -56q0 -34 20.5 -57t52.5 -23z" />
    <glyph glyph-name="plusminus" unicode="&#xb1;" 
d="M48 408h142v-141h-142v141z" />
    <glyph glyph-name="twosuperior" unicode="&#xb2;" horiz-adv-x="359" 
d="M36 313q0 28 10.5 53t27.5 46t39 38.5t46 31.5q28 17 42.5 30.5t21 24.5t7 19.5t0.5 15.5q0 20 -13.5 30.5t-30.5 10.5q-23 0 -36 -17.5t-13 -37.5h-98q0 25 10.5 49.5t30 43.5t47.5 31t63 12q36 0 62 -10.5t42.5 -27.5t24.5 -39t8 -44q0 -31 -9.5 -54t-26.5 -41.5
t-40.5 -34t-50.5 -31.5q-36 -21 -47 -35t-12 -27h182v-78h-287v41z" />
    <glyph glyph-name="threesuperior" unicode="&#xb3;" horiz-adv-x="385" 
d="M191 265q-78 0 -121 40t-43 104h95q0 -33 20 -47t49 -14q30 0 44.5 17t14.5 34q0 25 -16.5 35t-30.5 10h-33v78h22q19 0 32 13t13 30q0 15 -11.5 31t-36.5 16q-26 0 -39.5 -15t-13.5 -35h-96q1 26 11.5 50t29.5 42t46.5 29t64.5 11q38 0 64.5 -11t43.5 -28t25 -37.5
t8 -40.5q0 -26 -15.5 -50t-42.5 -36q16 -4 30 -14.5t23.5 -24t15 -28t5.5 -26.5q0 -22 -9 -45.5t-28.5 -43t-49.5 -32t-71 -12.5z" />
    <glyph glyph-name="acute" unicode="&#xb4;" horiz-adv-x="500" 
d="M220 740h165l-123 -147h-95z" />
    <glyph glyph-name="mu" unicode="&#xb5;" 
d="M48 408h142v-141h-142v141z" />
    <glyph glyph-name="mu" unicode="&#x3bc;" 
d="M48 408h142v-141h-142v141z" />
    <glyph glyph-name="paragraph" unicode="&#xb6;" horiz-adv-x="603" 
d="M261 243h-13q-50 0 -91 16t-70 45t-45 69t-16 88q0 100 58.5 159.5t166.5 59.5h287v-820h-102v722h-73v-722h-102v383z" />
    <glyph glyph-name="periodcentered" unicode="&#xb7;" 
d="M48 408h142v-141h-142v141z" />
    <glyph glyph-name="periodcentered" unicode="&#x2219;" 
d="M48 408h142v-141h-142v141z" />
    <glyph glyph-name="cedilla" unicode="&#xb8;" horiz-adv-x="500" 
d="M252 -58q11 4 26 4q35 0 62 -23.5t27 -65.5q0 -23 -9.5 -40.5t-25.5 -29t-37 -17.5t-43 -6q-44 0 -76.5 21t-42.5 58h74q10 -22 42 -22q15 0 28 9t13 26q0 18 -12 27.5t-29 9.5q-14 0 -23 -4.5t-16 -11.5l-38 34l51 89h68z" />
    <glyph glyph-name="onesuperior" unicode="&#xb9;" horiz-adv-x="287" 
d="M137 531h-89v68q46 1 78.5 21t34.5 60h75v-408h-99v259z" />
    <glyph glyph-name="ordmasculine" unicode="&#xba;" horiz-adv-x="473" 
d="M236 261q-43 0 -81 16t-66.5 45t-45.5 68.5t-17 86.5q0 46 17 86t45.5 68.5t66.5 45t81 16.5t81.5 -16.5t67 -45t45.5 -68.5t17 -86q0 -47 -17 -86.5t-45.5 -68.5t-67 -45t-81.5 -16zM236 353q43 0 73.5 32.5t30.5 90.5q0 59 -30.5 92t-73.5 33q-42 0 -72.5 -33
t-30.5 -92q0 -58 30.5 -90.5t72.5 -32.5z" />
    <glyph glyph-name="guillemotright" unicode="&#xbb;" horiz-adv-x="490" 
d="M265 183l95 77l-95 79v134l193 -169v-89l-193 -169v137zM40 183l95 77l-95 79v134l193 -169v-89l-193 -169v137z" />
    <glyph glyph-name="onequarter" unicode="&#xbc;" horiz-adv-x="897" 
d="M719 78h-194v78l177 252h105v-256h64v-74h-64v-78h-88v78zM560 680h101l-373 -680h-101zM137 531h-89v68q46 1 78.5 21t34.5 60h75v-408h-99v259zM719 152v156l-104 -156h104z" />
    <glyph glyph-name="onehalf" unicode="&#xbd;" horiz-adv-x="885" 
d="M562 41q0 28 10.5 52.5t27.5 45.5t39 39t46 32q28 17 42.5 30.5t21 24.5t7 19.5t0.5 15.5q0 20 -13.5 30.5t-30.5 10.5q-23 0 -36 -17.5t-13 -37.5h-98q0 25 10.5 49.5t30 43.5t47.5 31t63 12q36 0 62 -10.5t42.5 -27.5t24.5 -39t8 -44q0 -31 -9.5 -54t-26.5 -41.5
t-40.5 -34t-50.5 -31.5q-36 -21 -47 -35t-12 -27h182v-78h-287v41zM560 680h101l-373 -680h-101zM137 531h-89v68q46 1 78.5 21t34.5 60h75v-408h-99v259z" />
    <glyph glyph-name="threequarters" unicode="&#xbe;" horiz-adv-x="965" 
d="M787 78h-194v78l177 252h105v-256h64v-74h-64v-78h-88v78zM191 265q-78 0 -121 40t-43 104h95q0 -33 20 -47t49 -14q30 0 44.5 17t14.5 34q0 25 -16.5 35t-30.5 10h-33v78h22q19 0 32 13t13 30q0 15 -11.5 31t-36.5 16q-26 0 -39.5 -15t-13.5 -35h-96q1 26 11.5 50
t29.5 42t46.5 29t64.5 11q38 0 64.5 -11t43.5 -28t25 -37.5t8 -40.5q0 -26 -15.5 -50t-42.5 -36q16 -4 30 -14.5t23.5 -24t15 -28t5.5 -26.5q0 -22 -9 -45.5t-28.5 -43t-49.5 -32t-71 -12.5zM628 680h101l-373 -680h-101zM787 152v156l-104 -156h104z" />
    <glyph glyph-name="questiondown" unicode="&#xbf;" horiz-adv-x="520" 
d="M263 -122q-54 0 -95.5 14.5t-70 40.5t-43 61.5t-14.5 76.5q0 32 7.5 56.5t22.5 45t37 38.5t51 36q35 23 52.5 47t17.5 56v22h114v-22q0 -33 -7.5 -58.5t-19.5 -46t-28 -36t-33 -27.5q-26 -18 -42 -32t-26 -26t-13.5 -24.5t-3.5 -28.5q0 -32 24 -55.5t70 -23.5
q54 0 80.5 31t28.5 73h123q0 -46 -15.5 -86t-45.5 -69t-73 -46t-98 -17zM216 575h141v-138h-141v138z" />
    <glyph glyph-name="Agrave" unicode="&#xc0;" horiz-adv-x="650" 
d="M257 680h136l249 -680h-137l-47 136h-270l-47 -136h-133zM226 247h193l-79 230q-3 7 -6 17.5t-5.5 21t-4.5 18.5t-2 10q0 -2 -2 -10l-4.5 -18t-5.5 -21t-5 -18zM169 877h165l53 -147h-95z" />
    <glyph glyph-name="Aacute" unicode="&#xc1;" horiz-adv-x="650" 
d="M257 680h136l249 -680h-137l-47 136h-270l-47 -136h-133zM226 247h193l-79 230q-3 7 -6 17.5t-5.5 21t-4.5 18.5t-2 10q0 -2 -2 -10l-4.5 -18t-5.5 -21t-5 -18zM322 877h165l-123 -147h-95z" />
    <glyph glyph-name="Acircumflex" unicode="&#xc2;" horiz-adv-x="650" 
d="M257 680h136l249 -680h-137l-47 136h-270l-47 -136h-133zM226 247h193l-79 230q-3 7 -6 17.5t-5.5 21t-4.5 18.5t-2 10q0 -2 -2 -10l-4.5 -18t-5.5 -21t-5 -18zM279 884h80l130 -154h-108l-62 71l-61 -71h-109z" />
    <glyph glyph-name="Atilde" unicode="&#xc3;" horiz-adv-x="650" 
d="M257 680h136l249 -680h-137l-47 136h-270l-47 -136h-133zM226 247h193l-79 230q-3 7 -6 17.5t-5.5 21t-4.5 18.5t-2 10q0 -2 -2 -10l-4.5 -18t-5.5 -21t-5 -18zM156 727q3 27 11 51t21.5 41.5t33 28t44.5 10.5q19 0 36 -6.5t31.5 -14.5t27.5 -14.5t25 -6.5q17 0 26 10.5
t14 31.5h62q-3 -27 -10.5 -51t-21 -41.5t-31.5 -28t-42 -10.5q-19 0 -36.5 6.5t-32.5 14t-28.5 14t-25.5 6.5q-33 0 -42 -41h-62z" />
    <glyph glyph-name="Adieresis" unicode="&#xc4;" horiz-adv-x="650" 
d="M257 680h136l249 -680h-137l-47 136h-270l-47 -136h-133zM226 247h193l-79 230q-3 7 -6 17.5t-5.5 21t-4.5 18.5t-2 10q0 -2 -2 -10l-4.5 -18t-5.5 -21t-5 -18zM355 844h122v-114h-122v114zM167 844h122v-114h-122v114z" />
    <glyph glyph-name="Aring" unicode="&#xc5;" horiz-adv-x="650" 
d="M257 680h136l249 -680h-137l-47 136h-270l-47 -136h-133zM226 247h193l-79 230q-3 7 -6 17.5t-5.5 21t-4.5 18.5t-2 10q0 -2 -2 -10l-4.5 -18t-5.5 -21t-5 -18zM322 722q-23 0 -42.5 8.5t-34.5 23t-23.5 33.5t-8.5 41t8.5 41.5t23.5 34t34.5 23t42.5 8.5q22 0 42 -8.5
t35 -23t23.5 -34t8.5 -41.5t-8.5 -41t-23.5 -33.5t-35 -23t-42 -8.5zM322 777q20 0 34 15t14 36t-14 36t-34 15t-34 -15t-14 -36t14 -36t34 -15z" />
    <glyph glyph-name="AE" unicode="&#xc6;" horiz-adv-x="942" 
d="M271 680h628v-118h-348v-148h294v-119h-294v-176h355v-119h-484v136h-228l-52 -136h-134zM237 247h185v315h-64z" />
    <glyph glyph-name="Ccedilla" unicode="&#xc7;" horiz-adv-x="698" 
d="M669 216q-26 -105 -99 -164t-185 -64l-31 -46q11 4 26 4q35 0 62 -23.5t27 -65.5q0 -23 -9.5 -40.5t-25.5 -29t-37 -17.5t-43 -6q-44 0 -76.5 21t-42.5 58h74q10 -22 42 -22q15 0 28 9t13 26q0 18 -12 27.5t-29 9.5q-14 0 -23 -4.5t-16 -11.5l-38 34l46 81
q-63 9 -115.5 39t-90.5 76.5t-59 106.5t-21 129q0 75 25.5 139.5t70.5 112t106 75t131 27.5q119 0 197 -60.5t104 -165.5h-137q-10 23 -22.5 43t-31.5 35t-45.5 23.5t-63.5 8.5q-41 0 -77.5 -15.5t-63.5 -46t-42.5 -75t-15.5 -101.5q0 -58 16 -102.5t43.5 -75t64 -46
t78.5 -15.5q36 0 63 9.5t46 25.5t31 36t20 41h138v0z" />
    <glyph glyph-name="Egrave" unicode="&#xc8;" horiz-adv-x="585" 
d="M65 680h477v-118h-348v-148h294v-119h-294v-176h355v-119h-484v680zM145 877h165l53 -147h-95z" />
    <glyph glyph-name="Eacute" unicode="&#xc9;" horiz-adv-x="585" 
d="M65 680h477v-118h-348v-148h294v-119h-294v-176h355v-119h-484v680zM298 877h165l-123 -147h-95z" />
    <glyph glyph-name="Ecircumflex" unicode="&#xca;" horiz-adv-x="585" 
d="M65 680h477v-118h-348v-148h294v-119h-294v-176h355v-119h-484v680zM255 884h80l130 -154h-108l-62 71l-61 -71h-109z" />
    <glyph glyph-name="Edieresis" unicode="&#xcb;" horiz-adv-x="585" 
d="M65 680h477v-118h-348v-148h294v-119h-294v-176h355v-119h-484v680zM331 844h122v-114h-122v114zM143 844h122v-114h-122v114z" />
    <glyph glyph-name="Igrave" unicode="&#xcc;" horiz-adv-x="266" 
d="M68 680h130v-680h-130v680zM-20 877h165l53 -147h-95z" />
    <glyph glyph-name="Iacute" unicode="&#xcd;" horiz-adv-x="266" 
d="M68 680h130v-680h-130v680zM133 877h165l-123 -147h-95z" />
    <glyph glyph-name="Icircumflex" unicode="&#xce;" horiz-adv-x="266" 
d="M68 680h130v-680h-130v680zM90 884h80l130 -154h-108l-62 71l-61 -71h-109z" />
    <glyph glyph-name="Idieresis" unicode="&#xcf;" horiz-adv-x="266" 
d="M68 680h130v-680h-130v680zM166 844h122v-114h-122v114zM-22 844h122v-114h-122v114z" />
    <glyph glyph-name="Eth" unicode="&#xd0;" horiz-adv-x="674" 
d="M7 404h68v276h244q73 0 132.5 -23.5t101.5 -67.5t64.5 -107t22.5 -142q0 -78 -23 -141t-65.5 -107t-101.5 -68t-131 -24h-244v285h-68v119zM319 119q60 0 96.5 23t57 57t27.5 72.5t7 69.5q0 37 -8 76.5t-29 71.5t-57.5 52.5t-93.5 20.5h-115v-158h170v-119h-170v-166h115
z" />
    <glyph glyph-name="Ntilde" unicode="&#xd1;" horiz-adv-x="682" 
d="M65 680h147l285 -484v484h120v-680h-146l-286 484v-484h-120v680zM178 727q3 27 11 51t21.5 41.5t33 28t44.5 10.5q19 0 36 -6.5t31.5 -14.5t27.5 -14.5t25 -6.5q17 0 26 10.5t14 31.5h62q-3 -27 -10.5 -51t-21 -41.5t-31.5 -28t-42 -10.5q-19 0 -36.5 6.5t-32.5 14
t-28.5 14t-25.5 6.5q-33 0 -42 -41h-62z" />
    <glyph glyph-name="Ograve" unicode="&#xd2;" horiz-adv-x="734" 
d="M368 -12q-73 0 -134 27.5t-105.5 75t-69.5 112.5t-25 140t25 139.5t69.5 112t105.5 75t134 27.5q72 0 133 -27.5t105 -75t69 -112t25 -139.5t-25 -140t-69 -112.5t-105 -75t-133 -27.5zM368 104q41 0 77 15.5t63 46t42.5 75t15.5 102.5q0 57 -15.5 101.5t-42.5 75t-63 46
t-77 15.5q-42 0 -78.5 -15.5t-63.5 -46t-42.5 -75t-15.5 -101.5q0 -58 15.5 -102.5t42.5 -75t63.5 -46t78.5 -15.5zM215 877h165l53 -147h-95z" />
    <glyph glyph-name="Oacute" unicode="&#xd3;" horiz-adv-x="734" 
d="M368 -12q-73 0 -134 27.5t-105.5 75t-69.5 112.5t-25 140t25 139.5t69.5 112t105.5 75t134 27.5q72 0 133 -27.5t105 -75t69 -112t25 -139.5t-25 -140t-69 -112.5t-105 -75t-133 -27.5zM368 104q41 0 77 15.5t63 46t42.5 75t15.5 102.5q0 57 -15.5 101.5t-42.5 75t-63 46
t-77 15.5q-42 0 -78.5 -15.5t-63.5 -46t-42.5 -75t-15.5 -101.5q0 -58 15.5 -102.5t42.5 -75t63.5 -46t78.5 -15.5zM368 877h165l-123 -147h-95z" />
    <glyph glyph-name="Ocircumflex" unicode="&#xd4;" horiz-adv-x="734" 
d="M368 -12q-73 0 -134 27.5t-105.5 75t-69.5 112.5t-25 140t25 139.5t69.5 112t105.5 75t134 27.5q72 0 133 -27.5t105 -75t69 -112t25 -139.5t-25 -140t-69 -112.5t-105 -75t-133 -27.5zM368 104q41 0 77 15.5t63 46t42.5 75t15.5 102.5q0 57 -15.5 101.5t-42.5 75t-63 46
t-77 15.5q-42 0 -78.5 -15.5t-63.5 -46t-42.5 -75t-15.5 -101.5q0 -58 15.5 -102.5t42.5 -75t63.5 -46t78.5 -15.5zM325 884h80l130 -154h-108l-62 71l-61 -71h-109z" />
    <glyph glyph-name="Otilde" unicode="&#xd5;" horiz-adv-x="734" 
d="M368 -12q-73 0 -134 27.5t-105.5 75t-69.5 112.5t-25 140t25 139.5t69.5 112t105.5 75t134 27.5q72 0 133 -27.5t105 -75t69 -112t25 -139.5t-25 -140t-69 -112.5t-105 -75t-133 -27.5zM368 104q41 0 77 15.5t63 46t42.5 75t15.5 102.5q0 57 -15.5 101.5t-42.5 75t-63 46
t-77 15.5q-42 0 -78.5 -15.5t-63.5 -46t-42.5 -75t-15.5 -101.5q0 -58 15.5 -102.5t42.5 -75t63.5 -46t78.5 -15.5zM202 727q3 27 11 51t21.5 41.5t33 28t44.5 10.5q19 0 36 -6.5t31.5 -14.5t27.5 -14.5t25 -6.5q17 0 26 10.5t14 31.5h62q-3 -27 -10.5 -51t-21 -41.5
t-31.5 -28t-42 -10.5q-19 0 -36.5 6.5t-32.5 14t-28.5 14t-25.5 6.5q-33 0 -42 -41h-62z" />
    <glyph glyph-name="Odieresis" unicode="&#xd6;" horiz-adv-x="734" 
d="M368 -12q-73 0 -134 27.5t-105.5 75t-69.5 112.5t-25 140t25 139.5t69.5 112t105.5 75t134 27.5q72 0 133 -27.5t105 -75t69 -112t25 -139.5t-25 -140t-69 -112.5t-105 -75t-133 -27.5zM368 104q41 0 77 15.5t63 46t42.5 75t15.5 102.5q0 57 -15.5 101.5t-42.5 75t-63 46
t-77 15.5q-42 0 -78.5 -15.5t-63.5 -46t-42.5 -75t-15.5 -101.5q0 -58 15.5 -102.5t42.5 -75t63.5 -46t78.5 -15.5zM401 844h122v-114h-122v114zM213 844h122v-114h-122v114z" />
    <glyph glyph-name="multiply" unicode="&#xd7;" horiz-adv-x="490" 
d="M44 165l128 130l-128 130l73 73l128 -130l128 130l73 -73l-129 -130l129 -130l-73 -73l-128 129l-128 -129z" />
    <glyph glyph-name="Oslash" unicode="&#xd8;" horiz-adv-x="734" 
d="M17 21l89 95q-35 46 -53.5 103.5t-18.5 123.5q0 75 25 139.5t69.5 112t105.5 75t134 27.5q61 0 114.5 -20t95.5 -56l82 88l57 -52l-86 -93q33 -45 51 -101.5t18 -119.5q0 -75 -25 -140t-69 -112.5t-105 -75t-133 -27.5q-61 0 -113.5 19t-94.5 53l-86 -92zM168 343
q0 -39 7 -72t20 -59l300 320q-54 49 -127 49q-42 0 -78.5 -15.5t-63.5 -46t-42.5 -75t-15.5 -101.5zM368 104q41 0 77 15.5t63 46t42.5 75t15.5 102.5q0 72 -25 125l-298 -319q26 -23 58 -34t67 -11z" />
    <glyph glyph-name="Ugrave" unicode="&#xd9;" horiz-adv-x="643" 
d="M321 -12q-129 0 -195.5 73t-66.5 201v418h130v-422q0 -154 132 -154q133 0 133 154v422h130v-418q0 -128 -66.5 -201t-196.5 -73zM168 877h165l53 -147h-95z" />
    <glyph glyph-name="Uacute" unicode="&#xda;" horiz-adv-x="643" 
d="M321 -12q-129 0 -195.5 73t-66.5 201v418h130v-422q0 -154 132 -154q133 0 133 154v422h130v-418q0 -128 -66.5 -201t-196.5 -73zM321 877h165l-123 -147h-95z" />
    <glyph glyph-name="Ucircumflex" unicode="&#xdb;" horiz-adv-x="643" 
d="M321 -12q-129 0 -195.5 73t-66.5 201v418h130v-422q0 -154 132 -154q133 0 133 154v422h130v-418q0 -128 -66.5 -201t-196.5 -73zM278 884h80l130 -154h-108l-62 71l-61 -71h-109z" />
    <glyph glyph-name="Udieresis" unicode="&#xdc;" horiz-adv-x="643" 
d="M321 -12q-129 0 -195.5 73t-66.5 201v418h130v-422q0 -154 132 -154q133 0 133 154v422h130v-418q0 -128 -66.5 -201t-196.5 -73zM354 844h122v-114h-122v114zM166 844h122v-114h-122v114z" />
    <glyph glyph-name="Yacute" unicode="&#xdd;" horiz-adv-x="593" 
d="M231 261l-228 419h145l149 -294l152 294h141l-228 -419v-261h-131v261zM298 877h165l-123 -147h-95z" />
    <glyph glyph-name="Thorn" unicode="&#xde;" horiz-adv-x="600" 
d="M65 680h130v-104h134q118 0 181 -60t63 -160q0 -48 -16.5 -87.5t-48 -68t-76 -44t-100.5 -15.5h-137v-141h-130v680zM328 256q57 0 86.5 24t29.5 76q0 51 -29.5 77.5t-86.5 26.5h-133v-204h133z" />
    <glyph glyph-name="germandbls" unicode="&#xdf;" horiz-adv-x="594" 
d="M333 -10q-23 0 -48.5 4t-43.5 12v110q21 -8 40 -10.5t39 -2.5q51 0 80.5 28.5t29.5 78.5q0 51 -32 81t-91 30h-54v112h30q50 0 76.5 23t26.5 78q0 48 -26.5 73t-66.5 25q-47 0 -76 -32t-29 -98v-502h-126v506q0 55 18 99t49.5 75t74.5 47.5t93 16.5q52 0 93.5 -15.5
t69.5 -42.5t43 -64t15 -80q0 -97 -88 -149q65 -22 97.5 -72.5t32.5 -114.5q0 -51 -16.5 -91t-46.5 -68t-71.5 -42.5t-92.5 -14.5z" />
    <glyph glyph-name="agrave" unicode="&#xe0;" horiz-adv-x="576" 
d="M217 -11q-35 0 -68.5 8.5t-59.5 27t-42 48t-16 70.5q0 43 17.5 70.5t46 44.5t64.5 26t72 14q81 11 118 25.5t37 46.5q0 28 -23.5 41t-68.5 13q-43 0 -71 -15.5t-37 -47.5h-131q6 36 24 66.5t48 53t71.5 35t94.5 12.5q63 0 105 -14t67.5 -38t36 -57t10.5 -71v-239
q0 -38 6.5 -66.5t11.5 -42.5h-124q-5 10 -9.5 28t-6.5 48q-23 -39 -65 -63t-108 -24zM247 93q62 0 100.5 28.5t38.5 76.5v56q-26 -17 -60 -25.5t-76 -16.5t-66 -20.5t-24 -43.5q0 -26 20.5 -40.5t66.5 -14.5zM141 740h165l53 -147h-95z" />
    <glyph glyph-name="aacute" unicode="&#xe1;" horiz-adv-x="576" 
d="M217 -11q-35 0 -68.5 8.5t-59.5 27t-42 48t-16 70.5q0 43 17.5 70.5t46 44.5t64.5 26t72 14q81 11 118 25.5t37 46.5q0 28 -23.5 41t-68.5 13q-43 0 -71 -15.5t-37 -47.5h-131q6 36 24 66.5t48 53t71.5 35t94.5 12.5q63 0 105 -14t67.5 -38t36 -57t10.5 -71v-239
q0 -38 6.5 -66.5t11.5 -42.5h-124q-5 10 -9.5 28t-6.5 48q-23 -39 -65 -63t-108 -24zM247 93q62 0 100.5 28.5t38.5 76.5v56q-26 -17 -60 -25.5t-76 -16.5t-66 -20.5t-24 -43.5q0 -26 20.5 -40.5t66.5 -14.5zM294 740h165l-123 -147h-95z" />
    <glyph glyph-name="acircumflex" unicode="&#xe2;" horiz-adv-x="576" 
d="M217 -11q-35 0 -68.5 8.5t-59.5 27t-42 48t-16 70.5q0 43 17.5 70.5t46 44.5t64.5 26t72 14q81 11 118 25.5t37 46.5q0 28 -23.5 41t-68.5 13q-43 0 -71 -15.5t-37 -47.5h-131q6 36 24 66.5t48 53t71.5 35t94.5 12.5q63 0 105 -14t67.5 -38t36 -57t10.5 -71v-239
q0 -38 6.5 -66.5t11.5 -42.5h-124q-5 10 -9.5 28t-6.5 48q-23 -39 -65 -63t-108 -24zM247 93q62 0 100.5 28.5t38.5 76.5v56q-26 -17 -60 -25.5t-76 -16.5t-66 -20.5t-24 -43.5q0 -26 20.5 -40.5t66.5 -14.5zM251 747h80l130 -154h-108l-62 71l-61 -71h-109z" />
    <glyph glyph-name="atilde" unicode="&#xe3;" horiz-adv-x="576" 
d="M217 -11q-35 0 -68.5 8.5t-59.5 27t-42 48t-16 70.5q0 43 17.5 70.5t46 44.5t64.5 26t72 14q81 11 118 25.5t37 46.5q0 28 -23.5 41t-68.5 13q-43 0 -71 -15.5t-37 -47.5h-131q6 36 24 66.5t48 53t71.5 35t94.5 12.5q63 0 105 -14t67.5 -38t36 -57t10.5 -71v-239
q0 -38 6.5 -66.5t11.5 -42.5h-124q-5 10 -9.5 28t-6.5 48q-23 -39 -65 -63t-108 -24zM247 93q62 0 100.5 28.5t38.5 76.5v56q-26 -17 -60 -25.5t-76 -16.5t-66 -20.5t-24 -43.5q0 -26 20.5 -40.5t66.5 -14.5zM128 590q3 27 11 51t21.5 41.5t33 28t44.5 10.5q19 0 36 -6.5
t31.5 -14.5t27.5 -14.5t25 -6.5q17 0 26 10.5t14 31.5h62q-3 -27 -10.5 -51t-21 -41.5t-31.5 -28t-42 -10.5q-19 0 -36.5 6.5t-32.5 14t-28.5 14t-25.5 6.5q-33 0 -42 -41h-62z" />
    <glyph glyph-name="adieresis" unicode="&#xe4;" horiz-adv-x="576" 
d="M217 -11q-35 0 -68.5 8.5t-59.5 27t-42 48t-16 70.5q0 43 17.5 70.5t46 44.5t64.5 26t72 14q81 11 118 25.5t37 46.5q0 28 -23.5 41t-68.5 13q-43 0 -71 -15.5t-37 -47.5h-131q6 36 24 66.5t48 53t71.5 35t94.5 12.5q63 0 105 -14t67.5 -38t36 -57t10.5 -71v-239
q0 -38 6.5 -66.5t11.5 -42.5h-124q-5 10 -9.5 28t-6.5 48q-23 -39 -65 -63t-108 -24zM247 93q62 0 100.5 28.5t38.5 76.5v56q-26 -17 -60 -25.5t-76 -16.5t-66 -20.5t-24 -43.5q0 -26 20.5 -40.5t66.5 -14.5zM327 707h122v-114h-122v114zM139 707h122v-114h-122v114z" />
    <glyph glyph-name="aring" unicode="&#xe5;" horiz-adv-x="576" 
d="M217 -11q-35 0 -68.5 8.5t-59.5 27t-42 48t-16 70.5q0 43 17.5 70.5t46 44.5t64.5 26t72 14q81 11 118 25.5t37 46.5q0 28 -23.5 41t-68.5 13q-43 0 -71 -15.5t-37 -47.5h-131q6 36 24 66.5t48 53t71.5 35t94.5 12.5q63 0 105 -14t67.5 -38t36 -57t10.5 -71v-239
q0 -38 6.5 -66.5t11.5 -42.5h-124q-5 10 -9.5 28t-6.5 48q-23 -39 -65 -63t-108 -24zM247 93q62 0 100.5 28.5t38.5 76.5v56q-26 -17 -60 -25.5t-76 -16.5t-66 -20.5t-24 -43.5q0 -26 20.5 -40.5t66.5 -14.5zM294 585q-23 0 -42.5 8.5t-34.5 23t-23.5 33.5t-8.5 41t8.5 41.5
t23.5 34t34.5 23t42.5 8.5q22 0 42 -8.5t35 -23t23.5 -34t8.5 -41.5t-8.5 -41t-23.5 -33.5t-35 -23t-42 -8.5zM294 640q20 0 34 15t14 36t-14 36t-34 15t-34 -15t-14 -36t14 -36t34 -15z" />
    <glyph glyph-name="ae" unicode="&#xe6;" horiz-adv-x="936" 
d="M233 -11q-39 0 -75.5 8.5t-64.5 27t-45 48t-17 70.5q0 43 17.5 70.5t46 44.5t64.5 26t72 14q81 11 118 25.5t37 46.5q0 28 -23.5 41t-68.5 13q-43 0 -71 -15.5t-37 -47.5h-131q6 36 24 66.5t48 53t71.5 35t94.5 12.5q76 0 117.5 -20.5t60.5 -54.5q32 35 76 55t98 20
q61 0 111.5 -24t85.5 -66t51.5 -100t9.5 -126h-388q11 -56 47.5 -84t92.5 -28q35 0 63.5 15.5t39.5 44.5h135q-22 -82 -85.5 -127t-152.5 -45q-68 0 -124 27.5t-93 76.5q-18 -28 -42 -47.5t-51 -32t-56 -18t-56 -5.5zM247 93q62 0 100.5 28.5t38.5 76.5v56
q-26 -17 -60 -25.5t-76 -16.5t-66 -20.5t-24 -43.5q0 -26 20.5 -40.5t66.5 -14.5zM645 418q-45 0 -79.5 -28.5t-47.5 -81.5h253q-10 53 -43 81.5t-83 28.5z" />
    <glyph glyph-name="ccedilla" unicode="&#xe7;" horiz-adv-x="563" 
d="M536 174q-17 -75 -70 -123.5t-131 -59.5l-33 -49q11 4 26 4q35 0 62 -23.5t27 -65.5q0 -23 -9.5 -40.5t-25.5 -29t-37 -17.5t-43 -6q-44 0 -76.5 21t-42.5 58h74q10 -22 42 -22q15 0 28 9t13 26q0 18 -12 27.5t-29 9.5q-14 0 -23 -4.5t-16 -11.5l-38 34l45 79
q-49 5 -91.5 26.5t-74.5 57t-50.5 82t-18.5 101.5q0 58 21 108t57 86t83.5 56.5t100.5 20.5q45 0 84.5 -13.5t71 -37.5t53 -58.5t31.5 -76.5h-131q-11 35 -40 54.5t-69 19.5q-27 0 -51 -11t-41.5 -31.5t-28 -50.5t-10.5 -67t10.5 -66t28 -49t41.5 -30.5t51 -10.5
q45 0 72 20.5t38 53.5h132v0z" />
    <glyph glyph-name="egrave" unicode="&#xe8;" horiz-adv-x="584" 
d="M163 217q9 -59 46 -88t94 -29q73 0 102 48h135q-23 -78 -85.5 -119t-151.5 -41q-57 0 -106 20t-86 56t-58 85t-21 108q0 58 20.5 108t55.5 86t83 56.5t102 20.5q61 0 111.5 -24t85.5 -65.5t51.5 -98.5t9.5 -123h-388zM293 418q-45 0 -80 -29t-47 -82h253q-10 54 -43 82.5
t-83 28.5zM135 740h165l53 -147h-95z" />
    <glyph glyph-name="eacute" unicode="&#xe9;" horiz-adv-x="584" 
d="M163 217q9 -59 46 -88t94 -29q73 0 102 48h135q-23 -78 -85.5 -119t-151.5 -41q-57 0 -106 20t-86 56t-58 85t-21 108q0 58 20.5 108t55.5 86t83 56.5t102 20.5q61 0 111.5 -24t85.5 -65.5t51.5 -98.5t9.5 -123h-388zM293 418q-45 0 -80 -29t-47 -82h253q-10 54 -43 82.5
t-83 28.5zM288 740h165l-123 -147h-95z" />
    <glyph glyph-name="ecircumflex" unicode="&#xea;" horiz-adv-x="584" 
d="M163 217q9 -59 46 -88t94 -29q73 0 102 48h135q-23 -78 -85.5 -119t-151.5 -41q-57 0 -106 20t-86 56t-58 85t-21 108q0 58 20.5 108t55.5 86t83 56.5t102 20.5q61 0 111.5 -24t85.5 -65.5t51.5 -98.5t9.5 -123h-388zM293 418q-45 0 -80 -29t-47 -82h253q-10 54 -43 82.5
t-83 28.5zM245 747h80l130 -154h-108l-62 71l-61 -71h-109z" />
    <glyph glyph-name="edieresis" unicode="&#xeb;" horiz-adv-x="584" 
d="M163 217q9 -59 46 -88t94 -29q73 0 102 48h135q-23 -78 -85.5 -119t-151.5 -41q-57 0 -106 20t-86 56t-58 85t-21 108q0 58 20.5 108t55.5 86t83 56.5t102 20.5q61 0 111.5 -24t85.5 -65.5t51.5 -98.5t9.5 -123h-388zM293 418q-45 0 -80 -29t-47 -82h253q-10 54 -43 82.5
t-83 28.5zM321 707h122v-114h-122v114zM133 707h122v-114h-122v114z" />
    <glyph glyph-name="igrave" unicode="&#xec;" horiz-adv-x="254" 
d="M64 515h126v-515h-126v515zM-26 740h165l53 -147h-95z" />
    <glyph glyph-name="iacute" unicode="&#xed;" horiz-adv-x="254" 
d="M64 515h126v-515h-126v515zM127 740h165l-123 -147h-95z" />
    <glyph glyph-name="icircumflex" unicode="&#xee;" horiz-adv-x="254" 
d="M64 515h126v-515h-126v515zM84 747h80l130 -154h-108l-62 71l-61 -71h-109z" />
    <glyph glyph-name="idieresis" unicode="&#xef;" horiz-adv-x="254" 
d="M64 515h126v-515h-126v515zM160 707h122v-114h-122v114zM-28 707h122v-114h-122v114z" />
    <glyph glyph-name="eth" unicode="&#xf0;" horiz-adv-x="591" 
d="M166 582l57 46q-18 11 -37 19.5t-39 16.5l34 87q67 -15 132 -50l69 55l44 -54l-51 -41q39 -30 72.5 -68t58 -85.5t38.5 -104t14 -122.5q0 -71 -21 -125.5t-57 -91.5t-83.5 -56.5t-101.5 -19.5t-101.5 19t-83.5 53.5t-57 82t-21 104.5t20 104t53 81t75.5 53t87.5 19
q36 0 61.5 -7.5t45.5 -20.5q-18 34 -41.5 61t-50.5 50l-73 -59zM295 100q27 0 51.5 9.5t42.5 28.5t28.5 46t10.5 62q0 36 -10.5 63.5t-28.5 47t-42.5 29.5t-51.5 10t-51.5 -10t-42.5 -29.5t-28.5 -47t-10.5 -63.5q0 -35 10.5 -62t28.5 -46t42.5 -28.5t51.5 -9.5z" />
    <glyph glyph-name="ntilde" unicode="&#xf1;" horiz-adv-x="575" 
d="M62 515h122v-81q18 46 59 70t89 24q86 0 135 -59.5t49 -165.5v-303h-126v303q0 47 -22.5 78t-75.5 31q-51 0 -77.5 -30.5t-26.5 -78.5v-303h-126v515zM121 590q3 27 11 51t21.5 41.5t33 28t44.5 10.5q19 0 36 -6.5t31.5 -14.5t27.5 -14.5t25 -6.5q17 0 26 10.5t14 31.5
h62q-3 -27 -10.5 -51t-21 -41.5t-31.5 -28t-42 -10.5q-19 0 -36.5 6.5t-32.5 14t-28.5 14t-25.5 6.5q-33 0 -42 -41h-62z" />
    <glyph glyph-name="ograve" unicode="&#xf2;" horiz-adv-x="590" 
d="M295 -12q-54 0 -101.5 20t-83.5 56t-57 85t-21 108q0 58 21 108t57 86t83.5 56.5t101.5 20.5t101.5 -20.5t83.5 -56.5t57 -86t21 -108q0 -59 -21 -108t-57 -85t-83.5 -56t-101.5 -20zM295 100q27 0 51.5 10.5t42.5 30.5t28.5 49t10.5 66t-10.5 67t-28.5 50.5t-42.5 31.5
t-51.5 11t-51.5 -11t-42.5 -31.5t-28.5 -50.5t-10.5 -67t10.5 -66t28.5 -49t42.5 -30.5t51.5 -10.5zM142 740h165l53 -147h-95z" />
    <glyph glyph-name="oacute" unicode="&#xf3;" horiz-adv-x="590" 
d="M295 -12q-54 0 -101.5 20t-83.5 56t-57 85t-21 108q0 58 21 108t57 86t83.5 56.5t101.5 20.5t101.5 -20.5t83.5 -56.5t57 -86t21 -108q0 -59 -21 -108t-57 -85t-83.5 -56t-101.5 -20zM295 100q27 0 51.5 10.5t42.5 30.5t28.5 49t10.5 66t-10.5 67t-28.5 50.5t-42.5 31.5
t-51.5 11t-51.5 -11t-42.5 -31.5t-28.5 -50.5t-10.5 -67t10.5 -66t28.5 -49t42.5 -30.5t51.5 -10.5zM295 740h165l-123 -147h-95z" />
    <glyph glyph-name="ocircumflex" unicode="&#xf4;" horiz-adv-x="590" 
d="M295 -12q-54 0 -101.5 20t-83.5 56t-57 85t-21 108q0 58 21 108t57 86t83.5 56.5t101.5 20.5t101.5 -20.5t83.5 -56.5t57 -86t21 -108q0 -59 -21 -108t-57 -85t-83.5 -56t-101.5 -20zM295 100q27 0 51.5 10.5t42.5 30.5t28.5 49t10.5 66t-10.5 67t-28.5 50.5t-42.5 31.5
t-51.5 11t-51.5 -11t-42.5 -31.5t-28.5 -50.5t-10.5 -67t10.5 -66t28.5 -49t42.5 -30.5t51.5 -10.5zM252 747h80l130 -154h-108l-62 71l-61 -71h-109z" />
    <glyph glyph-name="otilde" unicode="&#xf5;" horiz-adv-x="590" 
d="M295 -12q-54 0 -101.5 20t-83.5 56t-57 85t-21 108q0 58 21 108t57 86t83.5 56.5t101.5 20.5t101.5 -20.5t83.5 -56.5t57 -86t21 -108q0 -59 -21 -108t-57 -85t-83.5 -56t-101.5 -20zM295 100q27 0 51.5 10.5t42.5 30.5t28.5 49t10.5 66t-10.5 67t-28.5 50.5t-42.5 31.5
t-51.5 11t-51.5 -11t-42.5 -31.5t-28.5 -50.5t-10.5 -67t10.5 -66t28.5 -49t42.5 -30.5t51.5 -10.5zM129 590q3 27 11 51t21.5 41.5t33 28t44.5 10.5q19 0 36 -6.5t31.5 -14.5t27.5 -14.5t25 -6.5q17 0 26 10.5t14 31.5h62q-3 -27 -10.5 -51t-21 -41.5t-31.5 -28t-42 -10.5
q-19 0 -36.5 6.5t-32.5 14t-28.5 14t-25.5 6.5q-33 0 -42 -41h-62z" />
    <glyph glyph-name="odieresis" unicode="&#xf6;" horiz-adv-x="590" 
d="M295 -12q-54 0 -101.5 20t-83.5 56t-57 85t-21 108q0 58 21 108t57 86t83.5 56.5t101.5 20.5t101.5 -20.5t83.5 -56.5t57 -86t21 -108q0 -59 -21 -108t-57 -85t-83.5 -56t-101.5 -20zM295 100q27 0 51.5 10.5t42.5 30.5t28.5 49t10.5 66t-10.5 67t-28.5 50.5t-42.5 31.5
t-51.5 11t-51.5 -11t-42.5 -31.5t-28.5 -50.5t-10.5 -67t10.5 -66t28.5 -49t42.5 -30.5t51.5 -10.5zM328 707h122v-114h-122v114zM140 707h122v-114h-122v114z" />
    <glyph glyph-name="divide" unicode="&#xf7;" horiz-adv-x="511" 
d="M38 356h435v-111h-435v111zM186 190h139v-136h-139v136zM186 548h139v-136h-139v136z" />
    <glyph glyph-name="oslash" unicode="&#xf8;" horiz-adv-x="590" 
d="M21 14l67 75q-26 34 -41 76t-15 92q0 58 21 108t57 86t83.5 56.5t101.5 20.5q40 0 76.5 -11.5t68.5 -32.5l75 84l53 -46l-76 -85q31 -35 48.5 -80.5t17.5 -99.5q0 -59 -21 -108t-57 -85t-83.5 -56t-101.5 -20q-45 0 -84.5 13.5t-72.5 38.5l-65 -73zM295 98
q27 0 51.5 10.5t43 30.5t29.5 49.5t11 67.5q0 52 -20 89l-196 -219q34 -28 81 -28zM160 256q0 -42 12 -72l191 214q-31 20 -68 20q-27 0 -51.5 -11t-43 -31.5t-29.5 -50.5t-11 -69z" />
    <glyph glyph-name="ugrave" unicode="&#xf9;" horiz-adv-x="575" 
d="M243 -13q-86 0 -135 59.5t-49 165.5v303h126v-303q0 -47 22.5 -78t75.5 -31q51 0 77.5 30.5t26.5 78.5v303h126v-515h-122v81q-18 -46 -59 -70t-89 -24zM129 740h165l53 -147h-95z" />
    <glyph glyph-name="uacute" unicode="&#xfa;" horiz-adv-x="575" 
d="M243 -13q-86 0 -135 59.5t-49 165.5v303h126v-303q0 -47 22.5 -78t75.5 -31q51 0 77.5 30.5t26.5 78.5v303h126v-515h-122v81q-18 -46 -59 -70t-89 -24zM282 740h165l-123 -147h-95z" />
    <glyph glyph-name="ucircumflex" unicode="&#xfb;" horiz-adv-x="575" 
d="M243 -13q-86 0 -135 59.5t-49 165.5v303h126v-303q0 -47 22.5 -78t75.5 -31q51 0 77.5 30.5t26.5 78.5v303h126v-515h-122v81q-18 -46 -59 -70t-89 -24zM239 747h80l130 -154h-108l-62 71l-61 -71h-109z" />
    <glyph glyph-name="udieresis" unicode="&#xfc;" horiz-adv-x="575" 
d="M243 -13q-86 0 -135 59.5t-49 165.5v303h126v-303q0 -47 22.5 -78t75.5 -31q51 0 77.5 30.5t26.5 78.5v303h126v-515h-122v81q-18 -46 -59 -70t-89 -24zM315 707h122v-114h-122v114zM127 707h122v-114h-122v114z" />
    <glyph glyph-name="yacute" unicode="&#xfd;" horiz-adv-x="536" 
d="M61 -101h20q94 0 121 73l7 19l-199 524h134l106 -296q5 -14 9.5 -30t7.5 -29.5t5 -23.5t2 -13q0 2 2 11.5t5 23.5t7.5 30t9.5 31l100 296h129l-220 -589q-26 -68 -80.5 -101.5t-142.5 -33.5h-23v108zM268 740h165l-123 -147h-95z" />
    <glyph glyph-name="thorn" unicode="&#xfe;" horiz-adv-x="616" 
d="M62 744h126v-303q19 33 59 60t101 27q47 0 90 -20.5t75.5 -56.5t51.5 -86t19 -108q0 -59 -18.5 -108t-50.5 -85t-75 -56t-92 -20q-58 0 -99 25.5t-61 60.5v-283h-126v953zM321 100q27 0 51.5 10.5t42.5 30.5t28.5 49t10.5 66t-10.5 67t-28.5 50.5t-42.5 31.5t-51.5 11
t-51.5 -11t-42.5 -31.5t-28.5 -50.5t-10.5 -67t10.5 -66t28.5 -49t42.5 -30.5t51.5 -10.5z" />
    <glyph glyph-name="ydieresis" unicode="&#xff;" horiz-adv-x="536" 
d="M61 -101h20q94 0 121 73l7 19l-199 524h134l106 -296q5 -14 9.5 -30t7.5 -29.5t5 -23.5t2 -13q0 2 2 11.5t5 23.5t7.5 30t9.5 31l100 296h129l-220 -589q-26 -68 -80.5 -101.5t-142.5 -33.5h-23v108zM301 707h122v-114h-122v114zM113 707h122v-114h-122v114z" />
    <glyph glyph-name="Amacron" unicode="&#x100;" horiz-adv-x="650" 
d="M257 680h136l249 -680h-137l-47 136h-270l-47 -136h-133zM226 247h193l-79 230q-3 7 -6 17.5t-5.5 21t-4.5 18.5t-2 10q0 -2 -2 -10l-4.5 -18t-5.5 -21t-5 -18zM189 829h263v-87h-263v87z" />
    <glyph glyph-name="amacron" unicode="&#x101;" horiz-adv-x="576" 
d="M217 -11q-35 0 -68.5 8.5t-59.5 27t-42 48t-16 70.5q0 43 17.5 70.5t46 44.5t64.5 26t72 14q81 11 118 25.5t37 46.5q0 28 -23.5 41t-68.5 13q-43 0 -71 -15.5t-37 -47.5h-131q6 36 24 66.5t48 53t71.5 35t94.5 12.5q63 0 105 -14t67.5 -38t36 -57t10.5 -71v-239
q0 -38 6.5 -66.5t11.5 -42.5h-124q-5 10 -9.5 28t-6.5 48q-23 -39 -65 -63t-108 -24zM247 93q62 0 100.5 28.5t38.5 76.5v56q-26 -17 -60 -25.5t-76 -16.5t-66 -20.5t-24 -43.5q0 -26 20.5 -40.5t66.5 -14.5zM161 692h263v-87h-263v87z" />
    <glyph glyph-name="Abreve" unicode="&#x102;" horiz-adv-x="650" 
d="M257 680h136l249 -680h-137l-47 136h-270l-47 -136h-133zM226 247h193l-79 230q-3 7 -6 17.5t-5.5 21t-4.5 18.5t-2 10q0 -2 -2 -10l-4.5 -18t-5.5 -21t-5 -18zM322 728q-33 0 -60 11.5t-45.5 31.5t-29.5 45.5t-13 54.5h73q6 -25 23 -39.5t52 -14.5t52 15t23 39h73
q-2 -29 -13 -54.5t-29.5 -45.5t-45.5 -31.5t-60 -11.5z" />
    <glyph glyph-name="abreve" unicode="&#x103;" horiz-adv-x="576" 
d="M217 -11q-35 0 -68.5 8.5t-59.5 27t-42 48t-16 70.5q0 43 17.5 70.5t46 44.5t64.5 26t72 14q81 11 118 25.5t37 46.5q0 28 -23.5 41t-68.5 13q-43 0 -71 -15.5t-37 -47.5h-131q6 36 24 66.5t48 53t71.5 35t94.5 12.5q63 0 105 -14t67.5 -38t36 -57t10.5 -71v-239
q0 -38 6.5 -66.5t11.5 -42.5h-124q-5 10 -9.5 28t-6.5 48q-23 -39 -65 -63t-108 -24zM247 93q62 0 100.5 28.5t38.5 76.5v56q-26 -17 -60 -25.5t-76 -16.5t-66 -20.5t-24 -43.5q0 -26 20.5 -40.5t66.5 -14.5zM294 591q-33 0 -60 11.5t-45.5 31.5t-29.5 45.5t-13 54.5h73
q6 -25 23 -39.5t52 -14.5t52 15t23 39h73q-2 -29 -13 -54.5t-29.5 -45.5t-45.5 -31.5t-60 -11.5z" />
    <glyph glyph-name="Aogonek" unicode="&#x104;" horiz-adv-x="650" 
d="M555 -236q-23 0 -44 6t-38 18.5t-27 30.5t-10 42q0 23 10.5 44t27 38.5t37 31.5t39.5 25h-45l-47 136h-270l-47 -136h-133l249 680h136l249 -680h-24q-41 -33 -67.5 -69t-26.5 -68q0 -19 9 -27.5t23 -8.5q30 0 40 22h76q-11 -38 -40 -61.5t-77 -23.5zM226 247h193
l-79 230q-3 7 -5.5 17t-5 19.5t-4.5 18t-3 11.5q-1 -3 -3 -11l-4.5 -18l-5 -20t-4.5 -17z" />
    <glyph glyph-name="aogonek" unicode="&#x105;" horiz-adv-x="576" 
d="M447 -236q-23 0 -44 6t-38 18.5t-27 30.5t-10 42q0 23 10.5 44t27 38.5t37 31.5t39.5 25h-36q-5 10 -9.5 28t-6.5 48q-23 -39 -65 -63t-108 -24q-35 0 -68.5 8.5t-59.5 27t-42 48t-16 70.5q0 43 17.5 70.5t46 44.5t64.5 26t72 14q81 11 118 25.5t37 46.5q0 28 -23.5 41
t-68.5 13q-43 0 -71 -15.5t-37 -47.5h-131q6 36 24 66.5t48 53t71.5 35t94.5 12.5q63 0 105 -14t67.5 -38t36 -57t10.5 -71v-239q0 -38 6.5 -66.5t11.5 -42.5h-20q-41 -33 -67.5 -69t-26.5 -68q0 -19 9 -27.5t23 -8.5q30 0 40 22h76q-11 -38 -40 -61.5t-77 -23.5zM247 93
q62 0 100.5 28.5t38.5 76.5v56q-26 -17 -60 -25.5t-76 -16.5t-66 -20.5t-24 -43.5q0 -26 20.5 -40.5t66.5 -14.5z" />
    <glyph glyph-name="Cacute" unicode="&#x106;" horiz-adv-x="698" 
d="M370 -12q-72 0 -133.5 27.5t-106.5 75t-70.5 112.5t-25.5 140t25.5 139.5t70.5 112t106 75t131 27.5q119 0 197 -60.5t104 -165.5h-137q-10 23 -22.5 43t-31.5 35t-45.5 23.5t-63.5 8.5q-41 0 -77.5 -15.5t-63.5 -46t-42.5 -75t-15.5 -101.5q0 -58 16 -102.5t43.5 -75
t64 -46t78.5 -15.5q36 0 63 9.5t46 25.5t31 36t20 41h138q-27 -108 -104 -168t-195 -60zM369 877h165l-123 -147h-95z" />
    <glyph glyph-name="cacute" unicode="&#x107;" horiz-adv-x="563" 
d="M294 -12q-53 0 -100.5 20t-83.5 56t-57 85t-21 108q0 58 21 108t57 86t83.5 56.5t100.5 20.5q45 0 84.5 -13.5t71 -37.5t53 -58.5t31.5 -76.5h-131q-11 35 -40 54.5t-69 19.5q-27 0 -51 -11t-41.5 -31.5t-28 -50.5t-10.5 -67t10.5 -66t28 -49t41.5 -30.5t51 -10.5
q45 0 72 20.5t38 53.5h132q-10 -42 -31.5 -76.5t-52.5 -58.5t-71 -37.5t-87 -13.5zM288 740h165l-123 -147h-95z" />
    <glyph glyph-name="Ccircumflex" unicode="&#x108;" horiz-adv-x="698" 
d="M370 -12q-72 0 -133.5 27.5t-106.5 75t-70.5 112.5t-25.5 140t25.5 139.5t70.5 112t106 75t131 27.5q119 0 197 -60.5t104 -165.5h-137q-10 23 -22.5 43t-31.5 35t-45.5 23.5t-63.5 8.5q-41 0 -77.5 -15.5t-63.5 -46t-42.5 -75t-15.5 -101.5q0 -58 16 -102.5t43.5 -75
t64 -46t78.5 -15.5q36 0 63 9.5t46 25.5t31 36t20 41h138q-27 -108 -104 -168t-195 -60zM326 884h80l130 -154h-108l-62 71l-61 -71h-109z" />
    <glyph glyph-name="ccircumflex" unicode="&#x109;" horiz-adv-x="563" 
d="M294 -12q-53 0 -100.5 20t-83.5 56t-57 85t-21 108q0 58 21 108t57 86t83.5 56.5t100.5 20.5q45 0 84.5 -13.5t71 -37.5t53 -58.5t31.5 -76.5h-131q-11 35 -40 54.5t-69 19.5q-27 0 -51 -11t-41.5 -31.5t-28 -50.5t-10.5 -67t10.5 -66t28 -49t41.5 -30.5t51 -10.5
q45 0 72 20.5t38 53.5h132q-10 -42 -31.5 -76.5t-52.5 -58.5t-71 -37.5t-87 -13.5zM245 747h80l130 -154h-108l-62 71l-61 -71h-109z" />
    <glyph glyph-name="Ccaron" unicode="&#x10c;" horiz-adv-x="698" 
d="M370 -12q-72 0 -133.5 27.5t-106.5 75t-70.5 112.5t-25.5 140t25.5 139.5t70.5 112t106 75t131 27.5q119 0 197 -60.5t104 -165.5h-137q-10 23 -22.5 43t-31.5 35t-45.5 23.5t-63.5 8.5q-41 0 -77.5 -15.5t-63.5 -46t-42.5 -75t-15.5 -101.5q0 -58 16 -102.5t43.5 -75
t64 -46t78.5 -15.5q36 0 63 9.5t46 25.5t31 36t20 41h138q-27 -108 -104 -168t-195 -60zM201 881h108l62 -71l61 71h109l-130 -154h-80z" />
    <glyph glyph-name="ccaron" unicode="&#x10d;" horiz-adv-x="563" 
d="M294 -12q-53 0 -100.5 20t-83.5 56t-57 85t-21 108q0 58 21 108t57 86t83.5 56.5t100.5 20.5q45 0 84.5 -13.5t71 -37.5t53 -58.5t31.5 -76.5h-131q-11 35 -40 54.5t-69 19.5q-27 0 -51 -11t-41.5 -31.5t-28 -50.5t-10.5 -67t10.5 -66t28 -49t41.5 -30.5t51 -10.5
q45 0 72 20.5t38 53.5h132q-10 -42 -31.5 -76.5t-52.5 -58.5t-71 -37.5t-87 -13.5zM120 744h108l62 -71l61 71h109l-130 -154h-80z" />
    <glyph glyph-name="Dcaron" unicode="&#x10e;" horiz-adv-x="664" 
d="M65 680h244q73 0 132.5 -23.5t101.5 -67.5t64.5 -107t22.5 -142q0 -78 -23 -141t-65.5 -107t-101.5 -68t-131 -24h-244v680zM309 119q60 0 96.5 23t57 57t27.5 72.5t7 69.5q0 37 -8 76.5t-29 71.5t-57.5 52.5t-93.5 20.5h-115v-443h115zM124 881h108l62 -71l61 71h109
l-130 -154h-80z" />
    <glyph glyph-name="dcaron" unicode="&#x10f;" horiz-adv-x="698" 
d="M268 -12q-49 0 -92 20t-75 56t-50.5 85t-18.5 108q0 58 19 108t51.5 86t75.5 56.5t90 20.5q61 0 101 -27t59 -60v303h126v-744h-122v81q-20 -40 -63 -66.5t-101 -26.5zM295 100q27 0 51.5 10.5t42.5 30.5t28.5 49t10.5 66t-10.5 67t-28.5 50.5t-42.5 31.5t-51.5 11
t-51.5 -11t-42.5 -31.5t-28.5 -50.5t-10.5 -67t10.5 -66t28.5 -49t42.5 -30.5t51.5 -10.5zM603 539q31 0 47 16.5t16 45.5v9h-63v134h135v-142q0 -63 -37.5 -95t-97.5 -32v64z" />
    <glyph glyph-name="Dcroat" unicode="&#x110;" horiz-adv-x="674" 
d="M7 404h68v276h244q73 0 132.5 -23.5t101.5 -67.5t64.5 -107t22.5 -142q0 -78 -23 -141t-65.5 -107t-101.5 -68t-131 -24h-244v285h-68v119zM319 119q60 0 96.5 23t57 57t27.5 72.5t7 69.5q0 37 -8 76.5t-29 71.5t-57.5 52.5t-93.5 20.5h-115v-158h170v-119h-170v-166h115
z" />
    <glyph glyph-name="dcroat" unicode="&#x111;" horiz-adv-x="616" 
d="M318 671h110v73h126v-73h59v-98h-59v-573h-122v81q-20 -40 -63 -66.5t-101 -26.5q-49 0 -92 20t-75 56t-50.5 85t-18.5 108q0 58 19 108t51.5 86t75.5 56.5t90 20.5q61 0 101 -27t59 -60v132h-110v98zM295 100q27 0 51.5 10.5t42.5 30.5t28.5 49t10.5 66t-10.5 67
t-28.5 50.5t-42.5 31.5t-51.5 11t-51.5 -11t-42.5 -31.5t-28.5 -50.5t-10.5 -67t10.5 -66t28.5 -49t42.5 -30.5t51.5 -10.5z" />
    <glyph glyph-name="Emacron" unicode="&#x112;" horiz-adv-x="585" 
d="M65 680h477v-118h-348v-148h294v-119h-294v-176h355v-119h-484v680zM165 829h263v-87h-263v87z" />
    <glyph glyph-name="emacron" unicode="&#x113;" horiz-adv-x="584" 
d="M163 217q9 -59 46 -88t94 -29q73 0 102 48h135q-23 -78 -85.5 -119t-151.5 -41q-57 0 -106 20t-86 56t-58 85t-21 108q0 58 20.5 108t55.5 86t83 56.5t102 20.5q61 0 111.5 -24t85.5 -65.5t51.5 -98.5t9.5 -123h-388zM293 418q-45 0 -80 -29t-47 -82h253q-10 54 -43 82.5
t-83 28.5zM155 692h263v-87h-263v87z" />
    <glyph glyph-name="Edotaccent" unicode="&#x116;" horiz-adv-x="585" 
d="M65 680h477v-118h-348v-148h294v-119h-294v-176h355v-119h-484v680zM237 844h122v-114h-122v114z" />
    <glyph glyph-name="edotaccent" unicode="&#x117;" horiz-adv-x="584" 
d="M163 217q9 -59 46 -88t94 -29q73 0 102 48h135q-23 -78 -85.5 -119t-151.5 -41q-57 0 -106 20t-86 56t-58 85t-21 108q0 58 20.5 108t55.5 86t83 56.5t102 20.5q61 0 111.5 -24t85.5 -65.5t51.5 -98.5t9.5 -123h-388zM293 418q-45 0 -80 -29t-47 -82h253q-10 54 -43 82.5
t-83 28.5zM227 707h122v-114h-122v114z" />
    <glyph glyph-name="Eogonek" unicode="&#x118;" horiz-adv-x="585" 
d="M65 680h477v-118h-348v-148h294v-119h-294v-176h355v-119h-19q-41 -33 -67.5 -69t-26.5 -68q0 -19 9 -27.5t23 -8.5q30 0 40 22h76q-11 -38 -40 -61.5t-77 -23.5q-23 0 -44 6t-38 18.5t-27 30.5t-10 42q0 23 10.5 44t27 38.5t37 31.5t39.5 25h-397v680z" />
    <glyph glyph-name="eogonek" unicode="&#x119;" horiz-adv-x="584" 
d="M163 217q9 -59 46 -88t94 -29q73 0 102 48h135q-20 -68 -71 -108t-123 -49q-36 -32 -59 -65.5t-23 -62.5q0 -19 9 -27.5t23 -8.5q30 0 40 22h76q-11 -38 -41 -61.5t-84 -23.5q-45 0 -78 24.5t-33 72.5q0 21 8.5 39.5t22 35t30.5 30t35 24.5q-51 5 -95 26.5t-76 57
t-50.5 82t-18.5 101.5q0 58 20.5 108t55.5 86t83 56.5t102 20.5q61 0 111.5 -24t85.5 -65.5t51.5 -98.5t9.5 -123h-388zM293 418q-45 0 -80 -29t-47 -82h253q-10 54 -43 82.5t-83 28.5z" />
    <glyph glyph-name="Ecaron" unicode="&#x11a;" horiz-adv-x="585" 
d="M65 680h477v-118h-348v-148h294v-119h-294v-176h355v-119h-484v680zM130 881h108l62 -71l61 71h109l-130 -154h-80z" />
    <glyph glyph-name="ecaron" unicode="&#x11b;" horiz-adv-x="584" 
d="M163 217q9 -59 46 -88t94 -29q73 0 102 48h135q-23 -78 -85.5 -119t-151.5 -41q-57 0 -106 20t-86 56t-58 85t-21 108q0 58 20.5 108t55.5 86t83 56.5t102 20.5q61 0 111.5 -24t85.5 -65.5t51.5 -98.5t9.5 -123h-388zM293 418q-45 0 -80 -29t-47 -82h253q-10 54 -43 82.5
t-83 28.5zM120 744h108l62 -71l61 71h109l-130 -154h-80z" />
    <glyph glyph-name="Gcircumflex" unicode="&#x11c;" horiz-adv-x="737" 
d="M363 -12q-69 0 -129.5 27.5t-104.5 75t-69.5 112.5t-25.5 140t25 139.5t70 112t106.5 75t133.5 27.5q61 0 111 -16t88.5 -44.5t64 -68.5t39.5 -87h-139q-17 42 -59 71t-105 29q-41 0 -77.5 -15.5t-64 -46t-43.5 -75t-16 -101.5q0 -58 15.5 -103t42.5 -75.5t63.5 -46.5
t78.5 -16q44 0 78 12.5t58.5 33.5t39.5 48.5t21 58.5h-182v114h303v-369h-120v88q-25 -42 -78 -71t-125 -29zM327 884h80l130 -154h-108l-62 71l-61 -71h-109z" />
    <glyph glyph-name="gcircumflex" unicode="&#x11d;" horiz-adv-x="616" 
d="M295 -222q-60 0 -106 15t-77.5 39t-49 55.5t-20.5 64.5h137q8 -26 36.5 -44.5t79.5 -18.5q66 0 99.5 38.5t33.5 111.5v43q-20 -35 -61 -60.5t-99 -25.5q-49 0 -92 19.5t-75 55t-50.5 84t-18.5 106.5t19 107t51.5 84.5t75.5 55.5t90 20q61 0 102 -27.5t62 -65.5v80h122
v-474q0 -132 -69.5 -197.5t-189.5 -65.5zM295 108q27 0 51.5 10t42.5 29.5t28.5 48t10.5 64.5q0 37 -10.5 66t-28.5 49t-42.5 30.5t-51.5 10.5t-51.5 -10.5t-42.5 -30.5t-28.5 -49t-10.5 -66q0 -36 10.5 -64.5t28.5 -48t42.5 -29.5t51.5 -10zM250 748h80l130 -154h-108
l-62 71l-61 -71h-109z" />
    <glyph glyph-name="Gbreve" unicode="&#x11e;" horiz-adv-x="737" 
d="M363 -12q-69 0 -129.5 27.5t-104.5 75t-69.5 112.5t-25.5 140t25 139.5t70 112t106.5 75t133.5 27.5q61 0 111 -16t88.5 -44.5t64 -68.5t39.5 -87h-139q-17 42 -59 71t-105 29q-41 0 -77.5 -15.5t-64 -46t-43.5 -75t-16 -101.5q0 -58 15.5 -103t42.5 -75.5t63.5 -46.5
t78.5 -16q44 0 78 12.5t58.5 33.5t39.5 48.5t21 58.5h-182v114h303v-369h-120v88q-25 -42 -78 -71t-125 -29zM370 728q-33 0 -60 11.5t-45.5 31.5t-29.5 45.5t-13 54.5h73q6 -25 23 -39.5t52 -14.5t52 15t23 39h73q-2 -29 -13 -54.5t-29.5 -45.5t-45.5 -31.5t-60 -11.5z" />
    <glyph glyph-name="gbreve" unicode="&#x11f;" horiz-adv-x="616" 
d="M295 -222q-60 0 -106 15t-77.5 39t-49 55.5t-20.5 64.5h137q8 -26 36.5 -44.5t79.5 -18.5q66 0 99.5 38.5t33.5 111.5v43q-20 -35 -61 -60.5t-99 -25.5q-49 0 -92 19.5t-75 55t-50.5 84t-18.5 106.5t19 107t51.5 84.5t75.5 55.5t90 20q61 0 102 -27.5t62 -65.5v80h122
v-474q0 -132 -69.5 -197.5t-189.5 -65.5zM295 108q27 0 51.5 10t42.5 29.5t28.5 48t10.5 64.5q0 37 -10.5 66t-28.5 49t-42.5 30.5t-51.5 10.5t-51.5 -10.5t-42.5 -30.5t-28.5 -49t-10.5 -66q0 -36 10.5 -64.5t28.5 -48t42.5 -29.5t51.5 -10zM293 592q-33 0 -60 11.5
t-45.5 31.5t-29.5 45.5t-13 54.5h73q6 -25 23 -39.5t52 -14.5t52 15t23 39h73q-2 -29 -13 -54.5t-29.5 -45.5t-45.5 -31.5t-60 -11.5z" />
    <glyph glyph-name="Gcommaaccent" unicode="&#x122;" horiz-adv-x="737" 
d="M363 -12q-69 0 -129.5 27.5t-104.5 75t-69.5 112.5t-25.5 140t25 139.5t70 112t106.5 75t133.5 27.5q61 0 111 -16t88.5 -44.5t64 -68.5t39.5 -87h-139q-17 42 -59 71t-105 29q-41 0 -77.5 -15.5t-64 -46t-43.5 -75t-16 -101.5q0 -58 15.5 -103t42.5 -75.5t63.5 -46.5
t78.5 -16q44 0 78 12.5t58.5 33.5t39.5 48.5t21 58.5h-182v114h303v-369h-120v88q-25 -42 -78 -71t-125 -29zM297 -247q31 0 47 16.5t16 45.5v9h-63v134h135v-142q0 -63 -37.5 -95t-97.5 -32v64z" />
    <glyph glyph-name="gcommaaccent" unicode="&#x123;" horiz-adv-x="616" 
d="M295 -222q-60 0 -106 15t-77.5 39t-49 55.5t-20.5 64.5h137q8 -26 36.5 -44.5t79.5 -18.5q66 0 99.5 38.5t33.5 111.5v43q-20 -35 -61 -60.5t-99 -25.5q-49 0 -92 19.5t-75 55t-50.5 84t-18.5 106.5t19 107t51.5 84.5t75.5 55.5t90 20q61 0 102 -27.5t62 -65.5v80h122
v-474q0 -132 -69.5 -197.5t-189.5 -65.5zM295 108q27 0 51.5 10t42.5 29.5t28.5 48t10.5 64.5q0 37 -10.5 66t-28.5 49t-42.5 30.5t-51.5 10.5t-51.5 -10.5t-42.5 -30.5t-28.5 -49t-10.5 -66q0 -36 10.5 -64.5t28.5 -48t42.5 -29.5t51.5 -10zM353 758q-31 0 -47 -16.5
t-16 -45.5v-9h63v-134h-135v142q0 63 37.5 95t97.5 32v-64z" />
    <glyph glyph-name="Hcircumflex" unicode="&#x124;" horiz-adv-x="680" 
d="M65 680h130v-274h290v274h130v-680h-130v289h-290v-289h-130v680zM290 884h80l130 -154h-108l-62 71l-61 -71h-109z" />
    <glyph glyph-name="hcircumflex" unicode="&#x125;" horiz-adv-x="575" 
d="M62 744h126v-303q18 40 57 63.5t87 23.5q86 0 135 -59.5t49 -165.5v-303h-126v303q0 47 -22.5 78t-75.5 31q-51 0 -77.5 -30.5t-26.5 -78.5v-303h-126v744zM238 927h80l130 -154h-108l-62 71l-61 -71h-109z" />
    <glyph glyph-name="Imacron" unicode="&#x12a;" horiz-adv-x="266" 
d="M68 680h130v-680h-130v680zM0 829h263v-87h-263v87z" />
    <glyph glyph-name="imacron" unicode="&#x12b;" horiz-adv-x="254" 
d="M64 515h126v-515h-126v515zM-6 692h263v-87h-263v87z" />
    <glyph glyph-name="Iogonek" unicode="&#x12e;" horiz-adv-x="266" 
d="M68 680h130v-680h4q-41 -33 -67.5 -69t-26.5 -68q0 -19 9 -27.5t23 -8.5q30 0 40 22h76q-11 -38 -40 -61.5t-77 -23.5q-23 0 -44 6t-38 18.5t-27 30.5t-10 42q0 23 10.5 44t27 38.5t37 31.5t39.5 25h-66v680z" />
    <glyph glyph-name="iogonek" unicode="&#x12f;" horiz-adv-x="254" 
d="M64 515h126v-515h-2q-41 -33 -67.5 -69t-26.5 -68q0 -19 9 -27.5t23 -8.5q30 0 40 22h76q-11 -38 -40 -61.5t-77 -23.5q-23 0 -44 6t-38 18.5t-27 30.5t-10 42q0 23 10.5 44t27 38.5t37 31.5t39.5 25h-56v515zM61 714h132v-125h-132v125z" />
    <glyph glyph-name="Idotaccent" unicode="&#x130;" horiz-adv-x="266" 
d="M68 680h130v-680h-130v680zM72 844h122v-114h-122v114z" />
    <glyph glyph-name="dotlessi" unicode="&#x131;" horiz-adv-x="254" 
d="M64 515h126v-515h-126v515z" />
    <glyph glyph-name="Jcircumflex" unicode="&#x134;" horiz-adv-x="521" 
d="M244 -10q-51 0 -92.5 15t-71 43t-45.5 67.5t-16 88.5v37h129v-41q0 -38 23 -65t71 -27q47 0 68.5 27.5t21.5 66.5v478h131v-474q0 -48 -15 -87.5t-43.5 -68t-69 -44.5t-91.5 -16zM356 884h80l130 -154h-108l-62 71l-61 -71h-109z" />
    <glyph glyph-name="jcircumflex" unicode="&#x135;" horiz-adv-x="254" 
d="M-30 -102h17q32 0 54.5 16t22.5 56v545h126v-546q0 -47 -15.5 -80.5t-42 -55t-63 -32t-78.5 -10.5h-21v107zM84 747h80l130 -154h-108l-62 71l-61 -71h-109z" />
    <glyph glyph-name="Kcommaaccent" unicode="&#x136;" horiz-adv-x="637" 
d="M267 299l-72 -77v-222h-130v680h130v-296l269 296h157l-261 -281l269 -399h-159zM246 -247q31 0 47 16.5t16 45.5v9h-63v134h135v-142q0 -63 -37.5 -95t-97.5 -32v64z" />
    <glyph glyph-name="kcommaaccent" unicode="&#x137;" horiz-adv-x="541" 
d="M250 216l-62 -68v-148h-126v744h126v-441l189 212h146l-191 -209l200 -306h-143zM203 -247q31 0 47 16.5t16 45.5v9h-63v134h135v-142q0 -63 -37.5 -95t-97.5 -32v64z" />
    <glyph glyph-name="Lacute" unicode="&#x139;" horiz-adv-x="539" 
d="M65 680h130v-563h319v-117h-449v680zM129 877h165l-123 -147h-95z" />
    <glyph glyph-name="lacute" unicode="&#x13a;" horiz-adv-x="254" 
d="M64 744h126v-744h-126v744zM127 920h165l-123 -147h-95z" />
    <glyph glyph-name="Lcommaaccent" unicode="&#x13b;" horiz-adv-x="539" 
d="M65 680h130v-563h319v-117h-449v680zM204 -247q31 0 47 16.5t16 45.5v9h-63v134h135v-142q0 -63 -37.5 -95t-97.5 -32v64z" />
    <glyph glyph-name="lcommaaccent" unicode="&#x13c;" horiz-adv-x="254" 
d="M64 744h126v-744h-126v744zM55 -287q31 0 47 16.5t16 45.5v9h-63v134h135v-142q0 -63 -37.5 -95t-97.5 -32v64z" />
    <glyph glyph-name="Lcaron" unicode="&#x13d;" horiz-adv-x="539" 
d="M65 680h130v-563h319v-117h-449v680zM366 475q31 0 47 16.5t16 45.5v9h-63v134h135v-142q0 -63 -37.5 -95t-97.5 -32v64z" />
    <glyph glyph-name="lcaron" unicode="&#x13e;" horiz-adv-x="334" 
d="M239 539q31 0 47 16.5t16 45.5v9h-63v134h135v-142q0 -63 -37.5 -95t-97.5 -32v64zM64 744h126v-744h-126v744z" />
    <glyph glyph-name="Lslash" unicode="&#x141;" horiz-adv-x="559" 
d="M17 286l68 32v362h130v-301l159 76v-102l-159 -76v-160h319v-117h-449v216l-68 -32v102z" />
    <glyph glyph-name="lslash" unicode="&#x142;" horiz-adv-x="294" 
d="M12 325l72 39v380h126v-310l82 45v-94l-82 -45v-340h-126v270l-72 -39v94z" />
    <glyph glyph-name="Nacute" unicode="&#x143;" horiz-adv-x="682" 
d="M65 680h147l285 -484v484h120v-680h-146l-286 484v-484h-120v680zM344 877h165l-123 -147h-95z" />
    <glyph glyph-name="nacute" unicode="&#x144;" horiz-adv-x="575" 
d="M62 515h122v-81q18 46 59 70t89 24q86 0 135 -59.5t49 -165.5v-303h-126v303q0 47 -22.5 78t-75.5 31q-51 0 -77.5 -30.5t-26.5 -78.5v-303h-126v515zM287 740h165l-123 -147h-95z" />
    <glyph glyph-name="Ncommaaccent" unicode="&#x145;" horiz-adv-x="682" 
d="M65 680h147l285 -484v484h120v-680h-146l-286 484v-484h-120v680zM251 -247q31 0 47 16.5t16 45.5v9h-63v134h135v-142q0 -63 -37.5 -95t-97.5 -32v64z" />
    <glyph glyph-name="ncommaaccent" unicode="&#x146;" horiz-adv-x="575" 
d="M62 515h122v-81q18 46 59 70t89 24q86 0 135 -59.5t49 -165.5v-303h-126v303q0 47 -22.5 78t-75.5 31q-51 0 -77.5 -30.5t-26.5 -78.5v-303h-126v515zM216 -247q31 0 47 16.5t16 45.5v9h-63v134h135v-142q0 -63 -37.5 -95t-97.5 -32v64z" />
    <glyph glyph-name="Ncaron" unicode="&#x147;" horiz-adv-x="682" 
d="M65 680h147l285 -484v484h120v-680h-146l-286 484v-484h-120v680zM176 881h108l62 -71l61 71h109l-130 -154h-80z" />
    <glyph glyph-name="ncaron" unicode="&#x148;" horiz-adv-x="575" 
d="M62 515h122v-81q18 46 59 70t89 24q86 0 135 -59.5t49 -165.5v-303h-126v303q0 47 -22.5 78t-75.5 31q-51 0 -77.5 -30.5t-26.5 -78.5v-303h-126v515zM119 744h108l62 -71l61 71h109l-130 -154h-80z" />
    <glyph glyph-name="Omacron" unicode="&#x14c;" horiz-adv-x="734" 
d="M368 -12q-73 0 -134 27.5t-105.5 75t-69.5 112.5t-25 140t25 139.5t69.5 112t105.5 75t134 27.5q72 0 133 -27.5t105 -75t69 -112t25 -139.5t-25 -140t-69 -112.5t-105 -75t-133 -27.5zM368 104q41 0 77 15.5t63 46t42.5 75t15.5 102.5q0 57 -15.5 101.5t-42.5 75t-63 46
t-77 15.5q-42 0 -78.5 -15.5t-63.5 -46t-42.5 -75t-15.5 -101.5q0 -58 15.5 -102.5t42.5 -75t63.5 -46t78.5 -15.5zM235 829h263v-87h-263v87z" />
    <glyph glyph-name="omacron" unicode="&#x14d;" horiz-adv-x="590" 
d="M295 -12q-54 0 -101.5 20t-83.5 56t-57 85t-21 108q0 58 21 108t57 86t83.5 56.5t101.5 20.5t101.5 -20.5t83.5 -56.5t57 -86t21 -108q0 -59 -21 -108t-57 -85t-83.5 -56t-101.5 -20zM295 100q27 0 51.5 10.5t42.5 30.5t28.5 49t10.5 66t-10.5 67t-28.5 50.5t-42.5 31.5
t-51.5 11t-51.5 -11t-42.5 -31.5t-28.5 -50.5t-10.5 -67t10.5 -66t28.5 -49t42.5 -30.5t51.5 -10.5zM162 692h263v-87h-263v87z" />
    <glyph glyph-name="Ohungarumlaut" unicode="&#x150;" horiz-adv-x="734" 
d="M368 -12q-73 0 -134 27.5t-105.5 75t-69.5 112.5t-25 140t25 139.5t69.5 112t105.5 75t134 27.5q72 0 133 -27.5t105 -75t69 -112t25 -139.5t-25 -140t-69 -112.5t-105 -75t-133 -27.5zM368 104q41 0 77 15.5t63 46t42.5 75t15.5 102.5q0 57 -15.5 101.5t-42.5 75t-63 46
t-77 15.5q-42 0 -78.5 -15.5t-63.5 -46t-42.5 -75t-15.5 -101.5q0 -58 15.5 -102.5t42.5 -75t63.5 -46t78.5 -15.5zM463 877h133l-99 -147h-88zM279 877h133l-99 -147h-88z" />
    <glyph glyph-name="ohungarumlaut" unicode="&#x151;" horiz-adv-x="590" 
d="M295 -12q-54 0 -101.5 20t-83.5 56t-57 85t-21 108q0 58 21 108t57 86t83.5 56.5t101.5 20.5t101.5 -20.5t83.5 -56.5t57 -86t21 -108q0 -59 -21 -108t-57 -85t-83.5 -56t-101.5 -20zM295 100q27 0 51.5 10.5t42.5 30.5t28.5 49t10.5 66t-10.5 67t-28.5 50.5t-42.5 31.5
t-51.5 11t-51.5 -11t-42.5 -31.5t-28.5 -50.5t-10.5 -67t10.5 -66t28.5 -49t42.5 -30.5t51.5 -10.5zM390 740h133l-99 -147h-88zM206 740h133l-99 -147h-88z" />
    <glyph glyph-name="OE" unicode="&#x152;" horiz-adv-x="1084" 
d="M570 70q-37 -39 -87.5 -60.5t-114.5 -21.5q-73 0 -134 27.5t-105.5 75t-69.5 112.5t-25 140t25 139.5t69.5 112t105.5 75t134 27.5q64 0 114.5 -22t87.5 -60v65h471v-118h-348v-148h294v-119h-294v-176h355v-119h-478v70zM368 104q41 0 77 15.5t63 46t42.5 75t15.5 102.5
q0 57 -15.5 101.5t-42.5 75t-63 46t-77 15.5q-42 0 -78.5 -15.5t-63.5 -46t-42.5 -75t-15.5 -101.5q0 -58 15.5 -102.5t42.5 -75t63.5 -46t78.5 -15.5z" />
    <glyph glyph-name="oe" unicode="&#x153;" horiz-adv-x="981" 
d="M295 -12q-54 0 -101.5 20t-83.5 56t-57 85t-21 108q0 58 21 108t57 86t83.5 56.5t101.5 20.5q61 0 112 -27t86 -78q34 51 84.5 78t112.5 27q61 0 111.5 -24t85.5 -66t51.5 -100t9.5 -126h-387q11 -56 47 -84t92 -28q35 0 63.5 15.5t39.5 44.5h135q-22 -82 -85.5 -127
t-152.5 -45q-65 0 -118 27t-88 78q-35 -51 -86 -78t-113 -27zM295 100q27 0 51.5 10.5t42.5 30.5t28.5 49t10.5 66t-10.5 67t-28.5 50.5t-42.5 31.5t-51.5 11t-51.5 -11t-42.5 -31.5t-28.5 -50.5t-10.5 -67t10.5 -66t28.5 -49t42.5 -30.5t51.5 -10.5zM816 308
q-10 53 -43 81.5t-83 28.5q-45 0 -79.5 -28.5t-47.5 -81.5h253z" />
    <glyph glyph-name="Racute" unicode="&#x154;" horiz-adv-x="656" 
d="M65 680h300q107 0 170 -53t63 -150q0 -60 -28 -96.5t-79 -56.5q21 -10 37 -22t27.5 -29t18 -40t9.5 -56l8 -90q2 -27 9.5 -49t15.5 -38h-131q-8 14 -14.5 32t-8.5 47l-8 99q-4 46 -23.5 67t-64.5 21h-172v-266h-129v680zM368 377q100 0 100 93q0 47 -26 68.5t-77 21.5
h-171v-183h174zM308 877h165l-123 -147h-95z" />
    <glyph glyph-name="racute" unicode="&#x155;" horiz-adv-x="390" 
d="M62 515h126v-91q13 31 34.5 51t47 31t52 14t50.5 1v-126q-87 13 -132.5 -22.5t-45.5 -106.5v-266h-132v515zM218 740h165l-123 -147h-95z" />
    <glyph glyph-name="Rcommaaccent" unicode="&#x156;" horiz-adv-x="656" 
d="M65 680h300q107 0 170 -53t63 -150q0 -60 -28 -96.5t-79 -56.5q21 -10 37 -22t27.5 -29t18 -40t9.5 -56l8 -90q2 -27 9.5 -49t15.5 -38h-131q-8 14 -14.5 32t-8.5 47l-8 99q-4 46 -23.5 67t-64.5 21h-172v-266h-129v680zM368 377q100 0 100 93q0 47 -26 68.5t-77 21.5
h-171v-183h174zM262 -247q31 0 47 16.5t16 45.5v9h-63v134h135v-142q0 -63 -37.5 -95t-97.5 -32v64z" />
    <glyph glyph-name="rcommaaccent" unicode="&#x157;" horiz-adv-x="390" 
d="M62 515h126v-91q13 31 34.5 51t47 31t52 14t50.5 1v-126q-87 13 -132.5 -22.5t-45.5 -106.5v-266h-132v515zM52 -247q31 0 47 16.5t16 45.5v9h-63v134h135v-142q0 -63 -37.5 -95t-97.5 -32v64z" />
    <glyph glyph-name="Rcaron" unicode="&#x158;" horiz-adv-x="656" 
d="M65 680h300q107 0 170 -53t63 -150q0 -60 -28 -96.5t-79 -56.5q21 -10 37 -22t27.5 -29t18 -40t9.5 -56l8 -90q2 -27 9.5 -49t15.5 -38h-131q-8 14 -14.5 32t-8.5 47l-8 99q-4 46 -23.5 67t-64.5 21h-172v-266h-129v680zM368 377q100 0 100 93q0 47 -26 68.5t-77 21.5
h-171v-183h174zM140 881h108l62 -71l61 71h109l-130 -154h-80z" />
    <glyph glyph-name="rcaron" unicode="&#x159;" horiz-adv-x="390" 
d="M62 515h126v-91q13 31 34.5 51t47 31t52 14t50.5 1v-126q-87 13 -132.5 -22.5t-45.5 -106.5v-266h-132v515zM50 744h108l62 -71l61 71h109l-130 -154h-80z" />
    <glyph glyph-name="Sacute" unicode="&#x15a;" horiz-adv-x="641" 
d="M333 -12q-60 0 -113 15.5t-93.5 45t-65.5 73t-29 99.5h130q6 -54 46.5 -85.5t115.5 -31.5q31 0 57 4.5t45 15t30 26.5t11 40q0 25 -13 40.5t-37 26.5t-59 19.5t-78 17.5q-40 9 -80 21t-72 34.5t-52 58t-20 90.5q0 43 17 80t49.5 63t78.5 41t103 15q68 0 117 -19
t81.5 -49.5t48.5 -68.5t19 -76h-129q-12 97 -137 97q-54 0 -88.5 -19.5t-34.5 -57.5q0 -21 9.5 -35t29 -23.5t49 -17t70.5 -15.5q44 -9 89.5 -21.5t82 -36t60 -62t23.5 -99.5q0 -97 -69 -151.5t-192 -54.5zM307 877h165l-123 -147h-95z" />
    <glyph glyph-name="sacute" unicode="&#x15b;" horiz-adv-x="523" 
d="M267 -12q-56 0 -100.5 13t-75.5 36t-48 54.5t-19 67.5h126q8 -33 38 -49.5t79 -16.5q45 0 73 14.5t28 39.5q0 15 -6.5 24t-21.5 15t-38.5 10.5t-57.5 10.5q-36 6 -72.5 14t-66.5 24.5t-48.5 45.5t-18.5 77q0 32 13.5 61t40 51t66.5 35t94 13q95 0 151.5 -42t67.5 -112
h-126q-6 18 -28 34t-70 16q-44 0 -65.5 -14t-21.5 -35q0 -26 26 -35t83 -19q36 -6 75 -14t71.5 -25t53.5 -47t21 -82q0 -38 -15.5 -68t-44.5 -52t-70 -33.5t-93 -11.5zM243 740h165l-123 -147h-95z" />
    <glyph glyph-name="Scircumflex" unicode="&#x15c;" horiz-adv-x="641" 
d="M333 -12q-60 0 -113 15.5t-93.5 45t-65.5 73t-29 99.5h130q6 -54 46.5 -85.5t115.5 -31.5q31 0 57 4.5t45 15t30 26.5t11 40q0 25 -13 40.5t-37 26.5t-59 19.5t-78 17.5q-40 9 -80 21t-72 34.5t-52 58t-20 90.5q0 43 17 80t49.5 63t78.5 41t103 15q68 0 117 -19
t81.5 -49.5t48.5 -68.5t19 -76h-129q-12 97 -137 97q-54 0 -88.5 -19.5t-34.5 -57.5q0 -21 9.5 -35t29 -23.5t49 -17t70.5 -15.5q44 -9 89.5 -21.5t82 -36t60 -62t23.5 -99.5q0 -97 -69 -151.5t-192 -54.5zM264 884h80l130 -154h-108l-62 71l-61 -71h-109z" />
    <glyph glyph-name="scircumflex" unicode="&#x15d;" horiz-adv-x="523" 
d="M267 -12q-56 0 -100.5 13t-75.5 36t-48 54.5t-19 67.5h126q8 -33 38 -49.5t79 -16.5q45 0 73 14.5t28 39.5q0 15 -6.5 24t-21.5 15t-38.5 10.5t-57.5 10.5q-36 6 -72.5 14t-66.5 24.5t-48.5 45.5t-18.5 77q0 32 13.5 61t40 51t66.5 35t94 13q95 0 151.5 -42t67.5 -112
h-126q-6 18 -28 34t-70 16q-44 0 -65.5 -14t-21.5 -35q0 -26 26 -35t83 -19q36 -6 75 -14t71.5 -25t53.5 -47t21 -82q0 -38 -15.5 -68t-44.5 -52t-70 -33.5t-93 -11.5zM200 747h80l130 -154h-108l-62 71l-61 -71h-109z" />
    <glyph glyph-name="Scedilla" unicode="&#x15e;" horiz-adv-x="641" 
d="M594 194q0 -92 -61.5 -145t-171.5 -60l-31 -47q11 4 26 4q35 0 62 -23.5t27 -65.5q0 -23 -9.5 -40.5t-25.5 -29t-37 -17.5t-43 -6q-44 0 -76.5 21t-42.5 58h74q10 -22 42 -22q15 0 28 9t13 26q0 18 -12 27.5t-29 9.5q-14 0 -23 -4.5t-16 -11.5l-38 34l45 79
q-54 4 -100 21.5t-81 46.5t-56.5 70t-25.5 93h130q6 -54 46.5 -85.5t115.5 -31.5q31 0 57 4.5t45 15t30 26.5t11 40q0 25 -13 40.5t-37 26.5t-59 19.5t-78 17.5q-40 9 -80 21t-72 34.5t-52 58t-20 90.5q0 43 17 80t49.5 63t78.5 41t103 15q68 0 117 -19t81.5 -49.5
t48.5 -68.5t19 -76h-129q-12 97 -137 97q-54 0 -88.5 -19.5t-34.5 -57.5q0 -21 9.5 -35t29 -23.5t49 -17t70.5 -15.5q44 -9 89.5 -21.5t82 -36t60 -62t23.5 -99.5z" />
    <glyph glyph-name="Scedilla" unicode="&#xf6c1;" horiz-adv-x="641" 
d="M594 194q0 -92 -61.5 -145t-171.5 -60l-31 -47q11 4 26 4q35 0 62 -23.5t27 -65.5q0 -23 -9.5 -40.5t-25.5 -29t-37 -17.5t-43 -6q-44 0 -76.5 21t-42.5 58h74q10 -22 42 -22q15 0 28 9t13 26q0 18 -12 27.5t-29 9.5q-14 0 -23 -4.5t-16 -11.5l-38 34l45 79
q-54 4 -100 21.5t-81 46.5t-56.5 70t-25.5 93h130q6 -54 46.5 -85.5t115.5 -31.5q31 0 57 4.5t45 15t30 26.5t11 40q0 25 -13 40.5t-37 26.5t-59 19.5t-78 17.5q-40 9 -80 21t-72 34.5t-52 58t-20 90.5q0 43 17 80t49.5 63t78.5 41t103 15q68 0 117 -19t81.5 -49.5
t48.5 -68.5t19 -76h-129q-12 97 -137 97q-54 0 -88.5 -19.5t-34.5 -57.5q0 -21 9.5 -35t29 -23.5t49 -17t70.5 -15.5q44 -9 89.5 -21.5t82 -36t60 -62t23.5 -99.5z" />
    <glyph glyph-name="scedilla" unicode="&#x15f;" horiz-adv-x="523" 
d="M490 153q0 -69 -49 -112t-137 -51l-38 -48q11 4 26 4q35 0 62 -23.5t27 -65.5q0 -23 -9.5 -40.5t-25.5 -29t-37 -17.5t-43 -6q-44 0 -76.5 21t-42.5 58h74q10 -22 42 -22q15 0 28 9t13 26q0 18 -12 27.5t-29 9.5q-14 0 -23 -4.5t-16 -11.5l-38 34l50 78q-99 8 -154 55
t-58 115h126q8 -33 38 -49.5t79 -16.5q45 0 73 14.5t28 39.5q0 15 -6.5 24t-21.5 15t-38.5 10.5t-57.5 10.5q-36 6 -72.5 14t-66.5 24.5t-48.5 45.5t-18.5 77q0 32 13.5 61t40 51t66.5 35t94 13q95 0 151.5 -42t67.5 -112h-126q-6 18 -28 34t-70 16q-44 0 -65.5 -14
t-21.5 -35q0 -26 26 -35t83 -19q36 -6 75 -14t71.5 -25t53.5 -47t21 -82z" />
    <glyph glyph-name="scedilla" unicode="&#xf6c2;" horiz-adv-x="523" 
d="M490 153q0 -69 -49 -112t-137 -51l-38 -48q11 4 26 4q35 0 62 -23.5t27 -65.5q0 -23 -9.5 -40.5t-25.5 -29t-37 -17.5t-43 -6q-44 0 -76.5 21t-42.5 58h74q10 -22 42 -22q15 0 28 9t13 26q0 18 -12 27.5t-29 9.5q-14 0 -23 -4.5t-16 -11.5l-38 34l50 78q-99 8 -154 55
t-58 115h126q8 -33 38 -49.5t79 -16.5q45 0 73 14.5t28 39.5q0 15 -6.5 24t-21.5 15t-38.5 10.5t-57.5 10.5q-36 6 -72.5 14t-66.5 24.5t-48.5 45.5t-18.5 77q0 32 13.5 61t40 51t66.5 35t94 13q95 0 151.5 -42t67.5 -112h-126q-6 18 -28 34t-70 16q-44 0 -65.5 -14
t-21.5 -35q0 -26 26 -35t83 -19q36 -6 75 -14t71.5 -25t53.5 -47t21 -82z" />
    <glyph glyph-name="Scaron" unicode="&#x160;" horiz-adv-x="641" 
d="M333 -12q-60 0 -113 15.5t-93.5 45t-65.5 73t-29 99.5h130q6 -54 46.5 -85.5t115.5 -31.5q31 0 57 4.5t45 15t30 26.5t11 40q0 25 -13 40.5t-37 26.5t-59 19.5t-78 17.5q-40 9 -80 21t-72 34.5t-52 58t-20 90.5q0 43 17 80t49.5 63t78.5 41t103 15q68 0 117 -19
t81.5 -49.5t48.5 -68.5t19 -76h-129q-12 97 -137 97q-54 0 -88.5 -19.5t-34.5 -57.5q0 -21 9.5 -35t29 -23.5t49 -17t70.5 -15.5q44 -9 89.5 -21.5t82 -36t60 -62t23.5 -99.5q0 -97 -69 -151.5t-192 -54.5zM139 881h108l62 -71l61 71h109l-130 -154h-80z" />
    <glyph glyph-name="scaron" unicode="&#x161;" horiz-adv-x="523" 
d="M267 -12q-56 0 -100.5 13t-75.5 36t-48 54.5t-19 67.5h126q8 -33 38 -49.5t79 -16.5q45 0 73 14.5t28 39.5q0 15 -6.5 24t-21.5 15t-38.5 10.5t-57.5 10.5q-36 6 -72.5 14t-66.5 24.5t-48.5 45.5t-18.5 77q0 32 13.5 61t40 51t66.5 35t94 13q95 0 151.5 -42t67.5 -112
h-126q-6 18 -28 34t-70 16q-44 0 -65.5 -14t-21.5 -35q0 -26 26 -35t83 -19q36 -6 75 -14t71.5 -25t53.5 -47t21 -82q0 -38 -15.5 -68t-44.5 -52t-70 -33.5t-93 -11.5zM75 744h108l62 -71l61 71h109l-130 -154h-80z" />
    <glyph glyph-name="Tcommaaccent" unicode="&#x162;" horiz-adv-x="545" 
d="M208 563h-190v117h509v-117h-190v-563h-129v563zM200 -307q31 0 47 16.5t16 45.5v9h-63v134h135v-142q0 -63 -37.5 -95t-97.5 -32v64z" />
    <glyph glyph-name="Tcommaaccent" unicode="&#x21a;" horiz-adv-x="545" 
d="M208 563h-190v117h509v-117h-190v-563h-129v563zM200 -307q31 0 47 16.5t16 45.5v9h-63v134h135v-142q0 -63 -37.5 -95t-97.5 -32v64z" />
    <glyph glyph-name="tcommaaccent" unicode="&#x163;" horiz-adv-x="351" 
d="M275 -8q-94 0 -143.5 52t-49.5 156v209h-67v106h67v145h126v-145h112v-106h-112v-210q0 -50 20 -73t61 -23q9 0 18.5 1t18.5 3v-109q-11 -2 -24.5 -4t-26.5 -2zM138 -247q31 0 47 16.5t16 45.5v9h-63v134h135v-142q0 -63 -37.5 -95t-97.5 -32v64z" />
    <glyph glyph-name="tcommaaccent" unicode="&#x21b;" horiz-adv-x="351" 
d="M275 -8q-94 0 -143.5 52t-49.5 156v209h-67v106h67v145h126v-145h112v-106h-112v-210q0 -50 20 -73t61 -23q9 0 18.5 1t18.5 3v-109q-11 -2 -24.5 -4t-26.5 -2zM138 -247q31 0 47 16.5t16 45.5v9h-63v134h135v-142q0 -63 -37.5 -95t-97.5 -32v64z" />
    <glyph glyph-name="Tcaron" unicode="&#x164;" horiz-adv-x="545" 
d="M208 563h-190v117h509v-117h-190v-563h-129v563zM104 881h108l62 -71l61 71h109l-130 -154h-80z" />
    <glyph glyph-name="tcaron" unicode="&#x165;" horiz-adv-x="451" 
d="M356 539q31 0 47 16.5t16 45.5v9h-63v134h135v-142q0 -63 -37.5 -95t-97.5 -32v64zM275 -8q-94 0 -143.5 52t-49.5 156v209h-67v106h67v145h126v-145h112v-106h-112v-210q0 -50 20 -73t61 -23q9 0 18.5 1t18.5 3v-109q-11 -2 -24.5 -4t-26.5 -2z" />
    <glyph glyph-name="Umacron" unicode="&#x16a;" horiz-adv-x="643" 
d="M321 -12q-129 0 -195.5 73t-66.5 201v418h130v-422q0 -154 132 -154q133 0 133 154v422h130v-418q0 -128 -66.5 -201t-196.5 -73zM188 829h263v-87h-263v87z" />
    <glyph glyph-name="umacron" unicode="&#x16b;" horiz-adv-x="575" 
d="M243 -13q-86 0 -135 59.5t-49 165.5v303h126v-303q0 -47 22.5 -78t75.5 -31q51 0 77.5 30.5t26.5 78.5v303h126v-515h-122v81q-18 -46 -59 -70t-89 -24zM149 692h263v-87h-263v87z" />
    <glyph glyph-name="Ubreve" unicode="&#x16c;" horiz-adv-x="643" 
d="M321 -12q-129 0 -195.5 73t-66.5 201v418h130v-422q0 -154 132 -154q133 0 133 154v422h130v-418q0 -128 -66.5 -201t-196.5 -73zM321 728q-33 0 -60 11.5t-45.5 31.5t-29.5 45.5t-13 54.5h73q6 -25 23 -39.5t52 -14.5t52 15t23 39h73q-2 -29 -13 -54.5t-29.5 -45.5
t-45.5 -31.5t-60 -11.5z" />
    <glyph glyph-name="ubreve" unicode="&#x16d;" horiz-adv-x="575" 
d="M243 -13q-86 0 -135 59.5t-49 165.5v303h126v-303q0 -47 22.5 -78t75.5 -31q51 0 77.5 30.5t26.5 78.5v303h126v-515h-122v81q-18 -46 -59 -70t-89 -24zM282 591q-33 0 -60 11.5t-45.5 31.5t-29.5 45.5t-13 54.5h73q6 -25 23 -39.5t52 -14.5t52 15t23 39h73
q-2 -29 -13 -54.5t-29.5 -45.5t-45.5 -31.5t-60 -11.5z" />
    <glyph glyph-name="Uring" unicode="&#x16e;" horiz-adv-x="643" 
d="M321 -12q-129 0 -195.5 73t-66.5 201v418h130v-422q0 -154 132 -154q133 0 133 154v422h130v-418q0 -128 -66.5 -201t-196.5 -73zM321 722q-23 0 -42.5 8.5t-34.5 23t-23.5 33.5t-8.5 41t8.5 41.5t23.5 34t34.5 23t42.5 8.5q22 0 42 -8.5t35 -23t23.5 -34t8.5 -41.5
t-8.5 -41t-23.5 -33.5t-35 -23t-42 -8.5zM321 777q20 0 34 15t14 36t-14 36t-34 15t-34 -15t-14 -36t14 -36t34 -15z" />
    <glyph glyph-name="uring" unicode="&#x16f;" horiz-adv-x="575" 
d="M243 -13q-86 0 -135 59.5t-49 165.5v303h126v-303q0 -47 22.5 -78t75.5 -31q51 0 77.5 30.5t26.5 78.5v303h126v-515h-122v81q-18 -46 -59 -70t-89 -24zM282 585q-23 0 -42.5 8.5t-34.5 23t-23.5 33.5t-8.5 41t8.5 41.5t23.5 34t34.5 23t42.5 8.5q22 0 42 -8.5t35 -23
t23.5 -34t8.5 -41.5t-8.5 -41t-23.5 -33.5t-35 -23t-42 -8.5zM282 640q20 0 34 15t14 36t-14 36t-34 15t-34 -15t-14 -36t14 -36t34 -15z" />
    <glyph glyph-name="Uhungarumlaut" unicode="&#x170;" horiz-adv-x="643" 
d="M321 -12q-129 0 -195.5 73t-66.5 201v418h130v-422q0 -154 132 -154q133 0 133 154v422h130v-418q0 -128 -66.5 -201t-196.5 -73zM416 877h133l-99 -147h-88zM232 877h133l-99 -147h-88z" />
    <glyph glyph-name="uhungarumlaut" unicode="&#x171;" horiz-adv-x="575" 
d="M243 -13q-86 0 -135 59.5t-49 165.5v303h126v-303q0 -47 22.5 -78t75.5 -31q51 0 77.5 30.5t26.5 78.5v303h126v-515h-122v81q-18 -46 -59 -70t-89 -24zM377 740h133l-99 -147h-88zM193 740h133l-99 -147h-88z" />
    <glyph glyph-name="Uogonek" unicode="&#x172;" horiz-adv-x="643" 
d="M323 -236q-23 0 -44 6t-38 18.5t-27 30.5t-10 42q0 21 8 39.5t21.5 34.5t30.5 29.5t34 24.5q-118 7 -178.5 78.5t-60.5 194.5v418h130v-422q0 -154 132 -154q133 0 133 154v422h130v-418q0 -114 -52.5 -184.5t-155.5 -85.5q-37 -32 -60.5 -65.5t-23.5 -63.5
q0 -19 9 -27.5t23 -8.5q30 0 40 22h76q-11 -38 -40 -61.5t-77 -23.5z" />
    <glyph glyph-name="uogonek" unicode="&#x173;" horiz-adv-x="575" 
d="M437 -236q-23 0 -44 6t-38 18.5t-27 30.5t-10 42q0 23 10.5 44t27 38.5t37 31.5t39.5 25h-41v81q-18 -46 -59 -70t-89 -24q-86 0 -135 59.5t-49 165.5v303h126v-303q0 -47 22.5 -78t75.5 -31q51 0 77.5 30.5t26.5 78.5v303h126v-515h-13q-41 -33 -67.5 -69t-26.5 -68
q0 -19 9 -27.5t23 -8.5q30 0 40 22h76q-11 -38 -40 -61.5t-77 -23.5z" />
    <glyph glyph-name="Ydieresis" unicode="&#x178;" horiz-adv-x="593" 
d="M231 261l-228 419h145l149 -294l152 294h141l-228 -419v-261h-131v261zM331 844h122v-114h-122v114zM143 844h122v-114h-122v114z" />
    <glyph glyph-name="Zacute" unicode="&#x179;" horiz-adv-x="573" 
d="M26 112l349 451h-337v117h499v-111l-349 -452h358v-117h-520v112zM282 877h165l-123 -147h-95z" />
    <glyph glyph-name="zacute" unicode="&#x17a;" horiz-adv-x="482" 
d="M23 103l268 304h-257v108h416v-107l-265 -300h274v-108h-436v103zM235 740h165l-123 -147h-95z" />
    <glyph glyph-name="Zdotaccent" unicode="&#x17b;" horiz-adv-x="573" 
d="M26 112l349 451h-337v117h499v-111l-349 -452h358v-117h-520v112zM221 844h122v-114h-122v114z" />
    <glyph glyph-name="zdotaccent" unicode="&#x17c;" horiz-adv-x="482" 
d="M23 103l268 304h-257v108h416v-107l-265 -300h274v-108h-436v103zM174 707h122v-114h-122v114z" />
    <glyph glyph-name="Zcaron" unicode="&#x17d;" horiz-adv-x="573" 
d="M26 112l349 451h-337v117h499v-111l-349 -452h358v-117h-520v112zM114 881h108l62 -71l61 71h109l-130 -154h-80z" />
    <glyph glyph-name="zcaron" unicode="&#x17e;" horiz-adv-x="482" 
d="M23 103l268 304h-257v108h416v-107l-265 -300h274v-108h-436v103zM67 744h108l62 -71l61 71h109l-130 -154h-80z" />
    <glyph glyph-name="florin" unicode="&#x192;" horiz-adv-x="479" 
d="M71 395h93l28 136q18 87 70.5 126t124.5 39q47 0 85 -13l-20 -100q-14 4 -26.5 6t-24.5 2q-35 0 -56 -21.5t-33 -74.5l-21 -100h114v-85h-131l-67 -325q-15 -75 -64 -112.5t-121 -37.5q-19 0 -38.5 2.5t-40.5 8.5l20 100q25 -6 45 -6q37 0 53.5 19.5t25.5 62.5l59 288
h-75v85z" />
    <glyph glyph-name="Scommaaccent" unicode="&#x218;" horiz-adv-x="641" 
d="M333 -12q-60 0 -113 15.5t-93.5 45t-65.5 73t-29 99.5h130q6 -54 46.5 -85.5t115.5 -31.5q31 0 57 4.5t45 15t30 26.5t11 40q0 25 -13 40.5t-37 26.5t-59 19.5t-78 17.5q-40 9 -80 21t-72 34.5t-52 58t-20 90.5q0 43 17 80t49.5 63t78.5 41t103 15q68 0 117 -19
t81.5 -49.5t48.5 -68.5t19 -76h-129q-12 97 -137 97q-54 0 -88.5 -19.5t-34.5 -57.5q0 -21 9.5 -35t29 -23.5t49 -17t70.5 -15.5q44 -9 89.5 -21.5t82 -36t60 -62t23.5 -99.5q0 -97 -69 -151.5t-192 -54.5zM251 -247q31 0 47 16.5t16 45.5v9h-63v134h135v-142
q0 -63 -37.5 -95t-97.5 -32v64z" />
    <glyph glyph-name="scommaaccent" unicode="&#x219;" horiz-adv-x="523" 
d="M267 -12q-56 0 -100.5 13t-75.5 36t-48 54.5t-19 67.5h126q8 -33 38 -49.5t79 -16.5q45 0 73 14.5t28 39.5q0 15 -6.5 24t-21.5 15t-38.5 10.5t-57.5 10.5q-36 6 -72.5 14t-66.5 24.5t-48.5 45.5t-18.5 77q0 32 13.5 61t40 51t66.5 35t94 13q95 0 151.5 -42t67.5 -112
h-126q-6 18 -28 34t-70 16q-44 0 -65.5 -14t-21.5 -35q0 -26 26 -35t83 -19q36 -6 75 -14t71.5 -25t53.5 -47t21 -82q0 -38 -15.5 -68t-44.5 -52t-70 -33.5t-93 -11.5zM193 -247q31 0 47 16.5t16 45.5v9h-63v134h135v-142q0 -63 -37.5 -95t-97.5 -32v64z" />
    <glyph glyph-name="circumflex" unicode="&#x2c6;" horiz-adv-x="500" 
d="M207 747h80l130 -154h-108l-62 71l-61 -71h-109z" />
    <glyph glyph-name="caron" unicode="&#x2c7;" horiz-adv-x="500" 
d="M82 744h108l62 -71l61 71h109l-130 -154h-80z" />
    <glyph glyph-name="breve" unicode="&#x2d8;" horiz-adv-x="500" 
d="M250 591q-33 0 -60 11.5t-45.5 31.5t-29.5 45.5t-13 54.5h73q6 -25 23 -39.5t52 -14.5t52 15t23 39h73q-2 -29 -13 -54.5t-29.5 -45.5t-45.5 -31.5t-60 -11.5z" />
    <glyph glyph-name="dotaccent" unicode="&#x2d9;" horiz-adv-x="500" 
d="M189 707h122v-114h-122v114z" />
    <glyph glyph-name="ring" unicode="&#x2da;" horiz-adv-x="500" 
d="M250 585q-23 0 -42.5 8.5t-34.5 23t-23.5 33.5t-8.5 41t8.5 41.5t23.5 34t34.5 23t42.5 8.5q22 0 42 -8.5t35 -23t23.5 -34t8.5 -41.5t-8.5 -41t-23.5 -33.5t-35 -23t-42 -8.5zM250 640q20 0 34 15t14 36t-14 36t-34 15t-34 -15t-14 -36t14 -36t34 -15z" />
    <glyph glyph-name="ogonek" unicode="&#x2db;" horiz-adv-x="500" 
d="M266 -236q-23 0 -44 6t-38 18.5t-27 30.5t-10 42q0 23 10.5 44t27 38.5t37 31.5t39.5 25h68q-41 -33 -67.5 -69t-26.5 -68q0 -19 9 -27.5t23 -8.5q30 0 40 22h76q-11 -38 -40 -61.5t-77 -23.5z" />
    <glyph glyph-name="tilde" unicode="&#x2dc;" horiz-adv-x="500" 
d="M84 590q3 27 11 51t21.5 41.5t33 28t44.5 10.5q19 0 36 -6.5t31.5 -14.5t27.5 -14.5t25 -6.5q17 0 26 10.5t14 31.5h62q-3 -27 -10.5 -51t-21 -41.5t-31.5 -28t-42 -10.5q-19 0 -36.5 6.5t-32.5 14t-28.5 14t-25.5 6.5q-33 0 -42 -41h-62v0z" />
    <glyph glyph-name="hungarumlaut" unicode="&#x2dd;" horiz-adv-x="500" 
d="M345 740h133l-99 -147h-88zM161 740h133l-99 -147h-88z" />
    <glyph glyph-name="Delta" unicode="&#x394;" horiz-adv-x="228" 
d="M48 413h132v-131h-132v131z" />
    <glyph glyph-name="Delta" unicode="&#x2206;" horiz-adv-x="228" 
d="M48 413h132v-131h-132v131z" />
    <glyph glyph-name="Omega" unicode="&#x3a9;" 
d="M48 408h142v-141h-142v141z" />
    <glyph glyph-name="Omega" unicode="&#x2126;" 
d="M48 408h142v-141h-142v141z" />
    <glyph glyph-name="pi" unicode="&#x3c0;" 
d="M48 408h142v-141h-142v141z" />
    <glyph glyph-name="endash" unicode="&#x2013;" horiz-adv-x="552" 
d="M39 339h474v-123h-474v123z" />
    <glyph glyph-name="emdash" unicode="&#x2014;" horiz-adv-x="867" 
d="M39 339h789v-123h-789v123z" />
    <glyph glyph-name="quoteleft" unicode="&#x2018;" horiz-adv-x="227" 
d="M46 560q0 63 37.5 96.5t97.5 33.5v-67q-31 0 -45.5 -17.5t-14.5 -44.5v-17h60v-134h-135v150z" />
    <glyph glyph-name="quoteright" unicode="&#x2019;" horiz-adv-x="227" 
d="M46 467q31 0 45.5 17.5t14.5 44.5v17h-60v134h135v-150q0 -63 -37.5 -96.5t-97.5 -33.5v67z" />
    <glyph glyph-name="quotesinglbase" unicode="&#x201a;" horiz-adv-x="227" 
d="M46 -79q31 0 45.5 17.5t14.5 44.5v17h-60v134h135v-150q0 -63 -37.5 -96.5t-97.5 -33.5v67z" />
    <glyph glyph-name="quotedblleft" unicode="&#x201c;" horiz-adv-x="431" 
d="M250 560q0 63 37.5 96.5t97.5 33.5v-67q-31 0 -45.5 -17.5t-14.5 -44.5v-17h60v-134h-135v150zM46 560q0 63 37.5 96.5t97.5 33.5v-67q-31 0 -45.5 -17.5t-14.5 -44.5v-17h60v-134h-135v150z" />
    <glyph glyph-name="quotedblright" unicode="&#x201d;" horiz-adv-x="431" 
d="M250 467q31 0 45.5 17.5t14.5 44.5v17h-60v134h135v-150q0 -63 -37.5 -96.5t-97.5 -33.5v67zM46 467q31 0 45.5 17.5t14.5 44.5v17h-60v134h135v-150q0 -63 -37.5 -96.5t-97.5 -33.5v67z" />
    <glyph glyph-name="quotedblbase" unicode="&#x201e;" horiz-adv-x="431" 
d="M250 -79q31 0 45.5 17.5t14.5 44.5v17h-60v134h135v-150q0 -63 -37.5 -96.5t-97.5 -33.5v67zM46 -79q31 0 45.5 17.5t14.5 44.5v17h-60v134h135v-150q0 -63 -37.5 -96.5t-97.5 -33.5v67z" />
    <glyph glyph-name="dagger" unicode="&#x2020;" horiz-adv-x="394" 
d="M144 466h-104v99h104v115h106v-115h104v-99h-104v-271h-106v271z" />
    <glyph glyph-name="daggerdbl" unicode="&#x2021;" horiz-adv-x="393" 
d="M143 298h-103v96h103v89h-103v96h103v101h106v-101h104v-96h-104v-89h104v-96h-104v-103h-106v103z" />
    <glyph glyph-name="bullet" unicode="&#x2022;" horiz-adv-x="301" 
d="M151 192q-26 0 -48.5 9.5t-39 26t-26 39t-9.5 48.5q0 25 9.5 47.5t26 39t39 26t48.5 9.5q25 0 47.5 -9.5t39 -26t26 -39t9.5 -47.5q0 -26 -9.5 -48.5t-26 -39t-39 -26t-47.5 -9.5z" />
    <glyph glyph-name="ellipsis" unicode="&#x2026;" horiz-adv-x="868" 
d="M678 141h142v-141h-142v141zM48 141h142v-141h-142v141zM363 141h142v-141h-142v141z" />
    <glyph glyph-name="perthousand" unicode="&#x2030;" horiz-adv-x="1211" 
d="M198 348q-36 0 -68 13.5t-55.5 36.5t-37 54.5t-13.5 66.5q0 36 13.5 67t37 54t55.5 36.5t68 13.5q37 0 68.5 -13.5t55 -36.5t37 -54t13.5 -67q0 -35 -13.5 -66.5t-37 -54.5t-55 -36.5t-68.5 -13.5zM630 -10q-36 0 -68 13.5t-55.5 36.5t-37 54.5t-13.5 66.5q0 36 13.5 67
t37 54t55.5 36.5t68 13.5q37 0 68.5 -13.5t55 -36.5t37 -54t13.5 -67q0 -35 -13.5 -66.5t-37 -54.5t-55 -36.5t-68.5 -13.5zM1013 -10q-36 0 -68 13.5t-55.5 36.5t-37 54.5t-13.5 66.5q0 36 13.5 67t37 54t55.5 36.5t68 13.5q37 0 68.5 -13.5t55 -36.5t37 -54t13.5 -67
q0 -35 -13.5 -66.5t-37 -54.5t-55 -36.5t-68.5 -13.5zM550 680h101l-373 -680h-101zM630 77q31 0 54 22t23 62t-23 62t-54 22q-30 0 -53.5 -22t-23.5 -62t23.5 -62t53.5 -22zM1013 77q31 0 54 22t23 62t-23 62t-54 22q-30 0 -53.5 -22t-23.5 -62t23.5 -62t53.5 -22zM198 435
q31 0 54 22t23 62t-23 62t-54 22q-30 0 -53.5 -22t-23.5 -62t23.5 -62t53.5 -22z" />
    <glyph glyph-name="guilsinglleft" unicode="&#x2039;" horiz-adv-x="265" 
d="M32 215v89l193 169v-137l-95 -77l95 -79v-134z" />
    <glyph glyph-name="guilsinglright" unicode="&#x203a;" horiz-adv-x="265" 
d="M40 183l95 77l-95 79v134l193 -169v-89l-193 -169v137z" />
    <glyph glyph-name="fraction" unicode="&#x2044;" horiz-adv-x="318" 
d="M295 680h101l-373 -680h-101z" />
    <glyph glyph-name="fraction" unicode="&#x2215;" horiz-adv-x="318" 
d="M295 680h101l-373 -680h-101z" />
    <glyph glyph-name="Euro" unicode="&#x20ac;" horiz-adv-x="629" 
d="M26 446h70q12 59 36 105.5t58.5 79t78.5 49.5t95 17q93 0 152 -50t82 -147h-127q-11 40 -39 62t-68 22q-51 0 -85 -37t-49 -101h247l-26 -83h-232v-21v-19.5t1 -18.5h209l-26 -83h-169q17 -57 50 -88.5t80 -31.5q48 0 76.5 22t36.5 60h129q-21 -95 -83 -145t-159 -50
q-99 0 -168.5 60.5t-95.5 172.5h-74v83h62q-1 9 -1 18.5v19.5v21h-61v83z" />
    <glyph glyph-name="trademark" unicode="&#x2122;" horiz-adv-x="781" 
d="M349 680h123l71 -215l72 215h119v-342h-83v212l-69 -212h-82l-68 211v-211h-83v342zM124 599h-90v81h267v-81h-90v-261h-87v261z" />
    <glyph glyph-name="onethird" unicode="&#x2153;" horiz-adv-x="916" 
d="M722 -7q-78 0 -121 40t-43 104h95q0 -33 20 -47t49 -14q30 0 44.5 17t14.5 34q0 25 -16.5 35t-30.5 10h-33v78h22q19 0 32 13t13 30q0 15 -11.5 31t-36.5 16q-26 0 -39.5 -15t-13.5 -35h-96q1 26 11.5 50t29.5 42t46.5 29t64.5 11q38 0 64.5 -11t43.5 -28t25 -37.5
t8 -40.5q0 -26 -15.5 -50t-42.5 -36q16 -4 30 -14.5t23.5 -24t15 -28t5.5 -26.5q0 -22 -9 -45.5t-28.5 -43t-49.5 -32t-71 -12.5zM560 680h101l-373 -680h-101zM137 531h-89v68q46 1 78.5 21t34.5 60h75v-408h-99v259z" />
    <glyph glyph-name="twothirds" unicode="&#x2154;" horiz-adv-x="968" 
d="M774 -7q-78 0 -121 40t-43 104h95q0 -33 20 -47t49 -14q30 0 44.5 17t14.5 34q0 25 -16.5 35t-30.5 10h-33v78h22q19 0 32 13t13 30q0 15 -11.5 31t-36.5 16q-26 0 -39.5 -15t-13.5 -35h-96q1 26 11.5 50t29.5 42t46.5 29t64.5 11q38 0 64.5 -11t43.5 -28t25 -37.5
t8 -40.5q0 -26 -15.5 -50t-42.5 -36q16 -4 30 -14.5t23.5 -24t15 -28t5.5 -26.5q0 -22 -9 -45.5t-28.5 -43t-49.5 -32t-71 -12.5zM36 313q0 28 10.5 53t27.5 46t39 38.5t46 31.5q28 17 42.5 30.5t21 24.5t7 19.5t0.5 15.5q0 20 -13.5 30.5t-30.5 10.5q-23 0 -36 -17.5
t-13 -37.5h-98q0 25 10.5 49.5t30 43.5t47.5 31t63 12q36 0 62 -10.5t42.5 -27.5t24.5 -39t8 -44q0 -31 -9.5 -54t-26.5 -41.5t-40.5 -34t-50.5 -31.5q-36 -21 -47 -35t-12 -27h182v-78h-287v41zM612 680h101l-373 -680h-101z" />
    <glyph glyph-name="oneeighth" unicode="&#x215b;" horiz-adv-x="907" 
d="M719 -7q-36 0 -65 9.5t-49.5 26t-32 40t-11.5 50.5q0 29 15 56t54 44q-32 17 -42.5 39.5t-10.5 45.5q0 24 11.5 45t31 36.5t45 24.5t54.5 9q27 0 53 -9t46 -24.5t32 -36.5t12 -45q0 -23 -12 -45t-43 -38q39 -18 54 -45t15 -55t-11.5 -51.5t-32 -40.5t-49.5 -26.5
t-64 -9.5zM560 680h101l-373 -680h-101zM137 531h-89v68q46 1 78.5 21t34.5 60h75v-408h-99v259zM719 72q23 0 43.5 13.5t20.5 38.5q0 15 -6.5 25t-16.5 16t-21 8.5t-20 2.5q-10 0 -21 -2.5t-20.5 -8.5t-16 -16t-6.5 -25q0 -25 20 -38.5t44 -13.5zM719 254q19 0 35 12t16 33
q0 22 -18 32t-33 10q-17 0 -34 -10t-17 -32q0 -21 15 -33t36 -12z" />
    <glyph glyph-name="threeeighths" unicode="&#x215c;" horiz-adv-x="975" 
d="M787 -7q-36 0 -65 9.5t-49.5 26t-32 40t-11.5 50.5q0 29 15 56t54 44q-32 17 -42.5 39.5t-10.5 45.5q0 24 11.5 45t31 36.5t45 24.5t54.5 9q27 0 53 -9t46 -24.5t32 -36.5t12 -45q0 -23 -12 -45t-43 -38q39 -18 54 -45t15 -55t-11.5 -51.5t-32 -40.5t-49.5 -26.5
t-64 -9.5zM191 265q-78 0 -121 40t-43 104h95q0 -33 20 -47t49 -14q30 0 44.5 17t14.5 34q0 25 -16.5 35t-30.5 10h-33v78h22q19 0 32 13t13 30q0 15 -11.5 31t-36.5 16q-26 0 -39.5 -15t-13.5 -35h-96q1 26 11.5 50t29.5 42t46.5 29t64.5 11q38 0 64.5 -11t43.5 -28
t25 -37.5t8 -40.5q0 -26 -15.5 -50t-42.5 -36q16 -4 30 -14.5t23.5 -24t15 -28t5.5 -26.5q0 -22 -9 -45.5t-28.5 -43t-49.5 -32t-71 -12.5zM628 680h101l-373 -680h-101zM787 72q23 0 43.5 13.5t20.5 38.5q0 15 -6.5 25t-16.5 16t-21 8.5t-20 2.5q-10 0 -21 -2.5t-20.5 -8.5
t-16 -16t-6.5 -25q0 -25 20 -38.5t44 -13.5zM787 254q19 0 35 12t16 33q0 22 -18 32t-33 10q-17 0 -34 -10t-17 -32q0 -21 15 -33t36 -12z" />
    <glyph glyph-name="fiveeighths" unicode="&#x215d;" horiz-adv-x="973" 
d="M785 -7q-36 0 -65 9.5t-49.5 26t-32 40t-11.5 50.5q0 29 15 56t54 44q-32 17 -42.5 39.5t-10.5 45.5q0 24 11.5 45t31 36.5t45 24.5t54.5 9q27 0 53 -9t46 -24.5t32 -36.5t12 -45q0 -23 -12 -45t-43 -38q39 -18 54 -45t15 -55t-11.5 -51.5t-32 -40.5t-49.5 -26.5
t-64 -9.5zM195 265q-67 0 -111.5 32.5t-50.5 88.5h97q5 -22 22.5 -31t36.5 -9q25 0 42 18t17 45q0 29 -17.5 43t-43.5 14q-27 0 -41.5 -12t-19.5 -19l-79 33l28 212h248v-82h-174l-12 -85q11 13 31 23t49 10q22 0 45 -7t41.5 -23.5t30 -43t11.5 -65.5q0 -27 -10 -52.5
t-29.5 -45.5t-47.5 -32t-63 -12zM626 680h101l-373 -680h-101zM785 72q23 0 43.5 13.5t20.5 38.5q0 15 -6.5 25t-16.5 16t-21 8.5t-20 2.5q-10 0 -21 -2.5t-20.5 -8.5t-16 -16t-6.5 -25q0 -25 20 -38.5t44 -13.5zM785 254q19 0 35 12t16 33q0 22 -18 32t-33 10
q-17 0 -34 -10t-17 -32q0 -21 15 -33t36 -12z" />
    <glyph glyph-name="seveneighths" unicode="&#x215e;" horiz-adv-x="926" 
d="M738 -7q-36 0 -65 9.5t-49.5 26t-32 40t-11.5 50.5q0 29 15 56t54 44q-32 17 -42.5 39.5t-10.5 45.5q0 24 11.5 45t31 36.5t45 24.5t54.5 9q27 0 53 -9t46 -24.5t32 -36.5t12 -45q0 -23 -12 -45t-43 -38q39 -18 54 -45t15 -55t-11.5 -51.5t-32 -40.5t-49.5 -26.5
t-64 -9.5zM579 680h101l-373 -680h-101zM93 272q-2 56 9 105.5t29.5 90t41.5 71.5t46 51h-185v90h293v-85q-25 -23 -49.5 -55.5t-44 -73t-31 -89t-9.5 -105.5h-100zM738 72q23 0 43.5 13.5t20.5 38.5q0 15 -6.5 25t-16.5 16t-21 8.5t-20 2.5q-10 0 -21 -2.5t-20.5 -8.5
t-16 -16t-6.5 -25q0 -25 20 -38.5t44 -13.5zM738 254q19 0 35 12t16 33q0 22 -18 32t-33 10q-17 0 -34 -10t-17 -32q0 -21 15 -33t36 -12z" />
    <glyph glyph-name="partialdiff" unicode="&#x2202;" 
d="M48 408h142v-141h-142v141z" />
    <glyph glyph-name="product" unicode="&#x220f;" 
d="M48 408h142v-141h-142v141z" />
    <glyph glyph-name="summation" unicode="&#x2211;" 
d="M48 408h142v-141h-142v141z" />
    <glyph glyph-name="minus" unicode="&#x2212;" horiz-adv-x="481" 
d="M38 356h405v-111h-405v111z" />
    <glyph glyph-name="radical" unicode="&#x221a;" 
d="M48 408h142v-141h-142v141z" />
    <glyph glyph-name="infinity" unicode="&#x221e;" 
d="M48 408h142v-141h-142v141z" />
    <glyph glyph-name="integral" unicode="&#x222b;" 
d="M48 408h142v-141h-142v141z" />
    <glyph glyph-name="approxequal" unicode="&#x2248;" 
d="M48 408h142v-141h-142v141z" />
    <glyph glyph-name="notequal" unicode="&#x2260;" 
d="M48 408h142v-141h-142v141z" />
    <glyph glyph-name="lessequal" unicode="&#x2264;" 
d="M48 408h142v-141h-142v141z" />
    <glyph glyph-name="greaterequal" unicode="&#x2265;" 
d="M48 408h142v-141h-142v141z" />
    <glyph glyph-name="lozenge" unicode="&#x25ca;" 
d="M48 408h142v-141h-142v141z" />
    <glyph glyph-name="commaaccent" unicode="&#xf004;" horiz-adv-x="500" 
d="M183 -247q31 0 47 16.5t16 45.5v9h-63v134h135v-142q0 -63 -37.5 -95t-97.5 -32v64z" />
    <glyph glyph-name="commaaccent" unicode="&#xf6c3;" horiz-adv-x="500" 
d="M183 -247q31 0 47 16.5t16 45.5v9h-63v134h135v-142q0 -63 -37.5 -95t-97.5 -32v64z" />
    <glyph glyph-name="dotlessj" unicode="&#xf6be;" horiz-adv-x="254" 
d="M-30 -102h17q32 0 54.5 16t22.5 56v545h126v-546q0 -47 -15.5 -80.5t-42 -55t-63 -32t-78.5 -10.5h-21v107z" />
    <glyph glyph-name="dotlessj" unicode="&#xfb0f;" horiz-adv-x="254" 
d="M-30 -102h17q32 0 54.5 16t22.5 56v545h126v-546q0 -47 -15.5 -80.5t-42 -55t-63 -32t-78.5 -10.5h-21v107z" />
    <glyph glyph-name="A.sc" horiz-adv-x="598" 
d="M235 578h127l216 -578h-131l-35 99h-230l-34 -99h-127zM216 200h161l-63 181q-4 10 -7 22t-5.5 22.5t-4.5 18t-2 9.5q0 -1 -1.5 -8.5t-4 -18t-5.5 -23t-6 -22.5z" />
    <glyph glyph-name="AE.sc" horiz-adv-x="840" 
d="M254 578h534v-112h-282v-110h232v-112h-232v-132h289v-112h-413v94h-203l-38 -94h-125zM220 195h162v269h-52z" />
    <glyph glyph-name="Aacute.sc" horiz-adv-x="598" 
d="M235 578h127l216 -578h-131l-35 99h-230l-34 -99h-127zM216 200h161l-63 181q-4 10 -7 22t-5.5 22.5t-4.5 18t-2 9.5q0 -1 -1.5 -8.5t-4 -18t-5.5 -23t-6 -22.5zM297 778h165l-123 -147h-95z" />
    <glyph glyph-name="Abreve.sc" horiz-adv-x="598" 
d="M235 578h127l216 -578h-131l-35 99h-230l-34 -99h-127zM216 200h161l-63 181q-4 10 -7 22t-5.5 22.5t-4.5 18t-2 9.5q0 -1 -1.5 -8.5t-4 -18t-5.5 -23t-6 -22.5zM297 629q-33 0 -60 11.5t-45.5 31.5t-29.5 45.5t-13 54.5h73q6 -25 23 -39.5t52 -14.5t52 15t23 39h73
q-2 -29 -13 -54.5t-29.5 -45.5t-45.5 -31.5t-60 -11.5z" />
    <glyph glyph-name="Acircumflex.sc" horiz-adv-x="598" 
d="M235 578h127l216 -578h-131l-35 99h-230l-34 -99h-127zM216 200h161l-63 181q-4 10 -7 22t-5.5 22.5t-4.5 18t-2 9.5q0 -1 -1.5 -8.5t-4 -18t-5.5 -23t-6 -22.5zM254 785h80l130 -154h-108l-62 71l-61 -71h-109z" />
    <glyph glyph-name="Adieresis.sc" horiz-adv-x="598" 
d="M235 578h127l216 -578h-131l-35 99h-230l-34 -99h-127zM216 200h161l-63 181q-4 10 -7 22t-5.5 22.5t-4.5 18t-2 9.5q0 -1 -1.5 -8.5t-4 -18t-5.5 -23t-6 -22.5zM330 745h122v-114h-122v114zM142 745h122v-114h-122v114z" />
    <glyph glyph-name="Agrave.sc" horiz-adv-x="598" 
d="M235 578h127l216 -578h-131l-35 99h-230l-34 -99h-127zM216 200h161l-63 181q-4 10 -7 22t-5.5 22.5t-4.5 18t-2 9.5q0 -1 -1.5 -8.5t-4 -18t-5.5 -23t-6 -22.5zM144 778h165l53 -147h-95z" />
    <glyph glyph-name="Amacron.sc" horiz-adv-x="598" 
d="M235 578h127l216 -578h-131l-35 99h-230l-34 -99h-127zM216 200h161l-63 181q-4 10 -7 22t-5.5 22.5t-4.5 18t-2 9.5q0 -1 -1.5 -8.5t-4 -18t-5.5 -23t-6 -22.5zM164 730h263v-87h-263v87z" />
    <glyph glyph-name="Aogonek.sc" horiz-adv-x="618" 
d="M481 -236q-23 0 -44 6t-38 18.5t-27 30.5t-10 42q0 23 10.5 44t27 38.5t37 31.5t39.5 25h-29l-35 99h-230l-34 -99h-127l214 578h127l216 -578h-34q-41 -33 -67.5 -69t-26.5 -68q0 -19 9 -27.5t23 -8.5q30 0 40 22h76q-11 -38 -40 -61.5t-77 -23.5zM216 200h161l-63 181
q-4 10 -7 22t-5.5 22.5t-4.5 18t-2 9.5q0 -1 -1.5 -8.5t-4 -18t-5.5 -23t-6 -22.5z" />
    <glyph glyph-name="Aring.sc" horiz-adv-x="598" 
d="M235 578h127l216 -578h-131l-35 99h-230l-34 -99h-127zM216 200h161l-63 181q-4 10 -7 22t-5.5 22.5t-4.5 18t-2 9.5q0 -1 -1.5 -8.5t-4 -18t-5.5 -23t-6 -22.5zM297 623q-23 0 -42.5 8.5t-34.5 23t-23.5 33.5t-8.5 41t8.5 41.5t23.5 34t34.5 23t42.5 8.5q22 0 42 -8.5
t35 -23t23.5 -34t8.5 -41.5t-8.5 -41t-23.5 -33.5t-35 -23t-42 -8.5zM297 678q20 0 34 15t14 36t-14 36t-34 15t-34 -15t-14 -36t14 -36t34 -15z" />
    <glyph glyph-name="Atilde.sc" horiz-adv-x="598" 
d="M235 578h127l216 -578h-131l-35 99h-230l-34 -99h-127zM216 200h161l-63 181q-4 10 -7 22t-5.5 22.5t-4.5 18t-2 9.5q0 -1 -1.5 -8.5t-4 -18t-5.5 -23t-6 -22.5zM131 628q3 27 11 51t21.5 41.5t33 28t44.5 10.5q19 0 36 -6.5t31.5 -14.5t27.5 -14.5t25 -6.5q17 0 26 10.5
t14 31.5h62q-3 -27 -10.5 -51t-21 -41.5t-31.5 -28t-42 -10.5q-19 0 -36.5 6.5t-32.5 14t-28.5 14t-25.5 6.5q-33 0 -42 -41h-62z" />
    <glyph glyph-name="B.sc" horiz-adv-x="570" 
d="M66 578h259q85 0 132 -40.5t47 -112.5q0 -38 -14.5 -67.5t-55.5 -49.5q47 -16 73.5 -52t26.5 -89q0 -81 -53 -124t-143 -43h-272v578zM325 109q32 0 55 14t23 53q0 31 -17.5 50t-62.5 19h-134v-136h136zM318 353q37 0 51.5 19t14.5 39q0 22 -15 40.5t-50 18.5h-130v-117
h129z" />
    <glyph glyph-name="C.sc" horiz-adv-x="631" 
d="M331 -10q-64 0 -117 24t-91 65t-59 96t-21 118q0 62 21.5 117t59.5 95.5t90 64t113 23.5q48 0 91 -13.5t76.5 -38.5t57.5 -61t35 -80h-135q-14 34 -41.5 57.5t-82.5 23.5q-31 0 -58.5 -11.5t-48.5 -34.5t-33.5 -58.5t-12.5 -83.5t12.5 -84t34 -59.5t50 -35.5t60.5 -12
q28 0 49.5 7.5t36 19t23.5 26t14 29.5h136q-25 -94 -95 -144t-165 -50z" />
    <glyph glyph-name="Cacute.sc" horiz-adv-x="631" 
d="M331 -10q-64 0 -117 24t-91 65t-59 96t-21 118q0 62 21.5 117t59.5 95.5t90 64t113 23.5q48 0 91 -13.5t76.5 -38.5t57.5 -61t35 -80h-135q-14 34 -41.5 57.5t-82.5 23.5q-31 0 -58.5 -11.5t-48.5 -34.5t-33.5 -58.5t-12.5 -83.5t12.5 -84t34 -59.5t50 -35.5t60.5 -12
q28 0 49.5 7.5t36 19t23.5 26t14 29.5h136q-25 -94 -95 -144t-165 -50zM327 778h165l-123 -147h-95z" />
    <glyph glyph-name="Ccaron.sc" horiz-adv-x="631" 
d="M331 -10q-64 0 -117 24t-91 65t-59 96t-21 118q0 62 21.5 117t59.5 95.5t90 64t113 23.5q48 0 91 -13.5t76.5 -38.5t57.5 -61t35 -80h-135q-14 34 -41.5 57.5t-82.5 23.5q-31 0 -58.5 -11.5t-48.5 -34.5t-33.5 -58.5t-12.5 -83.5t12.5 -84t34 -59.5t50 -35.5t60.5 -12
q28 0 49.5 7.5t36 19t23.5 26t14 29.5h136q-25 -94 -95 -144t-165 -50zM159 782h108l62 -71l61 71h109l-130 -154h-80z" />
    <glyph glyph-name="Ccedilla.sc" horiz-adv-x="631" 
d="M591 184q-12 -44 -34 -78t-52.5 -58.5t-68 -39t-80.5 -17.5l-33 -49q11 4 26 4q35 0 62 -23.5t27 -65.5q0 -23 -9.5 -40.5t-25.5 -29t-37 -17.5t-43 -6q-44 0 -76.5 21t-42.5 58h74q10 -22 42 -22q15 0 28 9t13 26q0 18 -12 27.5t-29 9.5q-14 0 -23 -4.5t-16 -11.5
l-38 34l47 82q-56 7 -101.5 33.5t-77.5 66.5t-50 91t-18 109q0 62 21.5 117t59.5 95.5t90 64t113 23.5q48 0 91 -13.5t76.5 -38.5t57.5 -61t35 -80h-135q-14 34 -41.5 57.5t-82.5 23.5q-31 0 -58.5 -11.5t-48.5 -34.5t-33.5 -58.5t-12.5 -83.5t12.5 -84t34 -59.5t50 -35.5
t60.5 -12q28 0 49.5 7.5t36 19t23.5 26t14 29.5h136v0z" />
    <glyph glyph-name="Ccircumflex.sc" horiz-adv-x="631" 
d="M331 -10q-64 0 -117 24t-91 65t-59 96t-21 118q0 62 21.5 117t59.5 95.5t90 64t113 23.5q48 0 91 -13.5t76.5 -38.5t57.5 -61t35 -80h-135q-14 34 -41.5 57.5t-82.5 23.5q-31 0 -58.5 -11.5t-48.5 -34.5t-33.5 -58.5t-12.5 -83.5t12.5 -84t34 -59.5t50 -35.5t60.5 -12
q28 0 49.5 7.5t36 19t23.5 26t14 29.5h136q-25 -94 -95 -144t-165 -50zM284 785h80l130 -154h-108l-62 71l-61 -71h-109z" />
    <glyph glyph-name="D.sc" horiz-adv-x="598" 
d="M66 578h204q65 0 117.5 -19.5t90 -56.5t57.5 -90.5t20 -122.5q0 -68 -20.5 -121.5t-58 -90.5t-90 -57t-116.5 -20h-204v578zM270 116q44 0 73.5 14t47.5 38t25.5 55.5t7.5 67.5q0 35 -7.5 66.5t-25 55t-47 37.5t-74.5 14h-80v-348h80z" />
    <glyph glyph-name="Dcaron.sc" horiz-adv-x="598" 
d="M66 578h204q65 0 117.5 -19.5t90 -56.5t57.5 -90.5t20 -122.5q0 -68 -20.5 -121.5t-58 -90.5t-90 -57t-116.5 -20h-204v578zM270 116q44 0 73.5 14t47.5 38t25.5 55.5t7.5 67.5q0 35 -7.5 66.5t-25 55t-47 37.5t-74.5 14h-80v-348h80zM96 782h108l62 -71l61 71h109
l-130 -154h-80z" />
    <glyph glyph-name="Dcroat.sc" horiz-adv-x="598" 
d="M7 340h59v238h204q65 0 117.5 -19.5t90 -56.5t57.5 -90.5t20 -122.5q0 -68 -20.5 -121.5t-58 -90.5t-90 -57t-116.5 -20h-204v233h-59v107zM270 116q44 0 73.5 14t47.5 38t25.5 55.5t7.5 67.5q0 35 -7.5 66.5t-25 55t-47 37.5t-74.5 14h-80v-124h133v-107h-133v-117h80z
" />
    <glyph glyph-name="E.sc" horiz-adv-x="524" 
d="M66 578h406v-112h-282v-110h232v-112h-232v-132h289v-112h-413v578z" />
    <glyph glyph-name="Eacute.sc" horiz-adv-x="524" 
d="M66 578h406v-112h-282v-110h232v-112h-232v-132h289v-112h-413v578zM267 778h165l-123 -147h-95z" />
    <glyph glyph-name="Ecaron.sc" horiz-adv-x="524" 
d="M66 578h406v-112h-282v-110h232v-112h-232v-132h289v-112h-413v578zM99 782h108l62 -71l61 71h109l-130 -154h-80z" />
    <glyph glyph-name="Ecircumflex.sc" horiz-adv-x="524" 
d="M66 578h406v-112h-282v-110h232v-112h-232v-132h289v-112h-413v578zM224 785h80l130 -154h-108l-62 71l-61 -71h-109z" />
    <glyph glyph-name="Edieresis.sc" horiz-adv-x="524" 
d="M66 578h406v-112h-282v-110h232v-112h-232v-132h289v-112h-413v578zM300 745h122v-114h-122v114zM112 745h122v-114h-122v114z" />
    <glyph glyph-name="Edotaccent.sc" horiz-adv-x="524" 
d="M66 578h406v-112h-282v-110h232v-112h-232v-132h289v-112h-413v578zM206 745h122v-114h-122v114z" />
    <glyph glyph-name="Egrave.sc" horiz-adv-x="524" 
d="M66 578h406v-112h-282v-110h232v-112h-232v-132h289v-112h-413v578zM114 778h165l53 -147h-95z" />
    <glyph glyph-name="Emacron.sc" horiz-adv-x="524" 
d="M66 578h406v-112h-282v-110h232v-112h-232v-132h289v-112h-413v578zM134 730h263v-87h-263v87z" />
    <glyph glyph-name="Eogonek.sc" horiz-adv-x="524" 
d="M66 578h406v-112h-282v-110h232v-112h-232v-132h289v-112h-11q-41 -33 -67.5 -69t-26.5 -68q0 -19 9 -27.5t23 -8.5q30 0 40 22h76q-11 -38 -40 -61.5t-77 -23.5q-23 0 -44 6t-38 18.5t-27 30.5t-10 42q0 23 10.5 44t27 38.5t37 31.5t39.5 25h-334v578z" />
    <glyph glyph-name="Eth.sc" horiz-adv-x="598" 
d="M7 340h59v238h204q65 0 117.5 -19.5t90 -56.5t57.5 -90.5t20 -122.5q0 -68 -20.5 -121.5t-58 -90.5t-90 -57t-116.5 -20h-204v233h-59v107zM270 116q44 0 73.5 14t47.5 38t25.5 55.5t7.5 67.5q0 35 -7.5 66.5t-25 55t-47 37.5t-74.5 14h-80v-124h133v-107h-133v-117h80z
" />
    <glyph glyph-name="Euro.sc" horiz-adv-x="537" 
d="M23 387h55q20 96 78.5 151t151.5 55q85 0 135.5 -44.5t69.5 -124.5h-125q-8 27 -28.5 43.5t-51.5 16.5q-78 0 -102 -97h192l-24 -80h-178v-44h161l-24 -80h-124q13 -43 38 -62.5t61 -19.5q39 0 60.5 18.5t27.5 41.5h125q-17 -78 -70.5 -124.5t-142.5 -46.5q-93 0 -150 51
t-78 142h-57v80h46v44h-46v80z" />
    <glyph glyph-name="F.sc" horiz-adv-x="506" 
d="M66 578h396v-112h-272v-131h228v-112h-228v-223h-124v578z" />
    <glyph glyph-name="G.sc" horiz-adv-x="663" 
d="M324 -10q-60 0 -111 24t-89 65t-59.5 96.5t-21.5 117.5t21.5 117t59.5 95.5t91.5 64t117.5 23.5q57 0 101.5 -15t76.5 -40.5t53 -58.5t31 -70h-137q-10 27 -42 50t-83 23q-31 0 -60 -11.5t-51 -35t-35 -59t-13 -83.5t12 -84t33.5 -60t51 -36t63.5 -12q66 0 104 32.5
t49 81.5h-152v107h268v-322h-114v73q-18 -38 -63.5 -60.5t-101.5 -22.5z" />
    <glyph glyph-name="Gbreve.sc" horiz-adv-x="663" 
d="M324 -10q-60 0 -111 24t-89 65t-59.5 96.5t-21.5 117.5t21.5 117t59.5 95.5t91.5 64t117.5 23.5q57 0 101.5 -15t76.5 -40.5t53 -58.5t31 -70h-137q-10 27 -42 50t-83 23q-31 0 -60 -11.5t-51 -35t-35 -59t-13 -83.5t12 -84t33.5 -60t51 -36t63.5 -12q66 0 104 32.5
t49 81.5h-152v107h268v-322h-114v73q-18 -38 -63.5 -60.5t-101.5 -22.5zM335 629q-33 0 -60 11.5t-45.5 31.5t-29.5 45.5t-13 54.5h73q6 -25 23 -39.5t52 -14.5t52 15t23 39h73q-2 -29 -13 -54.5t-29.5 -45.5t-45.5 -31.5t-60 -11.5z" />
    <glyph glyph-name="Gcircumflex.sc" horiz-adv-x="663" 
d="M324 -10q-60 0 -111 24t-89 65t-59.5 96.5t-21.5 117.5t21.5 117t59.5 95.5t91.5 64t117.5 23.5q57 0 101.5 -15t76.5 -40.5t53 -58.5t31 -70h-137q-10 27 -42 50t-83 23q-31 0 -60 -11.5t-51 -35t-35 -59t-13 -83.5t12 -84t33.5 -60t51 -36t63.5 -12q66 0 104 32.5
t49 81.5h-152v107h268v-322h-114v73q-18 -38 -63.5 -60.5t-101.5 -22.5zM292 785h80l130 -154h-108l-62 71l-61 -71h-109z" />
    <glyph glyph-name="Gcommaaccent.sc" horiz-adv-x="663" 
d="M324 -10q-60 0 -111 24t-89 65t-59.5 96.5t-21.5 117.5t21.5 117t59.5 95.5t91.5 64t117.5 23.5q57 0 101.5 -15t76.5 -40.5t53 -58.5t31 -70h-137q-10 27 -42 50t-83 23q-31 0 -60 -11.5t-51 -35t-35 -59t-13 -83.5t12 -84t33.5 -60t51 -36t63.5 -12q66 0 104 32.5
t49 81.5h-152v107h268v-322h-114v73q-18 -38 -63.5 -60.5t-101.5 -22.5zM251 -247q31 0 47 16.5t16 45.5v9h-63v134h135v-142q0 -63 -37.5 -95t-97.5 -32v64z" />
    <glyph glyph-name="H.sc" horiz-adv-x="609" 
d="M66 578h126v-229h225v229h126v-578h-126v236h-225v-236h-126v578z" />
    <glyph glyph-name="Hcircumflex.sc" horiz-adv-x="609" 
d="M66 578h126v-229h225v229h126v-578h-126v236h-225v-236h-126v578zM262 785h80l130 -154h-108l-62 71l-61 -71h-109z" />
    <glyph glyph-name="I.sc" horiz-adv-x="262" 
d="M68 578h126v-578h-126v578z" />
    <glyph glyph-name="Iacute.sc" horiz-adv-x="262" 
d="M68 578h126v-578h-126v578zM132 778h165l-123 -147h-95z" />
    <glyph glyph-name="Icircumflex.sc" horiz-adv-x="262" 
d="M68 578h126v-578h-126v578zM89 785h80l130 -154h-108l-62 71l-61 -71h-109z" />
    <glyph glyph-name="Idieresis.sc" horiz-adv-x="262" 
d="M68 578h126v-578h-126v578zM165 745h122v-114h-122v114zM-23 745h122v-114h-122v114z" />
    <glyph glyph-name="Idotaccent.sc" horiz-adv-x="262" 
d="M68 578h126v-578h-126v578zM71 745h122v-114h-122v114z" />
    <glyph glyph-name="Igrave.sc" horiz-adv-x="262" 
d="M68 578h126v-578h-126v578zM-21 778h165l53 -147h-95z" />
    <glyph glyph-name="Imacron.sc" horiz-adv-x="262" 
d="M68 578h126v-578h-126v578zM-1 730h263v-87h-263v87z" />
    <glyph glyph-name="Iogonek.sc" horiz-adv-x="262" 
d="M68 578h126v-578h-2q-41 -33 -67.5 -69t-26.5 -68q0 -19 9 -27.5t23 -8.5q30 0 40 22h76q-11 -38 -40 -61.5t-77 -23.5q-23 0 -44 6t-38 18.5t-27 30.5t-10 42q0 23 10.5 44t27 38.5t37 31.5t39.5 25h-56v578z" />
    <glyph glyph-name="J.sc" horiz-adv-x="485" 
d="M228 -8q-44 0 -81 12t-64 36.5t-42 61t-15 84.5v26h126v-26q0 -43 19 -62.5t54 -19.5q34 0 53.5 21.5t19.5 61.5v391h126v-388q0 -49 -15 -86t-41 -62t-62 -37.5t-78 -12.5z" />
    <glyph glyph-name="Jcircumflex.sc" horiz-adv-x="485" 
d="M228 -8q-44 0 -81 12t-64 36.5t-42 61t-15 84.5v26h126v-26q0 -43 19 -62.5t54 -19.5q34 0 53.5 21.5t19.5 61.5v391h126v-388q0 -49 -15 -86t-41 -62t-62 -37.5t-78 -12.5zM318 785h80l130 -154h-108l-62 71l-61 -71h-109z" />
    <glyph glyph-name="K.sc" horiz-adv-x="581" 
d="M250 248l-55 -60v-188h-129v578h129v-231l209 231h149l-216 -235l230 -343h-148z" />
    <glyph glyph-name="Kcommaaccent.sc" horiz-adv-x="581" 
d="M250 248l-55 -60v-188h-129v578h129v-231l209 231h149l-216 -235l230 -343h-148zM223 -247q31 0 47 16.5t16 45.5v9h-63v134h135v-142q0 -63 -37.5 -95t-97.5 -32v64z" />
    <glyph glyph-name="L.sc" horiz-adv-x="498" 
d="M66 578h126v-466h268v-112h-394v578z" />
    <glyph glyph-name="Lacute.sc" horiz-adv-x="498" 
d="M66 578h126v-466h268v-112h-394v578zM128 778h165l-123 -147h-95z" />
    <glyph glyph-name="Lcaron.sc" horiz-adv-x="498" 
d="M319 373q31 0 47 16.5t16 45.5v9h-63v134h135v-142q0 -63 -37.5 -95t-97.5 -32v64zM66 578h126v-466h268v-112h-394v578z" />
    <glyph glyph-name="Lcommaaccent.sc" horiz-adv-x="498" 
d="M66 578h126v-466h268v-112h-394v578zM179 -247q31 0 47 16.5t16 45.5v9h-63v134h135v-142q0 -63 -37.5 -95t-97.5 -32v64z" />
    <glyph glyph-name="Lslash.sc" horiz-adv-x="503" 
d="M19 246l52 23v309h126v-251l131 60v-91l-131 -60v-124h268v-112h-394v178l-52 -23v91z" />
    <glyph glyph-name="M.sc" horiz-adv-x="735" 
d="M66 578h184l120 -426l120 426h179v-578h-119v417l-120 -417h-128l-117 417v-417h-119v578z" />
    <glyph glyph-name="N.sc" horiz-adv-x="613" 
d="M66 578h136l231 -398v398h115v-578h-137l-230 394v-394h-115v578z" />
    <glyph glyph-name="Nacute.sc" horiz-adv-x="613" 
d="M66 578h136l231 -398v398h115v-578h-137l-230 394v-394h-115v578zM318 778h165l-123 -147h-95z" />
    <glyph glyph-name="Ncaron.sc" horiz-adv-x="613" 
d="M66 578h136l231 -398v398h115v-578h-137l-230 394v-394h-115v578zM150 782h108l62 -71l61 71h109l-130 -154h-80z" />
    <glyph glyph-name="Ncommaaccent.sc" horiz-adv-x="613" 
d="M66 578h136l231 -398v398h115v-578h-137l-230 394v-394h-115v578zM231 -247q31 0 47 16.5t16 45.5v9h-63v134h135v-142q0 -63 -37.5 -95t-97.5 -32v64z" />
    <glyph glyph-name="Ntilde.sc" horiz-adv-x="613" 
d="M66 578h136l231 -398v398h115v-578h-137l-230 394v-394h-115v578zM152 628q3 27 11 51t21.5 41.5t33 28t44.5 10.5q19 0 36 -6.5t31.5 -14.5t27.5 -14.5t25 -6.5q17 0 26 10.5t14 31.5h62q-3 -27 -10.5 -51t-21 -41.5t-31.5 -28t-42 -10.5q-19 0 -36.5 6.5t-32.5 14
t-28.5 14t-25.5 6.5q-33 0 -42 -41h-62z" />
    <glyph glyph-name="O.sc" horiz-adv-x="668" 
d="M334 -10q-66 0 -120 24t-92 65t-58.5 96t-20.5 118q0 62 20.5 117t58.5 95.5t92 64t120 23.5q65 0 118.5 -24t92 -64.5t59.5 -95.5t21 -116q0 -63 -21 -118t-59 -96t-91.5 -65t-119.5 -24zM334 102q32 0 61 11.5t51 35.5t35 60t13 84t-13 83.5t-35 59t-51 35t-61 11.5
t-61 -11.5t-51 -35t-35 -59t-13 -83.5t13 -84t35 -59.5t51 -35.5t61 -12z" />
    <glyph glyph-name="OE.sc" horiz-adv-x="952" 
d="M497 58q-32 -32 -72.5 -50t-91.5 -18q-66 0 -119.5 24t-91.5 65t-58.5 96t-20.5 118q0 62 20.5 117t58.5 95.5t91.5 64t119.5 23.5q50 0 91 -19t73 -52v56h403v-112h-282v-110h232v-112h-232v-132h289v-112h-410v58zM334 102q32 0 61 11.5t51 35.5t35 60t13 84t-13 83.5
t-35 59t-51 35t-61 11.5t-61 -11.5t-51 -35t-35 -59t-13 -83.5t13 -84t35 -59.5t51 -35.5t61 -12z" />
    <glyph glyph-name="Oacute.sc" horiz-adv-x="668" 
d="M334 -10q-66 0 -120 24t-92 65t-58.5 96t-20.5 118q0 62 20.5 117t58.5 95.5t92 64t120 23.5q65 0 118.5 -24t92 -64.5t59.5 -95.5t21 -116q0 -63 -21 -118t-59 -96t-91.5 -65t-119.5 -24zM334 102q32 0 61 11.5t51 35.5t35 60t13 84t-13 83.5t-35 59t-51 35t-61 11.5
t-61 -11.5t-51 -35t-35 -59t-13 -83.5t13 -84t35 -59.5t51 -35.5t61 -12zM334 778h165l-123 -147h-95z" />
    <glyph glyph-name="Ocircumflex.sc" horiz-adv-x="668" 
d="M334 -10q-66 0 -120 24t-92 65t-58.5 96t-20.5 118q0 62 20.5 117t58.5 95.5t92 64t120 23.5q65 0 118.5 -24t92 -64.5t59.5 -95.5t21 -116q0 -63 -21 -118t-59 -96t-91.5 -65t-119.5 -24zM334 102q32 0 61 11.5t51 35.5t35 60t13 84t-13 83.5t-35 59t-51 35t-61 11.5
t-61 -11.5t-51 -35t-35 -59t-13 -83.5t13 -84t35 -59.5t51 -35.5t61 -12zM291 785h80l130 -154h-108l-62 71l-61 -71h-109z" />
    <glyph glyph-name="Odieresis.sc" horiz-adv-x="668" 
d="M334 -10q-66 0 -120 24t-92 65t-58.5 96t-20.5 118q0 62 20.5 117t58.5 95.5t92 64t120 23.5q65 0 118.5 -24t92 -64.5t59.5 -95.5t21 -116q0 -63 -21 -118t-59 -96t-91.5 -65t-119.5 -24zM334 102q32 0 61 11.5t51 35.5t35 60t13 84t-13 83.5t-35 59t-51 35t-61 11.5
t-61 -11.5t-51 -35t-35 -59t-13 -83.5t13 -84t35 -59.5t51 -35.5t61 -12zM367 745h122v-114h-122v114zM179 745h122v-114h-122v114z" />
    <glyph glyph-name="Ograve.sc" horiz-adv-x="668" 
d="M334 -10q-66 0 -120 24t-92 65t-58.5 96t-20.5 118q0 62 20.5 117t58.5 95.5t92 64t120 23.5q65 0 118.5 -24t92 -64.5t59.5 -95.5t21 -116q0 -63 -21 -118t-59 -96t-91.5 -65t-119.5 -24zM334 102q32 0 61 11.5t51 35.5t35 60t13 84t-13 83.5t-35 59t-51 35t-61 11.5
t-61 -11.5t-51 -35t-35 -59t-13 -83.5t13 -84t35 -59.5t51 -35.5t61 -12zM181 778h165l53 -147h-95z" />
    <glyph glyph-name="Ohungarumlaut.sc" horiz-adv-x="668" 
d="M334 -10q-66 0 -120 24t-92 65t-58.5 96t-20.5 118q0 62 20.5 117t58.5 95.5t92 64t120 23.5q65 0 118.5 -24t92 -64.5t59.5 -95.5t21 -116q0 -63 -21 -118t-59 -96t-91.5 -65t-119.5 -24zM334 102q32 0 61 11.5t51 35.5t35 60t13 84t-13 83.5t-35 59t-51 35t-61 11.5
t-61 -11.5t-51 -35t-35 -59t-13 -83.5t13 -84t35 -59.5t51 -35.5t61 -12zM429 778h133l-99 -147h-88zM245 778h133l-99 -147h-88z" />
    <glyph glyph-name="Omacron.sc" horiz-adv-x="668" 
d="M334 -10q-66 0 -120 24t-92 65t-58.5 96t-20.5 118q0 62 20.5 117t58.5 95.5t92 64t120 23.5q65 0 118.5 -24t92 -64.5t59.5 -95.5t21 -116q0 -63 -21 -118t-59 -96t-91.5 -65t-119.5 -24zM334 102q32 0 61 11.5t51 35.5t35 60t13 84t-13 83.5t-35 59t-51 35t-61 11.5
t-61 -11.5t-51 -35t-35 -59t-13 -83.5t13 -84t35 -59.5t51 -35.5t61 -12zM201 730h263v-87h-263v87z" />
    <glyph glyph-name="Oslash.sc" horiz-adv-x="668" 
d="M36 11l74 81q-32 41 -49.5 92t-17.5 109q0 62 20.5 117t58.5 95.5t92 64t120 23.5q53 0 98 -16t81 -44l69 75l50 -44l-72 -78q31 -40 48 -89t17 -104q0 -63 -21 -118t-59 -96t-91.5 -65t-119.5 -24q-53 0 -97.5 15t-79.5 42l-73 -79zM173 293q0 -64 23 -107l239 261
q-21 18 -47 27t-54 9q-32 0 -61.5 -11.5t-51.5 -35.5t-35 -59.5t-13 -83.5zM334 101q32 0 61.5 12t51.5 36t35 60t13 84q0 29 -5.5 54.5t-14.5 45.5l-238 -259q20 -17 45 -25t52 -8z" />
    <glyph glyph-name="Otilde.sc" horiz-adv-x="668" 
d="M334 -10q-66 0 -120 24t-92 65t-58.5 96t-20.5 118q0 62 20.5 117t58.5 95.5t92 64t120 23.5q65 0 118.5 -24t92 -64.5t59.5 -95.5t21 -116q0 -63 -21 -118t-59 -96t-91.5 -65t-119.5 -24zM334 102q32 0 61 11.5t51 35.5t35 60t13 84t-13 83.5t-35 59t-51 35t-61 11.5
t-61 -11.5t-51 -35t-35 -59t-13 -83.5t13 -84t35 -59.5t51 -35.5t61 -12zM168 628q3 27 11 51t21.5 41.5t33 28t44.5 10.5q19 0 36 -6.5t31.5 -14.5t27.5 -14.5t25 -6.5q17 0 26 10.5t14 31.5h62q-3 -27 -10.5 -51t-21 -41.5t-31.5 -28t-42 -10.5q-19 0 -36.5 6.5t-32.5 14
t-28.5 14t-25.5 6.5q-33 0 -42 -41h-62z" />
    <glyph glyph-name="P.sc" horiz-adv-x="551" 
d="M66 578h234q107 0 162 -52t55 -140q0 -42 -14.5 -76t-42 -59t-67 -38.5t-89.5 -13.5h-112v-199h-126v578zM298 309q49 0 69.5 19.5t20.5 57.5t-20.5 60t-69.5 22h-106v-159h106z" />
    <glyph glyph-name="Q.sc" horiz-adv-x="668" 
d="M478 26q-31 -17 -67 -26.5t-77 -9.5q-66 0 -120 24t-92 65t-58.5 96t-20.5 118q0 62 20.5 117t58.5 95.5t92 64t120 23.5q65 0 118.5 -24t92 -64.5t59.5 -95.5t21 -116q0 -60 -19 -112.5t-54 -93.5l95 -87h-140zM334 98q30 0 56 9l-112 103h140l46 -43q14 24 22 55.5
t8 70.5q0 48 -13 83.5t-35 59t-51 35t-61 11.5t-61 -11.5t-51 -35t-35 -59t-13 -83.5t13 -84.5t35 -61t51 -37t61 -12.5z" />
    <glyph glyph-name="R.sc" horiz-adv-x="588" 
d="M66 578h262q46 0 84 -11.5t65.5 -34t42.5 -55t15 -73.5q0 -55 -28 -86.5t-69 -46.5q18 -9 31.5 -19t24 -24.5t17.5 -35.5t10 -51l8 -74q2 -20 8 -36.5t14 -30.5h-125q-9 12 -14.5 26t-7.5 35l-9 85q-4 37 -19.5 53.5t-49.5 16.5h-135v-216h-125v578zM325 319
q46 0 63 20.5t17 55.5q0 36 -21.5 54.5t-57.5 18.5h-135v-149h134z" />
    <glyph glyph-name="Racute.sc" horiz-adv-x="588" 
d="M66 578h262q46 0 84 -11.5t65.5 -34t42.5 -55t15 -73.5q0 -55 -28 -86.5t-69 -46.5q18 -9 31.5 -19t24 -24.5t17.5 -35.5t10 -51l8 -74q2 -20 8 -36.5t14 -30.5h-125q-9 12 -14.5 26t-7.5 35l-9 85q-4 37 -19.5 53.5t-49.5 16.5h-135v-216h-125v578zM325 319
q46 0 63 20.5t17 55.5q0 36 -21.5 54.5t-57.5 18.5h-135v-149h134zM279 778h165l-123 -147h-95z" />
    <glyph glyph-name="Rcaron.sc" horiz-adv-x="588" 
d="M66 578h262q46 0 84 -11.5t65.5 -34t42.5 -55t15 -73.5q0 -55 -28 -86.5t-69 -46.5q18 -9 31.5 -19t24 -24.5t17.5 -35.5t10 -51l8 -74q2 -20 8 -36.5t14 -30.5h-125q-9 12 -14.5 26t-7.5 35l-9 85q-4 37 -19.5 53.5t-49.5 16.5h-135v-216h-125v578zM325 319
q46 0 63 20.5t17 55.5q0 36 -21.5 54.5t-57.5 18.5h-135v-149h134zM111 782h108l62 -71l61 71h109l-130 -154h-80z" />
    <glyph glyph-name="Rcommaaccent.sc" horiz-adv-x="588" 
d="M66 578h262q46 0 84 -11.5t65.5 -34t42.5 -55t15 -73.5q0 -55 -28 -86.5t-69 -46.5q18 -9 31.5 -19t24 -24.5t17.5 -35.5t10 -51l8 -74q2 -20 8 -36.5t14 -30.5h-125q-9 12 -14.5 26t-7.5 35l-9 85q-4 37 -19.5 53.5t-49.5 16.5h-135v-216h-125v578zM325 319
q46 0 63 20.5t17 55.5q0 36 -21.5 54.5t-57.5 18.5h-135v-149h134zM232 -247q31 0 47 16.5t16 45.5v9h-63v134h135v-142q0 -63 -37.5 -95t-97.5 -32v64z" />
    <glyph glyph-name="S.sc" horiz-adv-x="579" 
d="M299 -10q-49 0 -94.5 11.5t-81.5 36t-60 62t-28 89.5h126q6 -40 39 -64.5t91 -24.5q48 0 82 14t34 48q0 21 -13.5 33.5t-37 21t-53.5 14.5t-63 14q-26 6 -58 16t-60 29t-46.5 50t-18.5 80q0 38 14.5 69.5t42.5 54.5t68.5 36t92.5 13q62 0 106 -18t72.5 -45t42 -58.5
t15.5 -59.5h-127q-7 36 -35.5 53.5t-74.5 17.5q-40 0 -68 -14.5t-28 -43.5q0 -18 9 -28.5t26 -17.5t41.5 -12t54.5 -11t68.5 -16.5t72.5 -31.5t57.5 -55.5t23.5 -87.5q0 -37 -15 -69t-44 -55.5t-72.5 -37t-100.5 -13.5z" />
    <glyph glyph-name="Sacute.sc" horiz-adv-x="579" 
d="M299 -10q-49 0 -94.5 11.5t-81.5 36t-60 62t-28 89.5h126q6 -40 39 -64.5t91 -24.5q48 0 82 14t34 48q0 21 -13.5 33.5t-37 21t-53.5 14.5t-63 14q-26 6 -58 16t-60 29t-46.5 50t-18.5 80q0 38 14.5 69.5t42.5 54.5t68.5 36t92.5 13q62 0 106 -18t72.5 -45t42 -58.5
t15.5 -59.5h-127q-7 36 -35.5 53.5t-74.5 17.5q-40 0 -68 -14.5t-28 -43.5q0 -18 9 -28.5t26 -17.5t41.5 -12t54.5 -11t68.5 -16.5t72.5 -31.5t57.5 -55.5t23.5 -87.5q0 -37 -15 -69t-44 -55.5t-72.5 -37t-100.5 -13.5zM278 778h165l-123 -147h-95z" />
    <glyph glyph-name="Scaron.sc" horiz-adv-x="579" 
d="M299 -10q-49 0 -94.5 11.5t-81.5 36t-60 62t-28 89.5h126q6 -40 39 -64.5t91 -24.5q48 0 82 14t34 48q0 21 -13.5 33.5t-37 21t-53.5 14.5t-63 14q-26 6 -58 16t-60 29t-46.5 50t-18.5 80q0 38 14.5 69.5t42.5 54.5t68.5 36t92.5 13q62 0 106 -18t72.5 -45t42 -58.5
t15.5 -59.5h-127q-7 36 -35.5 53.5t-74.5 17.5q-40 0 -68 -14.5t-28 -43.5q0 -18 9 -28.5t26 -17.5t41.5 -12t54.5 -11t68.5 -16.5t72.5 -31.5t57.5 -55.5t23.5 -87.5q0 -37 -15 -69t-44 -55.5t-72.5 -37t-100.5 -13.5zM110 782h108l62 -71l61 71h109l-130 -154h-80z" />
    <glyph glyph-name="Scedilla.sc" horiz-adv-x="579" 
d="M531 165q0 -35 -13.5 -65.5t-39.5 -54t-65.5 -37.5t-90.5 -17l-32 -49q11 4 26 4q35 0 62 -23.5t27 -65.5q0 -23 -9.5 -40.5t-25.5 -29t-37 -17.5t-43 -6q-44 0 -76.5 21t-42.5 58h74q10 -22 42 -22q15 0 28 9t13 26q0 18 -12 27.5t-29 9.5q-14 0 -23 -4.5t-16 -11.5
l-38 34l46 82q-42 4 -80.5 18t-68.5 38t-49 58.5t-23 81.5h126q6 -40 39 -64.5t91 -24.5q48 0 82 14t34 48q0 21 -13.5 33.5t-37 21t-53.5 14.5t-63 14q-26 6 -58 16t-60 29t-46.5 50t-18.5 80q0 38 14.5 69.5t42.5 54.5t68.5 36t92.5 13q62 0 106 -18t72.5 -45t42 -58.5
t15.5 -59.5h-127q-7 36 -35.5 53.5t-74.5 17.5q-40 0 -68 -14.5t-28 -43.5q0 -18 9 -28.5t26 -17.5t41.5 -12t54.5 -11t68.5 -16.5t72.5 -31.5t57.5 -55.5t23.5 -87.5z" />
    <glyph glyph-name="Scircumflex.sc" horiz-adv-x="579" 
d="M299 -10q-49 0 -94.5 11.5t-81.5 36t-60 62t-28 89.5h126q6 -40 39 -64.5t91 -24.5q48 0 82 14t34 48q0 21 -13.5 33.5t-37 21t-53.5 14.5t-63 14q-26 6 -58 16t-60 29t-46.5 50t-18.5 80q0 38 14.5 69.5t42.5 54.5t68.5 36t92.5 13q62 0 106 -18t72.5 -45t42 -58.5
t15.5 -59.5h-127q-7 36 -35.5 53.5t-74.5 17.5q-40 0 -68 -14.5t-28 -43.5q0 -18 9 -28.5t26 -17.5t41.5 -12t54.5 -11t68.5 -16.5t72.5 -31.5t57.5 -55.5t23.5 -87.5q0 -37 -15 -69t-44 -55.5t-72.5 -37t-100.5 -13.5zM235 785h80l130 -154h-108l-62 71l-61 -71h-109z" />
    <glyph glyph-name="Scommaaccent.sc" horiz-adv-x="579" 
d="M299 -10q-49 0 -94.5 11.5t-81.5 36t-60 62t-28 89.5h126q6 -40 39 -64.5t91 -24.5q48 0 82 14t34 48q0 21 -13.5 33.5t-37 21t-53.5 14.5t-63 14q-26 6 -58 16t-60 29t-46.5 50t-18.5 80q0 38 14.5 69.5t42.5 54.5t68.5 36t92.5 13q62 0 106 -18t72.5 -45t42 -58.5
t15.5 -59.5h-127q-7 36 -35.5 53.5t-74.5 17.5q-40 0 -68 -14.5t-28 -43.5q0 -18 9 -28.5t26 -17.5t41.5 -12t54.5 -11t68.5 -16.5t72.5 -31.5t57.5 -55.5t23.5 -87.5q0 -37 -15 -69t-44 -55.5t-72.5 -37t-100.5 -13.5zM211 -247q31 0 47 16.5t16 45.5v9h-63v134h135v-142
q0 -63 -37.5 -95t-97.5 -32v64z" />
    <glyph glyph-name="T.sc" horiz-adv-x="508" 
d="M192 466h-165v112h454v-112h-164v-466h-125v466z" />
    <glyph glyph-name="Tcaron.sc" horiz-adv-x="508" 
d="M192 466h-165v112h454v-112h-164v-466h-125v466zM85 782h108l62 -71l61 71h109l-130 -154h-80z" />
    <glyph glyph-name="Tcommaaccent.sc" horiz-adv-x="508" 
d="M192 466h-165v112h454v-112h-164v-466h-125v466zM183 -247q31 0 47 16.5t16 45.5v9h-63v134h135v-142q0 -63 -37.5 -95t-97.5 -32v64z" />
    <glyph glyph-name="Thorn.sc" horiz-adv-x="551" 
d="M66 578h126v-84h108q107 0 162 -52t55 -140q0 -42 -14.5 -76t-42 -59t-67 -38.5t-89.5 -13.5h-112v-115h-126v578zM298 225q49 0 69.5 19.5t20.5 57.5t-20.5 60t-69.5 22h-106v-159h106z" />
    <glyph glyph-name="U.sc" horiz-adv-x="591" 
d="M296 -10q-54 0 -97.5 16t-73.5 46t-46 72.5t-16 95.5v358h128v-358q0 -63 27 -92.5t78 -29.5t78 29.5t27 92.5v358h127v-358q0 -107 -61.5 -168.5t-170.5 -61.5z" />
    <glyph glyph-name="Uacute.sc" horiz-adv-x="591" 
d="M296 -10q-54 0 -97.5 16t-73.5 46t-46 72.5t-16 95.5v358h128v-358q0 -63 27 -92.5t78 -29.5t78 29.5t27 92.5v358h127v-358q0 -107 -61.5 -168.5t-170.5 -61.5zM296 778h165l-123 -147h-95z" />
    <glyph glyph-name="Ubreve.sc" horiz-adv-x="591" 
d="M296 -10q-54 0 -97.5 16t-73.5 46t-46 72.5t-16 95.5v358h128v-358q0 -63 27 -92.5t78 -29.5t78 29.5t27 92.5v358h127v-358q0 -107 -61.5 -168.5t-170.5 -61.5zM296 629q-33 0 -60 11.5t-45.5 31.5t-29.5 45.5t-13 54.5h73q6 -25 23 -39.5t52 -14.5t52 15t23 39h73
q-2 -29 -13 -54.5t-29.5 -45.5t-45.5 -31.5t-60 -11.5z" />
    <glyph glyph-name="Ucircumflex.sc" horiz-adv-x="591" 
d="M296 -10q-54 0 -97.5 16t-73.5 46t-46 72.5t-16 95.5v358h128v-358q0 -63 27 -92.5t78 -29.5t78 29.5t27 92.5v358h127v-358q0 -107 -61.5 -168.5t-170.5 -61.5zM253 785h80l130 -154h-108l-62 71l-61 -71h-109z" />
    <glyph glyph-name="Udieresis.sc" horiz-adv-x="591" 
d="M296 -10q-54 0 -97.5 16t-73.5 46t-46 72.5t-16 95.5v358h128v-358q0 -63 27 -92.5t78 -29.5t78 29.5t27 92.5v358h127v-358q0 -107 -61.5 -168.5t-170.5 -61.5zM329 745h122v-114h-122v114zM141 745h122v-114h-122v114z" />
    <glyph glyph-name="Ugrave.sc" horiz-adv-x="591" 
d="M296 -10q-54 0 -97.5 16t-73.5 46t-46 72.5t-16 95.5v358h128v-358q0 -63 27 -92.5t78 -29.5t78 29.5t27 92.5v358h127v-358q0 -107 -61.5 -168.5t-170.5 -61.5zM143 778h165l53 -147h-95z" />
    <glyph glyph-name="Uhungarumlaut.sc" horiz-adv-x="591" 
d="M296 -10q-54 0 -97.5 16t-73.5 46t-46 72.5t-16 95.5v358h128v-358q0 -63 27 -92.5t78 -29.5t78 29.5t27 92.5v358h127v-358q0 -107 -61.5 -168.5t-170.5 -61.5zM391 778h133l-99 -147h-88zM207 778h133l-99 -147h-88z" />
    <glyph glyph-name="Umacron.sc" horiz-adv-x="591" 
d="M296 -10q-54 0 -97.5 16t-73.5 46t-46 72.5t-16 95.5v358h128v-358q0 -63 27 -92.5t78 -29.5t78 29.5t27 92.5v358h127v-358q0 -107 -61.5 -168.5t-170.5 -61.5zM163 730h263v-87h-263v87z" />
    <glyph glyph-name="Uogonek.sc" horiz-adv-x="591" 
d="M296 -236q-23 0 -44 6t-38 18.5t-27 30.5t-10 42q0 21 8.5 40t22.5 35.5t31 30t35 24.5q-100 6 -155.5 66.5t-55.5 162.5v358h128v-358q0 -63 27 -92.5t78 -29.5t78 29.5t27 92.5v358h127v-358q0 -92 -46 -151t-129 -74q-38 -32 -63 -66.5t-25 -65.5q0 -19 9 -27.5
t23 -8.5q30 0 40 22h76q-11 -38 -40 -61.5t-77 -23.5z" />
    <glyph glyph-name="Uring.sc" horiz-adv-x="591" 
d="M296 -10q-54 0 -97.5 16t-73.5 46t-46 72.5t-16 95.5v358h128v-358q0 -63 27 -92.5t78 -29.5t78 29.5t27 92.5v358h127v-358q0 -107 -61.5 -168.5t-170.5 -61.5zM296 623q-23 0 -42.5 8.5t-34.5 23t-23.5 33.5t-8.5 41t8.5 41.5t23.5 34t34.5 23t42.5 8.5q22 0 42 -8.5
t35 -23t23.5 -34t8.5 -41.5t-8.5 -41t-23.5 -33.5t-35 -23t-42 -8.5zM296 678q20 0 34 15t14 36t-14 36t-34 15t-34 -15t-14 -36t14 -36t34 -15z" />
    <glyph glyph-name="V.sc" horiz-adv-x="552" 
d="M18 578h135l102 -338q4 -13 8 -31t8 -35q4 -20 8 -41q5 21 9 41q4 17 8 35t8 31l102 338h128l-195 -578h-126z" />
    <glyph glyph-name="W.sc" horiz-adv-x="783" 
d="M20 578h133l58 -281q4 -19 7 -40t5 -39t3.5 -30.5t1.5 -15.5q0 3 2.5 15.5t6 30.5t8.5 38.5t10 38.5l81 283h115l80 -283q5 -18 9.5 -38t7.5 -38t5 -31t3 -16q0 2 1.5 14.5t4 30.5t6 39t7.5 40l56 282h134l-144 -578h-119l-88 326q-4 13 -8 29t-7 30t-5.5 24.5t-2.5 13.5
q0 -2 -2 -12.5t-4.5 -24.5t-6 -30t-7.5 -30l-87 -326h-120z" />
    <glyph glyph-name="X.sc" horiz-adv-x="558" 
d="M209 295l-176 283h146l105 -183l98 183h143l-176 -283l187 -295h-144l-116 195l-111 -195h-143z" />
    <glyph glyph-name="Y.sc" horiz-adv-x="553" 
d="M213 215l-195 363h140l119 -245l123 245h135l-194 -363v-215h-128v215z" />
    <glyph glyph-name="Yacute.sc" horiz-adv-x="553" 
d="M213 215l-195 363h140l119 -245l123 245h135l-194 -363v-215h-128v215zM277 778h165l-123 -147h-95z" />
    <glyph glyph-name="Ydieresis.sc" horiz-adv-x="553" 
d="M213 215l-195 363h140l119 -245l123 245h135l-194 -363v-215h-128v215zM310 745h122v-114h-122v114zM122 745h122v-114h-122v114z" />
    <glyph glyph-name="Z.sc" horiz-adv-x="531" 
d="M41 110l281 357h-270v111h428v-105l-282 -362h292v-111h-449v110z" />
    <glyph glyph-name="Zacute.sc" horiz-adv-x="531" 
d="M41 110l281 357h-270v111h428v-105l-282 -362h292v-111h-449v110zM264 778h165l-123 -147h-95z" />
    <glyph glyph-name="Zcaron.sc" horiz-adv-x="531" 
d="M41 110l281 357h-270v111h428v-105l-282 -362h292v-111h-449v110zM96 782h108l62 -71l61 71h109l-130 -154h-80z" />
    <glyph glyph-name="Zdotaccent.sc" horiz-adv-x="531" 
d="M41 110l281 357h-270v111h428v-105l-282 -362h292v-111h-449v110zM203 745h122v-114h-122v114z" />
    <glyph glyph-name="ampersand.sc" horiz-adv-x="576" 
d="M242 -10q-48 0 -88 12.5t-69 36t-45.5 56.5t-16.5 75q0 58 28 94t88 66q-23 31 -31.5 60t-8.5 58q0 31 12.5 57.5t34 46t50.5 30.5t62 11t60.5 -10.5t48 -29.5t32 -45t11.5 -57q0 -42 -26.5 -74.5t-84.5 -61.5l102 -120q15 40 15 92v18h107v-20q0 -50 -13 -94t-36 -81
l95 -110h-147l-27 31q-32 -20 -70 -30.5t-83 -10.5zM250 96q44 0 76 15l-132 154q-25 -17 -35.5 -38t-10.5 -48q0 -38 25.5 -60.5t76.5 -22.5zM209 452q0 -18 7.5 -34t22.5 -33l7 -9q32 16 45.5 33.5t13.5 40.5q0 22 -13.5 36t-34.5 14q-23 0 -35.5 -14.5t-12.5 -33.5z" />
    <glyph glyph-name="apple" horiz-adv-x="908" 
d="M510 695l12 -1q63 -2 124.5 -26.5t110 -69.5t78.5 -108.5t30 -142.5t-30 -142t-78.5 -108t-110 -69.5t-124.5 -26.5l-12 -1v695zM389 0q-79 0 -143 28t-109 75.5t-69.5 110.5t-24.5 133t24.5 133t69.5 110.5t109 75.5t143 28h92v-125h-92q-49 0 -88.5 -17.5t-67.5 -48
t-43 -71t-15 -85.5t15 -85.5t43 -71t67.5 -48t88.5 -17.5h92v-125h-92zM778 156q28 36 44.5 81t18.5 99h-135q-1 -37 -6.5 -70t-14.5 -64q25 -8 48 -20t45 -26zM841 359q-2 54 -18.5 98.5t-44.5 81.5q-45 -30 -93 -47q9 -30 14.5 -63.5t6.5 -69.5h135zM662 209
q9 29 14.5 60.5t6.5 66.5h-149v-106q70 -3 128 -21zM683 359q-1 35 -6.5 66t-14.5 60q-61 -17 -128 -20v-106h149zM534 488q32 2 62.5 7t58.5 13q-22 57 -54 96.5t-67 59.5v-176zM534 31q35 19 67 59t54 97q-28 8 -58.5 12.5t-62.5 6.5v-175zM677 515q44 16 86 42
q-38 42 -86 69t-102 38q30 -24 56.5 -62t45.5 -87zM575 31q54 11 102 38t86 69q-42 26 -86 42q-19 -49 -45.5 -87t-56.5 -62z" />
    <glyph glyph-name="backslash.cap" horiz-adv-x="350" 
d="M-3 740h118l228 -800h-118z" />
    <glyph glyph-name="backslash.sc" horiz-adv-x="301" 
d="M-8 629h116l188 -680h-116z" />
    <glyph glyph-name="braceleft.cap" horiz-adv-x="344" 
d="M319 -70q-91 -8 -143.5 34t-52.5 139v66q0 60 -26 84.5t-76 24.5v95q50 0 76 25t26 85v65q0 96 52.5 138t143.5 33v-100q-41 3 -59 -18.5t-18 -58.5v-71q0 -58 -22 -93t-73 -52q51 -17 73 -52.5t22 -93.5v-72q0 -37 18 -59t59 -19v-100v0z" />
    <glyph glyph-name="braceleft.sc" horiz-adv-x="301" 
d="M282 -60q-91 -8 -134.5 31.5t-43.5 122.5v34q0 55 -22.5 78.5t-66.5 23.5v91q44 0 66.5 24.5t22.5 78.5v37q0 82 43.5 120.5t134.5 29.5v-95q-36 3 -51 -15.5t-15 -45.5v-46q0 -53 -19.5 -85t-65.5 -49q46 -15 65.5 -48t19.5 -85v-43q0 -29 15 -47.5t51 -15.5v-96v0z" />
    <glyph glyph-name="braceright.cap" horiz-adv-x="344" 
d="M25 30q41 -3 59 19t18 59v72q0 58 22 93.5t73 52.5q-51 17 -73 52t-22 93v71q0 37 -18 58.5t-59 18.5v100q91 9 143.5 -33t52.5 -138v-65q0 -60 26 -85t76 -25v-95q-50 0 -76 -24.5t-26 -84.5v-66q0 -97 -52.5 -139t-143.5 -34v100z" />
    <glyph glyph-name="braceright.sc" horiz-adv-x="301" 
d="M19 36q36 -3 51 15.5t15 47.5v43q0 52 19.5 85t65.5 48q-46 17 -65.5 49t-19.5 85v46q0 27 -15 45.5t-51 15.5v95q91 9 134.5 -29.5t43.5 -120.5v-37q0 -54 22.5 -78.5t66.5 -24.5v-91q-44 0 -66.5 -23.5t-22.5 -78.5v-34q0 -83 -43.5 -122.5t-134.5 -31.5v96z" />
    <glyph glyph-name="bracketleft.cap" horiz-adv-x="331" 
d="M66 720h240v-104h-122v-582h122v-104h-240v790z" />
    <glyph glyph-name="bracketleft.sc" horiz-adv-x="285" 
d="M50 612h216v-99h-103v-473h103v-100h-216v672z" />
    <glyph glyph-name="bracketright.cap" horiz-adv-x="331" 
d="M25 34h122v582h-122v104h240v-790h-240v104z" />
    <glyph glyph-name="bracketright.sc" horiz-adv-x="285" 
d="M19 40h103v473h-103v99h216v-672h-216v100z" />
    <glyph glyph-name="cent.sc" horiz-adv-x="475" 
d="M248 -10q-23 0 -40 4l-26 -88h-62l32 106q-56 26 -91 80t-35 126q0 50 18 92.5t48 73t70.5 48t85.5 17.5q9 0 18 -1t17 -2l28 90h62l-32 -107q42 -19 71 -54.5t40 -83.5h-116q-5 11 -11 21t-15 17l-73 -239q4 -1 12 -1q36 0 58 16.5t31 42.5h116q-17 -72 -71.5 -115
t-134.5 -43zM142 218q0 -35 11 -61.5t30 -43.5l71 237h-5q-45 0 -76 -35t-31 -97z" />
    <glyph glyph-name="degree.sc" horiz-adv-x="369" 
d="M184 286q-32 0 -60 12t-48.5 33t-32.5 49t-12 60q0 31 12 59t32.5 49t48.5 33t60 12t60 -12t49 -33t33 -49t12 -59q0 -32 -12 -60t-33 -49t-49 -33t-60 -12zM184 360q32 0 52.5 23t20.5 57q0 33 -20.5 56t-52.5 23t-52.5 -23t-20.5 -56q0 -34 20.5 -57t52.5 -23z" />
    <glyph glyph-name="dollar.sc" horiz-adv-x="479" 
d="M206 4q-41 5 -76.5 19.5t-62 38t-43 55.5t-20.5 73h117q5 -29 24 -51t61 -30v127q-4 0 -5 1q-29 6 -60.5 16.5t-57.5 29.5t-43 49t-17 76q0 32 12.5 60.5t35.5 50t57 34.5t78 16v70h63v-72q45 -6 77.5 -23.5t53.5 -41.5t32 -51.5t13 -52.5h-116q-8 49 -60 64v-122
q32 -6 66 -15.5t61.5 -28t45.5 -49t18 -78.5q0 -75 -49 -118.5t-142 -48.5v-72h-63v74zM342 165q0 27 -19 39t-54 20v-117q35 2 54 15t19 43zM135 413q0 -25 17 -38t54 -23v114q-32 -4 -51.5 -17t-19.5 -36z" />
    <glyph glyph-name="eight.denominator" horiz-adv-x="376" 
d="M188 -7q-36 0 -65 9.5t-49.5 26t-32 40t-11.5 50.5q0 29 15 56t54 44q-32 17 -42.5 39.5t-10.5 45.5q0 24 11.5 45t31 36.5t45 24.5t54.5 9q27 0 53 -9t46 -24.5t32 -36.5t12 -45q0 -23 -12 -45t-43 -38q39 -18 54 -45t15 -55t-11.5 -51.5t-32 -40.5t-49.5 -26.5
t-64 -9.5zM188 72q23 0 43.5 13.5t20.5 38.5q0 15 -6.5 25t-16.5 16t-21 8.5t-20 2.5q-10 0 -21 -2.5t-20.5 -8.5t-16 -16t-6.5 -25q0 -25 20 -38.5t44 -13.5zM188 254q19 0 35 12t16 33q0 22 -18 32t-33 10q-17 0 -34 -10t-17 -32q0 -21 15 -33t36 -12z" />
    <glyph glyph-name="eight.inferior" horiz-adv-x="302" 
d="M151 -93q-61 0 -95 29t-34 76q0 21 14 45t41 35q-23 11 -32.5 31.5t-9.5 39.5q0 20 9 38t24.5 31.5t36.5 21.5t46 8q24 0 45.5 -8t37.5 -21.5t25.5 -31.5t9.5 -38q0 -19 -10.5 -38t-33.5 -30q27 -11 41 -34.5t14 -46.5q0 -46 -34 -76.5t-95 -30.5zM151 -24q18 0 32 10.5
t14 30.5t-14 30.5t-32 10.5t-32 -10.5t-14 -30.5t14 -30.5t32 -10.5zM151 120q14 0 26.5 9.5t12.5 26.5t-12.5 26.5t-26.5 9.5q-16 0 -27.5 -9.5t-11.5 -26.5t12.5 -26.5t26.5 -9.5z" />
    <glyph glyph-name="eight.numerator" horiz-adv-x="376" 
d="M188 265q-36 0 -65 9.5t-49.5 26t-32 40t-11.5 50.5q0 29 15 56t54 44q-32 17 -42.5 39.5t-10.5 45.5q0 24 11.5 45t31 36.5t45 24.5t54.5 9q27 0 53 -9t46 -24.5t32 -36.5t12 -45q0 -23 -12 -45t-43 -38q39 -18 54 -45t15 -55t-11.5 -51.5t-32 -40.5t-49.5 -26.5
t-64 -9.5zM188 344q23 0 43.5 13.5t20.5 38.5q0 15 -6.5 25t-16.5 16t-21 8.5t-20 2.5q-10 0 -21 -2.5t-20.5 -8.5t-16 -16t-6.5 -25q0 -25 20 -38.5t44 -13.5zM188 526q19 0 35 12t16 33q0 22 -18 32t-33 10q-17 0 -34 -10t-17 -32q0 -21 15 -33t36 -12z" />
    <glyph glyph-name="eight.sc" horiz-adv-x="506" 
d="M253 -10q-50 0 -90.5 13t-69.5 36t-44.5 56t-15.5 72q0 100 101 146q-41 22 -59 52.5t-18 70.5q0 34 16 63t43 50t62.5 32.5t74.5 11.5t74.5 -11.5t62.5 -32.5t43 -50t16 -63q0 -40 -18 -70.5t-59 -50.5q101 -46 101 -146q0 -39 -15 -72t-43.5 -57t-69.5 -37t-92 -13z
M253 93q38 0 65 21.5t27 60.5t-27 60t-65 21t-65 -21t-27 -60t27 -60.5t65 -21.5zM253 359q27 0 50 17t23 49t-23 49t-50 17t-50 -17t-23 -49t23 -49t50 -17z" />
    <glyph glyph-name="eight.superior" horiz-adv-x="302" 
d="M151 330q-61 0 -95 29t-34 76q0 21 14 45t41 35q-23 11 -32.5 31.5t-9.5 39.5q0 20 9 38t24.5 31.5t36.5 21.5t46 8q24 0 45.5 -8t37.5 -21.5t25.5 -31.5t9.5 -38q0 -19 -10.5 -38t-33.5 -30q27 -11 41 -34.5t14 -46.5q0 -46 -34 -76.5t-95 -30.5zM151 399q18 0 32 10.5
t14 30.5t-14 30.5t-32 10.5t-32 -10.5t-14 -30.5t14 -30.5t32 -10.5zM151 543q14 0 26.5 9.5t12.5 26.5t-12.5 26.5t-26.5 9.5q-16 0 -27.5 -9.5t-11.5 -26.5t12.5 -26.5t26.5 -9.5z" />
    <glyph glyph-name="elevensixteenths" horiz-adv-x="1510" 
d="M1320 -7q-25 0 -54 8.5t-53.5 31t-41 62t-16.5 102.5q0 105 46 164.5t128 59.5q62 0 96.5 -30.5t43.5 -82.5h-92q-10 34 -47 34q-29 0 -53 -29.5t-22 -91.5q12 20 36 31.5t56 11.5q22 0 44 -8.5t40 -24.5t29.5 -40t11.5 -55q0 -66 -42.5 -104.5t-109.5 -38.5zM847 680
h101l-373 -680h-101zM424 531h-89v68q46 1 78.5 21t34.5 60h75v-408h-99v259zM965 259h-89v68q46 1 78.5 21t34.5 60h75v-408h-99v259zM137 531h-89v68q46 1 78.5 21t34.5 60h75v-408h-99v259zM1318 71q26 0 42.5 18t16.5 43q0 26 -16 41.5t-42 15.5t-42.5 -16t-16.5 -41
q0 -24 16 -42.5t42 -18.5z" />
    <glyph glyph-name="emdash.cap" horiz-adv-x="867" 
d="M39 389h789v-123h-789v123z" />
    <glyph glyph-name="endash.cap" horiz-adv-x="552" 
d="M39 389h474v-123h-474v123z" />
    <glyph glyph-name="equal.sc" horiz-adv-x="479" 
d="M38 434h403v-114h-403v114zM38 220h403v-114h-403v114z" />
    <glyph glyph-name="exclam.sc" horiz-adv-x="245" 
d="M55 578h135l-21 -395h-93zM62 126h124v-126h-124v126z" />
    <glyph glyph-name="exclamdown.sc" horiz-adv-x="245" 
d="M190 0h-135l21 395h93zM183 452h-124v126h124v-126z" />
    <glyph glyph-name="ff.sc" horiz-adv-x="1012" 
d="M66 578h396v-112h-272v-131h228v-112h-228v-223h-124v578zM572 578h396v-112h-272v-131h228v-112h-228v-223h-124v578z" />
    <glyph glyph-name="ffi.sc" horiz-adv-x="1274" 
d="M66 578h396v-112h-272v-131h228v-112h-228v-223h-124v578zM572 578h396v-112h-272v-131h228v-112h-228v-223h-124v578zM1080 578h126v-578h-126v578z" />
    <glyph glyph-name="ffl.sc" horiz-adv-x="1510" 
d="M66 578h396v-112h-272v-131h228v-112h-228v-223h-124v578zM572 578h396v-112h-272v-131h228v-112h-228v-223h-124v578zM1078 578h126v-466h268v-112h-394v578z" />
    <glyph glyph-name="fi.sc" horiz-adv-x="768" 
d="M66 578h396v-112h-272v-131h228v-112h-228v-223h-124v578zM574 578h126v-578h-126v578z" />
    <glyph glyph-name="fifteensixteenths" horiz-adv-x="1576" 
d="M1386 -7q-25 0 -54 8.5t-53.5 31t-41 62t-16.5 102.5q0 105 46 164.5t128 59.5q62 0 96.5 -30.5t43.5 -82.5h-92q-10 34 -47 34q-29 0 -53 -29.5t-22 -91.5q12 20 36 31.5t56 11.5q22 0 44 -8.5t40 -24.5t29.5 -40t11.5 -55q0 -66 -42.5 -104.5t-109.5 -38.5zM482 265
q-67 0 -111.5 32.5t-50.5 88.5h97q5 -22 22.5 -31t36.5 -9q25 0 42 18t17 45q0 29 -17.5 43t-43.5 14q-27 0 -41.5 -12t-19.5 -19l-79 33l28 212h248v-82h-174l-12 -85q11 13 31 23t49 10q22 0 45 -7t41.5 -23.5t30 -43t11.5 -65.5q0 -27 -10 -52.5t-29.5 -45.5t-47.5 -32
t-63 -12zM913 680h101l-373 -680h-101zM1031 259h-89v68q46 1 78.5 21t34.5 60h75v-408h-99v259zM137 531h-89v68q46 1 78.5 21t34.5 60h75v-408h-99v259zM1384 71q26 0 42.5 18t16.5 43q0 26 -16 41.5t-42 15.5t-42.5 -16t-16.5 -41q0 -24 16 -42.5t42 -18.5z" />
    <glyph glyph-name="five.denominator" horiz-adv-x="383" 
d="M195 -7q-67 0 -111.5 32.5t-50.5 88.5h97q5 -22 22.5 -31t36.5 -9q25 0 42 18t17 45q0 29 -17.5 43t-43.5 14q-27 0 -41.5 -12t-19.5 -19l-79 33l28 212h248v-82h-174l-12 -85q11 13 31 23t49 10q22 0 45 -7t41.5 -23.5t30 -43t11.5 -65.5q0 -27 -10 -52.5t-29.5 -45.5
t-47.5 -32t-63 -12z" />
    <glyph glyph-name="five.inferior" horiz-adv-x="312" 
d="M157 -86q-27 0 -50.5 7.5t-41 21t-27.5 32t-11 40.5h81q4 -17 17.5 -22.5t29.5 -5.5q19 0 32.5 12t13.5 34q0 21 -14.5 31.5t-33.5 10.5q-21 0 -32 -9t-16 -12l-70 25l24 178h207v-70h-144l-10 -70q9 9 24.5 17t38.5 8q20 0 40 -6.5t35.5 -20.5t25 -35.5t9.5 -52.5
q0 -25 -10 -46t-27.5 -36t-41 -23t-49.5 -8z" />
    <glyph glyph-name="five.numerator" horiz-adv-x="383" 
d="M195 265q-67 0 -111.5 32.5t-50.5 88.5h97q5 -22 22.5 -31t36.5 -9q25 0 42 18t17 45q0 29 -17.5 43t-43.5 14q-27 0 -41.5 -12t-19.5 -19l-79 33l28 212h248v-82h-174l-12 -85q11 13 31 23t49 10q22 0 45 -7t41.5 -23.5t30 -43t11.5 -65.5q0 -27 -10 -52.5t-29.5 -45.5
t-47.5 -32t-63 -12z" />
    <glyph glyph-name="five.sc" horiz-adv-x="497" 
d="M250 -10q-51 0 -90.5 13.5t-67 36.5t-43 53.5t-18.5 65.5h124q7 -26 31 -42.5t58 -16.5q40 0 64 24.5t24 66.5t-25.5 66t-63.5 24q-37 0 -57.5 -16.5t-31.5 -29.5l-104 41l40 302h339v-108h-242l-18 -123q17 17 40.5 29t62.5 12q35 0 68.5 -12t60 -36.5t43 -61.5
t16.5 -86q0 -44 -14 -81t-41 -64t-66 -42t-89 -15z" />
    <glyph glyph-name="five.superior" horiz-adv-x="312" 
d="M157 337q-27 0 -50.5 7.5t-41 21t-27.5 32t-11 40.5h81q4 -17 17.5 -22.5t29.5 -5.5q19 0 32.5 12t13.5 34q0 21 -14.5 31.5t-33.5 10.5q-21 0 -32 -9t-16 -12l-70 25l24 178h207v-70h-144l-10 -70q9 9 24.5 17t38.5 8q20 0 40 -6.5t35.5 -20.5t25 -35.5t9.5 -52.5
q0 -25 -10 -46t-27.5 -36t-41 -23t-49.5 -8z" />
    <glyph glyph-name="fivesixteenths" horiz-adv-x="1289" 
d="M1099 -7q-25 0 -54 8.5t-53.5 31t-41 62t-16.5 102.5q0 105 46 164.5t128 59.5q62 0 96.5 -30.5t43.5 -82.5h-92q-10 34 -47 34q-29 0 -53 -29.5t-22 -91.5q12 20 36 31.5t56 11.5q22 0 44 -8.5t40 -24.5t29.5 -40t11.5 -55q0 -66 -42.5 -104.5t-109.5 -38.5zM195 265
q-67 0 -111.5 32.5t-50.5 88.5h97q5 -22 22.5 -31t36.5 -9q25 0 42 18t17 45q0 29 -17.5 43t-43.5 14q-27 0 -41.5 -12t-19.5 -19l-79 33l28 212h248v-82h-174l-12 -85q11 13 31 23t49 10q22 0 45 -7t41.5 -23.5t30 -43t11.5 -65.5q0 -27 -10 -52.5t-29.5 -45.5t-47.5 -32
t-63 -12zM626 680h101l-373 -680h-101zM744 259h-89v68q46 1 78.5 21t34.5 60h75v-408h-99v259zM1097 71q26 0 42.5 18t16.5 43q0 26 -16 41.5t-42 15.5t-42.5 -16t-16.5 -41q0 -24 16 -42.5t42 -18.5z" />
    <glyph glyph-name="fl.sc" horiz-adv-x="1004" 
d="M66 578h396v-112h-272v-131h228v-112h-228v-223h-124v578zM572 578h126v-466h268v-112h-394v578z" />
    <glyph glyph-name="florin.sc" horiz-adv-x="416" 
d="M61 335h75l25 111q9 40 26.5 68t40.5 45.5t50 25.5t56 8q23 0 42.5 -3.5t39.5 -11.5l-19 -93q-14 3 -23 5t-20 2q-28 0 -44.5 -16.5t-26.5 -61.5l-17 -79h91v-97h-112l-53 -244q-15 -69 -59.5 -102.5t-110.5 -33.5q-19 0 -36.5 2t-38.5 10l20 94q12 -3 21 -5t18 -2
q27 0 39.5 14t20.5 49l48 218h-53v97z" />
    <glyph glyph-name="four.denominator" horiz-adv-x="406" 
d="M228 78h-194v78l177 252h105v-256h64v-74h-64v-78h-88v78zM228 152v156l-104 -156h104z" />
    <glyph glyph-name="four.inferior" horiz-adv-x="339" 
d="M189 -19h-161v74l163 202h77v-208h45v-68h-45v-61h-79v61zM189 49v107l-88 -107h88z" />
    <glyph glyph-name="four.numerator" horiz-adv-x="406" 
d="M228 350h-194v78l177 252h105v-256h64v-74h-64v-78h-88v78zM228 424v156l-104 -156h104z" />
    <glyph glyph-name="four.sc" horiz-adv-x="545" 
d="M314 113h-282v108l261 357h139v-361h69v-104h-69v-113h-118v113zM314 217v213l-154 -213h154z" />
    <glyph glyph-name="four.superior" horiz-adv-x="339" 
d="M189 404h-161v74l163 202h77v-208h45v-68h-45v-61h-79v61zM189 472v107l-88 -107h88z" />
    <glyph glyph-name="germandbls.sc" horiz-adv-x="1158" 
d="M299 -10q-49 0 -94.5 11.5t-81.5 36t-60 62t-28 89.5h126q6 -40 39 -64.5t91 -24.5q48 0 82 14t34 48q0 21 -13.5 33.5t-37 21t-53.5 14.5t-63 14q-26 6 -58 16t-60 29t-46.5 50t-18.5 80q0 38 14.5 69.5t42.5 54.5t68.5 36t92.5 13q62 0 106 -18t72.5 -45t42 -58.5
t15.5 -59.5h-127q-7 36 -35.5 53.5t-74.5 17.5q-40 0 -68 -14.5t-28 -43.5q0 -18 9 -28.5t26 -17.5t41.5 -12t54.5 -11t68.5 -16.5t72.5 -31.5t57.5 -55.5t23.5 -87.5q0 -37 -15 -69t-44 -55.5t-72.5 -37t-100.5 -13.5zM878 -10q-49 0 -94.5 11.5t-81.5 36t-60 62t-28 89.5
h126q6 -40 39 -64.5t91 -24.5q48 0 82 14t34 48q0 21 -13.5 33.5t-37 21t-53.5 14.5t-63 14q-26 6 -58 16t-60 29t-46.5 50t-18.5 80q0 38 14.5 69.5t42.5 54.5t68.5 36t92.5 13q62 0 106 -18t72.5 -45t42 -58.5t15.5 -59.5h-127q-7 36 -35.5 53.5t-74.5 17.5
q-40 0 -68 -14.5t-28 -43.5q0 -18 9 -28.5t26 -17.5t41.5 -12t54.5 -11t68.5 -16.5t72.5 -31.5t57.5 -55.5t23.5 -87.5q0 -37 -15 -69t-44 -55.5t-72.5 -37t-100.5 -13.5z" />
    <glyph glyph-name="greater.sc" horiz-adv-x="444" 
d="M37 155l252 106l-252 106v130l370 -175v-123l-370 -176v132z" />
    <glyph glyph-name="hyphen.cap" horiz-adv-x="339" 
d="M39 389h261v-123h-261v123z" />
    <glyph glyph-name="idotaccent" horiz-adv-x="254" 
d="M64 515h126v-515h-126v515zM61 714h132v-125h-132v125z" />
    <glyph glyph-name="less.sc" horiz-adv-x="444" 
d="M37 199v123l370 176v-132l-252 -106l252 -106v-130z" />
    <glyph glyph-name="minus.sc" horiz-adv-x="481" 
d="M38 346h405v-111h-405v111z" />
    <glyph glyph-name="multiply.sc" horiz-adv-x="490" 
d="M44 155l128 130l-128 130l73 73l128 -130l128 130l73 -73l-129 -130l129 -130l-73 -73l-128 129l-128 -129z" />
    <glyph glyph-name="nonbreakingspace" horiz-adv-x="307" 
 />
    <glyph glyph-name="nine.denominator" horiz-adv-x="394" 
d="M179 -7q-63 0 -102 32.5t-47 82.5h91q5 -15 21.5 -25.5t34.5 -10.5q35 0 55 29t18 89q-13 -19 -36.5 -30t-53.5 -11q-22 0 -44.5 8.5t-40.5 24.5t-29.5 40t-11.5 55q0 33 11 59.5t31.5 45t48.5 29t61 10.5q25 0 54 -8.5t54 -31t41.5 -62t16.5 -102.5q0 -103 -42.5 -163.5
t-130.5 -60.5zM187 225q27 0 43 15.5t16 40.5q0 26 -16 43.5t-43 17.5q-26 0 -42 -17.5t-16 -43.5t16 -41t42 -15z" />
    <glyph glyph-name="nine.inferior" horiz-adv-x="330" 
d="M161 -86q-27 0 -49 8t-37.5 21.5t-25.5 31t-13 35.5h82q2 -12 13.5 -19t27.5 -7q31 0 42.5 24t12.5 66q-11 -16 -30 -24t-42 -8q-47 0 -79 28t-32 79q0 27 10 48.5t27 37t40 24t50 8.5q67 0 105 -43t38 -129q0 -82 -34 -131.5t-106 -49.5zM163 109q22 0 35 12t13 31
t-13 31t-35 12q-21 0 -34.5 -12t-13.5 -31t13.5 -31t34.5 -12z" />
    <glyph glyph-name="nine.numerator" horiz-adv-x="394" 
d="M179 265q-63 0 -102 32.5t-47 82.5h91q5 -15 21.5 -25.5t34.5 -10.5q35 0 55 29t18 89q-13 -19 -36.5 -30t-53.5 -11q-22 0 -44.5 8.5t-40.5 24.5t-29.5 40t-11.5 55q0 33 11 59.5t31.5 45t48.5 29t61 10.5q25 0 54 -8.5t54 -31t41.5 -62t16.5 -102.5q-1 -103 -43 -163.5
t-130 -60.5zM187 497q27 0 43 15.5t16 40.5q0 26 -16 43.5t-43 17.5q-26 0 -42 -17.5t-16 -43.5t16 -41t42 -15z" />
    <glyph glyph-name="nine.sc" horiz-adv-x="492" 
d="M236 593q37 0 76 -13t70.5 -45t51.5 -87t20 -140q0 -150 -57 -234t-171 -84q-41 0 -74 12.5t-57.5 34t-40 49.5t-20.5 60h122q6 -21 25.5 -34.5t46.5 -13.5q45 0 72 41.5t27 117.5q-18 -23 -50.5 -36t-61.5 -13q-40 0 -73.5 13t-57.5 37.5t-37.5 58.5t-13.5 76
q0 43 15 80t41.5 63.5t64 41.5t82.5 15zM239 484q-38 0 -60.5 -25.5t-22.5 -61.5t22.5 -61.5t60.5 -25.5t60.5 25.5t22.5 61.5t-22.5 61.5t-60.5 25.5z" />
    <glyph glyph-name="nine.superior" horiz-adv-x="330" 
d="M161 337q-27 0 -49 8t-37.5 21.5t-25.5 31t-13 35.5h82q2 -12 13.5 -19t27.5 -7q31 0 42.5 24t12.5 66q-11 -16 -30 -24t-42 -8q-47 0 -79 28t-32 79q0 27 10 48.5t27 37t40 24t50 8.5q67 0 105 -43t38 -129q0 -82 -34 -131.5t-106 -49.5zM163 532q22 0 35 12t13 31
t-13 31t-35 12q-21 0 -34.5 -12t-13.5 -31t13.5 -31t34.5 -12z" />
    <glyph glyph-name="ninesixteenths" horiz-adv-x="1290" 
d="M179 265q-63 0 -102 32.5t-47 82.5h91q5 -15 21.5 -25.5t34.5 -10.5q35 0 55 29t18 89q-13 -19 -36.5 -30t-53.5 -11q-22 0 -44.5 8.5t-40.5 24.5t-29.5 40t-11.5 55q0 33 11 59.5t31.5 45t48.5 29t61 10.5q25 0 54 -8.5t54 -31t41.5 -62t16.5 -102.5q-1 -103 -43 -163.5
t-130 -60.5zM1100 -7q-25 0 -54 8.5t-53.5 31t-41 62t-16.5 102.5q0 105 46 164.5t128 59.5q62 0 96.5 -30.5t43.5 -82.5h-92q-10 34 -47 34q-29 0 -53 -29.5t-22 -91.5q12 20 36 31.5t56 11.5q22 0 44 -8.5t40 -24.5t29.5 -40t11.5 -55q0 -66 -42.5 -104.5t-109.5 -38.5z
M627 680h101l-373 -680h-101zM745 259h-89v68q46 1 78.5 21t34.5 60h75v-408h-99v259zM1098 71q26 0 42.5 18t16.5 43q0 26 -16 41.5t-42 15.5t-42.5 -16t-16.5 -41q0 -24 16 -42.5t42 -18.5zM187 497q27 0 43 15.5t16 40.5q0 26 -16 43.5t-43 17.5q-26 0 -42 -17.5
t-16 -43.5t16 -41t42 -15z" />
    <glyph glyph-name="numbersign.sc" horiz-adv-x="508" 
d="M97 176h-66l17 107h65l12 88h-68l16 107h66l14 100h98l-13 -100h75l14 100h98l-14 -100h65l-17 -107h-63l-12 -88h67l-16 -107h-66l-14 -104h-98l14 104h-76l-14 -104h-98zM287 283l13 88h-78l-12 -88h77z" />
    <glyph glyph-name="one.denominator" horiz-adv-x="287" 
d="M137 259h-89v68q46 1 78.5 21t34.5 60h75v-408h-99v259z" />
    <glyph glyph-name="one.inferior" horiz-adv-x="261" 
d="M102 126h-64v59q32 2 56 19t29 53h65v-337h-86v206z" />
    <glyph glyph-name="one.numerator" horiz-adv-x="287" 
d="M137 531h-89v68q46 1 78.5 21t34.5 60h75v-408h-99v259z" />
    <glyph glyph-name="one.sc" horiz-adv-x="354" 
d="M140 388h-96v88q23 0 45 6t39.5 18t28.5 31.5t13 46.5h99v-578h-129v388z" />
    <glyph glyph-name="one.superior" horiz-adv-x="261" 
d="M102 549h-64v59q32 2 56 19t29 53h65v-337h-86v206z" />
    <glyph glyph-name="onesixteenth" horiz-adv-x="1223" 
d="M1033 -7q-25 0 -54 8.5t-53.5 31t-41 62t-16.5 102.5q0 105 46 164.5t128 59.5q62 0 96.5 -30.5t43.5 -82.5h-92q-10 34 -47 34q-29 0 -53 -29.5t-22 -91.5q12 20 36 31.5t56 11.5q22 0 44 -8.5t40 -24.5t29.5 -40t11.5 -55q0 -66 -42.5 -104.5t-109.5 -38.5zM560 680
h101l-373 -680h-101zM137 531h-89v68q46 1 78.5 21t34.5 60h75v-408h-99v259zM678 259h-89v68q46 1 78.5 21t34.5 60h75v-408h-99v259zM1031 71q26 0 42.5 18t16.5 43q0 26 -16 41.5t-42 15.5t-42.5 -16t-16.5 -41q0 -24 16 -42.5t42 -18.5z" />
    <glyph glyph-name="ordfeminine.sc" horiz-adv-x="433" 
d="M172 199q-26 0 -51 7t-44 21t-30.5 35.5t-11.5 50.5q0 30 13 50t33.5 33t45.5 19.5t49 9.5q62 8 86 17.5t24 32.5q0 35 -59 35q-29 0 -48.5 -10t-26.5 -33h-100q3 25 16 48t35 40t53 27.5t70 10.5q44 0 75.5 -10.5t51.5 -29t29.5 -43t9.5 -52.5v-170q0 -29 4.5 -48.5
t9.5 -30.5h-104q-4 8 -7 20t-5 35q-17 -29 -43.5 -47t-74.5 -18zM198 280q42 0 65 21t23 55v32q-20 -14 -42.5 -20t-53.5 -11q-22 -4 -34.5 -12.5t-12.5 -26.5q0 -16 11.5 -27t43.5 -11z" />
    <glyph glyph-name="ordmasculine.sc" horiz-adv-x="443" 
d="M221 204q-39 0 -73.5 14.5t-60.5 40.5t-41.5 61.5t-15.5 77.5t15.5 77.5t41.5 62t60.5 41t73.5 14.5t74 -14.5t61 -41t41.5 -62t15.5 -77.5t-15.5 -77.5t-41.5 -61.5t-61 -40.5t-74 -14.5zM221 292q37 0 62 28t25 77q0 51 -25 79t-62 28q-36 0 -61.5 -28t-25.5 -79
q0 -49 25.5 -77t61.5 -28z" />
    <glyph glyph-name="parenleft.cap" horiz-adv-x="322" 
d="M214 -80q-36 34 -67.5 78t-55 95.5t-37 109.5t-13.5 122t13.5 122.5t37 109.5t55 94.5t67.5 78.5h103q-63 -83 -104.5 -185t-41.5 -220t41.5 -219.5t104.5 -185.5h-103v0z" />
    <glyph glyph-name="parenleft.sc" horiz-adv-x="293" 
d="M186 -68q-31 28 -59 64t-49.5 79.5t-34 93t-12.5 105.5t12.5 107t34 95t49.5 80.5t59 64.5h105q-27 -33 -51 -72.5t-41.5 -84t-27.5 -92.5t-10 -98q0 -100 37.5 -187.5t92.5 -154.5h-105v0z" />
    <glyph glyph-name="parenright.cap" horiz-adv-x="322" 
d="M5 -80q63 84 104.5 185.5t41.5 219.5t-41.5 220t-104.5 185h103q36 -35 67.5 -78.5t55 -94.5t37 -109.5t13.5 -122.5t-13.5 -122t-37 -109.5t-55 -95.5t-67.5 -78h-103v0z" />
    <glyph glyph-name="parenright.sc" horiz-adv-x="293" 
d="M2 -68q55 67 92.5 154.5t37.5 187.5q0 50 -10 98t-27.5 92.5t-41.5 84t-51 72.5h105q31 -28 59 -64.5t49.5 -80.5t34 -95t12.5 -107t-12.5 -105.5t-34 -93t-49.5 -79.5t-59 -64h-105z" />
    <glyph glyph-name="percent.sc" horiz-adv-x="721" 
d="M172 291q-33 0 -61 11.5t-48.5 31.5t-32 47t-11.5 58t11.5 58t32 47t48.5 31.5t61 11.5t61 -11.5t48.5 -31.5t32.5 -47t12 -58t-12 -58t-32.5 -47t-48.5 -31.5t-61 -11.5zM550 -10q-33 0 -61 12t-48.5 32t-32.5 47.5t-12 57.5q0 31 12 58t32.5 46.5t48.5 31t61 11.5
q32 0 60 -11.5t48.5 -31t32.5 -46.5t12 -58q0 -30 -12 -57.5t-32.5 -47.5t-48.5 -32t-60 -12zM470 578h95l-313 -578h-95zM172 372q23 0 41.5 16.5t18.5 50.5t-18.5 50t-41.5 16t-42.5 -16t-19.5 -50t19.5 -50.5t42.5 -16.5zM550 72q24 0 42 16.5t18 50.5q0 33 -18 49.5
t-42 16.5q-23 0 -42 -16.5t-19 -49.5q0 -34 19 -50.5t42 -16.5z" />
    <glyph glyph-name="perthousand.sc" horiz-adv-x="1064" 
d="M172 291q-33 0 -61 11.5t-48.5 31.5t-32 47t-11.5 58t11.5 58t32 47t48.5 31.5t61 11.5t61 -11.5t48.5 -31.5t32.5 -47t12 -58t-12 -58t-32.5 -47t-48.5 -31.5t-61 -11.5zM550 -10q-33 0 -61 12t-48.5 32t-32.5 47.5t-12 57.5q0 31 12 58t32.5 46.5t48.5 31t61 11.5
q32 0 60 -11.5t48.5 -31t32.5 -46.5t12 -58q0 -30 -12 -57.5t-32.5 -47.5t-48.5 -32t-60 -12zM892 -10q-33 0 -61 12t-48.5 32t-32.5 47.5t-12 57.5q0 31 12 58t32.5 46.5t48.5 31t61 11.5q32 0 60 -11.5t48.5 -31t32.5 -46.5t12 -58q0 -30 -12 -57.5t-32.5 -47.5t-48.5 -32
t-60 -12zM470 578h95l-313 -578h-95zM172 372q23 0 41.5 16.5t18.5 50.5t-18.5 50t-41.5 16t-42.5 -16t-19.5 -50t19.5 -50.5t42.5 -16.5zM892 72q24 0 42 16.5t18 50.5q0 33 -18 49.5t-42 16.5q-23 0 -42 -16.5t-19 -49.5q0 -34 19 -50.5t42 -16.5zM550 72q24 0 42 16.5
t18 50.5q0 33 -18 49.5t-42 16.5q-23 0 -42 -16.5t-19 -49.5q0 -34 19 -50.5t42 -16.5z" />
    <glyph glyph-name="plus.sc" horiz-adv-x="511" 
d="M198 235h-160v111h160v160h115v-160h160v-111h-160v-161h-115v161z" />
    <glyph glyph-name="question.sc" horiz-adv-x="449" 
d="M150 193q0 35 8.5 59.5t21.5 42.5t29.5 31.5t33.5 25.5q32 23 40.5 40t8.5 37q0 22 -17.5 39.5t-52.5 17.5q-42 0 -64 -25.5t-24 -58.5h-115q0 42 13.5 77.5t39.5 60.5t64 39t86 14q46 0 82 -12.5t61 -34.5t38 -52.5t13 -66.5q0 -46 -19.5 -78t-63.5 -61
q-22 -15 -36.5 -26.5t-23 -22.5t-12 -22t-3.5 -24v-10h-108v10zM141 126h124v-126h-124v126z" />
    <glyph glyph-name="questiondown.sc" horiz-adv-x="459" 
d="M304 385q0 -35 -8.5 -59.5t-21.5 -42.5t-30 -31.5t-33 -25.5q-32 -23 -40.5 -40t-8.5 -37q0 -22 17.5 -39.5t52.5 -17.5q42 0 64 25.5t24 58.5h115q0 -42 -13.5 -77.5t-39.5 -60.5t-64 -39t-86 -14q-46 0 -82 12.5t-61 34.5t-38 52.5t-13 66.5q0 46 19.5 78t63.5 61
q43 29 59 49t16 46v10h108v-10zM313 452h-124v126h124v-126z" />
    <glyph glyph-name="section.sc" horiz-adv-x="453" 
d="M231 -71q-79 0 -129.5 39.5t-58.5 103.5h117q3 -18 18.5 -29.5t48.5 -11.5q28 0 42.5 10.5t14.5 23.5q0 16 -12 27t-57 21q-43 9 -79.5 19t-62.5 25.5t-41 38.5t-15 59q0 38 21.5 62.5t54.5 41.5q-38 36 -38 91q0 28 11 54t32.5 46t54 31.5t74.5 11.5q41 0 73.5 -10.5
t55.5 -29.5t36.5 -44t15.5 -54h-120q-3 16 -17 26t-43 10q-30 0 -43 -10t-13 -24q0 -15 12 -26t53 -21q41 -9 77 -19.5t63 -26.5t43 -40.5t16 -61.5q0 -34 -20.5 -58.5t-55.5 -42.5q18 -17 29 -39.5t11 -50.5q0 -29 -11 -54.5t-32.5 -45t-53 -31t-72.5 -11.5zM214 305
q-27 5 -50 12q-20 -8 -28.5 -19t-8.5 -24q0 -22 24.5 -34t86.5 -23q12 -2 24 -5t23 -8q41 15 41 43q0 23 -25.5 35t-86.5 23z" />
    <glyph glyph-name="seven.denominator" horiz-adv-x="366" 
d="M93 0q-2 56 9 105.5t29.5 90t41.5 71.5t46 51h-185v90h293v-85q-25 -23 -49.5 -55.5t-44 -73t-31 -89t-9.5 -105.5h-100v0z" />
    <glyph glyph-name="seven.inferior" horiz-adv-x="297" 
d="M75 -80q-2 47 7 86t25 71t35.5 57.5t38.5 44.5h-152v78h242v-72q-19 -22 -39 -49t-36 -59.5t-26 -71.5t-9 -85h-86v0z" />
    <glyph glyph-name="seven.numerator" horiz-adv-x="366" 
d="M93 272q-2 56 9 105.5t29.5 90t41.5 71.5t46 51h-185v90h293v-85q-25 -23 -49.5 -55.5t-44 -73t-31 -89t-9.5 -105.5h-100v0z" />
    <glyph glyph-name="seven.sc" horiz-adv-x="464" 
d="M110 0q0 77 15 146.5t41 129t61 108t76 82.5h-280v112h419v-105q-44 -42 -81 -91.5t-64 -108t-42 -126.5t-15 -147h-130v0z" />
    <glyph glyph-name="seven.superior" horiz-adv-x="297" 
d="M75 343q-2 47 7 86t25 71t35.5 57.5t38.5 44.5h-152v78h242v-72q-19 -22 -39 -49t-36 -59.5t-26 -71.5t-9 -85h-86v0z" />
    <glyph glyph-name="sevensixteenths" horiz-adv-x="1242" 
d="M1052 -7q-25 0 -54 8.5t-53.5 31t-41 62t-16.5 102.5q0 105 46 164.5t128 59.5q62 0 96.5 -30.5t43.5 -82.5h-92q-10 34 -47 34q-29 0 -53 -29.5t-22 -91.5q12 20 36 31.5t56 11.5q22 0 44 -8.5t40 -24.5t29.5 -40t11.5 -55q0 -66 -42.5 -104.5t-109.5 -38.5zM579 680
h101l-373 -680h-101zM93 272q-2 56 9 105.5t29.5 90t41.5 71.5t46 51h-185v90h293v-85q-25 -23 -49.5 -55.5t-44 -73t-31 -89t-9.5 -105.5h-100zM697 259h-89v68q46 1 78.5 21t34.5 60h75v-408h-99v259zM1050 71q26 0 42.5 18t16.5 43q0 26 -16 41.5t-42 15.5t-42.5 -16
t-16.5 -41q0 -24 16 -42.5t42 -18.5z" />
    <glyph glyph-name="six.denominator" horiz-adv-x="395" 
d="M205 -7q-25 0 -54 8.5t-53.5 31t-41 62t-16.5 102.5q0 105 46 164.5t128 59.5q62 0 96.5 -30.5t43.5 -82.5h-92q-10 34 -47 34q-29 0 -53 -29.5t-22 -91.5q12 20 36 31.5t56 11.5q22 0 44 -8.5t40 -24.5t29.5 -40t11.5 -55q0 -66 -42.5 -104.5t-109.5 -38.5zM203 71
q26 0 42.5 18t16.5 43q0 26 -16 41.5t-42 15.5t-42.5 -16t-16.5 -41q0 -24 16 -42.5t42 -18.5z" />
    <glyph glyph-name="six.inferior" horiz-adv-x="323" 
d="M170 -86q-68 0 -104.5 44t-36.5 132q0 81 37.5 129t104.5 48q53 0 81 -27t39 -68h-84q-4 11 -13 18t-23 7q-26 0 -42 -23t-14 -66q11 16 29.5 24t41.5 8q46 0 78 -28t32 -79q0 -27 -9.5 -48.5t-26.5 -37.5t-40 -24.5t-50 -8.5zM165 -14q22 0 34.5 12.5t12.5 31.5
t-12.5 31t-33.5 12q-22 0 -35 -12t-13 -31t13 -31.5t34 -12.5z" />
    <glyph glyph-name="six.numerator" horiz-adv-x="395" 
d="M205 265q-25 0 -54 8.5t-53.5 31t-41 62t-16.5 102.5q0 105 46 164.5t128 59.5q62 0 96.5 -30.5t43.5 -82.5h-92q-10 34 -47 34q-29 0 -53 -29.5t-22 -91.5q12 20 36 31.5t56 11.5q22 0 44 -8.5t40 -24.5t29.5 -40t11.5 -55q0 -66 -42.5 -104.5t-109.5 -38.5zM203 343
q26 0 42.5 18t16.5 43q0 26 -16 41.5t-42 15.5t-42.5 -16t-16.5 -41q0 -24 16 -42.5t42 -18.5z" />
    <glyph glyph-name="six.sc" horiz-adv-x="497" 
d="M259 -10q-37 0 -76 12.5t-71.5 45t-53 87.5t-20.5 140q0 150 60.5 234t169.5 84q41 0 73 -12.5t55.5 -33.5t38 -49.5t19.5 -59.5h-124q-6 21 -21.5 34t-42.5 13q-21 0 -39 -12t-30.5 -33t-20 -50.5t-8.5 -63.5q18 23 50.5 36t61.5 13q40 0 73.5 -13t57.5 -37.5
t37.5 -58.5t13.5 -76q0 -44 -15 -80.5t-41.5 -63t-64 -41.5t-82.5 -15zM256 99q38 0 60.5 25.5t22.5 61.5t-22.5 61.5t-60.5 25.5t-60.5 -25.5t-22.5 -61.5t22.5 -61.5t60.5 -25.5z" />
    <glyph glyph-name="six.superior" horiz-adv-x="323" 
d="M170 337q-68 0 -104.5 44t-36.5 132q0 81 37.5 129t104.5 48q53 0 81 -27t39 -68h-84q-4 11 -13 18t-23 7q-26 0 -42 -23t-14 -66q11 16 29.5 24t41.5 8q46 0 78 -28t32 -79q0 -27 -9.5 -48.5t-26.5 -37.5t-40 -24.5t-50 -8.5zM165 409q22 0 34.5 12.5t12.5 31.5
t-12.5 31t-33.5 12q-22 0 -35 -12t-13 -31t13 -31.5t34 -12.5z" />
    <glyph glyph-name="slash.cap" horiz-adv-x="350" 
d="M235 740h118l-228 -800h-118z" />
    <glyph glyph-name="slash.sc" horiz-adv-x="300" 
d="M192 629h116l-188 -680h-116z" />
    <glyph glyph-name="sterling.sc" horiz-adv-x="466" 
d="M31 318h48q-10 19 -17 41.5t-7 52.5q0 42 14.5 75.5t40.5 57t62 36t78 12.5q44 0 79.5 -13.5t61 -38t39.5 -58.5t14 -75h-111q0 32 -21 56t-62 24q-40 0 -59 -22t-19 -54q0 -25 9.5 -46.5t20.5 -47.5h123v-78h-102q1 -7 1.5 -13.5t0.5 -14.5q0 -31 -16 -59t-39 -45
q11 4 23.5 7t26.5 3q18 0 34 -3.5t30 -7.5t26.5 -7.5t24.5 -3.5q21 0 39 7.5t33 19.5l55 -86q-26 -24 -57.5 -35t-60.5 -11q-22 0 -40.5 6t-36.5 12.5t-37.5 12.5t-42.5 6q-28 0 -52 -8t-49 -28l-56 81q44 33 67.5 64.5t23.5 66.5q0 18 -5 36h-85v78z" />
    <glyph glyph-name="thirteensixteenths" horiz-adv-x="1578" 
d="M1388 -7q-25 0 -54 8.5t-53.5 31t-41 62t-16.5 102.5q0 105 46 164.5t128 59.5q62 0 96.5 -30.5t43.5 -82.5h-92q-10 34 -47 34q-29 0 -53 -29.5t-22 -91.5q12 20 36 31.5t56 11.5q22 0 44 -8.5t40 -24.5t29.5 -40t11.5 -55q0 -66 -42.5 -104.5t-109.5 -38.5zM478 265
q-78 0 -121 40t-43 104h95q0 -33 20 -47t49 -14q30 0 44.5 17t14.5 34q0 25 -16.5 35t-30.5 10h-33v78h22q19 0 32 13t13 30q0 15 -11.5 31t-36.5 16q-26 0 -39.5 -15t-13.5 -35h-96q1 26 11.5 50t29.5 42t46.5 29t64.5 11q38 0 64.5 -11t43.5 -28t25 -37.5t8 -40.5
q0 -26 -15.5 -50t-42.5 -36q16 -4 30 -14.5t23.5 -24t15 -28t5.5 -26.5q0 -22 -9 -45.5t-28.5 -43t-49.5 -32t-71 -12.5zM915 680h101l-373 -680h-101zM1033 259h-89v68q46 1 78.5 21t34.5 60h75v-408h-99v259zM137 531h-89v68q46 1 78.5 21t34.5 60h75v-408h-99v259z
M1386 71q26 0 42.5 18t16.5 43q0 26 -16 41.5t-42 15.5t-42.5 -16t-16.5 -41q0 -24 16 -42.5t42 -18.5z" />
    <glyph glyph-name="three.denominator" horiz-adv-x="385" 
d="M191 -7q-78 0 -121 40t-43 104h95q0 -33 20 -47t49 -14q30 0 44.5 17t14.5 34q0 25 -16.5 35t-30.5 10h-33v78h22q19 0 32 13t13 30q0 15 -11.5 31t-36.5 16q-26 0 -39.5 -15t-13.5 -35h-96q1 26 11.5 50t29.5 42t46.5 29t64.5 11q38 0 64.5 -11t43.5 -28t25 -37.5
t8 -40.5q0 -26 -15.5 -50t-42.5 -36q16 -4 30 -14.5t23.5 -24t15 -28t5.5 -26.5q0 -22 -9 -45.5t-28.5 -43t-49.5 -32t-71 -12.5z" />
    <glyph glyph-name="three.inferior" horiz-adv-x="335" 
d="M173 -86q-65 0 -101 37.5t-37 91.5h78q1 -26 15.5 -42t42.5 -16q26 0 38 11.5t12 28.5t-11.5 25t-27.5 8h-31v69h26q14 0 22.5 9.5t8.5 24.5q0 14 -10.5 25.5t-31.5 11.5q-22 0 -33 -15.5t-11 -28.5h-77q0 21 8 41.5t23 36.5t38.5 26t55.5 10q31 0 53.5 -8.5t37.5 -22.5
t22 -31t7 -35q0 -23 -9.5 -42t-38.5 -28q17 -4 28.5 -13t18.5 -20.5t10 -24t3 -22.5q0 -49 -34 -78t-95 -29z" />
    <glyph glyph-name="three.numerator" horiz-adv-x="385" 
d="M191 265q-78 0 -121 40t-43 104h95q0 -33 20 -47t49 -14q30 0 44.5 17t14.5 34q0 25 -16.5 35t-30.5 10h-33v78h22q19 0 32 13t13 30q0 15 -11.5 31t-36.5 16q-26 0 -39.5 -15t-13.5 -35h-96q1 26 11.5 50t29.5 42t46.5 29t64.5 11q38 0 64.5 -11t43.5 -28t25 -37.5
t8 -40.5q0 -26 -15.5 -50t-42.5 -36q16 -4 30 -14.5t23.5 -24t15 -28t5.5 -26.5q0 -22 -9 -45.5t-28.5 -43t-49.5 -32t-71 -12.5z" />
    <glyph glyph-name="three.sc" horiz-adv-x="500" 
d="M250 -10q-55 0 -97 17t-70.5 45.5t-43.5 66.5t-15 81h124q0 -45 27 -72t73 -27q44 0 66.5 20.5t22.5 53.5q0 36 -23.5 54.5t-56.5 18.5h-50v105h39q35 0 53 20t18 45q0 26 -19 46t-54 20q-20 0 -35 -8t-25 -20t-15.5 -27t-5.5 -28h-123q1 37 14.5 72t39.5 61.5t64.5 42.5
t88.5 16q51 0 88 -14.5t60.5 -37t35 -51.5t11.5 -57q0 -38 -20.5 -71t-62.5 -52q26 -6 45.5 -21t33 -34t20.5 -40.5t7 -42.5q0 -32 -13 -64.5t-39 -58.5t-67 -42.5t-96 -16.5z" />
    <glyph glyph-name="three.superior" horiz-adv-x="335" 
d="M173 337q-65 0 -101 37.5t-37 91.5h78q1 -26 15.5 -42t42.5 -16q26 0 38 11.5t12 28.5t-11.5 25t-27.5 8h-31v69h26q14 0 22.5 9.5t8.5 24.5q0 14 -10.5 25.5t-31.5 11.5q-22 0 -33 -15.5t-11 -28.5h-77q0 21 8 41.5t23 36.5t38.5 26t55.5 10q31 0 53.5 -8.5t37.5 -22.5
t22 -31t7 -35q0 -23 -9.5 -42t-38.5 -28q17 -4 28.5 -13t18.5 -20.5t10 -24t3 -22.5q0 -49 -34 -78t-95 -29z" />
    <glyph glyph-name="threesixteenths" horiz-adv-x="1291" 
d="M1101 -7q-25 0 -54 8.5t-53.5 31t-41 62t-16.5 102.5q0 105 46 164.5t128 59.5q62 0 96.5 -30.5t43.5 -82.5h-92q-10 34 -47 34q-29 0 -53 -29.5t-22 -91.5q12 20 36 31.5t56 11.5q22 0 44 -8.5t40 -24.5t29.5 -40t11.5 -55q0 -66 -42.5 -104.5t-109.5 -38.5zM191 265
q-78 0 -121 40t-43 104h95q0 -33 20 -47t49 -14q30 0 44.5 17t14.5 34q0 25 -16.5 35t-30.5 10h-33v78h22q19 0 32 13t13 30q0 15 -11.5 31t-36.5 16q-26 0 -39.5 -15t-13.5 -35h-96q1 26 11.5 50t29.5 42t46.5 29t64.5 11q38 0 64.5 -11t43.5 -28t25 -37.5t8 -40.5
q0 -26 -15.5 -50t-42.5 -36q16 -4 30 -14.5t23.5 -24t15 -28t5.5 -26.5q0 -22 -9 -45.5t-28.5 -43t-49.5 -32t-71 -12.5zM628 680h101l-373 -680h-101zM746 259h-89v68q46 1 78.5 21t34.5 60h75v-408h-99v259zM1099 71q26 0 42.5 18t16.5 43q0 26 -16 41.5t-42 15.5
t-42.5 -16t-16.5 -41q0 -24 16 -42.5t42 -18.5z" />
    <glyph glyph-name="two.denominator" horiz-adv-x="359" 
d="M36 41q0 28 10.5 52.5t27.5 45.5t39 39t46 32q28 17 42.5 30.5t21 24.5t7 19.5t0.5 15.5q0 20 -13.5 30.5t-30.5 10.5q-23 0 -36 -17.5t-13 -37.5h-98q0 25 10.5 49.5t30 43.5t47.5 31t63 12q36 0 62 -10.5t42.5 -27.5t24.5 -39t8 -44q0 -31 -9.5 -54t-26.5 -41.5
t-40.5 -34t-50.5 -31.5q-36 -21 -47 -35t-12 -27h182v-78h-287v41z" />
    <glyph glyph-name="two.inferior" horiz-adv-x="321" 
d="M40 -47q0 26 9 47t23.5 38.5t32.5 31t37 24.5q31 19 43 37t12 32q0 15 -9.5 24.5t-27.5 9.5q-19 0 -29.5 -14.5t-10.5 -28.5h-82q0 23 8 43.5t23 36.5t37.5 25t53.5 9q55 0 88 -28.5t33 -76.5q0 -26 -7.5 -44.5t-21 -33t-32 -26.5t-40.5 -25q-27 -16 -36 -25.5t-11 -18.5
h143v-70h-236v33z" />
    <glyph glyph-name="two.numerator" horiz-adv-x="359" 
d="M36 313q0 28 10.5 53t27.5 46t39 38.5t46 31.5q28 17 42.5 30.5t21 24.5t7 19.5t0.5 15.5q0 20 -13.5 30.5t-30.5 10.5q-23 0 -36 -17.5t-13 -37.5h-98q0 25 10.5 49.5t30 43.5t47.5 31t63 12q36 0 62 -10.5t42.5 -27.5t24.5 -39t8 -44q0 -31 -9.5 -54t-26.5 -41.5
t-40.5 -34t-50.5 -31.5q-36 -21 -47 -35t-12 -27h182v-78h-287v41z" />
    <glyph glyph-name="two.sc" horiz-adv-x="473" 
d="M34 53q0 45 14.5 81.5t38.5 66t55 52.5t64 42q36 21 58 36.5t33 29.5t14.5 28.5t3.5 33.5q0 29 -18.5 46t-47.5 17q-18 0 -31.5 -7t-22.5 -18.5t-14 -25.5t-5 -28h-129q1 36 14.5 69.5t38.5 59.5t61.5 41.5t85.5 15.5q55 0 92.5 -16t60.5 -41.5t33.5 -57t10.5 -62.5
q0 -43 -14 -73.5t-38 -54.5t-56.5 -43.5t-69.5 -41.5q-26 -15 -43.5 -28t-27.5 -24t-14.5 -21.5t-5.5 -21.5h262v-108h-403v53z" />
    <glyph glyph-name="two.superior" horiz-adv-x="321" 
d="M40 376q0 26 9 47t23.5 38.5t32.5 31t37 24.5q31 19 43 37t12 32q0 15 -9.5 24.5t-27.5 9.5q-19 0 -29.5 -14.5t-10.5 -28.5h-82q0 23 8 43.5t23 36.5t37.5 25t53.5 9q55 0 88 -28.5t33 -76.5q0 -26 -7.5 -44.5t-21 -33t-32 -26.5t-40.5 -25q-27 -15 -36 -25t-11 -19h143
v-70h-236v33z" />
    <glyph glyph-name="yen.sc" horiz-adv-x="528" 
d="M55 300h106l-161 278h144l122 -230l120 230h141l-161 -278h107v-80h-145v-47h145v-80h-145v-93h-128v93h-145v80h145v47h-145v80z" />
    <glyph glyph-name="zero.denominator" horiz-adv-x="414" 
d="M207 -7q-80 0 -125.5 56t-45.5 157q0 102 45.5 159t125.5 57q78 0 125 -57t47 -159q0 -101 -47 -157t-125 -56zM207 74q13 0 25.5 6.5t22.5 22t15.5 40.5t5.5 63t-5.5 64t-15.5 41.5t-22.5 22.5t-25.5 7q-30 0 -50 -29.5t-20 -105.5q0 -75 20 -103.5t50 -28.5z" />
    <glyph glyph-name="zero.inferior" horiz-adv-x="340" 
d="M170 -93q-33 0 -59 13.5t-44.5 37.5t-28 56t-9.5 69q0 38 9.5 70.5t28 56.5t44.5 38t59 14t59.5 -14t44.5 -38t28 -56.5t10 -70.5q0 -37 -10 -69t-28 -56t-44.5 -37.5t-59.5 -13.5zM170 -21q26 0 40.5 26.5t14.5 77.5q0 52 -14.5 79.5t-40.5 27.5q-27 0 -41 -27.5
t-14 -79.5q0 -104 55 -104z" />
    <glyph glyph-name="zero.numerator" horiz-adv-x="414" 
d="M207 265q-80 0 -125.5 56t-45.5 157q0 102 45.5 159t125.5 57q78 0 125 -57t47 -159q0 -101 -47 -157t-125 -56zM207 346q13 0 25.5 6.5t22.5 22t15.5 40.5t5.5 63t-5.5 64t-15.5 41.5t-22.5 22.5t-25.5 7q-30 0 -50 -29.5t-20 -105.5q0 -75 20 -103.5t50 -28.5z" />
    <glyph glyph-name="zero.sc" horiz-adv-x="548" 
d="M273 -10q-53 0 -96.5 21.5t-74.5 61t-47.5 95.5t-16.5 124t16.5 123.5t47.5 95t74.5 61t96.5 21.5q52 0 96 -21.5t75 -61t48.5 -95t17.5 -123.5t-17.5 -124t-48.5 -95.5t-75 -61t-96 -21.5zM273 102q22 0 42 10.5t35 33.5t23.5 59t8.5 87t-8.5 87t-23.5 59t-35 34t-42 11
q-46 0 -76.5 -45t-30.5 -146t30.5 -145.5t76.5 -44.5z" />
    <glyph glyph-name="zero.superior" horiz-adv-x="340" 
d="M170 330q-33 0 -59 13.5t-44.5 37.5t-28 56t-9.5 69q0 38 9.5 70.5t28 56.5t44.5 38t59 14t59.5 -14t44.5 -38t28 -56.5t10 -70.5q0 -37 -10 -69t-28 -56t-44.5 -37.5t-59.5 -13.5zM170 402q26 0 40.5 26.5t14.5 77.5q0 52 -14.5 79.5t-40.5 27.5q-27 0 -41 -27.5
t-14 -79.5q0 -104 55 -104z" />
    </font>
</defs>
</svg>
